<?xml version="1.0" encoding="utf-8" standalone="no"?>
<!DOCTYPE svg PUBLIC "-//W3C//DTD SVG 1.1//EN"
  "http://www.w3.org/Graphics/SVG/1.1/DTD/svg11.dtd">
<svg xmlns:xlink="http://www.w3.org/1999/xlink" width="722.222187pt" height="446.582437pt" viewBox="0 0 722.222187 446.582437" xmlns="http://www.w3.org/2000/svg" version="1.1">
 <metadata>
  <rdf:RDF xmlns:dc="http://purl.org/dc/elements/1.1/" xmlns:cc="http://creativecommons.org/ns#" xmlns:rdf="http://www.w3.org/1999/02/22-rdf-syntax-ns#">
   <cc:Work>
    <dc:type rdf:resource="http://purl.org/dc/dcmitype/StillImage"/>
    <dc:date>2022-10-30T22:39:12.699332</dc:date>
    <dc:format>image/svg+xml</dc:format>
    <dc:creator>
     <cc:Agent>
      <dc:title>Matplotlib v3.5.2, https://matplotlib.org/</dc:title>
     </cc:Agent>
    </dc:creator>
   </cc:Work>
  </rdf:RDF>
 </metadata>
 <defs>
  <style type="text/css">*{stroke-linejoin: round; stroke-linecap: butt}</style>
 </defs>
 <g id="figure_1">
  <g id="patch_1">
   <path d="M 0 446.582437 
L 722.222187 446.582437 
L 722.222187 0 
L 0 0 
z
" style="fill: #ffffff"/>
  </g>
  <g id="axes_1">
   <g id="patch_2">
    <path d="M 45.422188 411.76275 
L 715.022187 411.76275 
L 715.022187 23.68275 
L 45.422188 23.68275 
z
" style="fill: #eeeeee"/>
   </g>
   <g id="matplotlib.axis_1">
    <g id="xtick_1">
     <g id="line2d_1">
      <path d="M 58.214282 411.76275 
L 58.214282 23.68275 
" clip-path="url(#p8e0d316498)" style="fill: none; stroke-dasharray: 1.85,0.8; stroke-dashoffset: 0; stroke: #b2b2b2; stroke-width: 0.5"/>
     </g>
     <g id="line2d_2"/>
     <g id="text_1">
      <!-- 0 -->
      <g style="fill: #555555" transform="translate(55.433814 422.420562)scale(0.1 -0.1)">
       <defs>
        <path id="ArialMT-30" d="M 266 2259 
Q 266 3072 433 3567 
Q 600 4063 929 4331 
Q 1259 4600 1759 4600 
Q 2128 4600 2406 4451 
Q 2684 4303 2865 4023 
Q 3047 3744 3150 3342 
Q 3253 2941 3253 2259 
Q 3253 1453 3087 958 
Q 2922 463 2592 192 
Q 2263 -78 1759 -78 
Q 1097 -78 719 397 
Q 266 969 266 2259 
z
M 844 2259 
Q 844 1131 1108 757 
Q 1372 384 1759 384 
Q 2147 384 2411 759 
Q 2675 1134 2675 2259 
Q 2675 3391 2411 3762 
Q 2147 4134 1753 4134 
Q 1366 4134 1134 3806 
Q 844 3388 844 2259 
z
" transform="scale(0.015625)"/>
       </defs>
       <use xlink:href="#ArialMT-30"/>
      </g>
     </g>
    </g>
    <g id="xtick_2">
     <g id="line2d_3">
      <path d="M 146.435626 411.76275 
L 146.435626 23.68275 
" clip-path="url(#p8e0d316498)" style="fill: none; stroke-dasharray: 1.85,0.8; stroke-dashoffset: 0; stroke: #b2b2b2; stroke-width: 0.5"/>
     </g>
     <g id="line2d_4"/>
     <g id="text_2">
      <!-- 10 -->
      <g style="fill: #555555" transform="translate(140.874689 422.420562)scale(0.1 -0.1)">
       <defs>
        <path id="ArialMT-31" d="M 2384 0 
L 1822 0 
L 1822 3584 
Q 1619 3391 1289 3197 
Q 959 3003 697 2906 
L 697 3450 
Q 1169 3672 1522 3987 
Q 1875 4303 2022 4600 
L 2384 4600 
L 2384 0 
z
" transform="scale(0.015625)"/>
       </defs>
       <use xlink:href="#ArialMT-31"/>
       <use xlink:href="#ArialMT-30" x="55.615234"/>
      </g>
     </g>
    </g>
    <g id="xtick_3">
     <g id="line2d_5">
      <path d="M 234.65697 411.76275 
L 234.65697 23.68275 
" clip-path="url(#p8e0d316498)" style="fill: none; stroke-dasharray: 1.85,0.8; stroke-dashoffset: 0; stroke: #b2b2b2; stroke-width: 0.5"/>
     </g>
     <g id="line2d_6"/>
     <g id="text_3">
      <!-- 20 -->
      <g style="fill: #555555" transform="translate(229.096033 422.420562)scale(0.1 -0.1)">
       <defs>
        <path id="ArialMT-32" d="M 3222 541 
L 3222 0 
L 194 0 
Q 188 203 259 391 
Q 375 700 629 1000 
Q 884 1300 1366 1694 
Q 2113 2306 2375 2664 
Q 2638 3022 2638 3341 
Q 2638 3675 2398 3904 
Q 2159 4134 1775 4134 
Q 1369 4134 1125 3890 
Q 881 3647 878 3216 
L 300 3275 
Q 359 3922 746 4261 
Q 1134 4600 1788 4600 
Q 2447 4600 2831 4234 
Q 3216 3869 3216 3328 
Q 3216 3053 3103 2787 
Q 2991 2522 2730 2228 
Q 2469 1934 1863 1422 
Q 1356 997 1212 845 
Q 1069 694 975 541 
L 3222 541 
z
" transform="scale(0.015625)"/>
       </defs>
       <use xlink:href="#ArialMT-32"/>
       <use xlink:href="#ArialMT-30" x="55.615234"/>
      </g>
     </g>
    </g>
    <g id="xtick_4">
     <g id="line2d_7">
      <path d="M 322.878314 411.76275 
L 322.878314 23.68275 
" clip-path="url(#p8e0d316498)" style="fill: none; stroke-dasharray: 1.85,0.8; stroke-dashoffset: 0; stroke: #b2b2b2; stroke-width: 0.5"/>
     </g>
     <g id="line2d_8"/>
     <g id="text_4">
      <!-- 30 -->
      <g style="fill: #555555" transform="translate(317.317376 422.420562)scale(0.1 -0.1)">
       <defs>
        <path id="ArialMT-33" d="M 269 1209 
L 831 1284 
Q 928 806 1161 595 
Q 1394 384 1728 384 
Q 2125 384 2398 659 
Q 2672 934 2672 1341 
Q 2672 1728 2419 1979 
Q 2166 2231 1775 2231 
Q 1616 2231 1378 2169 
L 1441 2663 
Q 1497 2656 1531 2656 
Q 1891 2656 2178 2843 
Q 2466 3031 2466 3422 
Q 2466 3731 2256 3934 
Q 2047 4138 1716 4138 
Q 1388 4138 1169 3931 
Q 950 3725 888 3313 
L 325 3413 
Q 428 3978 793 4289 
Q 1159 4600 1703 4600 
Q 2078 4600 2393 4439 
Q 2709 4278 2876 4000 
Q 3044 3722 3044 3409 
Q 3044 3113 2884 2869 
Q 2725 2625 2413 2481 
Q 2819 2388 3044 2092 
Q 3269 1797 3269 1353 
Q 3269 753 2831 336 
Q 2394 -81 1725 -81 
Q 1122 -81 723 278 
Q 325 638 269 1209 
z
" transform="scale(0.015625)"/>
       </defs>
       <use xlink:href="#ArialMT-33"/>
       <use xlink:href="#ArialMT-30" x="55.615234"/>
      </g>
     </g>
    </g>
    <g id="xtick_5">
     <g id="line2d_9">
      <path d="M 411.099658 411.76275 
L 411.099658 23.68275 
" clip-path="url(#p8e0d316498)" style="fill: none; stroke-dasharray: 1.85,0.8; stroke-dashoffset: 0; stroke: #b2b2b2; stroke-width: 0.5"/>
     </g>
     <g id="line2d_10"/>
     <g id="text_5">
      <!-- 40 -->
      <g style="fill: #555555" transform="translate(405.53872 422.420562)scale(0.1 -0.1)">
       <defs>
        <path id="ArialMT-34" d="M 2069 0 
L 2069 1097 
L 81 1097 
L 81 1613 
L 2172 4581 
L 2631 4581 
L 2631 1613 
L 3250 1613 
L 3250 1097 
L 2631 1097 
L 2631 0 
L 2069 0 
z
M 2069 1613 
L 2069 3678 
L 634 1613 
L 2069 1613 
z
" transform="scale(0.015625)"/>
       </defs>
       <use xlink:href="#ArialMT-34"/>
       <use xlink:href="#ArialMT-30" x="55.615234"/>
      </g>
     </g>
    </g>
    <g id="xtick_6">
     <g id="line2d_11">
      <path d="M 499.321002 411.76275 
L 499.321002 23.68275 
" clip-path="url(#p8e0d316498)" style="fill: none; stroke-dasharray: 1.85,0.8; stroke-dashoffset: 0; stroke: #b2b2b2; stroke-width: 0.5"/>
     </g>
     <g id="line2d_12"/>
     <g id="text_6">
      <!-- 50 -->
      <g style="fill: #555555" transform="translate(493.760064 422.420562)scale(0.1 -0.1)">
       <defs>
        <path id="ArialMT-35" d="M 266 1200 
L 856 1250 
Q 922 819 1161 601 
Q 1400 384 1738 384 
Q 2144 384 2425 690 
Q 2706 997 2706 1503 
Q 2706 1984 2436 2262 
Q 2166 2541 1728 2541 
Q 1456 2541 1237 2417 
Q 1019 2294 894 2097 
L 366 2166 
L 809 4519 
L 3088 4519 
L 3088 3981 
L 1259 3981 
L 1013 2750 
Q 1425 3038 1878 3038 
Q 2478 3038 2890 2622 
Q 3303 2206 3303 1553 
Q 3303 931 2941 478 
Q 2500 -78 1738 -78 
Q 1113 -78 717 272 
Q 322 622 266 1200 
z
" transform="scale(0.015625)"/>
       </defs>
       <use xlink:href="#ArialMT-35"/>
       <use xlink:href="#ArialMT-30" x="55.615234"/>
      </g>
     </g>
    </g>
    <g id="xtick_7">
     <g id="line2d_13">
      <path d="M 587.542346 411.76275 
L 587.542346 23.68275 
" clip-path="url(#p8e0d316498)" style="fill: none; stroke-dasharray: 1.85,0.8; stroke-dashoffset: 0; stroke: #b2b2b2; stroke-width: 0.5"/>
     </g>
     <g id="line2d_14"/>
     <g id="text_7">
      <!-- 60 -->
      <g style="fill: #555555" transform="translate(581.981408 422.420562)scale(0.1 -0.1)">
       <defs>
        <path id="ArialMT-36" d="M 3184 3459 
L 2625 3416 
Q 2550 3747 2413 3897 
Q 2184 4138 1850 4138 
Q 1581 4138 1378 3988 
Q 1113 3794 959 3422 
Q 806 3050 800 2363 
Q 1003 2672 1297 2822 
Q 1591 2972 1913 2972 
Q 2475 2972 2870 2558 
Q 3266 2144 3266 1488 
Q 3266 1056 3080 686 
Q 2894 316 2569 119 
Q 2244 -78 1831 -78 
Q 1128 -78 684 439 
Q 241 956 241 2144 
Q 241 3472 731 4075 
Q 1159 4600 1884 4600 
Q 2425 4600 2770 4297 
Q 3116 3994 3184 3459 
z
M 888 1484 
Q 888 1194 1011 928 
Q 1134 663 1356 523 
Q 1578 384 1822 384 
Q 2178 384 2434 671 
Q 2691 959 2691 1453 
Q 2691 1928 2437 2201 
Q 2184 2475 1800 2475 
Q 1419 2475 1153 2201 
Q 888 1928 888 1484 
z
" transform="scale(0.015625)"/>
       </defs>
       <use xlink:href="#ArialMT-36"/>
       <use xlink:href="#ArialMT-30" x="55.615234"/>
      </g>
     </g>
    </g>
    <g id="xtick_8">
     <g id="line2d_15">
      <path d="M 675.763689 411.76275 
L 675.763689 23.68275 
" clip-path="url(#p8e0d316498)" style="fill: none; stroke-dasharray: 1.85,0.8; stroke-dashoffset: 0; stroke: #b2b2b2; stroke-width: 0.5"/>
     </g>
     <g id="line2d_16"/>
     <g id="text_8">
      <!-- 70 -->
      <g style="fill: #555555" transform="translate(670.202752 422.420562)scale(0.1 -0.1)">
       <defs>
        <path id="ArialMT-37" d="M 303 3981 
L 303 4522 
L 3269 4522 
L 3269 4084 
Q 2831 3619 2401 2847 
Q 1972 2075 1738 1259 
Q 1569 684 1522 0 
L 944 0 
Q 953 541 1156 1306 
Q 1359 2072 1739 2783 
Q 2119 3494 2547 3981 
L 303 3981 
z
" transform="scale(0.015625)"/>
       </defs>
       <use xlink:href="#ArialMT-37"/>
       <use xlink:href="#ArialMT-30" x="55.615234"/>
      </g>
     </g>
    </g>
    <g id="text_9">
     <!-- LapNumber -->
     <g style="fill: #555555" transform="translate(348.874062 436.997437)scale(0.12 -0.12)">
      <defs>
       <path id="ArialMT-4c" d="M 469 0 
L 469 4581 
L 1075 4581 
L 1075 541 
L 3331 541 
L 3331 0 
L 469 0 
z
" transform="scale(0.015625)"/>
       <path id="ArialMT-61" d="M 2588 409 
Q 2275 144 1986 34 
Q 1697 -75 1366 -75 
Q 819 -75 525 192 
Q 231 459 231 875 
Q 231 1119 342 1320 
Q 453 1522 633 1644 
Q 813 1766 1038 1828 
Q 1203 1872 1538 1913 
Q 2219 1994 2541 2106 
Q 2544 2222 2544 2253 
Q 2544 2597 2384 2738 
Q 2169 2928 1744 2928 
Q 1347 2928 1158 2789 
Q 969 2650 878 2297 
L 328 2372 
Q 403 2725 575 2942 
Q 747 3159 1072 3276 
Q 1397 3394 1825 3394 
Q 2250 3394 2515 3294 
Q 2781 3194 2906 3042 
Q 3031 2891 3081 2659 
Q 3109 2516 3109 2141 
L 3109 1391 
Q 3109 606 3145 398 
Q 3181 191 3288 0 
L 2700 0 
Q 2613 175 2588 409 
z
M 2541 1666 
Q 2234 1541 1622 1453 
Q 1275 1403 1131 1340 
Q 988 1278 909 1158 
Q 831 1038 831 891 
Q 831 666 1001 516 
Q 1172 366 1500 366 
Q 1825 366 2078 508 
Q 2331 650 2450 897 
Q 2541 1088 2541 1459 
L 2541 1666 
z
" transform="scale(0.015625)"/>
       <path id="ArialMT-70" d="M 422 -1272 
L 422 3319 
L 934 3319 
L 934 2888 
Q 1116 3141 1344 3267 
Q 1572 3394 1897 3394 
Q 2322 3394 2647 3175 
Q 2972 2956 3137 2557 
Q 3303 2159 3303 1684 
Q 3303 1175 3120 767 
Q 2938 359 2589 142 
Q 2241 -75 1856 -75 
Q 1575 -75 1351 44 
Q 1128 163 984 344 
L 984 -1272 
L 422 -1272 
z
M 931 1641 
Q 931 1000 1190 694 
Q 1450 388 1819 388 
Q 2194 388 2461 705 
Q 2728 1022 2728 1688 
Q 2728 2322 2467 2637 
Q 2206 2953 1844 2953 
Q 1484 2953 1207 2617 
Q 931 2281 931 1641 
z
" transform="scale(0.015625)"/>
       <path id="ArialMT-4e" d="M 488 0 
L 488 4581 
L 1109 4581 
L 3516 984 
L 3516 4581 
L 4097 4581 
L 4097 0 
L 3475 0 
L 1069 3600 
L 1069 0 
L 488 0 
z
" transform="scale(0.015625)"/>
       <path id="ArialMT-75" d="M 2597 0 
L 2597 488 
Q 2209 -75 1544 -75 
Q 1250 -75 995 37 
Q 741 150 617 320 
Q 494 491 444 738 
Q 409 903 409 1263 
L 409 3319 
L 972 3319 
L 972 1478 
Q 972 1038 1006 884 
Q 1059 663 1231 536 
Q 1403 409 1656 409 
Q 1909 409 2131 539 
Q 2353 669 2445 892 
Q 2538 1116 2538 1541 
L 2538 3319 
L 3100 3319 
L 3100 0 
L 2597 0 
z
" transform="scale(0.015625)"/>
       <path id="ArialMT-6d" d="M 422 0 
L 422 3319 
L 925 3319 
L 925 2853 
Q 1081 3097 1340 3245 
Q 1600 3394 1931 3394 
Q 2300 3394 2536 3241 
Q 2772 3088 2869 2813 
Q 3263 3394 3894 3394 
Q 4388 3394 4653 3120 
Q 4919 2847 4919 2278 
L 4919 0 
L 4359 0 
L 4359 2091 
Q 4359 2428 4304 2576 
Q 4250 2725 4106 2815 
Q 3963 2906 3769 2906 
Q 3419 2906 3187 2673 
Q 2956 2441 2956 1928 
L 2956 0 
L 2394 0 
L 2394 2156 
Q 2394 2531 2256 2718 
Q 2119 2906 1806 2906 
Q 1569 2906 1367 2781 
Q 1166 2656 1075 2415 
Q 984 2175 984 1722 
L 984 0 
L 422 0 
z
" transform="scale(0.015625)"/>
       <path id="ArialMT-62" d="M 941 0 
L 419 0 
L 419 4581 
L 981 4581 
L 981 2947 
Q 1338 3394 1891 3394 
Q 2197 3394 2470 3270 
Q 2744 3147 2920 2923 
Q 3097 2700 3197 2384 
Q 3297 2069 3297 1709 
Q 3297 856 2875 390 
Q 2453 -75 1863 -75 
Q 1275 -75 941 416 
L 941 0 
z
M 934 1684 
Q 934 1088 1097 822 
Q 1363 388 1816 388 
Q 2184 388 2453 708 
Q 2722 1028 2722 1663 
Q 2722 2313 2464 2622 
Q 2206 2931 1841 2931 
Q 1472 2931 1203 2611 
Q 934 2291 934 1684 
z
" transform="scale(0.015625)"/>
       <path id="ArialMT-65" d="M 2694 1069 
L 3275 997 
Q 3138 488 2766 206 
Q 2394 -75 1816 -75 
Q 1088 -75 661 373 
Q 234 822 234 1631 
Q 234 2469 665 2931 
Q 1097 3394 1784 3394 
Q 2450 3394 2872 2941 
Q 3294 2488 3294 1666 
Q 3294 1616 3291 1516 
L 816 1516 
Q 847 969 1125 678 
Q 1403 388 1819 388 
Q 2128 388 2347 550 
Q 2566 713 2694 1069 
z
M 847 1978 
L 2700 1978 
Q 2663 2397 2488 2606 
Q 2219 2931 1791 2931 
Q 1403 2931 1139 2672 
Q 875 2413 847 1978 
z
" transform="scale(0.015625)"/>
       <path id="ArialMT-72" d="M 416 0 
L 416 3319 
L 922 3319 
L 922 2816 
Q 1116 3169 1280 3281 
Q 1444 3394 1641 3394 
Q 1925 3394 2219 3213 
L 2025 2691 
Q 1819 2813 1613 2813 
Q 1428 2813 1281 2702 
Q 1134 2591 1072 2394 
Q 978 2094 978 1738 
L 978 0 
L 416 0 
z
" transform="scale(0.015625)"/>
      </defs>
      <use xlink:href="#ArialMT-4c"/>
      <use xlink:href="#ArialMT-61" x="55.615234"/>
      <use xlink:href="#ArialMT-70" x="111.230469"/>
      <use xlink:href="#ArialMT-4e" x="166.845703"/>
      <use xlink:href="#ArialMT-75" x="239.0625"/>
      <use xlink:href="#ArialMT-6d" x="294.677734"/>
      <use xlink:href="#ArialMT-62" x="377.978516"/>
      <use xlink:href="#ArialMT-65" x="433.59375"/>
      <use xlink:href="#ArialMT-72" x="489.208984"/>
     </g>
    </g>
   </g>
   <g id="matplotlib.axis_2">
    <g id="ytick_1">
     <g id="line2d_17">
      <path d="M 45.422188 373.469014 
L 715.022187 373.469014 
" clip-path="url(#p8e0d316498)" style="fill: none; stroke-dasharray: 1.85,0.8; stroke-dashoffset: 0; stroke: #b2b2b2; stroke-width: 0.5"/>
     </g>
     <g id="line2d_18"/>
     <g id="text_10">
      <!-- 82.5 -->
      <g style="fill: #555555" transform="translate(22.46125 377.04792)scale(0.1 -0.1)">
       <defs>
        <path id="ArialMT-38" d="M 1131 2484 
Q 781 2613 612 2850 
Q 444 3088 444 3419 
Q 444 3919 803 4259 
Q 1163 4600 1759 4600 
Q 2359 4600 2725 4251 
Q 3091 3903 3091 3403 
Q 3091 3084 2923 2848 
Q 2756 2613 2416 2484 
Q 2838 2347 3058 2040 
Q 3278 1734 3278 1309 
Q 3278 722 2862 322 
Q 2447 -78 1769 -78 
Q 1091 -78 675 323 
Q 259 725 259 1325 
Q 259 1772 486 2073 
Q 713 2375 1131 2484 
z
M 1019 3438 
Q 1019 3113 1228 2906 
Q 1438 2700 1772 2700 
Q 2097 2700 2305 2904 
Q 2513 3109 2513 3406 
Q 2513 3716 2298 3927 
Q 2084 4138 1766 4138 
Q 1444 4138 1231 3931 
Q 1019 3725 1019 3438 
z
M 838 1322 
Q 838 1081 952 856 
Q 1066 631 1291 507 
Q 1516 384 1775 384 
Q 2178 384 2440 643 
Q 2703 903 2703 1303 
Q 2703 1709 2433 1975 
Q 2163 2241 1756 2241 
Q 1359 2241 1098 1978 
Q 838 1716 838 1322 
z
" transform="scale(0.015625)"/>
        <path id="ArialMT-2e" d="M 581 0 
L 581 641 
L 1222 641 
L 1222 0 
L 581 0 
z
" transform="scale(0.015625)"/>
       </defs>
       <use xlink:href="#ArialMT-38"/>
       <use xlink:href="#ArialMT-32" x="55.615234"/>
       <use xlink:href="#ArialMT-2e" x="111.230469"/>
       <use xlink:href="#ArialMT-35" x="139.013672"/>
      </g>
     </g>
    </g>
    <g id="ytick_2">
     <g id="line2d_19">
      <path d="M 45.422188 327.263789 
L 715.022187 327.263789 
" clip-path="url(#p8e0d316498)" style="fill: none; stroke-dasharray: 1.85,0.8; stroke-dashoffset: 0; stroke: #b2b2b2; stroke-width: 0.5"/>
     </g>
     <g id="line2d_20"/>
     <g id="text_11">
      <!-- 83.0 -->
      <g style="fill: #555555" transform="translate(22.46125 330.842695)scale(0.1 -0.1)">
       <use xlink:href="#ArialMT-38"/>
       <use xlink:href="#ArialMT-33" x="55.615234"/>
       <use xlink:href="#ArialMT-2e" x="111.230469"/>
       <use xlink:href="#ArialMT-30" x="139.013672"/>
      </g>
     </g>
    </g>
    <g id="ytick_3">
     <g id="line2d_21">
      <path d="M 45.422188 281.058563 
L 715.022187 281.058563 
" clip-path="url(#p8e0d316498)" style="fill: none; stroke-dasharray: 1.85,0.8; stroke-dashoffset: 0; stroke: #b2b2b2; stroke-width: 0.5"/>
     </g>
     <g id="line2d_22"/>
     <g id="text_12">
      <!-- 83.5 -->
      <g style="fill: #555555" transform="translate(22.46125 284.637469)scale(0.1 -0.1)">
       <use xlink:href="#ArialMT-38"/>
       <use xlink:href="#ArialMT-33" x="55.615234"/>
       <use xlink:href="#ArialMT-2e" x="111.230469"/>
       <use xlink:href="#ArialMT-35" x="139.013672"/>
      </g>
     </g>
    </g>
    <g id="ytick_4">
     <g id="line2d_23">
      <path d="M 45.422188 234.853337 
L 715.022187 234.853337 
" clip-path="url(#p8e0d316498)" style="fill: none; stroke-dasharray: 1.85,0.8; stroke-dashoffset: 0; stroke: #b2b2b2; stroke-width: 0.5"/>
     </g>
     <g id="line2d_24"/>
     <g id="text_13">
      <!-- 84.0 -->
      <g style="fill: #555555" transform="translate(22.46125 238.432244)scale(0.1 -0.1)">
       <use xlink:href="#ArialMT-38"/>
       <use xlink:href="#ArialMT-34" x="55.615234"/>
       <use xlink:href="#ArialMT-2e" x="111.230469"/>
       <use xlink:href="#ArialMT-30" x="139.013672"/>
      </g>
     </g>
    </g>
    <g id="ytick_5">
     <g id="line2d_25">
      <path d="M 45.422188 188.648112 
L 715.022187 188.648112 
" clip-path="url(#p8e0d316498)" style="fill: none; stroke-dasharray: 1.85,0.8; stroke-dashoffset: 0; stroke: #b2b2b2; stroke-width: 0.5"/>
     </g>
     <g id="line2d_26"/>
     <g id="text_14">
      <!-- 84.5 -->
      <g style="fill: #555555" transform="translate(22.46125 192.227018)scale(0.1 -0.1)">
       <use xlink:href="#ArialMT-38"/>
       <use xlink:href="#ArialMT-34" x="55.615234"/>
       <use xlink:href="#ArialMT-2e" x="111.230469"/>
       <use xlink:href="#ArialMT-35" x="139.013672"/>
      </g>
     </g>
    </g>
    <g id="ytick_6">
     <g id="line2d_27">
      <path d="M 45.422188 142.442886 
L 715.022187 142.442886 
" clip-path="url(#p8e0d316498)" style="fill: none; stroke-dasharray: 1.85,0.8; stroke-dashoffset: 0; stroke: #b2b2b2; stroke-width: 0.5"/>
     </g>
     <g id="line2d_28"/>
     <g id="text_15">
      <!-- 85.0 -->
      <g style="fill: #555555" transform="translate(22.46125 146.021792)scale(0.1 -0.1)">
       <use xlink:href="#ArialMT-38"/>
       <use xlink:href="#ArialMT-35" x="55.615234"/>
       <use xlink:href="#ArialMT-2e" x="111.230469"/>
       <use xlink:href="#ArialMT-30" x="139.013672"/>
      </g>
     </g>
    </g>
    <g id="ytick_7">
     <g id="line2d_29">
      <path d="M 45.422188 96.237661 
L 715.022187 96.237661 
" clip-path="url(#p8e0d316498)" style="fill: none; stroke-dasharray: 1.85,0.8; stroke-dashoffset: 0; stroke: #b2b2b2; stroke-width: 0.5"/>
     </g>
     <g id="line2d_30"/>
     <g id="text_16">
      <!-- 85.5 -->
      <g style="fill: #555555" transform="translate(22.46125 99.816567)scale(0.1 -0.1)">
       <use xlink:href="#ArialMT-38"/>
       <use xlink:href="#ArialMT-35" x="55.615234"/>
       <use xlink:href="#ArialMT-2e" x="111.230469"/>
       <use xlink:href="#ArialMT-35" x="139.013672"/>
      </g>
     </g>
    </g>
    <g id="ytick_8">
     <g id="line2d_31">
      <path d="M 45.422188 50.032435 
L 715.022187 50.032435 
" clip-path="url(#p8e0d316498)" style="fill: none; stroke-dasharray: 1.85,0.8; stroke-dashoffset: 0; stroke: #b2b2b2; stroke-width: 0.5"/>
     </g>
     <g id="line2d_32"/>
     <g id="text_17">
      <!-- 86.0 -->
      <g style="fill: #555555" transform="translate(22.46125 53.611341)scale(0.1 -0.1)">
       <use xlink:href="#ArialMT-38"/>
       <use xlink:href="#ArialMT-36" x="55.615234"/>
       <use xlink:href="#ArialMT-2e" x="111.230469"/>
       <use xlink:href="#ArialMT-30" x="139.013672"/>
      </g>
     </g>
    </g>
    <g id="text_18">
     <!-- LapTime (s) -->
     <g style="fill: #555555" transform="translate(15.935625 249.502125)rotate(-90)scale(0.12 -0.12)">
      <defs>
       <path id="ArialMT-54" d="M 1659 0 
L 1659 4041 
L 150 4041 
L 150 4581 
L 3781 4581 
L 3781 4041 
L 2266 4041 
L 2266 0 
L 1659 0 
z
" transform="scale(0.015625)"/>
       <path id="ArialMT-69" d="M 425 3934 
L 425 4581 
L 988 4581 
L 988 3934 
L 425 3934 
z
M 425 0 
L 425 3319 
L 988 3319 
L 988 0 
L 425 0 
z
" transform="scale(0.015625)"/>
       <path id="ArialMT-20" transform="scale(0.015625)"/>
       <path id="ArialMT-28" d="M 1497 -1347 
Q 1031 -759 709 28 
Q 388 816 388 1659 
Q 388 2403 628 3084 
Q 909 3875 1497 4659 
L 1900 4659 
Q 1522 4009 1400 3731 
Q 1209 3300 1100 2831 
Q 966 2247 966 1656 
Q 966 153 1900 -1347 
L 1497 -1347 
z
" transform="scale(0.015625)"/>
       <path id="ArialMT-73" d="M 197 991 
L 753 1078 
Q 800 744 1014 566 
Q 1228 388 1613 388 
Q 2000 388 2187 545 
Q 2375 703 2375 916 
Q 2375 1106 2209 1216 
Q 2094 1291 1634 1406 
Q 1016 1563 777 1677 
Q 538 1791 414 1992 
Q 291 2194 291 2438 
Q 291 2659 392 2848 
Q 494 3038 669 3163 
Q 800 3259 1026 3326 
Q 1253 3394 1513 3394 
Q 1903 3394 2198 3281 
Q 2494 3169 2634 2976 
Q 2775 2784 2828 2463 
L 2278 2388 
Q 2241 2644 2061 2787 
Q 1881 2931 1553 2931 
Q 1166 2931 1000 2803 
Q 834 2675 834 2503 
Q 834 2394 903 2306 
Q 972 2216 1119 2156 
Q 1203 2125 1616 2013 
Q 2213 1853 2448 1751 
Q 2684 1650 2818 1456 
Q 2953 1263 2953 975 
Q 2953 694 2789 445 
Q 2625 197 2315 61 
Q 2006 -75 1616 -75 
Q 969 -75 630 194 
Q 291 463 197 991 
z
" transform="scale(0.015625)"/>
       <path id="ArialMT-29" d="M 791 -1347 
L 388 -1347 
Q 1322 153 1322 1656 
Q 1322 2244 1188 2822 
Q 1081 3291 891 3722 
Q 769 4003 388 4659 
L 791 4659 
Q 1378 3875 1659 3084 
Q 1900 2403 1900 1659 
Q 1900 816 1576 28 
Q 1253 -759 791 -1347 
z
" transform="scale(0.015625)"/>
      </defs>
      <use xlink:href="#ArialMT-4c"/>
      <use xlink:href="#ArialMT-61" x="55.615234"/>
      <use xlink:href="#ArialMT-70" x="111.230469"/>
      <use xlink:href="#ArialMT-54" x="166.845703"/>
      <use xlink:href="#ArialMT-69" x="224.179688"/>
      <use xlink:href="#ArialMT-6d" x="246.396484"/>
      <use xlink:href="#ArialMT-65" x="329.697266"/>
      <use xlink:href="#ArialMT-20" x="385.3125"/>
      <use xlink:href="#ArialMT-28" x="413.095703"/>
      <use xlink:href="#ArialMT-73" x="446.396484"/>
      <use xlink:href="#ArialMT-29" x="496.396484"/>
     </g>
    </g>
   </g>
   <g id="line2d_33">
    <path d="M 75.858551 304.438407 
L 84.680686 312.200885 
L 93.50282 299.787081 
L 102.324954 301.435067 
L 111.147089 301.167077 
L 119.969223 303.745329 
L 128.791357 303.250273 
L 137.613492 303.410341 
L 146.435626 303.421892 
L 155.257761 304.29055 
L 164.079895 305.870769 
L 172.902029 305.593538 
L 181.724164 310.306471 
L 190.546298 312.662937 
L 199.368433 314.677485 
L 208.190567 314.252397 
L 217.012701 314.289361 
L 225.834836 312.570527 
L 234.65697 308.717011 
L 243.479104 307.506434 
L 252.301239 302.69185 
L 261.123373 297.646239 
L 269.945508 290.207198 
L 296.411911 294.615176 
L 305.234045 299.568376 
L 314.05618 305.935456 
L 322.878314 315.167261 
L 331.700448 325.027456 
L 340.522583 338.962952 
L 349.344717 348.009935 
L 358.166852 361.030567 
L 366.988986 375.825481 
L 375.81112 392.597978 
L 384.633255 394.12275 
L 393.455389 392.782798 
L 402.277523 393.614493 
L 419.921792 392.256059 
L 428.743927 391.331954 
L 437.566061 389.123345 
L 446.388195 389.409817 
L 455.21033 387.210448 
L 464.032464 382.460551 
L 472.854599 378.56083 
L 481.676733 374.827448 
L 490.498867 376.130435 
L 499.321002 374.337672 
L 508.143136 375.520526 
L 516.965271 375.224813 
L 525.787405 374.328431 
L 534.609539 372.202991 
L 543.431674 368.876215 
L 552.253808 373.154819 
L 561.075942 373.552184 
L 569.898077 377.433423 
L 578.720211 378.505384 
L 587.542346 377.377976 
L 596.36448 376.5278 
L 605.186614 376.407667 
L 614.008749 374.393119 
L 622.830883 374.753519 
L 649.297286 379.226185 
L 658.119421 375.123161 
L 666.941555 371.713216 
L 675.763689 368.312511 
L 684.585824 363.79364 
" clip-path="url(#p8e0d316498)" style="fill: none; stroke: #0600ef; stroke-width: 2; stroke-linecap: round"/>
   </g>
   <g id="line2d_34">
    <path d="M 75.858551 358.110397 
L 84.680686 350.135375 
L 93.50282 341.846158 
L 102.324954 338.676479 
L 111.147089 331.819624 
L 119.969223 322.58782 
L 128.791357 313.439185 
L 137.613492 310.056963 
L 146.435626 304.743362 
L 155.257761 301.009979 
L 164.079895 303.468097 
L 172.902029 305.52885 
L 181.724164 308.550672 
L 190.546298 307.931522 
L 208.190567 306.157242 
L 217.012701 304.928183 
L 225.834836 306.868802 
L 234.65697 303.745329 
L 243.479104 303.05225 
L 252.301239 301.435067 
L 261.123373 297.442936 
L 269.945508 291.898309 
L 278.767642 286.852698 
L 287.589776 285.217033 
L 296.411911 285.80846 
L 305.234045 287.407161 
L 331.700448 295.114193 
L 340.522583 308.384333 
L 349.344717 316.812167 
L 358.166852 326.681603 
L 366.988986 335.312739 
L 375.81112 345.976905 
L 384.633255 357.269462 
L 393.455389 362.786366 
L 402.277523 366.205553 
L 411.099658 367.831977 
L 419.921792 362.795607 
L 428.743927 362.315073 
L 437.566061 360.956639 
L 446.388195 359.672134 
L 455.21033 359.163876 
L 464.032464 356.641071 
L 472.854599 356.585625 
L 481.676733 358.720306 
L 490.498867 365.373859 
L 499.321002 369.781837 
L 508.143136 369.393713 
L 516.965271 364.283415 
L 525.787405 363.544132 
L 534.609539 360.411417 
L 543.431674 357.047677 
L 552.253808 355.060852 
L 561.075942 354.524872 
L 569.898077 353.591526 
L 578.720211 347.695739 
L 587.542346 342.871914 
L 596.36448 348.453505 
L 605.186614 351.004033 
L 614.008749 353.517598 
L 622.830883 358.766511 
L 649.297286 363.516409 
L 658.119421 367.77653 
L 666.941555 361.501861 
L 675.763689 359.20084 
L 684.585824 354.69121 
" clip-path="url(#p8e0d316498)" style="fill: none; stroke: #00d2be; stroke-width: 2; stroke-linecap: round"/>
   </g>
   <g id="line2d_35">
    <path d="M 75.858551 351.863451 
L 84.680686 343.869947 
L 93.50282 336.329254 
L 102.324954 328.409678 
L 111.147089 319.658408 
L 119.969223 310.796246 
L 128.791357 303.736088 
L 137.613492 300.122839 
L 146.435626 291.510185 
L 155.257761 291.621078 
L 164.079895 287.166894 
L 172.902029 288.469881 
L 181.724164 287.628946 
L 190.546298 289.846797 
L 199.368433 289.800592 
L 208.190567 288.127962 
L 217.012701 286.085692 
L 225.834836 286.131897 
L 234.65697 288.580774 
L 243.479104 287.739839 
L 252.301239 290.992686 
L 278.767642 302.146628 
L 287.589776 290.512152 
L 296.411911 297.350526 
L 305.234045 307.497193 
L 314.05618 305.390235 
L 322.878314 321.312556 
L 331.700448 328.492848 
L 340.522583 343.980839 
L 349.344717 353.443669 
L 358.166852 365.438546 
L 366.988986 362.832571 
L 375.81112 384.900187 
L 384.633255 384.465858 
L 393.455389 376.786549 
L 402.277523 387.275136 
L 411.099658 374.651868 
L 419.921792 368.321752 
L 428.743927 361.390968 
L 437.566061 360.494587 
L 446.388195 361.307799 
L 455.21033 358.239772 
L 464.032464 353.046304 
L 472.854599 349.774974 
L 481.676733 356.465491 
L 490.498867 360.448382 
L 499.321002 365.872875 
L 508.143136 368.220101 
L 516.965271 366.787739 
L 525.787405 366.565953 
L 534.609539 360.827264 
L 543.431674 355.347325 
L 552.253808 357.241739 
L 561.075942 357.149328 
L 569.898077 352.593493 
L 578.720211 344.526061 
L 587.542346 333.926582 
L 596.36448 336.079746 
L 605.186614 330.507395 
L 614.008749 326.007006 
L 622.830883 325.572677 
L 649.297286 330.525877 
L 658.119421 332.420292 
L 666.941555 331.902793 
L 675.763689 334.684348 
L 684.585824 338.547105 
" clip-path="url(#p8e0d316498)" style="fill: none; stroke: #0600ef; stroke-width: 2; stroke-linecap: round"/>
   </g>
   <g id="line2d_36">
    <path d="M 75.858551 338.001883 
L 84.680686 331.514669 
L 93.50282 329.472398 
L 102.324954 327.430127 
L 111.147089 320.952155 
L 119.969223 315.832616 
L 128.791357 305.113003 
L 137.613492 296.463385 
L 146.435626 287.259304 
L 155.257761 281.529856 
L 164.079895 284.671812 
L 172.902029 288.211132 
L 181.724164 289.467914 
L 190.546298 289.717422 
L 199.368433 293.358394 
L 208.190567 291.094338 
L 217.012701 292.61911 
L 225.834836 294.439596 
L 234.65697 292.979511 
L 243.479104 292.166299 
L 252.301239 288.941174 
L 261.123373 285.900871 
L 269.945508 285.466542 
L 278.767642 283.06387 
L 287.589776 282.398515 
L 296.411911 284.542437 
L 305.234045 286.982073 
L 314.05618 291.815139 
L 331.700448 297.258115 
L 340.522583 298.551861 
L 349.344717 303.172384 
L 375.81112 318.383144 
L 384.633255 329.583291 
L 393.455389 337.512108 
L 402.277523 339.443486 
L 411.099658 338.445453 
L 419.921792 340.238216 
L 428.743927 341.541203 
L 437.566061 346.475921 
L 446.388195 354.876031 
L 455.21033 362.740161 
L 464.032464 357.380355 
L 472.854599 356.262188 
L 481.676733 358.008746 
L 490.498867 357.445042 
L 499.321002 367.563986 
L 508.143136 369.19041 
L 516.965271 373.228747 
L 525.787405 375.686865 
L 534.609539 374.106646 
L 543.431674 373.182542 
L 552.253808 370.595049 
L 561.075942 367.083452 
L 569.898077 360.882711 
L 578.720211 362.592304 
L 587.542346 356.474732 
L 596.36448 350.375642 
L 605.186614 343.971598 
L 614.008749 339.286388 
L 622.830883 340.617099 
L 649.297286 342.899637 
L 658.119421 345.209898 
L 684.585824 344.626686 
" clip-path="url(#p8e0d316498)" style="fill: none; stroke: #00d2be; stroke-width: 2; stroke-linecap: round"/>
   </g>
   <g id="line2d_37">
    <path d="M 75.858551 334.666892 
L 84.680686 324.666028 
L 93.50282 314.675432 
L 102.324954 310.00357 
L 111.147089 301.275916 
L 119.969223 290.76166 
L 128.791357 272.628676 
L 137.613492 254.187657 
L 146.435626 242.174299 
L 155.257761 243.059385 
L 164.079895 241.469926 
L 172.902029 238.207837 
L 181.724164 239.316762 
L 190.546298 240.259349 
L 199.368433 241.42372 
L 208.190567 239.058013 
L 217.012701 241.15573 
L 225.834836 241.691711 
L 234.65697 238.429622 
L 243.479104 233.688966 
L 252.301239 232.349014 
L 261.123373 229.604424 
L 269.945508 224.161448 
L 278.767642 216.186426 
L 287.589776 203.443025 
L 296.411911 200.014597 
L 305.234045 196.207287 
L 331.700448 201.049594 
L 340.522583 218.51517 
L 349.344717 229.992548 
L 358.166852 248.308299 
L 366.988986 261.57844 
L 375.81112 274.053851 
L 384.633255 285.106141 
L 393.455389 308.809421 
L 402.277523 318.771268 
L 411.099658 326.274997 
L 419.921792 326.792495 
L 428.743927 314.169228 
L 437.566061 314.492664 
L 446.388195 310.592943 
L 455.21033 318.512519 
L 464.032464 320.887467 
L 472.854599 327.956867 
L 481.676733 327.467092 
L 490.498867 334.046716 
L 499.321002 340.71875 
L 508.143136 343.065976 
L 516.965271 344.858738 
L 525.787405 343.10294 
L 534.609539 340.71875 
L 543.431674 333.002478 
L 552.253808 329.49088 
L 561.075942 325.498749 
L 569.898077 321.497376 
L 578.720211 315.065609 
L 587.542346 309.5025 
L 596.36448 307.580362 
L 605.186614 309.59491 
L 614.008749 310.83321 
L 622.830883 310.546738 
L 640.475152 311.997582 
L 649.297286 312.025305 
L 658.119421 311.858966 
L 666.941555 310.870175 
L 675.763689 306.933489 
L 684.585824 304.281309 
" clip-path="url(#p8e0d316498)" style="fill: none; stroke: #dc0000; stroke-width: 2; stroke-linecap: round"/>
   </g>
   <g id="line2d_38">
    <path d="M 75.858551 292.018442 
L 84.680686 285.910112 
L 93.50282 279.062497 
L 102.324954 270.745557 
L 119.969223 260.589648 
L 128.791357 249.694456 
L 137.613492 239.436896 
L 146.435626 233.504145 
L 155.257761 228.957551 
L 164.079895 224.780598 
L 172.902029 233.02361 
L 181.724164 231.572766 
L 190.546298 229.271746 
L 199.368433 224.290823 
L 208.190567 222.424132 
L 217.012701 223.089487 
L 225.834836 222.553506 
L 234.65697 218.478205 
L 243.479104 215.151429 
L 252.301239 213.238533 
L 261.123373 207.019309 
L 269.945508 199.589509 
L 278.767642 192.492387 
L 287.589776 188.611148 
L 296.411911 179.730503 
L 322.878314 186.735215 
L 331.700448 200.74464 
L 340.522583 211.880099 
L 349.344717 225.667739 
L 358.166852 239.344485 
L 366.988986 251.745968 
L 375.81112 268.888107 
L 384.633255 282.999182 
L 393.455389 299.078601 
L 402.277523 315.231948 
L 411.099658 319.954122 
L 419.921792 316.368596 
L 428.743927 315.158019 
L 437.566061 316.451766 
L 446.388195 318.207564 
L 455.21033 321.913223 
L 464.032464 322.051839 
L 472.854599 328.677668 
L 481.676733 334.730553 
L 490.498867 340.80192 
L 499.321002 340.709509 
L 508.143136 342.317451 
L 516.965271 342.335933 
L 525.787405 341.227008 
L 534.609539 337.428938 
L 543.431674 335.377426 
L 552.253808 332.910067 
L 561.075942 329.620255 
L 569.898077 319.131669 
L 578.720211 312.404188 
L 587.542346 309.040448 
L 596.36448 305.565815 
L 605.186614 304.142694 
L 614.008749 297.221151 
L 622.830883 291.269918 
L 640.475152 287.832249 
L 649.297286 281.47441 
L 658.119421 276.632102 
L 666.941555 275.421525 
L 675.763689 272.54756 
L 684.585824 249.186198 
" clip-path="url(#p8e0d316498)" style="fill: none; stroke: #dc0000; stroke-width: 2; stroke-linecap: round"/>
   </g>
   <g id="line2d_39">
    <path d="M 75.858551 224.512608 
L 84.680686 198.369691 
L 93.50282 183.001833 
L 102.324954 173.964091 
L 111.147089 162.070866 
L 119.969223 146.259438 
L 128.791357 131.797202 
L 137.613492 125.707353 
L 146.435626 117.695367 
L 164.079895 127.999133 
L 172.902029 143.135965 
L 181.724164 158.614715 
L 190.546298 166.321747 
L 199.368433 166.395675 
L 208.190567 165.970587 
L 217.012701 172.300703 
L 225.834836 174.971365 
L 234.65697 173.502039 
L 243.479104 173.659137 
L 252.301239 173.797752 
L 261.123373 171.598384 
L 269.945508 167.652457 
L 278.767642 166.183131 
L 287.589776 165.480812 
L 296.411911 166.820763 
L 305.234045 166.820763 
L 314.05618 165.600945 
L 322.878314 165.074206 
L 331.700448 157.838467 
L 340.522583 159.7144 
L 349.344717 160.019354 
L 358.166852 164.168583 
L 366.988986 169.029373 
L 375.81112 172.550211 
L 384.633255 174.416902 
L 393.455389 178.584614 
L 402.277523 181.246035 
L 411.099658 183.158931 
L 419.921792 191.697657 
L 428.743927 187.456017 
L 437.566061 186.762939 
L 464.032464 207.472121 
L 472.854599 226.665771 
L 481.676733 248.714905 
L 490.498867 259.240455 
L 499.321002 241.2389 
L 508.143136 238.873192 
L 516.965271 254.76779 
L 525.787405 271.272296 
L 534.609539 291.140543 
L 543.431674 307.238444 
L 552.253808 296.186154 
L 561.075942 292.5267 
L 569.898077 283.341101 
L 578.720211 280.85526 
L 587.542346 298.838334 
L 596.36448 318.087431 
L 605.186614 318.798991 
L 614.008749 318.678858 
L 640.475152 320.2868 
L 649.297286 322.06108 
L 658.119421 327.855215 
L 666.941555 324.722501 
L 675.763689 321.931706 
" clip-path="url(#p8e0d316498)" style="fill: none; stroke: #ff8700; stroke-width: 2; stroke-linecap: round"/>
   </g>
   <g id="line2d_40">
    <path d="M 75.858551 301.425826 
L 84.680686 297.165705 
L 93.50282 278.156875 
L 102.324954 256.994881 
L 111.147089 239.723368 
L 119.969223 221.841946 
L 128.791357 204.357888 
L 137.613492 186.679769 
L 146.435626 171.274947 
L 155.257761 158.374448 
L 164.079895 166.756076 
L 172.902029 169.999683 
L 181.724164 172.827443 
L 190.546298 177.595822 
L 199.368433 178.972738 
L 208.190567 177.762161 
L 217.012701 178.131802 
L 225.834836 181.051973 
L 234.65697 180.109386 
L 243.479104 180.913357 
L 252.301239 182.946387 
L 261.123373 181.597194 
L 269.945508 181.818979 
L 278.767642 181.02425 
L 287.589776 179.35162 
L 296.411911 182.401165 
L 305.234045 182.317996 
L 314.05618 181.892908 
L 322.878314 184.498883 
L 331.700448 186.679769 
L 340.522583 188.999272 
L 366.988986 197.833711 
L 375.81112 202.676018 
L 384.633255 204.163827 
L 393.455389 207.777075 
L 402.277523 217.701958 
L 411.099658 217.387762 
L 419.921792 210.225952 
L 428.743927 215.095983 
L 437.566061 221.518509 
L 446.388195 217.840573 
L 455.21033 221.102662 
L 464.032464 225.344302 
L 472.854599 234.502178 
L 481.676733 243.429027 
L 490.498867 225.436712 
L 499.321002 234.428249 
L 508.143136 249.537358 
L 516.965271 253.196812 
L 525.787405 253.603418 
L 534.609539 262.105179 
L 543.431674 259.185009 
L 552.253808 255.220601 
L 561.075942 251.958512 
L 569.898077 216.278837 
L 578.720211 226.7397 
L 587.542346 219.254453 
L 596.36448 195.403316 
L 605.186614 190.496321 
L 614.008749 186.15303 
L 640.475152 185.690977 
L 649.297286 187.160304 
L 658.119421 189.110164 
L 666.941555 188.564942 
L 675.763689 217.295352 
" clip-path="url(#p8e0d316498)" style="fill: none; stroke: #0090ff; stroke-width: 2; stroke-linecap: round"/>
   </g>
   <g id="line2d_41">
    <path d="M 75.858551 202.786911 
L 84.680686 195.375593 
L 93.50282 208.470154 
L 102.324954 200.578301 
L 111.147089 195.218495 
L 119.969223 182.428888 
L 128.791357 170.646556 
L 137.613492 159.779087 
L 146.435626 153.08857 
L 155.257761 148.726797 
L 164.079895 154.419281 
L 172.902029 159.381722 
L 181.724164 159.843774 
L 190.546298 161.266895 
L 199.368433 163.475505 
L 208.190567 171.367357 
L 217.012701 174.786544 
L 225.834836 178.46448 
L 234.65697 177.771402 
L 243.479104 177.836089 
L 252.301239 182.022282 
L 261.123373 183.214377 
L 269.945508 179.712021 
L 278.767642 178.381311 
L 287.589776 172.80896 
L 296.411911 168.65049 
L 305.234045 165.878177 
L 314.05618 165.637909 
L 322.878314 169.121783 
L 349.344717 173.012263 
L 358.166852 176.292834 
L 366.988986 181.125901 
L 375.81112 188.167577 
L 384.633255 194.46997 
L 393.455389 205.707081 
L 402.277523 209.163232 
L 411.099658 214.328976 
L 419.921792 222.599712 
L 428.743927 222.987835 
L 437.566061 225.834077 
L 446.388195 231.387945 
L 455.21033 226.453227 
L 464.032464 216.65772 
L 472.854599 222.183865 
L 481.676733 226.323853 
L 490.498867 233.605796 
L 499.321002 239.104218 
L 508.143136 240.203903 
L 516.965271 245.147862 
L 525.787405 243.09635 
L 534.609539 226.943003 
L 543.431674 202.454233 
L 552.253808 201.53937 
L 561.075942 201.918253 
L 569.898077 197.343935 
L 578.720211 194.46997 
L 587.542346 192.43694 
L 596.36448 187.289678 
L 605.186614 184.073794 
L 614.008749 182.715361 
L 640.475152 200.92022 
L 649.297286 235.121328 
L 658.119421 252.605385 
L 666.941555 249.814589 
L 675.763689 245.970315 
" clip-path="url(#p8e0d316498)" style="fill: none; stroke: #ff8700; stroke-width: 2; stroke-linecap: round"/>
   </g>
   <g id="line2d_42">
    <path d="M 75.858551 232.737138 
L 84.680686 223.265067 
L 93.50282 216.870264 
L 102.324954 207.527567 
L 111.147089 202.583608 
L 119.969223 193.629035 
L 128.791357 184.055312 
L 137.613492 176.930467 
L 146.435626 171.681553 
L 155.257761 168.327054 
L 164.079895 173.834716 
L 172.902029 177.189216 
L 181.724164 181.356927 
L 190.546298 188.860656 
L 199.368433 191.060025 
L 208.190567 190.57949 
L 217.012701 191.72538 
L 225.834836 192.187432 
L 234.65697 191.99337 
L 243.479104 195.042915 
L 252.301239 198.88719 
L 261.123373 198.388173 
L 269.945508 196.401349 
L 278.767642 193.869302 
L 287.589776 190.865963 
L 296.411911 192.122745 
L 305.234045 193.665999 
L 314.05618 194.349837 
L 322.878314 194.99671 
L 331.700448 198.813261 
L 340.522583 202.177002 
L 349.344717 205.707081 
L 358.166852 207.490603 
L 366.988986 211.381083 
L 375.81112 216.824058 
L 384.633255 216.241873 
L 393.455389 207.82328 
L 419.921792 182.521299 
L 428.743927 185.53388 
L 437.566061 190.801275 
L 446.388195 188.943825 
L 455.21033 191.318774 
L 464.032464 198.80402 
L 472.854599 203.729497 
L 481.676733 190.856722 
L 490.498867 192.538592 
L 499.321002 206.326231 
L 508.143136 234.918025 
L 516.965271 239.187388 
L 525.787405 236.978778 
L 534.609539 239.224352 
L 543.431674 237.052706 
L 552.253808 206.779042 
L 561.075942 189.636904 
L 569.898077 188.389363 
L 578.720211 191.226363 
L 587.542346 188.500255 
L 596.36448 186.707492 
L 605.186614 182.123934 
L 614.008749 172.753514 
L 640.475152 167.726386 
L 649.297286 169.131025 
L 658.119421 191.328015 
L 666.941555 209.163232 
L 675.763689 221.694089 
" clip-path="url(#p8e0d316498)" style="fill: none; stroke: #900000; stroke-width: 2; stroke-linecap: round"/>
   </g>
   <g id="line2d_43">
    <path d="M 75.858551 200.66147 
L 84.680686 179.120594 
L 93.50282 162.45899 
L 102.324954 151.184915 
L 111.147089 151.129469 
L 119.969223 143.551812 
L 128.791357 129.690244 
L 137.613492 115.884123 
L 146.435626 101.606708 
L 155.257761 94.592755 
L 164.079895 106.107097 
L 172.902029 100.368408 
L 181.724164 112.224669 
L 190.546298 120.319824 
L 199.368433 119.793085 
L 208.190567 126.38195 
L 217.012701 130.300153 
L 225.834836 139.64285 
L 234.65697 144.355783 
L 243.479104 147.534702 
L 252.301239 149.937374 
L 261.123373 168.521116 
L 269.945508 165.665633 
L 278.767642 160.564576 
L 287.589776 157.50579 
L 296.411911 154.807405 
L 305.234045 157.210076 
L 314.05618 158.8365 
L 322.878314 154.289906 
L 331.700448 152.109019 
L 340.522583 149.613937 
L 349.344717 148.079924 
L 358.166852 147.6918 
L 366.988986 148.283227 
L 375.81112 149.697107 
L 384.633255 149.493804 
L 393.455389 139.476511 
L 402.277523 133.894919 
L 428.743927 159.28007 
L 437.566061 181.680364 
L 446.388195 203.849631 
L 455.21033 224.318546 
L 464.032464 245.240272 
L 472.854599 261.966564 
L 481.676733 279.589237 
L 490.498867 297.701685 
L 499.321002 306.94273 
L 508.143136 318.179841 
L 516.965271 305.741394 
L 525.787405 284.154313 
L 534.609539 279.404416 
L 543.431674 279.136426 
L 552.253808 276.955539 
L 561.075942 279.561514 
L 569.898077 278.535758 
L 578.720211 275.865096 
L 587.542346 291.528667 
L 596.36448 297.590793 
L 605.186614 298.551861 
L 614.008749 313.39298 
L 631.653018 303.431133 
L 640.475152 301.407344 
L 649.297286 295.927405 
L 658.119421 289.96693 
L 666.941555 286.372164 
L 675.763689 280.94767 
" clip-path="url(#p8e0d316498)" style="fill: none; stroke: #2b4562; stroke-width: 2; stroke-linecap: round"/>
   </g>
   <g id="line2d_44">
    <path d="M 75.858551 247.569015 
L 84.680686 217.849814 
L 93.50282 198.351209 
L 102.324954 174.537036 
L 111.147089 165.721079 
L 119.969223 147.645595 
L 128.791357 131.362873 
L 137.613492 117.418136 
L 146.435626 103.464158 
L 155.257761 91.376871 
L 164.079895 105.025895 
L 172.902029 109.544766 
L 181.724164 112.575828 
L 190.546298 119.358756 
L 199.368433 117.870947 
L 208.190567 109.295257 
L 217.012701 115.902605 
L 225.834836 116.604924 
L 234.65697 116.39238 
L 243.479104 117.639921 
L 252.301239 121.484196 
L 261.123373 133.950366 
L 269.945508 137.674507 
L 278.767642 137.951738 
L 287.589776 142.248824 
L 296.411911 154.483968 
L 305.234045 149.142644 
L 314.05618 150.029784 
L 331.700448 150.066748 
L 340.522583 153.716961 
L 349.344717 154.465486 
L 358.166852 152.090537 
L 366.988986 153.08857 
L 375.81112 157.089943 
L 384.633255 157.450343 
L 411.099658 169.990442 
L 419.921792 189.701591 
L 428.743927 203.22124 
L 437.566061 220.270968 
L 446.388195 234.224946 
L 455.21033 229.576701 
L 464.032464 249.232404 
L 472.854599 265.348786 
L 481.676733 281.64999 
L 490.498867 297.30432 
L 499.321002 287.009796 
L 508.143136 280.254592 
L 516.965271 282.287622 
L 525.787405 281.178697 
L 534.609539 281.908739 
L 543.431674 301.610647 
L 552.253808 297.332043 
L 561.075942 294.568971 
L 569.898077 288.626979 
L 578.720211 284.486991 
L 587.542346 293.829687 
L 596.36448 294.097678 
L 605.186614 289.569566 
L 614.008749 288.737871 
L 631.653018 271.845241 
L 640.475152 271.669661 
L 649.297286 267.59436 
L 658.119421 251.23771 
L 666.941555 248.003345 
L 675.763689 243.586125 
" clip-path="url(#p8e0d316498)" style="fill: none; stroke: #005aff; stroke-width: 2; stroke-linecap: round"/>
   </g>
   <g id="line2d_45">
    <path d="M 75.858551 220.575923 
L 84.680686 199.866741 
L 93.50282 183.510091 
L 102.324954 171.422804 
L 111.147089 172.0974 
L 119.969223 150.667416 
L 128.791357 138.885084 
L 137.613492 130.244707 
L 146.435626 121.807632 
L 155.257761 114.340868 
L 164.079895 125.568738 
L 172.902029 139.125351 
L 181.724164 145.261405 
L 190.546298 144.77163 
L 199.368433 146.27792 
L 208.190567 150.464113 
L 217.012701 150.96313 
L 225.834836 160.342791 
L 234.65697 159.002839 
L 243.479104 157.034496 
L 252.301239 153.53214 
L 261.123373 144.087792 
L 269.945508 135.456656 
L 278.767642 132.092916 
L 287.589776 127.490875 
L 296.411911 131.039437 
L 305.234045 136.325314 
L 314.05618 137.803882 
L 322.878314 140.141866 
L 331.700448 141.056729 
L 340.522583 144.540603 
L 349.344717 152.432456 
L 358.166852 162.172518 
L 366.988986 164.741528 
L 375.81112 170.129057 
L 384.633255 169.685487 
L 393.455389 166.635942 
L 402.277523 165.582463 
L 411.099658 164.889385 
L 419.921792 161.978456 
L 428.743927 158.522305 
L 437.566061 154.243701 
L 446.388195 148.412601 
L 472.854599 171.801687 
L 481.676733 189.193333 
L 490.498867 206.353954 
L 499.321002 207.619977 
L 508.143136 215.733615 
L 516.965271 225.030106 
L 525.787405 220.455789 
L 534.609539 221.241278 
L 543.431674 234.206464 
L 552.253808 250.027133 
L 561.075942 223.348236 
L 569.898077 210.808138 
L 578.720211 203.128829 
L 587.542346 215.835267 
L 596.36448 221.074939 
L 605.186614 220.511235 
L 614.008749 236.507484 
L 631.653018 245.231031 
L 640.475152 243.706259 
L 649.297286 244.343891 
L 658.119421 258.907778 
L 666.941555 253.104401 
L 675.763689 241.460685 
" clip-path="url(#p8e0d316498)" style="fill: none; stroke: #900000; stroke-width: 2; stroke-linecap: round"/>
   </g>
   <g id="line2d_46">
    <path d="M 75.858551 217.341557 
L 84.680686 191.854754 
L 93.50282 177.290867 
L 102.324954 167.051789 
L 111.147089 161.645778 
L 119.969223 147.42381 
L 128.791357 130.734482 
L 137.613492 115.42207 
L 146.435626 112.511141 
L 155.257761 113.361317 
L 164.079895 123.886868 
L 172.902029 138.108836 
L 181.724164 145.104307 
L 190.546298 149.179608 
L 199.368433 149.10568 
L 208.190567 154.474727 
L 217.012701 157.348692 
L 225.834836 159.178419 
L 234.65697 159.797569 
L 243.479104 158.688644 
L 252.301239 157.727575 
L 261.123373 151.194156 
L 269.945508 139.134592 
L 278.767642 133.534519 
L 287.589776 127.17668 
L 296.411911 123.711288 
L 305.234045 124.626151 
L 314.05618 125.929139 
L 322.878314 125.799764 
L 331.700448 125.966103 
L 340.522583 126.234093 
L 349.344717 131.33515 
L 358.166852 141.832977 
L 366.988986 145.704975 
L 375.81112 148.773002 
L 384.633255 149.299742 
L 411.099658 131.797202 
L 419.921792 148.22778 
L 428.743927 164.704564 
L 437.566061 182.096211 
L 446.388195 198.120183 
L 455.21033 215.049778 
L 464.032464 229.327192 
L 472.854599 244.269962 
L 481.676733 241.904255 
L 490.498867 258.806126 
L 499.321002 275.892819 
L 508.143136 253.963819 
L 516.965271 251.450254 
L 525.787405 217.008879 
L 534.609539 203.553918 
L 543.431674 196.918847 
L 552.253808 193.148501 
L 561.075942 163.235238 
L 569.898077 172.152846 
L 578.720211 168.077545 
L 587.542346 178.178008 
L 596.36448 186.855349 
L 605.186614 177.041359 
L 614.008749 204.441058 
L 631.653018 212.979784 
L 640.475152 215.678169 
L 649.297286 217.036602 
L 658.119421 242.532646 
L 666.941555 221.130385 
L 675.763689 218.542893 
" clip-path="url(#p8e0d316498)" style="fill: none; stroke: #006f62; stroke-width: 2; stroke-linecap: round"/>
   </g>
   <g id="line2d_47">
    <path d="M 75.858551 196.419831 
L 84.680686 180.719295 
L 93.50282 169.399015 
L 102.324954 158.032529 
L 111.147089 148.708315 
L 119.969223 130.605107 
L 128.791357 112.455695 
L 137.613492 96.330071 
L 146.435626 109.480078 
L 155.257761 100.21131 
L 164.079895 107.715039 
L 172.902029 116.629567 
L 181.724164 122.215265 
L 190.546298 123.488476 
L 199.368433 117.214833 
L 225.834836 127.872838 
L 234.65697 138.715665 
L 243.479104 148.500905 
L 252.301239 155.287939 
L 261.123373 157.700878 
L 269.945508 165.58657 
L 278.767642 168.899998 
L 287.589776 175.867746 
L 296.411911 182.225585 
L 305.234045 190.551767 
L 314.05618 192.538592 
L 322.878314 195.662065 
L 331.700448 197.842952 
L 340.522583 198.18487 
L 349.344717 204.940074 
L 358.166852 206.039759 
L 366.988986 205.993553 
L 375.81112 203.322891 
L 384.633255 181.051973 
L 393.455389 177.013636 
L 402.277523 167.024066 
L 428.743927 182.299514 
L 437.566061 195.828404 
L 446.388195 209.348053 
L 455.21033 216.103257 
L 464.032464 225.270374 
L 472.854599 231.009063 
L 481.676733 240.499616 
L 490.498867 269.146856 
L 499.321002 276.096122 
L 508.143136 294.689105 
L 516.965271 286.575467 
L 525.787405 279.293523 
L 534.609539 274.377287 
L 543.431674 273.268362 
L 552.253808 274.904027 
L 561.075942 277.205047 
L 569.898077 278.119911 
L 578.720211 277.58393 
L 587.542346 282.213694 
L 596.36448 256.606758 
L 605.186614 250.101062 
L 614.008749 246.838973 
L 631.653018 242.606574 
L 640.475152 240.749124 
L 649.297286 236.82168 
L 658.119421 234.742445 
L 666.941555 229.816968 
L 675.763689 225.612292 
" clip-path="url(#p8e0d316498)" style="fill: none; stroke: #006f62; stroke-width: 2; stroke-linecap: round"/>
   </g>
   <g id="line2d_48">
    <path d="M 75.858551 196.893178 
L 84.680686 194.213275 
L 93.50282 175.905737 
L 102.324954 159.312927 
L 111.147089 147.289301 
L 119.969223 126.44561 
L 128.791357 102.439429 
L 137.613492 72.683263 
L 146.435626 54.868582 
L 155.257761 55.928222 
L 164.079895 62.572533 
L 172.902029 68.579213 
L 181.724164 70.002334 
L 190.546298 72.571344 
L 199.368433 66.601629 
L 208.190567 62.729631 
L 217.012701 67.867652 
L 225.834836 75.63013 
L 234.65697 76.0737 
L 243.479104 70.371975 
L 252.301239 67.932339 
L 261.123373 64.716456 
L 287.589776 81.137793 
L 296.411911 93.57624 
L 305.234045 112.23391 
L 314.05618 132.48104 
L 322.878314 150.103713 
L 331.700448 167.125718 
L 340.522583 163.909834 
L 349.344717 180.922598 
L 358.166852 194.99671 
L 366.988986 211.278405 
L 375.81112 213.629737 
L 384.633255 210.087336 
L 393.455389 180.916437 
L 402.277523 175.710649 
L 411.099658 170.371378 
L 419.921792 164.621394 
L 428.743927 182.846789 
L 437.566061 187.405705 
L 446.388195 194.890951 
L 455.21033 198.757815 
L 464.032464 193.083813 
L 472.854599 193.351804 
L 481.676733 216.713166 
L 490.498867 217.785127 
L 499.321002 214.929644 
L 508.143136 201.844324 
L 516.965271 187.271196 
L 525.787405 185.45071 
L 534.609539 161.544126 
L 543.431674 160.481406 
L 552.253808 163.595638 
L 561.075942 164.963313 
L 569.898077 164.787733 
L 578.720211 165.222062 
L 587.542346 166.866968 
L 596.36448 181.070455 
L 605.186614 197.898398 
L 614.008749 199.284555 
L 631.653018 222.987835 
L 640.475152 224.133725 
L 649.297286 222.174623 
L 658.119421 221.601679 
L 666.941555 217.498655 
L 675.763689 212.933578 
" clip-path="url(#p8e0d316498)" style="fill: none; stroke: #ffffff; stroke-width: 2; stroke-linecap: round"/>
   </g>
   <g id="line2d_49">
    <path d="M 75.858551 190.098956 
L 84.680686 171.542937 
L 93.50282 155.907089 
L 102.324954 149.312063 
L 111.147089 126.856323 
L 119.969223 113.414453 
L 128.791357 90.866303 
L 137.613492 67.313189 
L 146.435626 54.248662 
L 155.257761 41.32275 
L 164.079895 54.41038 
L 172.902029 66.620111 
L 181.724164 70.732376 
L 190.546298 75.568523 
L 199.368433 83.341269 
L 208.190567 85.527289 
L 217.012701 88.900271 
L 225.834836 94.703647 
L 234.65697 96.93998 
L 243.479104 96.884534 
L 252.301239 91.007229 
L 261.123373 80.333822 
L 269.945508 83.531224 
L 278.767642 84.788006 
L 287.589776 84.612426 
L 296.411911 88.179469 
L 305.234045 95.137976 
L 314.05618 100.876665 
L 322.878314 104.037103 
L 331.700448 113.444487 
L 340.522583 124.70008 
L 349.344717 124.08093 
L 358.166852 121.327098 
L 366.988986 123.591154 
L 375.81112 116.503273 
L 384.633255 111.2636 
L 411.099658 111.097261 
L 419.921792 108.666866 
L 428.743927 112.982434 
L 437.566061 122.639327 
L 446.388195 123.831421 
L 455.21033 150.593488 
L 464.032464 150.085231 
L 472.854599 160.536853 
L 481.676733 181.994559 
L 490.498867 203.101106 
L 499.321002 215.585758 
L 508.143136 229.900137 
L 516.965271 238.23556 
L 525.787405 239.058013 
L 534.609539 250.128785 
L 543.431674 248.788833 
L 552.253808 265.857044 
L 561.075942 267.428021 
L 569.898077 264.572538 
L 578.720211 258.473449 
L 587.542346 256.745373 
L 596.36448 254.749308 
L 605.186614 253.215294 
L 631.653018 256.36649 
L 640.475152 253.17833 
L 649.297286 251.579629 
L 658.119421 249.500394 
L 666.941555 243.179519 
L 675.763689 239.446137 
" clip-path="url(#p8e0d316498)" style="fill: none; stroke: #ffffff; stroke-width: 2; stroke-linecap: round"/>
   </g>
   <g id="line2d_50">
    <path d="M 75.858551 211.103851 
L 84.680686 185.866557 
L 93.50282 166.996343 
L 102.324954 143.200652 
L 111.147089 118.564026 
L 119.969223 105.460224 
L 128.791357 90.295669 
L 137.613492 65.751453 
L 146.435626 56.288623 
L 155.257761 46.225124 
L 164.079895 61.445126 
L 172.902029 72.414246 
L 181.724164 77.238072 
L 190.546298 88.826342 
L 199.368433 91.626379 
L 208.190567 91.63562 
L 217.012701 92.938608 
L 225.834836 100.442336 
L 234.65697 97.392791 
L 243.479104 81.572122 
L 252.301239 71.924471 
L 278.767642 74.992498 
L 287.589776 78.042043 
L 296.411911 80.269135 
L 305.234045 74.114599 
L 314.05618 78.707398 
L 322.878314 69.549522 
L 331.700448 68.597695 
L 340.522583 69.771307 
L 349.344717 90.535936 
L 358.166852 100.950594 
L 366.988986 103.741389 
L 375.81112 104.619289 
L 384.633255 100.192828 
L 393.455389 111.494626 
L 402.277523 101.283271 
L 411.099658 111.402216 
L 419.921792 97.993459 
L 428.743927 90.859372 
L 437.566061 88.01313 
L 446.388195 91.395353 
L 455.21033 87.625007 
L 464.032464 86.821036 
L 472.854599 89.833616 
L 481.676733 91.090398 
L 490.498867 99.231759 
L 499.321002 102.272063 
L 508.143136 117.602957 
L 534.609539 126.705386 
L 543.431674 136.778126 
L 552.253808 148.070683 
L 561.075942 158.56851 
L 569.898077 161.821358 
L 578.720211 168.927722 
L 587.542346 170.41553 
L 596.36448 171.949543 
L 605.186614 175.926273 
L 622.830883 180.310636 
L 631.653018 194.962826 
L 640.475152 195.137379 
L 649.297286 187.652132 
L 658.119421 182.063867 
L 666.941555 168.99934 
" clip-path="url(#p8e0d316498)" style="fill: none; stroke: #005aff; stroke-width: 2; stroke-linecap: round"/>
   </g>
   <g id="line2d_51">
    <path d="M 75.858551 159.515717 
L 84.680686 160.878771 
L 93.50282 163.073519 
L 102.324954 162.259794 
L 111.147089 169.539684 
L 119.969223 163.009346 
L 128.791357 159.087035 
L 137.613492 159.508016 
L 146.435626 162.5514 
L 155.257761 175.978639 
L 164.079895 180.32193 
L 172.902029 183.131208 
L 181.724164 188.564942 
L 190.546298 192.039575 
L 199.368433 191.614487 
L 208.190567 194.007918 
L 217.012701 196.336661 
L 225.834836 198.351209 
L 234.65697 201.031112 
L 243.479104 201.114282 
L 252.301239 205.688599 
L 261.123373 204.940074 
L 269.945508 202.537403 
L 278.767642 202.907044 
L 287.589776 202.592849 
L 296.411911 203.175035 
L 305.234045 202.629813 
L 314.05618 204.043693 
L 322.878314 205.1711 
L 331.700448 207.832521 
L 340.522583 211.029923 
L 349.344717 213.525005 
L 358.166852 215.641205 
L 366.988986 219.235971 
L 375.81112 223.902699 
L 384.633255 222.664399 
L 393.455389 222.590471 
L 402.277523 219.217489 
L 428.743927 221.841946 
L 437.566061 226.822869 
L 446.388195 230.047994 
L 455.21033 236.673823 
L 464.032464 240.61975 
L 472.854599 245.57295 
L 481.676733 256.061536 
L 499.321002 269.082169 
L 508.143136 278.905399 
L 516.965271 288.127962 
L 525.787405 275.310633 
L 534.609539 259.434517 
L 543.431674 236.507484 
L 552.253808 217.165977 
L 561.075942 206.963863 
L 569.898077 192.982162 
L 578.720211 176.686092 
L 587.542346 140.923248 
L 596.36448 115.797873 
L 605.186614 100.047025 
L 614.008749 103.137641 
" clip-path="url(#p8e0d316498)" style="fill: none; stroke: #0090ff; stroke-width: 2; stroke-linecap: round"/>
   </g>
   <g id="line2d_52">
    <path d="M 75.858551 97.192569 
L 84.680686 104.308173 
L 93.50282 113.148773 
L 102.324954 113.467076 
L 111.147089 112.491632 
L 119.969223 115.468276 
L 128.791357 129.875065 
L 137.613492 136.879777 
L 146.435626 137.046116 
L 155.257761 139.624367 
L 164.079895 148.264745 
L 172.902029 153.689238 
L 181.724164 154.114326 
L 190.546298 156.44307 
L 199.368433 161.460957 
L 208.190567 164.445815 
L 217.012701 165.20358 
L 225.834836 167.754109 
L 234.65697 170.06437 
L 243.479104 166.589737 
L 252.301239 168.354777 
L 261.123373 168.742901 
L 269.945508 166.598978 
L 278.767642 163.530951 
L 287.589776 161.599573 
L 296.411911 160.961941 
L 305.234045 159.307794 
L 331.700448 168.632008 
L 340.522583 173.585208 
L 349.344717 177.0506 
L 358.166852 181.874426 
L 366.988986 186.476466 
L 375.81112 195.809922 
L 384.633255 204.829182 
L 393.455389 203.248963 
L 402.277523 212.06492 
L 411.099658 218.302626 
L 419.921792 215.558035 
L 428.743927 215.317768 
L 437.566061 219.319141 
L 446.388195 209.163232 
L 455.21033 213.92237 
L 464.032464 212.50849 
L 472.854599 215.530312 
L 481.676733 229.918619 
L 490.498867 231.813034 
" clip-path="url(#p8e0d316498)" style="fill: none; stroke: #2b4562; stroke-width: 2; stroke-linecap: round"/>
   </g>
   <g id="line2d_53"/>
   <g id="line2d_54"/>
   <g id="line2d_55"/>
   <g id="line2d_56"/>
   <g id="line2d_57"/>
   <g id="line2d_58"/>
   <g id="line2d_59"/>
   <g id="line2d_60"/>
   <g id="line2d_61"/>
   <g id="line2d_62"/>
   <g id="line2d_63"/>
   <g id="line2d_64"/>
   <g id="line2d_65"/>
   <g id="line2d_66"/>
   <g id="line2d_67"/>
   <g id="line2d_68"/>
   <g id="line2d_69"/>
   <g id="line2d_70"/>
   <g id="line2d_71"/>
   <g id="line2d_72"/>
   <g id="patch_3">
    <path d="M 45.422188 411.76275 
L 45.422188 23.68275 
" style="fill: none; stroke: #bcbcbc; stroke-linejoin: miter; stroke-linecap: square"/>
   </g>
   <g id="patch_4">
    <path d="M 715.022187 411.76275 
L 715.022187 23.68275 
" style="fill: none; stroke: #bcbcbc; stroke-linejoin: miter; stroke-linecap: square"/>
   </g>
   <g id="patch_5">
    <path d="M 45.422188 411.76275 
L 715.022187 411.76275 
" style="fill: none; stroke: #bcbcbc; stroke-linejoin: miter; stroke-linecap: square"/>
   </g>
   <g id="patch_6">
    <path d="M 45.422188 23.68275 
L 715.022187 23.68275 
" style="fill: none; stroke: #bcbcbc; stroke-linejoin: miter; stroke-linecap: square"/>
   </g>
   <g id="text_19">
    <!-- 2022 Mexico City Grand Prix - Smoothed Racepace -->
    <g style="fill: #262626" transform="translate(214.955187 17.68275)scale(0.144 -0.144)">
     <defs>
      <path id="ArialMT-4d" d="M 475 0 
L 475 4581 
L 1388 4581 
L 2472 1338 
Q 2622 884 2691 659 
Q 2769 909 2934 1394 
L 4031 4581 
L 4847 4581 
L 4847 0 
L 4263 0 
L 4263 3834 
L 2931 0 
L 2384 0 
L 1059 3900 
L 1059 0 
L 475 0 
z
" transform="scale(0.015625)"/>
      <path id="ArialMT-78" d="M 47 0 
L 1259 1725 
L 138 3319 
L 841 3319 
L 1350 2541 
Q 1494 2319 1581 2169 
Q 1719 2375 1834 2534 
L 2394 3319 
L 3066 3319 
L 1919 1756 
L 3153 0 
L 2463 0 
L 1781 1031 
L 1600 1309 
L 728 0 
L 47 0 
z
" transform="scale(0.015625)"/>
      <path id="ArialMT-63" d="M 2588 1216 
L 3141 1144 
Q 3050 572 2676 248 
Q 2303 -75 1759 -75 
Q 1078 -75 664 370 
Q 250 816 250 1647 
Q 250 2184 428 2587 
Q 606 2991 970 3192 
Q 1334 3394 1763 3394 
Q 2303 3394 2647 3120 
Q 2991 2847 3088 2344 
L 2541 2259 
Q 2463 2594 2264 2762 
Q 2066 2931 1784 2931 
Q 1359 2931 1093 2626 
Q 828 2322 828 1663 
Q 828 994 1084 691 
Q 1341 388 1753 388 
Q 2084 388 2306 591 
Q 2528 794 2588 1216 
z
" transform="scale(0.015625)"/>
      <path id="ArialMT-6f" d="M 213 1659 
Q 213 2581 725 3025 
Q 1153 3394 1769 3394 
Q 2453 3394 2887 2945 
Q 3322 2497 3322 1706 
Q 3322 1066 3130 698 
Q 2938 331 2570 128 
Q 2203 -75 1769 -75 
Q 1072 -75 642 372 
Q 213 819 213 1659 
z
M 791 1659 
Q 791 1022 1069 705 
Q 1347 388 1769 388 
Q 2188 388 2466 706 
Q 2744 1025 2744 1678 
Q 2744 2294 2464 2611 
Q 2184 2928 1769 2928 
Q 1347 2928 1069 2612 
Q 791 2297 791 1659 
z
" transform="scale(0.015625)"/>
      <path id="ArialMT-43" d="M 3763 1606 
L 4369 1453 
Q 4178 706 3683 314 
Q 3188 -78 2472 -78 
Q 1731 -78 1267 223 
Q 803 525 561 1097 
Q 319 1669 319 2325 
Q 319 3041 592 3573 
Q 866 4106 1370 4382 
Q 1875 4659 2481 4659 
Q 3169 4659 3637 4309 
Q 4106 3959 4291 3325 
L 3694 3184 
Q 3534 3684 3231 3912 
Q 2928 4141 2469 4141 
Q 1941 4141 1586 3887 
Q 1231 3634 1087 3207 
Q 944 2781 944 2328 
Q 944 1744 1114 1308 
Q 1284 872 1643 656 
Q 2003 441 2422 441 
Q 2931 441 3284 734 
Q 3638 1028 3763 1606 
z
" transform="scale(0.015625)"/>
      <path id="ArialMT-74" d="M 1650 503 
L 1731 6 
Q 1494 -44 1306 -44 
Q 1000 -44 831 53 
Q 663 150 594 308 
Q 525 466 525 972 
L 525 2881 
L 113 2881 
L 113 3319 
L 525 3319 
L 525 4141 
L 1084 4478 
L 1084 3319 
L 1650 3319 
L 1650 2881 
L 1084 2881 
L 1084 941 
Q 1084 700 1114 631 
Q 1144 563 1211 522 
Q 1278 481 1403 481 
Q 1497 481 1650 503 
z
" transform="scale(0.015625)"/>
      <path id="ArialMT-79" d="M 397 -1278 
L 334 -750 
Q 519 -800 656 -800 
Q 844 -800 956 -737 
Q 1069 -675 1141 -563 
Q 1194 -478 1313 -144 
Q 1328 -97 1363 -6 
L 103 3319 
L 709 3319 
L 1400 1397 
Q 1534 1031 1641 628 
Q 1738 1016 1872 1384 
L 2581 3319 
L 3144 3319 
L 1881 -56 
Q 1678 -603 1566 -809 
Q 1416 -1088 1222 -1217 
Q 1028 -1347 759 -1347 
Q 597 -1347 397 -1278 
z
" transform="scale(0.015625)"/>
      <path id="ArialMT-47" d="M 2638 1797 
L 2638 2334 
L 4578 2338 
L 4578 638 
Q 4131 281 3656 101 
Q 3181 -78 2681 -78 
Q 2006 -78 1454 211 
Q 903 500 622 1047 
Q 341 1594 341 2269 
Q 341 2938 620 3517 
Q 900 4097 1425 4378 
Q 1950 4659 2634 4659 
Q 3131 4659 3532 4498 
Q 3934 4338 4162 4050 
Q 4391 3763 4509 3300 
L 3963 3150 
Q 3859 3500 3706 3700 
Q 3553 3900 3268 4020 
Q 2984 4141 2638 4141 
Q 2222 4141 1919 4014 
Q 1616 3888 1430 3681 
Q 1244 3475 1141 3228 
Q 966 2803 966 2306 
Q 966 1694 1177 1281 
Q 1388 869 1791 669 
Q 2194 469 2647 469 
Q 3041 469 3416 620 
Q 3791 772 3984 944 
L 3984 1797 
L 2638 1797 
z
" transform="scale(0.015625)"/>
      <path id="ArialMT-6e" d="M 422 0 
L 422 3319 
L 928 3319 
L 928 2847 
Q 1294 3394 1984 3394 
Q 2284 3394 2536 3286 
Q 2788 3178 2913 3003 
Q 3038 2828 3088 2588 
Q 3119 2431 3119 2041 
L 3119 0 
L 2556 0 
L 2556 2019 
Q 2556 2363 2490 2533 
Q 2425 2703 2258 2804 
Q 2091 2906 1866 2906 
Q 1506 2906 1245 2678 
Q 984 2450 984 1813 
L 984 0 
L 422 0 
z
" transform="scale(0.015625)"/>
      <path id="ArialMT-64" d="M 2575 0 
L 2575 419 
Q 2259 -75 1647 -75 
Q 1250 -75 917 144 
Q 584 363 401 755 
Q 219 1147 219 1656 
Q 219 2153 384 2558 
Q 550 2963 881 3178 
Q 1213 3394 1622 3394 
Q 1922 3394 2156 3267 
Q 2391 3141 2538 2938 
L 2538 4581 
L 3097 4581 
L 3097 0 
L 2575 0 
z
M 797 1656 
Q 797 1019 1065 703 
Q 1334 388 1700 388 
Q 2069 388 2326 689 
Q 2584 991 2584 1609 
Q 2584 2291 2321 2609 
Q 2059 2928 1675 2928 
Q 1300 2928 1048 2622 
Q 797 2316 797 1656 
z
" transform="scale(0.015625)"/>
      <path id="ArialMT-50" d="M 494 0 
L 494 4581 
L 2222 4581 
Q 2678 4581 2919 4538 
Q 3256 4481 3484 4323 
Q 3713 4166 3852 3881 
Q 3991 3597 3991 3256 
Q 3991 2672 3619 2267 
Q 3247 1863 2275 1863 
L 1100 1863 
L 1100 0 
L 494 0 
z
M 1100 2403 
L 2284 2403 
Q 2872 2403 3119 2622 
Q 3366 2841 3366 3238 
Q 3366 3525 3220 3729 
Q 3075 3934 2838 4000 
Q 2684 4041 2272 4041 
L 1100 4041 
L 1100 2403 
z
" transform="scale(0.015625)"/>
      <path id="ArialMT-2d" d="M 203 1375 
L 203 1941 
L 1931 1941 
L 1931 1375 
L 203 1375 
z
" transform="scale(0.015625)"/>
      <path id="ArialMT-53" d="M 288 1472 
L 859 1522 
Q 900 1178 1048 958 
Q 1197 738 1509 602 
Q 1822 466 2213 466 
Q 2559 466 2825 569 
Q 3091 672 3220 851 
Q 3350 1031 3350 1244 
Q 3350 1459 3225 1620 
Q 3100 1781 2813 1891 
Q 2628 1963 1997 2114 
Q 1366 2266 1113 2400 
Q 784 2572 623 2826 
Q 463 3081 463 3397 
Q 463 3744 659 4045 
Q 856 4347 1234 4503 
Q 1613 4659 2075 4659 
Q 2584 4659 2973 4495 
Q 3363 4331 3572 4012 
Q 3781 3694 3797 3291 
L 3216 3247 
Q 3169 3681 2898 3903 
Q 2628 4125 2100 4125 
Q 1550 4125 1298 3923 
Q 1047 3722 1047 3438 
Q 1047 3191 1225 3031 
Q 1400 2872 2139 2705 
Q 2878 2538 3153 2413 
Q 3553 2228 3743 1945 
Q 3934 1663 3934 1294 
Q 3934 928 3725 604 
Q 3516 281 3123 101 
Q 2731 -78 2241 -78 
Q 1619 -78 1198 103 
Q 778 284 539 648 
Q 300 1013 288 1472 
z
" transform="scale(0.015625)"/>
      <path id="ArialMT-68" d="M 422 0 
L 422 4581 
L 984 4581 
L 984 2938 
Q 1378 3394 1978 3394 
Q 2347 3394 2619 3248 
Q 2891 3103 3008 2847 
Q 3125 2591 3125 2103 
L 3125 0 
L 2563 0 
L 2563 2103 
Q 2563 2525 2380 2717 
Q 2197 2909 1863 2909 
Q 1613 2909 1392 2779 
Q 1172 2650 1078 2428 
Q 984 2206 984 1816 
L 984 0 
L 422 0 
z
" transform="scale(0.015625)"/>
      <path id="ArialMT-52" d="M 503 0 
L 503 4581 
L 2534 4581 
Q 3147 4581 3465 4457 
Q 3784 4334 3975 4021 
Q 4166 3709 4166 3331 
Q 4166 2844 3850 2509 
Q 3534 2175 2875 2084 
Q 3116 1969 3241 1856 
Q 3506 1613 3744 1247 
L 4541 0 
L 3778 0 
L 3172 953 
Q 2906 1366 2734 1584 
Q 2563 1803 2427 1890 
Q 2291 1978 2150 2013 
Q 2047 2034 1813 2034 
L 1109 2034 
L 1109 0 
L 503 0 
z
M 1109 2559 
L 2413 2559 
Q 2828 2559 3062 2645 
Q 3297 2731 3419 2920 
Q 3541 3109 3541 3331 
Q 3541 3656 3305 3865 
Q 3069 4075 2559 4075 
L 1109 4075 
L 1109 2559 
z
" transform="scale(0.015625)"/>
     </defs>
     <use xlink:href="#ArialMT-32"/>
     <use xlink:href="#ArialMT-30" x="55.615234"/>
     <use xlink:href="#ArialMT-32" x="111.230469"/>
     <use xlink:href="#ArialMT-32" x="166.845703"/>
     <use xlink:href="#ArialMT-20" x="222.460938"/>
     <use xlink:href="#ArialMT-4d" x="250.244141"/>
     <use xlink:href="#ArialMT-65" x="333.544922"/>
     <use xlink:href="#ArialMT-78" x="389.160156"/>
     <use xlink:href="#ArialMT-69" x="439.160156"/>
     <use xlink:href="#ArialMT-63" x="461.376953"/>
     <use xlink:href="#ArialMT-6f" x="511.376953"/>
     <use xlink:href="#ArialMT-20" x="566.992188"/>
     <use xlink:href="#ArialMT-43" x="594.775391"/>
     <use xlink:href="#ArialMT-69" x="666.992188"/>
     <use xlink:href="#ArialMT-74" x="689.208984"/>
     <use xlink:href="#ArialMT-79" x="716.992188"/>
     <use xlink:href="#ArialMT-20" x="766.992188"/>
     <use xlink:href="#ArialMT-47" x="794.775391"/>
     <use xlink:href="#ArialMT-72" x="872.558594"/>
     <use xlink:href="#ArialMT-61" x="905.859375"/>
     <use xlink:href="#ArialMT-6e" x="961.474609"/>
     <use xlink:href="#ArialMT-64" x="1017.089844"/>
     <use xlink:href="#ArialMT-20" x="1072.705078"/>
     <use xlink:href="#ArialMT-50" x="1100.488281"/>
     <use xlink:href="#ArialMT-72" x="1167.1875"/>
     <use xlink:href="#ArialMT-69" x="1200.488281"/>
     <use xlink:href="#ArialMT-78" x="1222.705078"/>
     <use xlink:href="#ArialMT-20" x="1272.705078"/>
     <use xlink:href="#ArialMT-2d" x="1300.488281"/>
     <use xlink:href="#ArialMT-20" x="1333.789062"/>
     <use xlink:href="#ArialMT-53" x="1361.572266"/>
     <use xlink:href="#ArialMT-6d" x="1428.271484"/>
     <use xlink:href="#ArialMT-6f" x="1511.572266"/>
     <use xlink:href="#ArialMT-6f" x="1567.1875"/>
     <use xlink:href="#ArialMT-74" x="1622.802734"/>
     <use xlink:href="#ArialMT-68" x="1650.585938"/>
     <use xlink:href="#ArialMT-65" x="1706.201172"/>
     <use xlink:href="#ArialMT-64" x="1761.816406"/>
     <use xlink:href="#ArialMT-20" x="1817.431641"/>
     <use xlink:href="#ArialMT-52" x="1845.214844"/>
     <use xlink:href="#ArialMT-61" x="1917.431641"/>
     <use xlink:href="#ArialMT-63" x="1973.046875"/>
     <use xlink:href="#ArialMT-65" x="2023.046875"/>
     <use xlink:href="#ArialMT-70" x="2078.662109"/>
     <use xlink:href="#ArialMT-61" x="2134.277344"/>
     <use xlink:href="#ArialMT-63" x="2189.892578"/>
     <use xlink:href="#ArialMT-65" x="2239.892578"/>
    </g>
   </g>
   <g id="legend_1">
    <g id="text_20">
     <!-- Driver -->
     <g style="fill: #262626" transform="translate(667.301094 39.840562)scale(0.1 -0.1)">
      <defs>
       <path id="ArialMT-44" d="M 494 0 
L 494 4581 
L 2072 4581 
Q 2606 4581 2888 4516 
Q 3281 4425 3559 4188 
Q 3922 3881 4101 3404 
Q 4281 2928 4281 2316 
Q 4281 1794 4159 1391 
Q 4038 988 3847 723 
Q 3656 459 3429 307 
Q 3203 156 2883 78 
Q 2563 0 2147 0 
L 494 0 
z
M 1100 541 
L 2078 541 
Q 2531 541 2789 625 
Q 3047 709 3200 863 
Q 3416 1078 3536 1442 
Q 3656 1806 3656 2325 
Q 3656 3044 3420 3430 
Q 3184 3816 2847 3947 
Q 2603 4041 2063 4041 
L 1100 4041 
L 1100 541 
z
" transform="scale(0.015625)"/>
       <path id="ArialMT-76" d="M 1344 0 
L 81 3319 
L 675 3319 
L 1388 1331 
Q 1503 1009 1600 663 
Q 1675 925 1809 1294 
L 2547 3319 
L 3125 3319 
L 1869 0 
L 1344 0 
z
" transform="scale(0.015625)"/>
      </defs>
      <use xlink:href="#ArialMT-44"/>
      <use xlink:href="#ArialMT-72" x="72.216797"/>
      <use xlink:href="#ArialMT-69" x="105.517578"/>
      <use xlink:href="#ArialMT-76" x="127.734375"/>
      <use xlink:href="#ArialMT-65" x="177.734375"/>
      <use xlink:href="#ArialMT-72" x="233.349609"/>
     </g>
    </g>
    <g id="line2d_73">
     <path d="M 655.244062 50.485875 
L 665.244062 50.485875 
L 675.244062 50.485875 
" style="fill: none; stroke: #0600ef; stroke-width: 2; stroke-linecap: round"/>
    </g>
    <g id="text_21">
     <!-- VER -->
     <g style="fill: #262626" transform="translate(683.244062 53.985875)scale(0.1 -0.1)">
      <defs>
       <path id="ArialMT-56" d="M 1803 0 
L 28 4581 
L 684 4581 
L 1875 1253 
Q 2019 853 2116 503 
Q 2222 878 2363 1253 
L 3600 4581 
L 4219 4581 
L 2425 0 
L 1803 0 
z
" transform="scale(0.015625)"/>
       <path id="ArialMT-45" d="M 506 0 
L 506 4581 
L 3819 4581 
L 3819 4041 
L 1113 4041 
L 1113 2638 
L 3647 2638 
L 3647 2100 
L 1113 2100 
L 1113 541 
L 3925 541 
L 3925 0 
L 506 0 
z
" transform="scale(0.015625)"/>
      </defs>
      <use xlink:href="#ArialMT-56"/>
      <use xlink:href="#ArialMT-45" x="66.699219"/>
      <use xlink:href="#ArialMT-52" x="133.398438"/>
     </g>
    </g>
    <g id="line2d_74">
     <path d="M 655.244062 64.631187 
L 665.244062 64.631187 
L 675.244062 64.631187 
" style="fill: none; stroke: #00d2be; stroke-width: 2; stroke-linecap: round"/>
    </g>
    <g id="text_22">
     <!-- HAM -->
     <g style="fill: #262626" transform="translate(683.244062 68.131187)scale(0.1 -0.1)">
      <defs>
       <path id="ArialMT-48" d="M 513 0 
L 513 4581 
L 1119 4581 
L 1119 2700 
L 3500 2700 
L 3500 4581 
L 4106 4581 
L 4106 0 
L 3500 0 
L 3500 2159 
L 1119 2159 
L 1119 0 
L 513 0 
z
" transform="scale(0.015625)"/>
       <path id="ArialMT-41" d="M -9 0 
L 1750 4581 
L 2403 4581 
L 4278 0 
L 3588 0 
L 3053 1388 
L 1138 1388 
L 634 0 
L -9 0 
z
M 1313 1881 
L 2866 1881 
L 2388 3150 
Q 2169 3728 2063 4100 
Q 1975 3659 1816 3225 
L 1313 1881 
z
" transform="scale(0.015625)"/>
      </defs>
      <use xlink:href="#ArialMT-48"/>
      <use xlink:href="#ArialMT-41" x="72.216797"/>
      <use xlink:href="#ArialMT-4d" x="138.916016"/>
     </g>
    </g>
    <g id="line2d_75">
     <path d="M 655.244062 78.7765 
L 665.244062 78.7765 
L 675.244062 78.7765 
" style="fill: none; stroke: #0600ef; stroke-width: 2; stroke-linecap: round"/>
    </g>
    <g id="text_23">
     <!-- PER -->
     <g style="fill: #262626" transform="translate(683.244062 82.2765)scale(0.1 -0.1)">
      <use xlink:href="#ArialMT-50"/>
      <use xlink:href="#ArialMT-45" x="66.699219"/>
      <use xlink:href="#ArialMT-52" x="133.398438"/>
     </g>
    </g>
    <g id="line2d_76">
     <path d="M 655.244062 92.921812 
L 665.244062 92.921812 
L 675.244062 92.921812 
" style="fill: none; stroke: #00d2be; stroke-width: 2; stroke-linecap: round"/>
    </g>
    <g id="text_24">
     <!-- RUS -->
     <g style="fill: #262626" transform="translate(683.244062 96.421812)scale(0.1 -0.1)">
      <defs>
       <path id="ArialMT-55" d="M 3500 4581 
L 4106 4581 
L 4106 1934 
Q 4106 1244 3950 837 
Q 3794 431 3386 176 
Q 2978 -78 2316 -78 
Q 1672 -78 1262 144 
Q 853 366 678 786 
Q 503 1206 503 1934 
L 503 4581 
L 1109 4581 
L 1109 1938 
Q 1109 1341 1220 1058 
Q 1331 775 1601 622 
Q 1872 469 2263 469 
Q 2931 469 3215 772 
Q 3500 1075 3500 1938 
L 3500 4581 
z
" transform="scale(0.015625)"/>
      </defs>
      <use xlink:href="#ArialMT-52"/>
      <use xlink:href="#ArialMT-55" x="72.216797"/>
      <use xlink:href="#ArialMT-53" x="144.433594"/>
     </g>
    </g>
    <g id="line2d_77">
     <path d="M 655.244062 107.067125 
L 665.244062 107.067125 
L 675.244062 107.067125 
" style="fill: none; stroke: #dc0000; stroke-width: 2; stroke-linecap: round"/>
    </g>
    <g id="text_25">
     <!-- SAI -->
     <g style="fill: #262626" transform="translate(683.244062 110.567125)scale(0.1 -0.1)">
      <defs>
       <path id="ArialMT-49" d="M 597 0 
L 597 4581 
L 1203 4581 
L 1203 0 
L 597 0 
z
" transform="scale(0.015625)"/>
      </defs>
      <use xlink:href="#ArialMT-53"/>
      <use xlink:href="#ArialMT-41" x="66.699219"/>
      <use xlink:href="#ArialMT-49" x="133.398438"/>
     </g>
    </g>
    <g id="line2d_78">
     <path d="M 655.244062 121.212437 
L 665.244062 121.212437 
L 675.244062 121.212437 
" style="fill: none; stroke: #dc0000; stroke-width: 2; stroke-linecap: round"/>
    </g>
    <g id="text_26">
     <!-- LEC -->
     <g style="fill: #262626" transform="translate(683.244062 124.712437)scale(0.1 -0.1)">
      <use xlink:href="#ArialMT-4c"/>
      <use xlink:href="#ArialMT-45" x="55.615234"/>
      <use xlink:href="#ArialMT-43" x="122.314453"/>
     </g>
    </g>
    <g id="line2d_79">
     <path d="M 655.244062 135.35775 
L 665.244062 135.35775 
L 675.244062 135.35775 
" style="fill: none; stroke: #ff8700; stroke-width: 2; stroke-linecap: round"/>
    </g>
    <g id="text_27">
     <!-- RIC -->
     <g style="fill: #262626" transform="translate(683.244062 138.85775)scale(0.1 -0.1)">
      <use xlink:href="#ArialMT-52"/>
      <use xlink:href="#ArialMT-49" x="72.216797"/>
      <use xlink:href="#ArialMT-43" x="100"/>
     </g>
    </g>
    <g id="line2d_80">
     <path d="M 655.244062 149.503062 
L 665.244062 149.503062 
L 675.244062 149.503062 
" style="fill: none; stroke: #0090ff; stroke-width: 2; stroke-linecap: round"/>
    </g>
    <g id="text_28">
     <!-- OCO -->
     <g style="fill: #262626" transform="translate(683.244062 153.003062)scale(0.1 -0.1)">
      <defs>
       <path id="ArialMT-4f" d="M 309 2231 
Q 309 3372 921 4017 
Q 1534 4663 2503 4663 
Q 3138 4663 3647 4359 
Q 4156 4056 4423 3514 
Q 4691 2972 4691 2284 
Q 4691 1588 4409 1038 
Q 4128 488 3612 205 
Q 3097 -78 2500 -78 
Q 1853 -78 1343 234 
Q 834 547 571 1087 
Q 309 1628 309 2231 
z
M 934 2222 
Q 934 1394 1379 917 
Q 1825 441 2497 441 
Q 3181 441 3623 922 
Q 4066 1403 4066 2288 
Q 4066 2847 3877 3264 
Q 3688 3681 3323 3911 
Q 2959 4141 2506 4141 
Q 1863 4141 1398 3698 
Q 934 3256 934 2222 
z
" transform="scale(0.015625)"/>
      </defs>
      <use xlink:href="#ArialMT-4f"/>
      <use xlink:href="#ArialMT-43" x="77.783203"/>
      <use xlink:href="#ArialMT-4f" x="150"/>
     </g>
    </g>
    <g id="line2d_81">
     <path d="M 655.244062 163.648375 
L 665.244062 163.648375 
L 675.244062 163.648375 
" style="fill: none; stroke: #ff8700; stroke-width: 2; stroke-linecap: round"/>
    </g>
    <g id="text_29">
     <!-- NOR -->
     <g style="fill: #262626" transform="translate(683.244062 167.148375)scale(0.1 -0.1)">
      <use xlink:href="#ArialMT-4e"/>
      <use xlink:href="#ArialMT-4f" x="72.216797"/>
      <use xlink:href="#ArialMT-52" x="150"/>
     </g>
    </g>
    <g id="line2d_82">
     <path d="M 655.244062 177.793687 
L 665.244062 177.793687 
L 675.244062 177.793687 
" style="fill: none; stroke: #900000; stroke-width: 2; stroke-linecap: round"/>
    </g>
    <g id="text_30">
     <!-- BOT -->
     <g style="fill: #262626" transform="translate(683.244062 181.293687)scale(0.1 -0.1)">
      <defs>
       <path id="ArialMT-42" d="M 469 0 
L 469 4581 
L 2188 4581 
Q 2713 4581 3030 4442 
Q 3347 4303 3526 4014 
Q 3706 3725 3706 3409 
Q 3706 3116 3547 2856 
Q 3388 2597 3066 2438 
Q 3481 2316 3704 2022 
Q 3928 1728 3928 1328 
Q 3928 1006 3792 729 
Q 3656 453 3456 303 
Q 3256 153 2954 76 
Q 2653 0 2216 0 
L 469 0 
z
M 1075 2656 
L 2066 2656 
Q 2469 2656 2644 2709 
Q 2875 2778 2992 2937 
Q 3109 3097 3109 3338 
Q 3109 3566 3000 3739 
Q 2891 3913 2687 3977 
Q 2484 4041 1991 4041 
L 1075 4041 
L 1075 2656 
z
M 1075 541 
L 2216 541 
Q 2509 541 2628 563 
Q 2838 600 2978 687 
Q 3119 775 3209 942 
Q 3300 1109 3300 1328 
Q 3300 1584 3169 1773 
Q 3038 1963 2805 2039 
Q 2572 2116 2134 2116 
L 1075 2116 
L 1075 541 
z
" transform="scale(0.015625)"/>
      </defs>
      <use xlink:href="#ArialMT-42"/>
      <use xlink:href="#ArialMT-4f" x="66.699219"/>
      <use xlink:href="#ArialMT-54" x="144.482422"/>
     </g>
    </g>
    <g id="line2d_83">
     <path d="M 655.244062 191.939 
L 665.244062 191.939 
L 675.244062 191.939 
" style="fill: none; stroke: #2b4562; stroke-width: 2; stroke-linecap: round"/>
    </g>
    <g id="text_31">
     <!-- GAS -->
     <g style="fill: #262626" transform="translate(683.244062 195.439)scale(0.1 -0.1)">
      <use xlink:href="#ArialMT-47"/>
      <use xlink:href="#ArialMT-41" x="77.783203"/>
      <use xlink:href="#ArialMT-53" x="144.482422"/>
     </g>
    </g>
    <g id="line2d_84">
     <path d="M 655.244062 206.084312 
L 665.244062 206.084312 
L 675.244062 206.084312 
" style="fill: none; stroke: #005aff; stroke-width: 2; stroke-linecap: round"/>
    </g>
    <g id="text_32">
     <!-- ALB -->
     <g style="fill: #262626" transform="translate(683.244062 209.584312)scale(0.1 -0.1)">
      <use xlink:href="#ArialMT-41"/>
      <use xlink:href="#ArialMT-4c" x="66.699219"/>
      <use xlink:href="#ArialMT-42" x="122.314453"/>
     </g>
    </g>
    <g id="line2d_85">
     <path d="M 655.244062 220.229625 
L 665.244062 220.229625 
L 675.244062 220.229625 
" style="fill: none; stroke: #900000; stroke-width: 2; stroke-linecap: round"/>
    </g>
    <g id="text_33">
     <!-- ZHO -->
     <g style="fill: #262626" transform="translate(683.244062 223.729625)scale(0.1 -0.1)">
      <defs>
       <path id="ArialMT-5a" d="M 128 0 
L 128 563 
L 2475 3497 
Q 2725 3809 2950 4041 
L 394 4041 
L 394 4581 
L 3675 4581 
L 3675 4041 
L 1103 863 
L 825 541 
L 3750 541 
L 3750 0 
L 128 0 
z
" transform="scale(0.015625)"/>
      </defs>
      <use xlink:href="#ArialMT-5a"/>
      <use xlink:href="#ArialMT-48" x="61.083984"/>
      <use xlink:href="#ArialMT-4f" x="133.300781"/>
     </g>
    </g>
    <g id="line2d_86">
     <path d="M 655.244062 234.374937 
L 665.244062 234.374937 
L 675.244062 234.374937 
" style="fill: none; stroke: #006f62; stroke-width: 2; stroke-linecap: round"/>
    </g>
    <g id="text_34">
     <!-- VET -->
     <g style="fill: #262626" transform="translate(683.244062 237.874937)scale(0.1 -0.1)">
      <use xlink:href="#ArialMT-56"/>
      <use xlink:href="#ArialMT-45" x="66.699219"/>
      <use xlink:href="#ArialMT-54" x="133.398438"/>
     </g>
    </g>
    <g id="line2d_87">
     <path d="M 655.244062 248.52025 
L 665.244062 248.52025 
L 675.244062 248.52025 
" style="fill: none; stroke: #006f62; stroke-width: 2; stroke-linecap: round"/>
    </g>
    <g id="text_35">
     <!-- STR -->
     <g style="fill: #262626" transform="translate(683.244062 252.02025)scale(0.1 -0.1)">
      <use xlink:href="#ArialMT-53"/>
      <use xlink:href="#ArialMT-54" x="66.699219"/>
      <use xlink:href="#ArialMT-52" x="127.783203"/>
     </g>
    </g>
    <g id="line2d_88">
     <path d="M 655.244062 262.665562 
L 665.244062 262.665562 
L 675.244062 262.665562 
" style="fill: none; stroke: #ffffff; stroke-width: 2; stroke-linecap: round"/>
    </g>
    <g id="text_36">
     <!-- MSC -->
     <g style="fill: #262626" transform="translate(683.244062 266.165562)scale(0.1 -0.1)">
      <use xlink:href="#ArialMT-4d"/>
      <use xlink:href="#ArialMT-53" x="83.300781"/>
      <use xlink:href="#ArialMT-43" x="150"/>
     </g>
    </g>
    <g id="line2d_89">
     <path d="M 655.244062 276.810875 
L 665.244062 276.810875 
L 675.244062 276.810875 
" style="fill: none; stroke: #ffffff; stroke-width: 2; stroke-linecap: round"/>
    </g>
    <g id="text_37">
     <!-- MAG -->
     <g style="fill: #262626" transform="translate(683.244062 280.310875)scale(0.1 -0.1)">
      <use xlink:href="#ArialMT-4d"/>
      <use xlink:href="#ArialMT-41" x="83.300781"/>
      <use xlink:href="#ArialMT-47" x="150"/>
     </g>
    </g>
    <g id="line2d_90">
     <path d="M 655.244062 290.956187 
L 665.244062 290.956187 
L 675.244062 290.956187 
" style="fill: none; stroke: #005aff; stroke-width: 2; stroke-linecap: round"/>
    </g>
    <g id="text_38">
     <!-- LAT -->
     <g style="fill: #262626" transform="translate(683.244062 294.456187)scale(0.1 -0.1)">
      <use xlink:href="#ArialMT-4c"/>
      <use xlink:href="#ArialMT-41" x="55.615234"/>
      <use xlink:href="#ArialMT-54" x="114.939453"/>
     </g>
    </g>
    <g id="line2d_91">
     <path d="M 655.244062 305.1015 
L 665.244062 305.1015 
L 675.244062 305.1015 
" style="fill: none; stroke: #0090ff; stroke-width: 2; stroke-linecap: round"/>
    </g>
    <g id="text_39">
     <!-- ALO -->
     <g style="fill: #262626" transform="translate(683.244062 308.6015)scale(0.1 -0.1)">
      <use xlink:href="#ArialMT-41"/>
      <use xlink:href="#ArialMT-4c" x="66.699219"/>
      <use xlink:href="#ArialMT-4f" x="122.314453"/>
     </g>
    </g>
    <g id="line2d_92">
     <path d="M 655.244062 319.246812 
L 665.244062 319.246812 
L 675.244062 319.246812 
" style="fill: none; stroke: #2b4562; stroke-width: 2; stroke-linecap: round"/>
    </g>
    <g id="text_40">
     <!-- TSU -->
     <g style="fill: #262626" transform="translate(683.244062 322.746812)scale(0.1 -0.1)">
      <use xlink:href="#ArialMT-54"/>
      <use xlink:href="#ArialMT-53" x="61.083984"/>
      <use xlink:href="#ArialMT-55" x="127.783203"/>
     </g>
    </g>
   </g>
  </g>
  <g id="text_41">
   <!--  2022 Yoann Betton -->
   <g style="fill: #262626" transform="translate(322.080781 398.760562)scale(0.1 -0.1)">
    <defs>
     <path id="ArialMT-a9" d="M 2369 4659 
Q 2963 4659 3528 4354 
Q 4094 4050 4409 3483 
Q 4725 2916 4725 2300 
Q 4725 1691 4414 1128 
Q 4103 566 3542 255 
Q 2981 -56 2369 -56 
Q 1756 -56 1195 255 
Q 634 566 321 1128 
Q 9 1691 9 2300 
Q 9 2916 326 3483 
Q 644 4050 1209 4354 
Q 1775 4659 2369 4659 
z
M 2369 4269 
Q 1872 4269 1401 4014 
Q 931 3759 665 3286 
Q 400 2813 400 2300 
Q 400 1791 661 1323 
Q 922 856 1390 595 
Q 1859 334 2369 334 
Q 2878 334 3347 595 
Q 3816 856 4075 1323 
Q 4334 1791 4334 2300 
Q 4334 2813 4070 3286 
Q 3806 3759 3334 4014 
Q 2863 4269 2369 4269 
z
M 3125 1919 
L 3509 1806 
Q 3416 1416 3111 1183 
Q 2806 950 2372 950 
Q 1822 950 1478 1306 
Q 1134 1663 1134 2294 
Q 1134 2706 1290 3011 
Q 1447 3316 1736 3470 
Q 2025 3625 2397 3625 
Q 2813 3625 3088 3426 
Q 3363 3228 3463 2888 
L 3091 2797 
Q 2997 3028 2814 3151 
Q 2631 3275 2384 3275 
Q 2025 3275 1792 3019 
Q 1559 2763 1559 2284 
Q 1559 1806 1779 1561 
Q 2000 1316 2350 1316 
Q 2631 1316 2843 1478 
Q 3056 1641 3125 1919 
z
" transform="scale(0.015625)"/>
     <path id="ArialMT-59" d="M 1784 0 
L 1784 1941 
L 19 4581 
L 756 4581 
L 1659 3200 
Q 1909 2813 2125 2425 
Q 2331 2784 2625 3234 
L 3513 4581 
L 4219 4581 
L 2391 1941 
L 2391 0 
L 1784 0 
z
" transform="scale(0.015625)"/>
    </defs>
    <use xlink:href="#ArialMT-a9"/>
    <use xlink:href="#ArialMT-20" x="73.681641"/>
    <use xlink:href="#ArialMT-32" x="101.464844"/>
    <use xlink:href="#ArialMT-30" x="157.080078"/>
    <use xlink:href="#ArialMT-32" x="212.695312"/>
    <use xlink:href="#ArialMT-32" x="268.310547"/>
    <use xlink:href="#ArialMT-20" x="323.925781"/>
    <use xlink:href="#ArialMT-59" x="349.958984"/>
    <use xlink:href="#ArialMT-6f" x="407.533203"/>
    <use xlink:href="#ArialMT-61" x="463.148438"/>
    <use xlink:href="#ArialMT-6e" x="518.763672"/>
    <use xlink:href="#ArialMT-6e" x="574.378906"/>
    <use xlink:href="#ArialMT-20" x="629.994141"/>
    <use xlink:href="#ArialMT-42" x="657.777344"/>
    <use xlink:href="#ArialMT-65" x="724.476562"/>
    <use xlink:href="#ArialMT-74" x="780.091797"/>
    <use xlink:href="#ArialMT-74" x="807.875"/>
    <use xlink:href="#ArialMT-6f" x="835.658203"/>
    <use xlink:href="#ArialMT-6e" x="891.273438"/>
   </g>
  </g>
 </g>
 <defs>
  <clipPath id="p8e0d316498">
   <rect x="45.422188" y="23.68275" width="669.6" height="388.08"/>
  </clipPath>
 </defs>
</svg>
