<?xml version="1.0" encoding="utf-8" standalone="no"?>
<!DOCTYPE svg PUBLIC "-//W3C//DTD SVG 1.1//EN"
  "http://www.w3.org/Graphics/SVG/1.1/DTD/svg11.dtd">
<svg xmlns:xlink="http://www.w3.org/1999/xlink" width="725.016183pt" height="446.582437pt" viewBox="0 0 725.016183 446.582437" xmlns="http://www.w3.org/2000/svg" version="1.1">
 <metadata>
  <rdf:RDF xmlns:dc="http://purl.org/dc/elements/1.1/" xmlns:cc="http://creativecommons.org/ns#" xmlns:rdf="http://www.w3.org/1999/02/22-rdf-syntax-ns#">
   <cc:Work>
    <dc:type rdf:resource="http://purl.org/dc/dcmitype/StillImage"/>
    <dc:date>2022-11-12T19:06:24.395115</dc:date>
    <dc:format>image/svg+xml</dc:format>
    <dc:creator>
     <cc:Agent>
      <dc:title>Matplotlib v3.5.2, https://matplotlib.org/</dc:title>
     </cc:Agent>
    </dc:creator>
   </cc:Work>
  </rdf:RDF>
 </metadata>
 <defs>
  <style type="text/css">*{stroke-linejoin: round; stroke-linecap: butt}</style>
 </defs>
 <g id="figure_1">
  <g id="patch_1">
   <path d="M 0 446.582437 
L 725.016183 446.582437 
L 725.016183 0 
L 0 0 
z
" style="fill: #ffffff"/>
  </g>
  <g id="axes_1">
   <g id="patch_2">
    <path d="M 45.422188 411.76275 
L 715.022187 411.76275 
L 715.022187 23.68275 
L 45.422188 23.68275 
z
" style="fill: #eeeeee"/>
   </g>
   <g id="matplotlib.axis_1">
    <g id="xtick_1">
     <g id="line2d_1">
      <path d="M 158.866816 411.76275 
L 158.866816 23.68275 
" clip-path="url(#pae18aae7f9)" style="fill: none; stroke-dasharray: 1.85,0.8; stroke-dashoffset: 0; stroke: #b2b2b2; stroke-width: 0.5"/>
     </g>
     <g id="line2d_2"/>
     <g id="text_1">
      <!-- 5 -->
      <g style="fill: #555555" transform="translate(156.086347 422.420562)scale(0.1 -0.1)">
       <defs>
        <path id="ArialMT-35" d="M 266 1200 
L 856 1250 
Q 922 819 1161 601 
Q 1400 384 1738 384 
Q 2144 384 2425 690 
Q 2706 997 2706 1503 
Q 2706 1984 2436 2262 
Q 2166 2541 1728 2541 
Q 1456 2541 1237 2417 
Q 1019 2294 894 2097 
L 366 2166 
L 809 4519 
L 3088 4519 
L 3088 3981 
L 1259 3981 
L 1013 2750 
Q 1425 3038 1878 3038 
Q 2478 3038 2890 2622 
Q 3303 2206 3303 1553 
Q 3303 931 2941 478 
Q 2500 -78 1738 -78 
Q 1113 -78 717 272 
Q 322 622 266 1200 
z
" transform="scale(0.015625)"/>
       </defs>
       <use xlink:href="#ArialMT-35"/>
      </g>
     </g>
    </g>
    <g id="xtick_2">
     <g id="line2d_3">
      <path d="M 297.213923 411.76275 
L 297.213923 23.68275 
" clip-path="url(#pae18aae7f9)" style="fill: none; stroke-dasharray: 1.85,0.8; stroke-dashoffset: 0; stroke: #b2b2b2; stroke-width: 0.5"/>
     </g>
     <g id="line2d_4"/>
     <g id="text_2">
      <!-- 10 -->
      <g style="fill: #555555" transform="translate(291.652986 422.420562)scale(0.1 -0.1)">
       <defs>
        <path id="ArialMT-31" d="M 2384 0 
L 1822 0 
L 1822 3584 
Q 1619 3391 1289 3197 
Q 959 3003 697 2906 
L 697 3450 
Q 1169 3672 1522 3987 
Q 1875 4303 2022 4600 
L 2384 4600 
L 2384 0 
z
" transform="scale(0.015625)"/>
        <path id="ArialMT-30" d="M 266 2259 
Q 266 3072 433 3567 
Q 600 4063 929 4331 
Q 1259 4600 1759 4600 
Q 2128 4600 2406 4451 
Q 2684 4303 2865 4023 
Q 3047 3744 3150 3342 
Q 3253 2941 3253 2259 
Q 3253 1453 3087 958 
Q 2922 463 2592 192 
Q 2263 -78 1759 -78 
Q 1097 -78 719 397 
Q 266 969 266 2259 
z
M 844 2259 
Q 844 1131 1108 757 
Q 1372 384 1759 384 
Q 2147 384 2411 759 
Q 2675 1134 2675 2259 
Q 2675 3391 2411 3762 
Q 2147 4134 1753 4134 
Q 1366 4134 1134 3806 
Q 844 3388 844 2259 
z
" transform="scale(0.015625)"/>
       </defs>
       <use xlink:href="#ArialMT-31"/>
       <use xlink:href="#ArialMT-30" x="55.615234"/>
      </g>
     </g>
    </g>
    <g id="xtick_3">
     <g id="line2d_5">
      <path d="M 435.56103 411.76275 
L 435.56103 23.68275 
" clip-path="url(#pae18aae7f9)" style="fill: none; stroke-dasharray: 1.85,0.8; stroke-dashoffset: 0; stroke: #b2b2b2; stroke-width: 0.5"/>
     </g>
     <g id="line2d_6"/>
     <g id="text_3">
      <!-- 15 -->
      <g style="fill: #555555" transform="translate(430.000093 422.420562)scale(0.1 -0.1)">
       <use xlink:href="#ArialMT-31"/>
       <use xlink:href="#ArialMT-35" x="55.615234"/>
      </g>
     </g>
    </g>
    <g id="xtick_4">
     <g id="line2d_7">
      <path d="M 573.908138 411.76275 
L 573.908138 23.68275 
" clip-path="url(#pae18aae7f9)" style="fill: none; stroke-dasharray: 1.85,0.8; stroke-dashoffset: 0; stroke: #b2b2b2; stroke-width: 0.5"/>
     </g>
     <g id="line2d_8"/>
     <g id="text_4">
      <!-- 20 -->
      <g style="fill: #555555" transform="translate(568.3472 422.420562)scale(0.1 -0.1)">
       <defs>
        <path id="ArialMT-32" d="M 3222 541 
L 3222 0 
L 194 0 
Q 188 203 259 391 
Q 375 700 629 1000 
Q 884 1300 1366 1694 
Q 2113 2306 2375 2664 
Q 2638 3022 2638 3341 
Q 2638 3675 2398 3904 
Q 2159 4134 1775 4134 
Q 1369 4134 1125 3890 
Q 881 3647 878 3216 
L 300 3275 
Q 359 3922 746 4261 
Q 1134 4600 1788 4600 
Q 2447 4600 2831 4234 
Q 3216 3869 3216 3328 
Q 3216 3053 3103 2787 
Q 2991 2522 2730 2228 
Q 2469 1934 1863 1422 
Q 1356 997 1212 845 
Q 1069 694 975 541 
L 3222 541 
z
" transform="scale(0.015625)"/>
       </defs>
       <use xlink:href="#ArialMT-32"/>
       <use xlink:href="#ArialMT-30" x="55.615234"/>
      </g>
     </g>
    </g>
    <g id="xtick_5">
     <g id="line2d_9">
      <path d="M 712.255245 411.76275 
L 712.255245 23.68275 
" clip-path="url(#pae18aae7f9)" style="fill: none; stroke-dasharray: 1.85,0.8; stroke-dashoffset: 0; stroke: #b2b2b2; stroke-width: 0.5"/>
     </g>
     <g id="line2d_10"/>
     <g id="text_5">
      <!-- 25 -->
      <g style="fill: #555555" transform="translate(706.694308 422.420562)scale(0.1 -0.1)">
       <use xlink:href="#ArialMT-32"/>
       <use xlink:href="#ArialMT-35" x="55.615234"/>
      </g>
     </g>
    </g>
    <g id="text_6">
     <!-- LapNumber -->
     <g style="fill: #555555" transform="translate(348.874062 436.997437)scale(0.12 -0.12)">
      <defs>
       <path id="ArialMT-4c" d="M 469 0 
L 469 4581 
L 1075 4581 
L 1075 541 
L 3331 541 
L 3331 0 
L 469 0 
z
" transform="scale(0.015625)"/>
       <path id="ArialMT-61" d="M 2588 409 
Q 2275 144 1986 34 
Q 1697 -75 1366 -75 
Q 819 -75 525 192 
Q 231 459 231 875 
Q 231 1119 342 1320 
Q 453 1522 633 1644 
Q 813 1766 1038 1828 
Q 1203 1872 1538 1913 
Q 2219 1994 2541 2106 
Q 2544 2222 2544 2253 
Q 2544 2597 2384 2738 
Q 2169 2928 1744 2928 
Q 1347 2928 1158 2789 
Q 969 2650 878 2297 
L 328 2372 
Q 403 2725 575 2942 
Q 747 3159 1072 3276 
Q 1397 3394 1825 3394 
Q 2250 3394 2515 3294 
Q 2781 3194 2906 3042 
Q 3031 2891 3081 2659 
Q 3109 2516 3109 2141 
L 3109 1391 
Q 3109 606 3145 398 
Q 3181 191 3288 0 
L 2700 0 
Q 2613 175 2588 409 
z
M 2541 1666 
Q 2234 1541 1622 1453 
Q 1275 1403 1131 1340 
Q 988 1278 909 1158 
Q 831 1038 831 891 
Q 831 666 1001 516 
Q 1172 366 1500 366 
Q 1825 366 2078 508 
Q 2331 650 2450 897 
Q 2541 1088 2541 1459 
L 2541 1666 
z
" transform="scale(0.015625)"/>
       <path id="ArialMT-70" d="M 422 -1272 
L 422 3319 
L 934 3319 
L 934 2888 
Q 1116 3141 1344 3267 
Q 1572 3394 1897 3394 
Q 2322 3394 2647 3175 
Q 2972 2956 3137 2557 
Q 3303 2159 3303 1684 
Q 3303 1175 3120 767 
Q 2938 359 2589 142 
Q 2241 -75 1856 -75 
Q 1575 -75 1351 44 
Q 1128 163 984 344 
L 984 -1272 
L 422 -1272 
z
M 931 1641 
Q 931 1000 1190 694 
Q 1450 388 1819 388 
Q 2194 388 2461 705 
Q 2728 1022 2728 1688 
Q 2728 2322 2467 2637 
Q 2206 2953 1844 2953 
Q 1484 2953 1207 2617 
Q 931 2281 931 1641 
z
" transform="scale(0.015625)"/>
       <path id="ArialMT-4e" d="M 488 0 
L 488 4581 
L 1109 4581 
L 3516 984 
L 3516 4581 
L 4097 4581 
L 4097 0 
L 3475 0 
L 1069 3600 
L 1069 0 
L 488 0 
z
" transform="scale(0.015625)"/>
       <path id="ArialMT-75" d="M 2597 0 
L 2597 488 
Q 2209 -75 1544 -75 
Q 1250 -75 995 37 
Q 741 150 617 320 
Q 494 491 444 738 
Q 409 903 409 1263 
L 409 3319 
L 972 3319 
L 972 1478 
Q 972 1038 1006 884 
Q 1059 663 1231 536 
Q 1403 409 1656 409 
Q 1909 409 2131 539 
Q 2353 669 2445 892 
Q 2538 1116 2538 1541 
L 2538 3319 
L 3100 3319 
L 3100 0 
L 2597 0 
z
" transform="scale(0.015625)"/>
       <path id="ArialMT-6d" d="M 422 0 
L 422 3319 
L 925 3319 
L 925 2853 
Q 1081 3097 1340 3245 
Q 1600 3394 1931 3394 
Q 2300 3394 2536 3241 
Q 2772 3088 2869 2813 
Q 3263 3394 3894 3394 
Q 4388 3394 4653 3120 
Q 4919 2847 4919 2278 
L 4919 0 
L 4359 0 
L 4359 2091 
Q 4359 2428 4304 2576 
Q 4250 2725 4106 2815 
Q 3963 2906 3769 2906 
Q 3419 2906 3187 2673 
Q 2956 2441 2956 1928 
L 2956 0 
L 2394 0 
L 2394 2156 
Q 2394 2531 2256 2718 
Q 2119 2906 1806 2906 
Q 1569 2906 1367 2781 
Q 1166 2656 1075 2415 
Q 984 2175 984 1722 
L 984 0 
L 422 0 
z
" transform="scale(0.015625)"/>
       <path id="ArialMT-62" d="M 941 0 
L 419 0 
L 419 4581 
L 981 4581 
L 981 2947 
Q 1338 3394 1891 3394 
Q 2197 3394 2470 3270 
Q 2744 3147 2920 2923 
Q 3097 2700 3197 2384 
Q 3297 2069 3297 1709 
Q 3297 856 2875 390 
Q 2453 -75 1863 -75 
Q 1275 -75 941 416 
L 941 0 
z
M 934 1684 
Q 934 1088 1097 822 
Q 1363 388 1816 388 
Q 2184 388 2453 708 
Q 2722 1028 2722 1663 
Q 2722 2313 2464 2622 
Q 2206 2931 1841 2931 
Q 1472 2931 1203 2611 
Q 934 2291 934 1684 
z
" transform="scale(0.015625)"/>
       <path id="ArialMT-65" d="M 2694 1069 
L 3275 997 
Q 3138 488 2766 206 
Q 2394 -75 1816 -75 
Q 1088 -75 661 373 
Q 234 822 234 1631 
Q 234 2469 665 2931 
Q 1097 3394 1784 3394 
Q 2450 3394 2872 2941 
Q 3294 2488 3294 1666 
Q 3294 1616 3291 1516 
L 816 1516 
Q 847 969 1125 678 
Q 1403 388 1819 388 
Q 2128 388 2347 550 
Q 2566 713 2694 1069 
z
M 847 1978 
L 2700 1978 
Q 2663 2397 2488 2606 
Q 2219 2931 1791 2931 
Q 1403 2931 1139 2672 
Q 875 2413 847 1978 
z
" transform="scale(0.015625)"/>
       <path id="ArialMT-72" d="M 416 0 
L 416 3319 
L 922 3319 
L 922 2816 
Q 1116 3169 1280 3281 
Q 1444 3394 1641 3394 
Q 1925 3394 2219 3213 
L 2025 2691 
Q 1819 2813 1613 2813 
Q 1428 2813 1281 2702 
Q 1134 2591 1072 2394 
Q 978 2094 978 1738 
L 978 0 
L 416 0 
z
" transform="scale(0.015625)"/>
      </defs>
      <use xlink:href="#ArialMT-4c"/>
      <use xlink:href="#ArialMT-61" x="55.615234"/>
      <use xlink:href="#ArialMT-70" x="111.230469"/>
      <use xlink:href="#ArialMT-4e" x="166.845703"/>
      <use xlink:href="#ArialMT-75" x="239.0625"/>
      <use xlink:href="#ArialMT-6d" x="294.677734"/>
      <use xlink:href="#ArialMT-62" x="377.978516"/>
      <use xlink:href="#ArialMT-65" x="433.59375"/>
      <use xlink:href="#ArialMT-72" x="489.208984"/>
     </g>
    </g>
   </g>
   <g id="matplotlib.axis_2">
    <g id="ytick_1">
     <g id="line2d_11">
      <path d="M 45.422188 371.078333 
L 715.022187 371.078333 
" clip-path="url(#pae18aae7f9)" style="fill: none; stroke-dasharray: 1.85,0.8; stroke-dashoffset: 0; stroke: #b2b2b2; stroke-width: 0.5"/>
     </g>
     <g id="line2d_12"/>
     <g id="text_7">
      <!-- 75.0 -->
      <g style="fill: #555555" transform="translate(22.46125 374.657239)scale(0.1 -0.1)">
       <defs>
        <path id="ArialMT-37" d="M 303 3981 
L 303 4522 
L 3269 4522 
L 3269 4084 
Q 2831 3619 2401 2847 
Q 1972 2075 1738 1259 
Q 1569 684 1522 0 
L 944 0 
Q 953 541 1156 1306 
Q 1359 2072 1739 2783 
Q 2119 3494 2547 3981 
L 303 3981 
z
" transform="scale(0.015625)"/>
        <path id="ArialMT-2e" d="M 581 0 
L 581 641 
L 1222 641 
L 1222 0 
L 581 0 
z
" transform="scale(0.015625)"/>
       </defs>
       <use xlink:href="#ArialMT-37"/>
       <use xlink:href="#ArialMT-35" x="55.615234"/>
       <use xlink:href="#ArialMT-2e" x="111.230469"/>
       <use xlink:href="#ArialMT-30" x="139.013672"/>
      </g>
     </g>
    </g>
    <g id="ytick_2">
     <g id="line2d_13">
      <path d="M 45.422188 326.728031 
L 715.022187 326.728031 
" clip-path="url(#pae18aae7f9)" style="fill: none; stroke-dasharray: 1.85,0.8; stroke-dashoffset: 0; stroke: #b2b2b2; stroke-width: 0.5"/>
     </g>
     <g id="line2d_14"/>
     <g id="text_8">
      <!-- 75.5 -->
      <g style="fill: #555555" transform="translate(22.46125 330.306937)scale(0.1 -0.1)">
       <use xlink:href="#ArialMT-37"/>
       <use xlink:href="#ArialMT-35" x="55.615234"/>
       <use xlink:href="#ArialMT-2e" x="111.230469"/>
       <use xlink:href="#ArialMT-35" x="139.013672"/>
      </g>
     </g>
    </g>
    <g id="ytick_3">
     <g id="line2d_15">
      <path d="M 45.422188 282.377729 
L 715.022187 282.377729 
" clip-path="url(#pae18aae7f9)" style="fill: none; stroke-dasharray: 1.85,0.8; stroke-dashoffset: 0; stroke: #b2b2b2; stroke-width: 0.5"/>
     </g>
     <g id="line2d_16"/>
     <g id="text_9">
      <!-- 76.0 -->
      <g style="fill: #555555" transform="translate(22.46125 285.956635)scale(0.1 -0.1)">
       <defs>
        <path id="ArialMT-36" d="M 3184 3459 
L 2625 3416 
Q 2550 3747 2413 3897 
Q 2184 4138 1850 4138 
Q 1581 4138 1378 3988 
Q 1113 3794 959 3422 
Q 806 3050 800 2363 
Q 1003 2672 1297 2822 
Q 1591 2972 1913 2972 
Q 2475 2972 2870 2558 
Q 3266 2144 3266 1488 
Q 3266 1056 3080 686 
Q 2894 316 2569 119 
Q 2244 -78 1831 -78 
Q 1128 -78 684 439 
Q 241 956 241 2144 
Q 241 3472 731 4075 
Q 1159 4600 1884 4600 
Q 2425 4600 2770 4297 
Q 3116 3994 3184 3459 
z
M 888 1484 
Q 888 1194 1011 928 
Q 1134 663 1356 523 
Q 1578 384 1822 384 
Q 2178 384 2434 671 
Q 2691 959 2691 1453 
Q 2691 1928 2437 2201 
Q 2184 2475 1800 2475 
Q 1419 2475 1153 2201 
Q 888 1928 888 1484 
z
" transform="scale(0.015625)"/>
       </defs>
       <use xlink:href="#ArialMT-37"/>
       <use xlink:href="#ArialMT-36" x="55.615234"/>
       <use xlink:href="#ArialMT-2e" x="111.230469"/>
       <use xlink:href="#ArialMT-30" x="139.013672"/>
      </g>
     </g>
    </g>
    <g id="ytick_4">
     <g id="line2d_17">
      <path d="M 45.422188 238.027427 
L 715.022187 238.027427 
" clip-path="url(#pae18aae7f9)" style="fill: none; stroke-dasharray: 1.85,0.8; stroke-dashoffset: 0; stroke: #b2b2b2; stroke-width: 0.5"/>
     </g>
     <g id="line2d_18"/>
     <g id="text_10">
      <!-- 76.5 -->
      <g style="fill: #555555" transform="translate(22.46125 241.606333)scale(0.1 -0.1)">
       <use xlink:href="#ArialMT-37"/>
       <use xlink:href="#ArialMT-36" x="55.615234"/>
       <use xlink:href="#ArialMT-2e" x="111.230469"/>
       <use xlink:href="#ArialMT-35" x="139.013672"/>
      </g>
     </g>
    </g>
    <g id="ytick_5">
     <g id="line2d_19">
      <path d="M 45.422188 193.677125 
L 715.022187 193.677125 
" clip-path="url(#pae18aae7f9)" style="fill: none; stroke-dasharray: 1.85,0.8; stroke-dashoffset: 0; stroke: #b2b2b2; stroke-width: 0.5"/>
     </g>
     <g id="line2d_20"/>
     <g id="text_11">
      <!-- 77.0 -->
      <g style="fill: #555555" transform="translate(22.46125 197.256031)scale(0.1 -0.1)">
       <use xlink:href="#ArialMT-37"/>
       <use xlink:href="#ArialMT-37" x="55.615234"/>
       <use xlink:href="#ArialMT-2e" x="111.230469"/>
       <use xlink:href="#ArialMT-30" x="139.013672"/>
      </g>
     </g>
    </g>
    <g id="ytick_6">
     <g id="line2d_21">
      <path d="M 45.422188 149.326823 
L 715.022187 149.326823 
" clip-path="url(#pae18aae7f9)" style="fill: none; stroke-dasharray: 1.85,0.8; stroke-dashoffset: 0; stroke: #b2b2b2; stroke-width: 0.5"/>
     </g>
     <g id="line2d_22"/>
     <g id="text_12">
      <!-- 77.5 -->
      <g style="fill: #555555" transform="translate(22.46125 152.905729)scale(0.1 -0.1)">
       <use xlink:href="#ArialMT-37"/>
       <use xlink:href="#ArialMT-37" x="55.615234"/>
       <use xlink:href="#ArialMT-2e" x="111.230469"/>
       <use xlink:href="#ArialMT-35" x="139.013672"/>
      </g>
     </g>
    </g>
    <g id="ytick_7">
     <g id="line2d_23">
      <path d="M 45.422188 104.976521 
L 715.022187 104.976521 
" clip-path="url(#pae18aae7f9)" style="fill: none; stroke-dasharray: 1.85,0.8; stroke-dashoffset: 0; stroke: #b2b2b2; stroke-width: 0.5"/>
     </g>
     <g id="line2d_24"/>
     <g id="text_13">
      <!-- 78.0 -->
      <g style="fill: #555555" transform="translate(22.46125 108.555427)scale(0.1 -0.1)">
       <defs>
        <path id="ArialMT-38" d="M 1131 2484 
Q 781 2613 612 2850 
Q 444 3088 444 3419 
Q 444 3919 803 4259 
Q 1163 4600 1759 4600 
Q 2359 4600 2725 4251 
Q 3091 3903 3091 3403 
Q 3091 3084 2923 2848 
Q 2756 2613 2416 2484 
Q 2838 2347 3058 2040 
Q 3278 1734 3278 1309 
Q 3278 722 2862 322 
Q 2447 -78 1769 -78 
Q 1091 -78 675 323 
Q 259 725 259 1325 
Q 259 1772 486 2073 
Q 713 2375 1131 2484 
z
M 1019 3438 
Q 1019 3113 1228 2906 
Q 1438 2700 1772 2700 
Q 2097 2700 2305 2904 
Q 2513 3109 2513 3406 
Q 2513 3716 2298 3927 
Q 2084 4138 1766 4138 
Q 1444 4138 1231 3931 
Q 1019 3725 1019 3438 
z
M 838 1322 
Q 838 1081 952 856 
Q 1066 631 1291 507 
Q 1516 384 1775 384 
Q 2178 384 2440 643 
Q 2703 903 2703 1303 
Q 2703 1709 2433 1975 
Q 2163 2241 1756 2241 
Q 1359 2241 1098 1978 
Q 838 1716 838 1322 
z
" transform="scale(0.015625)"/>
       </defs>
       <use xlink:href="#ArialMT-37"/>
       <use xlink:href="#ArialMT-38" x="55.615234"/>
       <use xlink:href="#ArialMT-2e" x="111.230469"/>
       <use xlink:href="#ArialMT-30" x="139.013672"/>
      </g>
     </g>
    </g>
    <g id="ytick_8">
     <g id="line2d_25">
      <path d="M 45.422188 60.626219 
L 715.022187 60.626219 
" clip-path="url(#pae18aae7f9)" style="fill: none; stroke-dasharray: 1.85,0.8; stroke-dashoffset: 0; stroke: #b2b2b2; stroke-width: 0.5"/>
     </g>
     <g id="line2d_26"/>
     <g id="text_14">
      <!-- 78.5 -->
      <g style="fill: #555555" transform="translate(22.46125 64.205125)scale(0.1 -0.1)">
       <use xlink:href="#ArialMT-37"/>
       <use xlink:href="#ArialMT-38" x="55.615234"/>
       <use xlink:href="#ArialMT-2e" x="111.230469"/>
       <use xlink:href="#ArialMT-35" x="139.013672"/>
      </g>
     </g>
    </g>
    <g id="text_15">
     <!-- LapTime (s) -->
     <g style="fill: #555555" transform="translate(15.935625 249.502125)rotate(-90)scale(0.12 -0.12)">
      <defs>
       <path id="ArialMT-54" d="M 1659 0 
L 1659 4041 
L 150 4041 
L 150 4581 
L 3781 4581 
L 3781 4041 
L 2266 4041 
L 2266 0 
L 1659 0 
z
" transform="scale(0.015625)"/>
       <path id="ArialMT-69" d="M 425 3934 
L 425 4581 
L 988 4581 
L 988 3934 
L 425 3934 
z
M 425 0 
L 425 3319 
L 988 3319 
L 988 0 
L 425 0 
z
" transform="scale(0.015625)"/>
       <path id="ArialMT-20" transform="scale(0.015625)"/>
       <path id="ArialMT-28" d="M 1497 -1347 
Q 1031 -759 709 28 
Q 388 816 388 1659 
Q 388 2403 628 3084 
Q 909 3875 1497 4659 
L 1900 4659 
Q 1522 4009 1400 3731 
Q 1209 3300 1100 2831 
Q 966 2247 966 1656 
Q 966 153 1900 -1347 
L 1497 -1347 
z
" transform="scale(0.015625)"/>
       <path id="ArialMT-73" d="M 197 991 
L 753 1078 
Q 800 744 1014 566 
Q 1228 388 1613 388 
Q 2000 388 2187 545 
Q 2375 703 2375 916 
Q 2375 1106 2209 1216 
Q 2094 1291 1634 1406 
Q 1016 1563 777 1677 
Q 538 1791 414 1992 
Q 291 2194 291 2438 
Q 291 2659 392 2848 
Q 494 3038 669 3163 
Q 800 3259 1026 3326 
Q 1253 3394 1513 3394 
Q 1903 3394 2198 3281 
Q 2494 3169 2634 2976 
Q 2775 2784 2828 2463 
L 2278 2388 
Q 2241 2644 2061 2787 
Q 1881 2931 1553 2931 
Q 1166 2931 1000 2803 
Q 834 2675 834 2503 
Q 834 2394 903 2306 
Q 972 2216 1119 2156 
Q 1203 2125 1616 2013 
Q 2213 1853 2448 1751 
Q 2684 1650 2818 1456 
Q 2953 1263 2953 975 
Q 2953 694 2789 445 
Q 2625 197 2315 61 
Q 2006 -75 1616 -75 
Q 969 -75 630 194 
Q 291 463 197 991 
z
" transform="scale(0.015625)"/>
       <path id="ArialMT-29" d="M 791 -1347 
L 388 -1347 
Q 1322 153 1322 1656 
Q 1322 2244 1188 2822 
Q 1081 3291 891 3722 
Q 769 4003 388 4659 
L 791 4659 
Q 1378 3875 1659 3084 
Q 1900 2403 1900 1659 
Q 1900 816 1576 28 
Q 1253 -759 791 -1347 
z
" transform="scale(0.015625)"/>
      </defs>
      <use xlink:href="#ArialMT-4c"/>
      <use xlink:href="#ArialMT-61" x="55.615234"/>
      <use xlink:href="#ArialMT-70" x="111.230469"/>
      <use xlink:href="#ArialMT-54" x="166.845703"/>
      <use xlink:href="#ArialMT-69" x="224.179688"/>
      <use xlink:href="#ArialMT-6d" x="246.396484"/>
      <use xlink:href="#ArialMT-65" x="329.697266"/>
      <use xlink:href="#ArialMT-20" x="385.3125"/>
      <use xlink:href="#ArialMT-28" x="413.095703"/>
      <use xlink:href="#ArialMT-73" x="446.396484"/>
      <use xlink:href="#ArialMT-29" x="496.396484"/>
     </g>
    </g>
   </g>
   <g id="line2d_27">
    <path d="M 75.858551 352.362506 
L 103.527973 358.261096 
L 131.197394 385.211296 
L 158.866816 392.011676 
L 186.536237 394.12275 
L 214.205659 393.090866 
L 241.87508 386.905055 
L 269.544502 382.930951 
L 297.213923 384.32429 
L 324.883345 383.283536 
L 352.552766 373.322458 
L 380.222187 357.134598 
L 407.891609 345.301938 
L 435.56103 338.915494 
L 463.230452 332.883853 
L 490.899873 325.752324 
L 518.569295 322.417182 
L 546.238716 321.388255 
L 573.908138 313.777743 
L 601.577559 308.393616 
L 629.246981 314.097065 
L 656.916402 327.277975 
L 684.585824 327.003003 
" clip-path="url(#pae18aae7f9)" style="fill: none; stroke: #00d2be; stroke-width: 2; stroke-linecap: round"/>
   </g>
   <g id="line2d_28">
    <path d="M 75.858551 333.495887 
L 103.527973 335.252159 
L 131.197394 344.556852 
L 158.866816 352.167364 
L 186.536237 356.868496 
L 214.205659 361.587368 
L 241.87508 365.108782 
L 269.544502 370.537259 
L 297.213923 373.065227 
L 324.883345 372.497543 
L 352.552766 362.829177 
L 380.222187 355.90166 
L 407.891609 340.964478 
L 435.56103 329.247128 
L 463.230452 317.547519 
L 490.899873 312.518194 
L 518.569295 308.491187 
L 546.238716 300.703274 
L 573.908138 294.21926 
L 601.577559 295.070785 
L 629.246981 297.483442 
L 656.916402 299.514686 
L 684.585824 305.617287 
" clip-path="url(#pae18aae7f9)" style="fill: none; stroke: #dc0000; stroke-width: 2; stroke-linecap: round"/>
   </g>
   <g id="line2d_29">
    <path d="M 75.858551 307.888023 
L 103.527973 323.57029 
L 131.197394 330.001083 
L 158.866816 336.511708 
L 186.536237 343.980299 
L 214.205659 351.351319 
L 241.87508 355.839569 
L 269.544502 360.132679 
L 297.213923 366.545732 
L 324.883345 370.812231 
L 352.552766 376.728562 
L 380.222187 364.69189 
L 407.891609 357.879683 
L 435.56103 348.867702 
L 463.230452 338.39216 
L 490.899873 329.708371 
L 518.569295 324.891929 
L 546.238716 307.719492 
L 573.908138 300.969376 
L 601.577559 298.210787 
L 629.246981 295.567509 
L 656.916402 300.348471 
L 684.585824 304.650451 
" clip-path="url(#pae18aae7f9)" style="fill: none; stroke: #00d2be; stroke-width: 2; stroke-linecap: round"/>
   </g>
   <g id="line2d_30">
    <path d="M 75.858551 314.132545 
L 103.527973 329.601931 
L 131.197394 342.79171 
L 158.866816 352.513297 
L 186.536237 371.566186 
L 214.205659 379.354099 
L 241.87508 383.83348 
L 269.544502 386.139696 
L 297.213923 386.237266 
L 324.883345 383.753649 
L 352.552766 371.512966 
L 380.222187 353.648664 
L 407.891609 340.751597 
L 435.56103 319.977915 
L 463.230452 306.504293 
L 490.899873 295.78039 
L 518.569295 286.351516 
L 546.238716 262.482184 
L 573.908138 244.653362 
L 601.577559 235.330929 
L 629.246981 233.397255 
L 656.916402 236.484037 
L 684.585824 231.543413 
" clip-path="url(#pae18aae7f9)" style="fill: none; stroke: #0600ef; stroke-width: 2; stroke-linecap: round"/>
   </g>
   <g id="line2d_31">
    <path d="M 75.858551 234.133471 
L 103.527973 240.582004 
L 131.197394 249.735907 
L 158.866816 260.823482 
L 186.536237 287.832816 
L 214.205659 301.315308 
L 241.87508 311.640058 
L 269.544502 324.208934 
L 297.213923 329.797072 
L 324.883345 336.254476 
L 352.552766 342.614309 
L 380.222187 340.237133 
L 407.891609 331.863796 
L 435.56103 323.038086 
L 463.230452 312.190002 
L 490.899873 309.449153 
L 518.569295 307.302599 
L 546.238716 299.727567 
L 573.908138 296.303724 
L 601.577559 295.452198 
L 629.246981 292.533948 
L 656.916402 289.092365 
L 684.585824 287.540104 
" clip-path="url(#pae18aae7f9)" style="fill: none; stroke: #0600ef; stroke-width: 2; stroke-linecap: round"/>
   </g>
   <g id="line2d_32">
    <path d="M 75.858551 276.354958 
L 131.197394 283.690498 
L 158.866816 284.701685 
L 186.536237 286.271686 
L 214.205659 290.360783 
L 241.87508 295.257057 
L 269.544502 298.086606 
L 297.213923 302.663557 
L 324.883345 305.466496 
L 352.552766 306.894576 
L 380.222187 313.4052 
L 407.891609 306.247062 
L 435.56103 306.610734 
L 463.230452 305.776948 
L 490.899873 305.058473 
L 518.569295 304.694801 
L 546.238716 305.156044 
L 573.908138 304.650451 
L 601.577559 305.572937 
L 629.246981 309.679775 
L 656.916402 316.979835 
L 684.585824 319.640853 
" clip-path="url(#pae18aae7f9)" style="fill: none; stroke: #dc0000; stroke-width: 2; stroke-linecap: round"/>
   </g>
   <g id="line2d_33">
    <path d="M 75.858551 321.947068 
L 103.527973 321.405995 
L 131.197394 322.470402 
L 158.866816 317.361247 
L 186.536237 314.939721 
L 214.205659 314.83328 
L 241.87508 303.710224 
L 269.544502 295.74491 
L 297.213923 287.930387 
L 324.883345 282.244678 
L 352.552766 269.604842 
L 380.222187 260.184838 
L 407.891609 246.897487 
L 435.56103 241.211779 
L 463.230452 235.002736 
L 490.899873 228.013129 
L 518.569295 231.570023 
L 546.238716 229.937932 
L 573.908138 222.478211 
L 601.577559 220.180865 
L 629.246981 223.400697 
L 656.916402 224.598156 
L 684.585824 226.993072 
" clip-path="url(#pae18aae7f9)" style="fill: none; stroke: #ff8700; stroke-width: 2; stroke-linecap: round"/>
   </g>
   <g id="line2d_34">
    <path d="M 75.858551 240.919067 
L 103.527973 245.73551 
L 131.197394 243.047881 
L 158.866816 251.62523 
L 186.536237 257.133537 
L 214.205659 266.943824 
L 241.87508 271.760267 
L 269.544502 272.629533 
L 297.213923 273.445578 
L 324.883345 275.467952 
L 352.552766 264.265066 
L 380.222187 261.045234 
L 407.891609 261.710488 
L 435.56103 245.478278 
L 463.230452 238.275789 
L 490.899873 232.474769 
L 518.569295 226.398778 
L 546.238716 220.526798 
L 573.908138 201.376337 
L 601.577559 194.652832 
L 629.246981 188.54136 
L 656.916402 182.252487 
L 684.585824 179.103616 
" clip-path="url(#pae18aae7f9)" style="fill: none; stroke: #ffffff; stroke-width: 2; stroke-linecap: round"/>
   </g>
   <g id="line2d_35">
    <path d="M 75.858551 176.504688 
L 103.527973 183.254804 
L 131.197394 194.049668 
L 158.866816 204.303457 
L 186.536237 216.082898 
L 214.205659 231.419232 
L 241.87508 235.073697 
L 269.544502 233.503696 
L 297.213923 242.80839 
L 324.883345 250.587433 
L 352.552766 262.961167 
L 380.222187 261.258115 
L 407.891609 252.095343 
L 435.56103 246.312063 
L 463.230452 243.384944 
L 490.899873 245.886301 
L 518.569295 246.249973 
L 546.238716 255.403875 
L 573.908138 250.631783 
L 601.577559 246.383024 
L 629.246981 243.172062 
L 656.916402 242.072175 
L 684.585824 243.588955 
" clip-path="url(#pae18aae7f9)" style="fill: none; stroke: #006f62; stroke-width: 2; stroke-linecap: round"/>
   </g>
   <g id="line2d_36">
    <path d="M 75.858551 232.732001 
L 103.527973 240.236072 
L 131.197394 248.7602 
L 186.536237 252.583196 
L 214.205659 254.383818 
L 241.87508 254.827321 
L 269.544502 259.794555 
L 297.213923 261.426646 
L 324.883345 262.056421 
L 352.552766 258.215684 
L 380.222187 269.046028 
L 407.891609 258.526137 
L 435.56103 251.793761 
L 463.230452 248.396528 
L 490.899873 241.45127 
L 518.569295 239.118444 
L 546.238716 233.725448 
L 573.908138 228.004259 
L 601.577559 210.787472 
L 629.246981 203.691423 
L 656.916402 196.364753 
L 684.585824 189.712208 
" clip-path="url(#pae18aae7f9)" style="fill: none; stroke: #2b4562; stroke-width: 2; stroke-linecap: round"/>
   </g>
   <g id="line2d_37">
    <path d="M 75.858551 178.030338 
L 103.527973 175.395931 
L 131.197394 186.527856 
L 158.866816 198.511308 
L 186.536237 205.314644 
L 214.205659 210.822952 
L 241.87508 222.859624 
L 269.544502 227.684937 
L 297.213923 228.917875 
L 324.883345 236.537257 
L 352.552766 241.264999 
L 380.222187 233.352905 
L 407.891609 219.976854 
L 435.56103 211.018093 
L 463.230452 202.218993 
L 490.899873 198.617749 
L 518.569295 197.092098 
L 546.238716 198.591138 
L 601.577559 200.418371 
L 629.246981 195.016504 
L 656.916402 195.238256 
L 684.585824 201.331987 
" clip-path="url(#pae18aae7f9)" style="fill: none; stroke: #ff8700; stroke-width: 2; stroke-linecap: round"/>
   </g>
   <g id="line2d_38">
    <path d="M 75.858551 198.200856 
L 103.527973 193.198142 
L 131.197394 202.343174 
L 158.866816 212.304252 
L 186.536237 221.121092 
L 214.205659 225.627083 
L 241.87508 225.653693 
L 269.544502 225.520642 
L 297.213923 225.733523 
L 324.883345 231.17087 
L 352.552766 237.388783 
L 380.222187 230.133073 
L 407.891609 216.721542 
L 435.56103 208.108713 
L 463.230452 201.624699 
L 490.899873 192.94978 
L 518.569295 190.758875 
L 546.238716 192.293396 
L 573.908138 193.322323 
L 601.577559 189.508197 
L 629.246981 189.002603 
L 656.916402 198.174246 
L 684.585824 202.263343 
" clip-path="url(#pae18aae7f9)" style="fill: none; stroke: #ffffff; stroke-width: 2; stroke-linecap: round"/>
   </g>
   <g id="line2d_39">
    <path d="M 75.858551 193.996447 
L 103.527973 189.614637 
L 131.197394 198.87498 
L 158.866816 198.999161 
L 186.536237 186.705258 
L 214.205659 197.33159 
L 241.87508 201.75775 
L 269.544502 205.740407 
L 297.213923 211.701088 
L 324.883345 217.519847 
L 352.552766 226.797931 
L 380.222187 228.687253 
L 407.891609 225.396461 
L 435.56103 221.883917 
L 463.230452 234.160081 
L 490.899873 223.631319 
L 518.569295 224.669116 
L 546.238716 222.416121 
L 573.908138 214.610468 
L 601.577559 211.009223 
L 629.246981 207.301538 
L 656.916402 209.08442 
L 684.585824 206.387922 
" clip-path="url(#pae18aae7f9)" style="fill: none; stroke: #900000; stroke-width: 2; stroke-linecap: round"/>
   </g>
   <g id="line2d_40">
    <path d="M 75.858551 200.187749 
L 103.527973 196.072041 
L 131.197394 200.728823 
L 158.866816 196.400234 
L 186.536237 183.574126 
L 214.205659 179.74226 
L 241.87508 186.465766 
L 269.544502 193.960967 
L 297.213923 199.921648 
L 324.883345 203.531762 
L 352.552766 220.278436 
L 380.222187 224.083692 
L 407.891609 221.662166 
L 435.56103 222.389511 
L 463.230452 228.1994 
L 490.899873 236.590477 
L 518.569295 233.255335 
L 546.238716 228.740474 
L 573.908138 222.29194 
L 601.577559 220.730809 
L 629.246981 212.410693 
L 656.916402 213.954083 
L 684.585824 213.120297 
" clip-path="url(#pae18aae7f9)" style="fill: none; stroke: #900000; stroke-width: 2; stroke-linecap: round"/>
   </g>
   <g id="line2d_41">
    <path d="M 131.197394 227.933298 
L 158.866816 250.826924 
L 186.536237 261.453257 
L 214.205659 273.631849 
L 241.87508 286.227335 
L 269.544502 298.70751 
L 297.213923 309.555594 
L 324.883345 323.6856 
L 352.552766 330.382496 
L 380.222187 330.666338 
L 407.891609 317.78701 
L 435.56103 309.067741 
L 463.230452 300.703274 
L 490.899873 291.425191 
L 518.569295 285.792702 
L 546.238716 280.603717 
L 573.908138 278.572473 
L 601.577559 277.649987 
L 629.246981 277.117783 
L 656.916402 281.508463 
L 684.585824 282.155978 
" clip-path="url(#pae18aae7f9)" style="fill: none; stroke: #0090ff; stroke-width: 2; stroke-linecap: round"/>
   </g>
   <g id="line2d_42">
    <path d="M 75.858551 262.287042 
L 103.527973 254.951502 
L 131.197394 251.545399 
L 158.866816 241.752852 
L 186.536237 236.466296 
L 214.205659 226.159286 
L 241.87508 217.803689 
L 269.544502 211.026963 
L 297.213923 201.68679 
L 324.883345 197.198539 
L 352.552766 200.737693 
L 380.222187 195.193905 
L 407.891609 188.159947 
L 435.56103 188.018026 
L 463.230452 183.015312 
L 490.899873 179.955142 
L 518.569295 173.89689 
L 546.238716 172.202709 
L 573.908138 173.444517 
L 601.577559 171.058471 
L 629.246981 172.522031 
L 656.916402 176.611129 
L 684.585824 166.54361 
" clip-path="url(#pae18aae7f9)" style="fill: none; stroke: #2b4562; stroke-width: 2; stroke-linecap: round"/>
   </g>
   <g id="line2d_43">
    <path d="M 75.858551 159.855585 
L 103.527973 170.9609 
L 131.197394 186.847178 
L 158.866816 202.085942 
L 186.536237 207.61199 
L 214.205659 212.951766 
L 241.87508 215.453123 
L 269.544502 215.266852 
L 297.213923 212.596964 
L 324.883345 221.050131 
L 352.552766 227.986519 
L 380.222187 212.712275 
L 407.891609 194.856843 
L 435.56103 185.64085 
L 463.230452 179.112486 
L 490.899873 174.668586 
L 518.569295 174.881467 
L 546.238716 180.256724 
L 573.908138 185.765031 
L 601.577559 190.838706 
L 629.246981 193.144921 
L 656.916402 200.471591 
L 684.585824 203.363231 
" clip-path="url(#pae18aae7f9)" style="fill: none; stroke: #006f62; stroke-width: 2; stroke-linecap: round"/>
   </g>
   <g id="line2d_44">
    <path d="M 75.858551 207.221707 
L 103.527973 211.044703 
L 131.197394 214.787869 
L 158.866816 222.123409 
L 186.536237 220.225216 
L 214.205659 216.650581 
L 241.87508 216.331259 
L 269.544502 216.295779 
L 297.213923 215.00962 
L 324.883345 210.62781 
L 352.552766 200.24097 
L 380.222187 188.159947 
L 407.891609 176.84175 
L 435.56103 166.071526 
L 463.230452 156.383449 
L 490.899873 148.222993 
L 518.569295 142.132218 
L 546.238716 129.043952 
L 573.908138 124.835601 
L 601.577559 127.240373 
L 629.246981 112.604773 
L 656.916402 110.929317 
L 684.585824 112.200692 
" clip-path="url(#pae18aae7f9)" style="fill: none; stroke: #0090ff; stroke-width: 2; stroke-linecap: round"/>
   </g>
   <g id="line2d_45">
    <path d="M 75.858551 112.578163 
L 103.527973 120.135454 
L 131.197394 133.963878 
L 158.866816 137.449812 
L 186.536237 133.289754 
L 214.205659 124.561614 
L 241.87508 119.115397 
L 269.544502 124.872066 
L 297.213923 124.481784 
L 324.883345 121.714325 
L 352.552766 118.618674 
L 380.222187 112.082425 
L 407.891609 90.666157 
L 435.56103 74.601492 
L 463.230452 71.063323 
L 490.899873 71.487115 
L 518.569295 64.292511 
L 546.238716 56.959927 
L 573.908138 53.164281 
L 601.577559 44.693373 
L 629.246981 42.342807 
L 656.916402 41.516167 
L 684.585824 41.32275 
" clip-path="url(#pae18aae7f9)" style="fill: none; stroke: #005aff; stroke-width: 2; stroke-linecap: round"/>
   </g>
   <g id="line2d_46">
    <path d="M 75.858551 54.239775 
L 103.527973 74.674177 
L 131.197394 101.206745 
L 158.866816 118.680764 
L 186.536237 143.949349 
L 214.205659 154.1068 
L 241.87508 173.42382 
L 269.544502 189.941844 
L 297.213923 209.74179 
L 324.883345 210.831822 
L 352.552766 215.790186 
" clip-path="url(#pae18aae7f9)" style="fill: none; stroke: #005aff; stroke-width: 2; stroke-linecap: round"/>
   </g>
   <g id="line2d_47"/>
   <g id="line2d_48"/>
   <g id="line2d_49"/>
   <g id="line2d_50"/>
   <g id="line2d_51"/>
   <g id="line2d_52"/>
   <g id="line2d_53"/>
   <g id="line2d_54"/>
   <g id="line2d_55"/>
   <g id="line2d_56"/>
   <g id="line2d_57"/>
   <g id="line2d_58"/>
   <g id="line2d_59"/>
   <g id="line2d_60"/>
   <g id="line2d_61"/>
   <g id="line2d_62"/>
   <g id="line2d_63"/>
   <g id="line2d_64"/>
   <g id="line2d_65"/>
   <g id="line2d_66"/>
   <g id="patch_3">
    <path d="M 45.422188 411.76275 
L 45.422188 23.68275 
" style="fill: none; stroke: #bcbcbc; stroke-linejoin: miter; stroke-linecap: square"/>
   </g>
   <g id="patch_4">
    <path d="M 715.022187 411.76275 
L 715.022187 23.68275 
" style="fill: none; stroke: #bcbcbc; stroke-linejoin: miter; stroke-linecap: square"/>
   </g>
   <g id="patch_5">
    <path d="M 45.422188 411.76275 
L 715.022187 411.76275 
" style="fill: none; stroke: #bcbcbc; stroke-linejoin: miter; stroke-linecap: square"/>
   </g>
   <g id="patch_6">
    <path d="M 45.422188 23.68275 
L 715.022187 23.68275 
" style="fill: none; stroke: #bcbcbc; stroke-linejoin: miter; stroke-linecap: square"/>
   </g>
   <g id="text_16">
    <!-- 2022 São Paulo Grand Prix - Smoothed Racepace -->
    <g style="fill: #262626" transform="translate(218.935437 17.68275)scale(0.144 -0.144)">
     <defs>
      <path id="ArialMT-53" d="M 288 1472 
L 859 1522 
Q 900 1178 1048 958 
Q 1197 738 1509 602 
Q 1822 466 2213 466 
Q 2559 466 2825 569 
Q 3091 672 3220 851 
Q 3350 1031 3350 1244 
Q 3350 1459 3225 1620 
Q 3100 1781 2813 1891 
Q 2628 1963 1997 2114 
Q 1366 2266 1113 2400 
Q 784 2572 623 2826 
Q 463 3081 463 3397 
Q 463 3744 659 4045 
Q 856 4347 1234 4503 
Q 1613 4659 2075 4659 
Q 2584 4659 2973 4495 
Q 3363 4331 3572 4012 
Q 3781 3694 3797 3291 
L 3216 3247 
Q 3169 3681 2898 3903 
Q 2628 4125 2100 4125 
Q 1550 4125 1298 3923 
Q 1047 3722 1047 3438 
Q 1047 3191 1225 3031 
Q 1400 2872 2139 2705 
Q 2878 2538 3153 2413 
Q 3553 2228 3743 1945 
Q 3934 1663 3934 1294 
Q 3934 928 3725 604 
Q 3516 281 3123 101 
Q 2731 -78 2241 -78 
Q 1619 -78 1198 103 
Q 778 284 539 648 
Q 300 1013 288 1472 
z
" transform="scale(0.015625)"/>
      <path id="ArialMT-e3" d="M 2588 409 
Q 2275 144 1986 34 
Q 1697 -75 1366 -75 
Q 819 -75 525 192 
Q 231 459 231 875 
Q 231 1119 342 1320 
Q 453 1522 633 1644 
Q 813 1766 1038 1828 
Q 1203 1872 1538 1913 
Q 2219 1994 2541 2106 
Q 2544 2222 2544 2253 
Q 2544 2597 2384 2738 
Q 2169 2928 1744 2928 
Q 1347 2928 1158 2789 
Q 969 2650 878 2297 
L 328 2372 
Q 403 2725 575 2942 
Q 747 3159 1072 3276 
Q 1397 3394 1825 3394 
Q 2250 3394 2515 3294 
Q 2781 3194 2906 3042 
Q 3031 2891 3081 2659 
Q 3109 2516 3109 2141 
L 3109 1391 
Q 3109 606 3145 398 
Q 3181 191 3288 0 
L 2700 0 
Q 2613 175 2588 409 
z
M 2541 1666 
Q 2234 1541 1622 1453 
Q 1275 1403 1131 1340 
Q 988 1278 909 1158 
Q 831 1038 831 891 
Q 831 666 1001 516 
Q 1172 366 1500 366 
Q 1825 366 2078 508 
Q 2331 650 2450 897 
Q 2541 1088 2541 1459 
L 2541 1666 
z
M 716 3809 
Q 713 4134 894 4328 
Q 1072 4522 1350 4522 
Q 1544 4522 1878 4353 
Q 2063 4259 2172 4259 
Q 2272 4259 2325 4314 
Q 2378 4369 2400 4531 
L 2806 4531 
Q 2797 4175 2626 3997 
Q 2456 3819 2194 3819 
Q 1997 3819 1675 3994 
Q 1466 4106 1369 4106 
Q 1263 4106 1197 4031 
Q 1128 3956 1131 3809 
L 716 3809 
z
" transform="scale(0.015625)"/>
      <path id="ArialMT-6f" d="M 213 1659 
Q 213 2581 725 3025 
Q 1153 3394 1769 3394 
Q 2453 3394 2887 2945 
Q 3322 2497 3322 1706 
Q 3322 1066 3130 698 
Q 2938 331 2570 128 
Q 2203 -75 1769 -75 
Q 1072 -75 642 372 
Q 213 819 213 1659 
z
M 791 1659 
Q 791 1022 1069 705 
Q 1347 388 1769 388 
Q 2188 388 2466 706 
Q 2744 1025 2744 1678 
Q 2744 2294 2464 2611 
Q 2184 2928 1769 2928 
Q 1347 2928 1069 2612 
Q 791 2297 791 1659 
z
" transform="scale(0.015625)"/>
      <path id="ArialMT-50" d="M 494 0 
L 494 4581 
L 2222 4581 
Q 2678 4581 2919 4538 
Q 3256 4481 3484 4323 
Q 3713 4166 3852 3881 
Q 3991 3597 3991 3256 
Q 3991 2672 3619 2267 
Q 3247 1863 2275 1863 
L 1100 1863 
L 1100 0 
L 494 0 
z
M 1100 2403 
L 2284 2403 
Q 2872 2403 3119 2622 
Q 3366 2841 3366 3238 
Q 3366 3525 3220 3729 
Q 3075 3934 2838 4000 
Q 2684 4041 2272 4041 
L 1100 4041 
L 1100 2403 
z
" transform="scale(0.015625)"/>
      <path id="ArialMT-6c" d="M 409 0 
L 409 4581 
L 972 4581 
L 972 0 
L 409 0 
z
" transform="scale(0.015625)"/>
      <path id="ArialMT-47" d="M 2638 1797 
L 2638 2334 
L 4578 2338 
L 4578 638 
Q 4131 281 3656 101 
Q 3181 -78 2681 -78 
Q 2006 -78 1454 211 
Q 903 500 622 1047 
Q 341 1594 341 2269 
Q 341 2938 620 3517 
Q 900 4097 1425 4378 
Q 1950 4659 2634 4659 
Q 3131 4659 3532 4498 
Q 3934 4338 4162 4050 
Q 4391 3763 4509 3300 
L 3963 3150 
Q 3859 3500 3706 3700 
Q 3553 3900 3268 4020 
Q 2984 4141 2638 4141 
Q 2222 4141 1919 4014 
Q 1616 3888 1430 3681 
Q 1244 3475 1141 3228 
Q 966 2803 966 2306 
Q 966 1694 1177 1281 
Q 1388 869 1791 669 
Q 2194 469 2647 469 
Q 3041 469 3416 620 
Q 3791 772 3984 944 
L 3984 1797 
L 2638 1797 
z
" transform="scale(0.015625)"/>
      <path id="ArialMT-6e" d="M 422 0 
L 422 3319 
L 928 3319 
L 928 2847 
Q 1294 3394 1984 3394 
Q 2284 3394 2536 3286 
Q 2788 3178 2913 3003 
Q 3038 2828 3088 2588 
Q 3119 2431 3119 2041 
L 3119 0 
L 2556 0 
L 2556 2019 
Q 2556 2363 2490 2533 
Q 2425 2703 2258 2804 
Q 2091 2906 1866 2906 
Q 1506 2906 1245 2678 
Q 984 2450 984 1813 
L 984 0 
L 422 0 
z
" transform="scale(0.015625)"/>
      <path id="ArialMT-64" d="M 2575 0 
L 2575 419 
Q 2259 -75 1647 -75 
Q 1250 -75 917 144 
Q 584 363 401 755 
Q 219 1147 219 1656 
Q 219 2153 384 2558 
Q 550 2963 881 3178 
Q 1213 3394 1622 3394 
Q 1922 3394 2156 3267 
Q 2391 3141 2538 2938 
L 2538 4581 
L 3097 4581 
L 3097 0 
L 2575 0 
z
M 797 1656 
Q 797 1019 1065 703 
Q 1334 388 1700 388 
Q 2069 388 2326 689 
Q 2584 991 2584 1609 
Q 2584 2291 2321 2609 
Q 2059 2928 1675 2928 
Q 1300 2928 1048 2622 
Q 797 2316 797 1656 
z
" transform="scale(0.015625)"/>
      <path id="ArialMT-78" d="M 47 0 
L 1259 1725 
L 138 3319 
L 841 3319 
L 1350 2541 
Q 1494 2319 1581 2169 
Q 1719 2375 1834 2534 
L 2394 3319 
L 3066 3319 
L 1919 1756 
L 3153 0 
L 2463 0 
L 1781 1031 
L 1600 1309 
L 728 0 
L 47 0 
z
" transform="scale(0.015625)"/>
      <path id="ArialMT-2d" d="M 203 1375 
L 203 1941 
L 1931 1941 
L 1931 1375 
L 203 1375 
z
" transform="scale(0.015625)"/>
      <path id="ArialMT-74" d="M 1650 503 
L 1731 6 
Q 1494 -44 1306 -44 
Q 1000 -44 831 53 
Q 663 150 594 308 
Q 525 466 525 972 
L 525 2881 
L 113 2881 
L 113 3319 
L 525 3319 
L 525 4141 
L 1084 4478 
L 1084 3319 
L 1650 3319 
L 1650 2881 
L 1084 2881 
L 1084 941 
Q 1084 700 1114 631 
Q 1144 563 1211 522 
Q 1278 481 1403 481 
Q 1497 481 1650 503 
z
" transform="scale(0.015625)"/>
      <path id="ArialMT-68" d="M 422 0 
L 422 4581 
L 984 4581 
L 984 2938 
Q 1378 3394 1978 3394 
Q 2347 3394 2619 3248 
Q 2891 3103 3008 2847 
Q 3125 2591 3125 2103 
L 3125 0 
L 2563 0 
L 2563 2103 
Q 2563 2525 2380 2717 
Q 2197 2909 1863 2909 
Q 1613 2909 1392 2779 
Q 1172 2650 1078 2428 
Q 984 2206 984 1816 
L 984 0 
L 422 0 
z
" transform="scale(0.015625)"/>
      <path id="ArialMT-52" d="M 503 0 
L 503 4581 
L 2534 4581 
Q 3147 4581 3465 4457 
Q 3784 4334 3975 4021 
Q 4166 3709 4166 3331 
Q 4166 2844 3850 2509 
Q 3534 2175 2875 2084 
Q 3116 1969 3241 1856 
Q 3506 1613 3744 1247 
L 4541 0 
L 3778 0 
L 3172 953 
Q 2906 1366 2734 1584 
Q 2563 1803 2427 1890 
Q 2291 1978 2150 2013 
Q 2047 2034 1813 2034 
L 1109 2034 
L 1109 0 
L 503 0 
z
M 1109 2559 
L 2413 2559 
Q 2828 2559 3062 2645 
Q 3297 2731 3419 2920 
Q 3541 3109 3541 3331 
Q 3541 3656 3305 3865 
Q 3069 4075 2559 4075 
L 1109 4075 
L 1109 2559 
z
" transform="scale(0.015625)"/>
      <path id="ArialMT-63" d="M 2588 1216 
L 3141 1144 
Q 3050 572 2676 248 
Q 2303 -75 1759 -75 
Q 1078 -75 664 370 
Q 250 816 250 1647 
Q 250 2184 428 2587 
Q 606 2991 970 3192 
Q 1334 3394 1763 3394 
Q 2303 3394 2647 3120 
Q 2991 2847 3088 2344 
L 2541 2259 
Q 2463 2594 2264 2762 
Q 2066 2931 1784 2931 
Q 1359 2931 1093 2626 
Q 828 2322 828 1663 
Q 828 994 1084 691 
Q 1341 388 1753 388 
Q 2084 388 2306 591 
Q 2528 794 2588 1216 
z
" transform="scale(0.015625)"/>
     </defs>
     <use xlink:href="#ArialMT-32"/>
     <use xlink:href="#ArialMT-30" x="55.615234"/>
     <use xlink:href="#ArialMT-32" x="111.230469"/>
     <use xlink:href="#ArialMT-32" x="166.845703"/>
     <use xlink:href="#ArialMT-20" x="222.460938"/>
     <use xlink:href="#ArialMT-53" x="250.244141"/>
     <use xlink:href="#ArialMT-e3" x="316.943359"/>
     <use xlink:href="#ArialMT-6f" x="372.558594"/>
     <use xlink:href="#ArialMT-20" x="428.173828"/>
     <use xlink:href="#ArialMT-50" x="455.957031"/>
     <use xlink:href="#ArialMT-61" x="522.65625"/>
     <use xlink:href="#ArialMT-75" x="578.271484"/>
     <use xlink:href="#ArialMT-6c" x="633.886719"/>
     <use xlink:href="#ArialMT-6f" x="656.103516"/>
     <use xlink:href="#ArialMT-20" x="711.71875"/>
     <use xlink:href="#ArialMT-47" x="739.501953"/>
     <use xlink:href="#ArialMT-72" x="817.285156"/>
     <use xlink:href="#ArialMT-61" x="850.585938"/>
     <use xlink:href="#ArialMT-6e" x="906.201172"/>
     <use xlink:href="#ArialMT-64" x="961.816406"/>
     <use xlink:href="#ArialMT-20" x="1017.431641"/>
     <use xlink:href="#ArialMT-50" x="1045.214844"/>
     <use xlink:href="#ArialMT-72" x="1111.914062"/>
     <use xlink:href="#ArialMT-69" x="1145.214844"/>
     <use xlink:href="#ArialMT-78" x="1167.431641"/>
     <use xlink:href="#ArialMT-20" x="1217.431641"/>
     <use xlink:href="#ArialMT-2d" x="1245.214844"/>
     <use xlink:href="#ArialMT-20" x="1278.515625"/>
     <use xlink:href="#ArialMT-53" x="1306.298828"/>
     <use xlink:href="#ArialMT-6d" x="1372.998047"/>
     <use xlink:href="#ArialMT-6f" x="1456.298828"/>
     <use xlink:href="#ArialMT-6f" x="1511.914062"/>
     <use xlink:href="#ArialMT-74" x="1567.529297"/>
     <use xlink:href="#ArialMT-68" x="1595.3125"/>
     <use xlink:href="#ArialMT-65" x="1650.927734"/>
     <use xlink:href="#ArialMT-64" x="1706.542969"/>
     <use xlink:href="#ArialMT-20" x="1762.158203"/>
     <use xlink:href="#ArialMT-52" x="1789.941406"/>
     <use xlink:href="#ArialMT-61" x="1862.158203"/>
     <use xlink:href="#ArialMT-63" x="1917.773438"/>
     <use xlink:href="#ArialMT-65" x="1967.773438"/>
     <use xlink:href="#ArialMT-70" x="2023.388672"/>
     <use xlink:href="#ArialMT-61" x="2079.003906"/>
     <use xlink:href="#ArialMT-63" x="2134.619141"/>
     <use xlink:href="#ArialMT-65" x="2184.619141"/>
    </g>
   </g>
   <g id="legend_1">
    <g id="text_17">
     <!-- Driver -->
     <g style="fill: #262626" transform="translate(66.479219 39.840562)scale(0.1 -0.1)">
      <defs>
       <path id="ArialMT-44" d="M 494 0 
L 494 4581 
L 2072 4581 
Q 2606 4581 2888 4516 
Q 3281 4425 3559 4188 
Q 3922 3881 4101 3404 
Q 4281 2928 4281 2316 
Q 4281 1794 4159 1391 
Q 4038 988 3847 723 
Q 3656 459 3429 307 
Q 3203 156 2883 78 
Q 2563 0 2147 0 
L 494 0 
z
M 1100 541 
L 2078 541 
Q 2531 541 2789 625 
Q 3047 709 3200 863 
Q 3416 1078 3536 1442 
Q 3656 1806 3656 2325 
Q 3656 3044 3420 3430 
Q 3184 3816 2847 3947 
Q 2603 4041 2063 4041 
L 1100 4041 
L 1100 541 
z
" transform="scale(0.015625)"/>
       <path id="ArialMT-76" d="M 1344 0 
L 81 3319 
L 675 3319 
L 1388 1331 
Q 1503 1009 1600 663 
Q 1675 925 1809 1294 
L 2547 3319 
L 3125 3319 
L 1869 0 
L 1344 0 
z
" transform="scale(0.015625)"/>
      </defs>
      <use xlink:href="#ArialMT-44"/>
      <use xlink:href="#ArialMT-72" x="72.216797"/>
      <use xlink:href="#ArialMT-69" x="105.517578"/>
      <use xlink:href="#ArialMT-76" x="127.734375"/>
      <use xlink:href="#ArialMT-65" x="177.734375"/>
      <use xlink:href="#ArialMT-72" x="233.349609"/>
     </g>
    </g>
    <g id="line2d_67">
     <path d="M 54.422188 50.485875 
L 64.422188 50.485875 
L 74.422188 50.485875 
" style="fill: none; stroke: #00d2be; stroke-width: 2; stroke-linecap: round"/>
    </g>
    <g id="text_18">
     <!-- RUS -->
     <g style="fill: #262626" transform="translate(82.422188 53.985875)scale(0.1 -0.1)">
      <defs>
       <path id="ArialMT-55" d="M 3500 4581 
L 4106 4581 
L 4106 1934 
Q 4106 1244 3950 837 
Q 3794 431 3386 176 
Q 2978 -78 2316 -78 
Q 1672 -78 1262 144 
Q 853 366 678 786 
Q 503 1206 503 1934 
L 503 4581 
L 1109 4581 
L 1109 1938 
Q 1109 1341 1220 1058 
Q 1331 775 1601 622 
Q 1872 469 2263 469 
Q 2931 469 3215 772 
Q 3500 1075 3500 1938 
L 3500 4581 
z
" transform="scale(0.015625)"/>
      </defs>
      <use xlink:href="#ArialMT-52"/>
      <use xlink:href="#ArialMT-55" x="72.216797"/>
      <use xlink:href="#ArialMT-53" x="144.433594"/>
     </g>
    </g>
    <g id="line2d_68">
     <path d="M 54.422188 64.631187 
L 64.422188 64.631187 
L 74.422188 64.631187 
" style="fill: none; stroke: #dc0000; stroke-width: 2; stroke-linecap: round"/>
    </g>
    <g id="text_19">
     <!-- SAI -->
     <g style="fill: #262626" transform="translate(82.422188 68.131187)scale(0.1 -0.1)">
      <defs>
       <path id="ArialMT-41" d="M -9 0 
L 1750 4581 
L 2403 4581 
L 4278 0 
L 3588 0 
L 3053 1388 
L 1138 1388 
L 634 0 
L -9 0 
z
M 1313 1881 
L 2866 1881 
L 2388 3150 
Q 2169 3728 2063 4100 
Q 1975 3659 1816 3225 
L 1313 1881 
z
" transform="scale(0.015625)"/>
       <path id="ArialMT-49" d="M 597 0 
L 597 4581 
L 1203 4581 
L 1203 0 
L 597 0 
z
" transform="scale(0.015625)"/>
      </defs>
      <use xlink:href="#ArialMT-53"/>
      <use xlink:href="#ArialMT-41" x="66.699219"/>
      <use xlink:href="#ArialMT-49" x="133.398438"/>
     </g>
    </g>
    <g id="line2d_69">
     <path d="M 54.422188 78.7765 
L 64.422188 78.7765 
L 74.422188 78.7765 
" style="fill: none; stroke: #00d2be; stroke-width: 2; stroke-linecap: round"/>
    </g>
    <g id="text_20">
     <!-- HAM -->
     <g style="fill: #262626" transform="translate(82.422188 82.2765)scale(0.1 -0.1)">
      <defs>
       <path id="ArialMT-48" d="M 513 0 
L 513 4581 
L 1119 4581 
L 1119 2700 
L 3500 2700 
L 3500 4581 
L 4106 4581 
L 4106 0 
L 3500 0 
L 3500 2159 
L 1119 2159 
L 1119 0 
L 513 0 
z
" transform="scale(0.015625)"/>
       <path id="ArialMT-4d" d="M 475 0 
L 475 4581 
L 1388 4581 
L 2472 1338 
Q 2622 884 2691 659 
Q 2769 909 2934 1394 
L 4031 4581 
L 4847 4581 
L 4847 0 
L 4263 0 
L 4263 3834 
L 2931 0 
L 2384 0 
L 1059 3900 
L 1059 0 
L 475 0 
z
" transform="scale(0.015625)"/>
      </defs>
      <use xlink:href="#ArialMT-48"/>
      <use xlink:href="#ArialMT-41" x="72.216797"/>
      <use xlink:href="#ArialMT-4d" x="138.916016"/>
     </g>
    </g>
    <g id="line2d_70">
     <path d="M 54.422188 92.921812 
L 64.422188 92.921812 
L 74.422188 92.921812 
" style="fill: none; stroke: #0600ef; stroke-width: 2; stroke-linecap: round"/>
    </g>
    <g id="text_21">
     <!-- VER -->
     <g style="fill: #262626" transform="translate(82.422188 96.421812)scale(0.1 -0.1)">
      <defs>
       <path id="ArialMT-56" d="M 1803 0 
L 28 4581 
L 684 4581 
L 1875 1253 
Q 2019 853 2116 503 
Q 2222 878 2363 1253 
L 3600 4581 
L 4219 4581 
L 2425 0 
L 1803 0 
z
" transform="scale(0.015625)"/>
       <path id="ArialMT-45" d="M 506 0 
L 506 4581 
L 3819 4581 
L 3819 4041 
L 1113 4041 
L 1113 2638 
L 3647 2638 
L 3647 2100 
L 1113 2100 
L 1113 541 
L 3925 541 
L 3925 0 
L 506 0 
z
" transform="scale(0.015625)"/>
      </defs>
      <use xlink:href="#ArialMT-56"/>
      <use xlink:href="#ArialMT-45" x="66.699219"/>
      <use xlink:href="#ArialMT-52" x="133.398438"/>
     </g>
    </g>
    <g id="line2d_71">
     <path d="M 54.422188 107.067125 
L 64.422188 107.067125 
L 74.422188 107.067125 
" style="fill: none; stroke: #0600ef; stroke-width: 2; stroke-linecap: round"/>
    </g>
    <g id="text_22">
     <!-- PER -->
     <g style="fill: #262626" transform="translate(82.422188 110.567125)scale(0.1 -0.1)">
      <use xlink:href="#ArialMT-50"/>
      <use xlink:href="#ArialMT-45" x="66.699219"/>
      <use xlink:href="#ArialMT-52" x="133.398438"/>
     </g>
    </g>
    <g id="line2d_72">
     <path d="M 54.422188 121.212437 
L 64.422188 121.212437 
L 74.422188 121.212437 
" style="fill: none; stroke: #dc0000; stroke-width: 2; stroke-linecap: round"/>
    </g>
    <g id="text_23">
     <!-- LEC -->
     <g style="fill: #262626" transform="translate(82.422188 124.712437)scale(0.1 -0.1)">
      <defs>
       <path id="ArialMT-43" d="M 3763 1606 
L 4369 1453 
Q 4178 706 3683 314 
Q 3188 -78 2472 -78 
Q 1731 -78 1267 223 
Q 803 525 561 1097 
Q 319 1669 319 2325 
Q 319 3041 592 3573 
Q 866 4106 1370 4382 
Q 1875 4659 2481 4659 
Q 3169 4659 3637 4309 
Q 4106 3959 4291 3325 
L 3694 3184 
Q 3534 3684 3231 3912 
Q 2928 4141 2469 4141 
Q 1941 4141 1586 3887 
Q 1231 3634 1087 3207 
Q 944 2781 944 2328 
Q 944 1744 1114 1308 
Q 1284 872 1643 656 
Q 2003 441 2422 441 
Q 2931 441 3284 734 
Q 3638 1028 3763 1606 
z
" transform="scale(0.015625)"/>
      </defs>
      <use xlink:href="#ArialMT-4c"/>
      <use xlink:href="#ArialMT-45" x="55.615234"/>
      <use xlink:href="#ArialMT-43" x="122.314453"/>
     </g>
    </g>
    <g id="line2d_73">
     <path d="M 54.422188 135.35775 
L 64.422188 135.35775 
L 74.422188 135.35775 
" style="fill: none; stroke: #ff8700; stroke-width: 2; stroke-linecap: round"/>
    </g>
    <g id="text_24">
     <!-- NOR -->
     <g style="fill: #262626" transform="translate(82.422188 138.85775)scale(0.1 -0.1)">
      <defs>
       <path id="ArialMT-4f" d="M 309 2231 
Q 309 3372 921 4017 
Q 1534 4663 2503 4663 
Q 3138 4663 3647 4359 
Q 4156 4056 4423 3514 
Q 4691 2972 4691 2284 
Q 4691 1588 4409 1038 
Q 4128 488 3612 205 
Q 3097 -78 2500 -78 
Q 1853 -78 1343 234 
Q 834 547 571 1087 
Q 309 1628 309 2231 
z
M 934 2222 
Q 934 1394 1379 917 
Q 1825 441 2497 441 
Q 3181 441 3623 922 
Q 4066 1403 4066 2288 
Q 4066 2847 3877 3264 
Q 3688 3681 3323 3911 
Q 2959 4141 2506 4141 
Q 1863 4141 1398 3698 
Q 934 3256 934 2222 
z
" transform="scale(0.015625)"/>
      </defs>
      <use xlink:href="#ArialMT-4e"/>
      <use xlink:href="#ArialMT-4f" x="72.216797"/>
      <use xlink:href="#ArialMT-52" x="150"/>
     </g>
    </g>
    <g id="line2d_74">
     <path d="M 54.422188 149.503062 
L 64.422188 149.503062 
L 74.422188 149.503062 
" style="fill: none; stroke: #ffffff; stroke-width: 2; stroke-linecap: round"/>
    </g>
    <g id="text_25">
     <!-- MAG -->
     <g style="fill: #262626" transform="translate(82.422188 153.003062)scale(0.1 -0.1)">
      <use xlink:href="#ArialMT-4d"/>
      <use xlink:href="#ArialMT-41" x="83.300781"/>
      <use xlink:href="#ArialMT-47" x="150"/>
     </g>
    </g>
    <g id="line2d_75">
     <path d="M 54.422188 163.648375 
L 64.422188 163.648375 
L 74.422188 163.648375 
" style="fill: none; stroke: #006f62; stroke-width: 2; stroke-linecap: round"/>
    </g>
    <g id="text_26">
     <!-- VET -->
     <g style="fill: #262626" transform="translate(82.422188 167.148375)scale(0.1 -0.1)">
      <use xlink:href="#ArialMT-56"/>
      <use xlink:href="#ArialMT-45" x="66.699219"/>
      <use xlink:href="#ArialMT-54" x="133.398438"/>
     </g>
    </g>
    <g id="line2d_76">
     <path d="M 54.422188 177.793687 
L 64.422188 177.793687 
L 74.422188 177.793687 
" style="fill: none; stroke: #2b4562; stroke-width: 2; stroke-linecap: round"/>
    </g>
    <g id="text_27">
     <!-- GAS -->
     <g style="fill: #262626" transform="translate(82.422188 181.293687)scale(0.1 -0.1)">
      <use xlink:href="#ArialMT-47"/>
      <use xlink:href="#ArialMT-41" x="77.783203"/>
      <use xlink:href="#ArialMT-53" x="144.482422"/>
     </g>
    </g>
    <g id="line2d_77">
     <path d="M 54.422188 191.939 
L 64.422188 191.939 
L 74.422188 191.939 
" style="fill: none; stroke: #ff8700; stroke-width: 2; stroke-linecap: round"/>
    </g>
    <g id="text_28">
     <!-- RIC -->
     <g style="fill: #262626" transform="translate(82.422188 195.439)scale(0.1 -0.1)">
      <use xlink:href="#ArialMT-52"/>
      <use xlink:href="#ArialMT-49" x="72.216797"/>
      <use xlink:href="#ArialMT-43" x="100"/>
     </g>
    </g>
    <g id="line2d_78">
     <path d="M 54.422188 206.084312 
L 64.422188 206.084312 
L 74.422188 206.084312 
" style="fill: none; stroke: #ffffff; stroke-width: 2; stroke-linecap: round"/>
    </g>
    <g id="text_29">
     <!-- MSC -->
     <g style="fill: #262626" transform="translate(82.422188 209.584312)scale(0.1 -0.1)">
      <use xlink:href="#ArialMT-4d"/>
      <use xlink:href="#ArialMT-53" x="83.300781"/>
      <use xlink:href="#ArialMT-43" x="150"/>
     </g>
    </g>
    <g id="line2d_79">
     <path d="M 54.422188 220.229625 
L 64.422188 220.229625 
L 74.422188 220.229625 
" style="fill: none; stroke: #900000; stroke-width: 2; stroke-linecap: round"/>
    </g>
    <g id="text_30">
     <!-- ZHO -->
     <g style="fill: #262626" transform="translate(82.422188 223.729625)scale(0.1 -0.1)">
      <defs>
       <path id="ArialMT-5a" d="M 128 0 
L 128 563 
L 2475 3497 
Q 2725 3809 2950 4041 
L 394 4041 
L 394 4581 
L 3675 4581 
L 3675 4041 
L 1103 863 
L 825 541 
L 3750 541 
L 3750 0 
L 128 0 
z
" transform="scale(0.015625)"/>
      </defs>
      <use xlink:href="#ArialMT-5a"/>
      <use xlink:href="#ArialMT-48" x="61.083984"/>
      <use xlink:href="#ArialMT-4f" x="133.300781"/>
     </g>
    </g>
    <g id="line2d_80">
     <path d="M 54.422188 234.374937 
L 64.422188 234.374937 
L 74.422188 234.374937 
" style="fill: none; stroke: #900000; stroke-width: 2; stroke-linecap: round"/>
    </g>
    <g id="text_31">
     <!-- BOT -->
     <g style="fill: #262626" transform="translate(82.422188 237.874937)scale(0.1 -0.1)">
      <defs>
       <path id="ArialMT-42" d="M 469 0 
L 469 4581 
L 2188 4581 
Q 2713 4581 3030 4442 
Q 3347 4303 3526 4014 
Q 3706 3725 3706 3409 
Q 3706 3116 3547 2856 
Q 3388 2597 3066 2438 
Q 3481 2316 3704 2022 
Q 3928 1728 3928 1328 
Q 3928 1006 3792 729 
Q 3656 453 3456 303 
Q 3256 153 2954 76 
Q 2653 0 2216 0 
L 469 0 
z
M 1075 2656 
L 2066 2656 
Q 2469 2656 2644 2709 
Q 2875 2778 2992 2937 
Q 3109 3097 3109 3338 
Q 3109 3566 3000 3739 
Q 2891 3913 2687 3977 
Q 2484 4041 1991 4041 
L 1075 4041 
L 1075 2656 
z
M 1075 541 
L 2216 541 
Q 2509 541 2628 563 
Q 2838 600 2978 687 
Q 3119 775 3209 942 
Q 3300 1109 3300 1328 
Q 3300 1584 3169 1773 
Q 3038 1963 2805 2039 
Q 2572 2116 2134 2116 
L 1075 2116 
L 1075 541 
z
" transform="scale(0.015625)"/>
      </defs>
      <use xlink:href="#ArialMT-42"/>
      <use xlink:href="#ArialMT-4f" x="66.699219"/>
      <use xlink:href="#ArialMT-54" x="144.482422"/>
     </g>
    </g>
    <g id="line2d_81">
     <path d="M 54.422188 248.52025 
L 64.422188 248.52025 
L 74.422188 248.52025 
" style="fill: none; stroke: #0090ff; stroke-width: 2; stroke-linecap: round"/>
    </g>
    <g id="text_32">
     <!-- ALO -->
     <g style="fill: #262626" transform="translate(82.422188 252.02025)scale(0.1 -0.1)">
      <use xlink:href="#ArialMT-41"/>
      <use xlink:href="#ArialMT-4c" x="66.699219"/>
      <use xlink:href="#ArialMT-4f" x="122.314453"/>
     </g>
    </g>
    <g id="line2d_82">
     <path d="M 54.422188 262.665562 
L 64.422188 262.665562 
L 74.422188 262.665562 
" style="fill: none; stroke: #2b4562; stroke-width: 2; stroke-linecap: round"/>
    </g>
    <g id="text_33">
     <!-- TSU -->
     <g style="fill: #262626" transform="translate(82.422188 266.165562)scale(0.1 -0.1)">
      <use xlink:href="#ArialMT-54"/>
      <use xlink:href="#ArialMT-53" x="61.083984"/>
      <use xlink:href="#ArialMT-55" x="127.783203"/>
     </g>
    </g>
    <g id="line2d_83">
     <path d="M 54.422188 276.810875 
L 64.422188 276.810875 
L 74.422188 276.810875 
" style="fill: none; stroke: #006f62; stroke-width: 2; stroke-linecap: round"/>
    </g>
    <g id="text_34">
     <!-- STR -->
     <g style="fill: #262626" transform="translate(82.422188 280.310875)scale(0.1 -0.1)">
      <use xlink:href="#ArialMT-53"/>
      <use xlink:href="#ArialMT-54" x="66.699219"/>
      <use xlink:href="#ArialMT-52" x="127.783203"/>
     </g>
    </g>
    <g id="line2d_84">
     <path d="M 54.422188 290.956187 
L 64.422188 290.956187 
L 74.422188 290.956187 
" style="fill: none; stroke: #0090ff; stroke-width: 2; stroke-linecap: round"/>
    </g>
    <g id="text_35">
     <!-- OCO -->
     <g style="fill: #262626" transform="translate(82.422188 294.456187)scale(0.1 -0.1)">
      <use xlink:href="#ArialMT-4f"/>
      <use xlink:href="#ArialMT-43" x="77.783203"/>
      <use xlink:href="#ArialMT-4f" x="150"/>
     </g>
    </g>
    <g id="line2d_85">
     <path d="M 54.422188 305.1015 
L 64.422188 305.1015 
L 74.422188 305.1015 
" style="fill: none; stroke: #005aff; stroke-width: 2; stroke-linecap: round"/>
    </g>
    <g id="text_36">
     <!-- LAT -->
     <g style="fill: #262626" transform="translate(82.422188 308.6015)scale(0.1 -0.1)">
      <use xlink:href="#ArialMT-4c"/>
      <use xlink:href="#ArialMT-41" x="55.615234"/>
      <use xlink:href="#ArialMT-54" x="114.939453"/>
     </g>
    </g>
    <g id="line2d_86">
     <path d="M 54.422188 319.246812 
L 64.422188 319.246812 
L 74.422188 319.246812 
" style="fill: none; stroke: #005aff; stroke-width: 2; stroke-linecap: round"/>
    </g>
    <g id="text_37">
     <!-- ALB -->
     <g style="fill: #262626" transform="translate(82.422188 322.746812)scale(0.1 -0.1)">
      <use xlink:href="#ArialMT-41"/>
      <use xlink:href="#ArialMT-4c" x="66.699219"/>
      <use xlink:href="#ArialMT-42" x="122.314453"/>
     </g>
    </g>
   </g>
  </g>
  <g id="text_38">
   <!-- © 2022 Yoann Betton -->
   <g style="fill: #262626" transform="translate(322.080781 398.760562)scale(0.1 -0.1)">
    <defs>
     <path id="ArialMT-a9" d="M 2369 4659 
Q 2963 4659 3528 4354 
Q 4094 4050 4409 3483 
Q 4725 2916 4725 2300 
Q 4725 1691 4414 1128 
Q 4103 566 3542 255 
Q 2981 -56 2369 -56 
Q 1756 -56 1195 255 
Q 634 566 321 1128 
Q 9 1691 9 2300 
Q 9 2916 326 3483 
Q 644 4050 1209 4354 
Q 1775 4659 2369 4659 
z
M 2369 4269 
Q 1872 4269 1401 4014 
Q 931 3759 665 3286 
Q 400 2813 400 2300 
Q 400 1791 661 1323 
Q 922 856 1390 595 
Q 1859 334 2369 334 
Q 2878 334 3347 595 
Q 3816 856 4075 1323 
Q 4334 1791 4334 2300 
Q 4334 2813 4070 3286 
Q 3806 3759 3334 4014 
Q 2863 4269 2369 4269 
z
M 3125 1919 
L 3509 1806 
Q 3416 1416 3111 1183 
Q 2806 950 2372 950 
Q 1822 950 1478 1306 
Q 1134 1663 1134 2294 
Q 1134 2706 1290 3011 
Q 1447 3316 1736 3470 
Q 2025 3625 2397 3625 
Q 2813 3625 3088 3426 
Q 3363 3228 3463 2888 
L 3091 2797 
Q 2997 3028 2814 3151 
Q 2631 3275 2384 3275 
Q 2025 3275 1792 3019 
Q 1559 2763 1559 2284 
Q 1559 1806 1779 1561 
Q 2000 1316 2350 1316 
Q 2631 1316 2843 1478 
Q 3056 1641 3125 1919 
z
" transform="scale(0.015625)"/>
     <path id="ArialMT-59" d="M 1784 0 
L 1784 1941 
L 19 4581 
L 756 4581 
L 1659 3200 
Q 1909 2813 2125 2425 
Q 2331 2784 2625 3234 
L 3513 4581 
L 4219 4581 
L 2391 1941 
L 2391 0 
L 1784 0 
z
" transform="scale(0.015625)"/>
    </defs>
    <use xlink:href="#ArialMT-a9"/>
    <use xlink:href="#ArialMT-20" x="73.681641"/>
    <use xlink:href="#ArialMT-32" x="101.464844"/>
    <use xlink:href="#ArialMT-30" x="157.080078"/>
    <use xlink:href="#ArialMT-32" x="212.695312"/>
    <use xlink:href="#ArialMT-32" x="268.310547"/>
    <use xlink:href="#ArialMT-20" x="323.925781"/>
    <use xlink:href="#ArialMT-59" x="349.958984"/>
    <use xlink:href="#ArialMT-6f" x="407.533203"/>
    <use xlink:href="#ArialMT-61" x="463.148438"/>
    <use xlink:href="#ArialMT-6e" x="518.763672"/>
    <use xlink:href="#ArialMT-6e" x="574.378906"/>
    <use xlink:href="#ArialMT-20" x="629.994141"/>
    <use xlink:href="#ArialMT-42" x="657.777344"/>
    <use xlink:href="#ArialMT-65" x="724.476562"/>
    <use xlink:href="#ArialMT-74" x="780.091797"/>
    <use xlink:href="#ArialMT-74" x="807.875"/>
    <use xlink:href="#ArialMT-6f" x="835.658203"/>
    <use xlink:href="#ArialMT-6e" x="891.273438"/>
   </g>
  </g>
 </g>
 <defs>
  <clipPath id="pae18aae7f9">
   <rect x="45.422188" y="23.68275" width="669.6" height="388.08"/>
  </clipPath>
 </defs>
</svg>
