<?xml version="1.0" encoding="utf-8" standalone="no"?>
<!DOCTYPE svg PUBLIC "-//W3C//DTD SVG 1.1//EN"
  "http://www.w3.org/Graphics/SVG/1.1/DTD/svg11.dtd">
<svg xmlns:xlink="http://www.w3.org/1999/xlink" width="713.883125pt" height="446.582437pt" viewBox="0 0 713.883125 446.582437" xmlns="http://www.w3.org/2000/svg" version="1.1">
 <metadata>
  <rdf:RDF xmlns:dc="http://purl.org/dc/elements/1.1/" xmlns:cc="http://creativecommons.org/ns#" xmlns:rdf="http://www.w3.org/1999/02/22-rdf-syntax-ns#">
   <cc:Work>
    <dc:type rdf:resource="http://purl.org/dc/dcmitype/StillImage"/>
    <dc:date>2022-11-13T17:04:33.637747</dc:date>
    <dc:format>image/svg+xml</dc:format>
    <dc:creator>
     <cc:Agent>
      <dc:title>Matplotlib v3.5.2, https://matplotlib.org/</dc:title>
     </cc:Agent>
    </dc:creator>
   </cc:Work>
  </rdf:RDF>
 </metadata>
 <defs>
  <style type="text/css">*{stroke-linejoin: round; stroke-linecap: butt}</style>
 </defs>
 <g id="figure_1">
  <g id="patch_1">
   <path d="M 0 446.582437 
L 713.883125 446.582437 
L 713.883125 0 
L 0 0 
z
" style="fill: #ffffff"/>
  </g>
  <g id="axes_1">
   <g id="patch_2">
    <path d="M 37.083125 411.76275 
L 706.683125 411.76275 
L 706.683125 23.68275 
L 37.083125 23.68275 
z
" style="fill: #eeeeee"/>
   </g>
   <g id="matplotlib.axis_1">
    <g id="xtick_1">
     <g id="line2d_1">
      <path d="M 86.844164 411.76275 
L 86.844164 23.68275 
" clip-path="url(#p4f0d2df615)" style="fill: none; stroke-dasharray: 1.85,0.8; stroke-dashoffset: 0; stroke: #b2b2b2; stroke-width: 0.5"/>
     </g>
     <g id="line2d_2"/>
     <g id="text_1">
      <!-- 10 -->
      <g style="fill: #555555" transform="translate(81.283226 422.420562)scale(0.1 -0.1)">
       <defs>
        <path id="ArialMT-31" d="M 2384 0 
L 1822 0 
L 1822 3584 
Q 1619 3391 1289 3197 
Q 959 3003 697 2906 
L 697 3450 
Q 1169 3672 1522 3987 
Q 1875 4303 2022 4600 
L 2384 4600 
L 2384 0 
z
" transform="scale(0.015625)"/>
        <path id="ArialMT-30" d="M 266 2259 
Q 266 3072 433 3567 
Q 600 4063 929 4331 
Q 1259 4600 1759 4600 
Q 2128 4600 2406 4451 
Q 2684 4303 2865 4023 
Q 3047 3744 3150 3342 
Q 3253 2941 3253 2259 
Q 3253 1453 3087 958 
Q 2922 463 2592 192 
Q 2263 -78 1759 -78 
Q 1097 -78 719 397 
Q 266 969 266 2259 
z
M 844 2259 
Q 844 1131 1108 757 
Q 1372 384 1759 384 
Q 2147 384 2411 759 
Q 2675 1134 2675 2259 
Q 2675 3391 2411 3762 
Q 2147 4134 1753 4134 
Q 1366 4134 1134 3806 
Q 844 3388 844 2259 
z
" transform="scale(0.015625)"/>
       </defs>
       <use xlink:href="#ArialMT-31"/>
       <use xlink:href="#ArialMT-30" x="55.615234"/>
      </g>
     </g>
    </g>
    <g id="xtick_2">
     <g id="line2d_3">
      <path d="M 183.467541 411.76275 
L 183.467541 23.68275 
" clip-path="url(#p4f0d2df615)" style="fill: none; stroke-dasharray: 1.85,0.8; stroke-dashoffset: 0; stroke: #b2b2b2; stroke-width: 0.5"/>
     </g>
     <g id="line2d_4"/>
     <g id="text_2">
      <!-- 20 -->
      <g style="fill: #555555" transform="translate(177.906603 422.420562)scale(0.1 -0.1)">
       <defs>
        <path id="ArialMT-32" d="M 3222 541 
L 3222 0 
L 194 0 
Q 188 203 259 391 
Q 375 700 629 1000 
Q 884 1300 1366 1694 
Q 2113 2306 2375 2664 
Q 2638 3022 2638 3341 
Q 2638 3675 2398 3904 
Q 2159 4134 1775 4134 
Q 1369 4134 1125 3890 
Q 881 3647 878 3216 
L 300 3275 
Q 359 3922 746 4261 
Q 1134 4600 1788 4600 
Q 2447 4600 2831 4234 
Q 3216 3869 3216 3328 
Q 3216 3053 3103 2787 
Q 2991 2522 2730 2228 
Q 2469 1934 1863 1422 
Q 1356 997 1212 845 
Q 1069 694 975 541 
L 3222 541 
z
" transform="scale(0.015625)"/>
       </defs>
       <use xlink:href="#ArialMT-32"/>
       <use xlink:href="#ArialMT-30" x="55.615234"/>
      </g>
     </g>
    </g>
    <g id="xtick_3">
     <g id="line2d_5">
      <path d="M 280.090917 411.76275 
L 280.090917 23.68275 
" clip-path="url(#p4f0d2df615)" style="fill: none; stroke-dasharray: 1.85,0.8; stroke-dashoffset: 0; stroke: #b2b2b2; stroke-width: 0.5"/>
     </g>
     <g id="line2d_6"/>
     <g id="text_3">
      <!-- 30 -->
      <g style="fill: #555555" transform="translate(274.52998 422.420562)scale(0.1 -0.1)">
       <defs>
        <path id="ArialMT-33" d="M 269 1209 
L 831 1284 
Q 928 806 1161 595 
Q 1394 384 1728 384 
Q 2125 384 2398 659 
Q 2672 934 2672 1341 
Q 2672 1728 2419 1979 
Q 2166 2231 1775 2231 
Q 1616 2231 1378 2169 
L 1441 2663 
Q 1497 2656 1531 2656 
Q 1891 2656 2178 2843 
Q 2466 3031 2466 3422 
Q 2466 3731 2256 3934 
Q 2047 4138 1716 4138 
Q 1388 4138 1169 3931 
Q 950 3725 888 3313 
L 325 3413 
Q 428 3978 793 4289 
Q 1159 4600 1703 4600 
Q 2078 4600 2393 4439 
Q 2709 4278 2876 4000 
Q 3044 3722 3044 3409 
Q 3044 3113 2884 2869 
Q 2725 2625 2413 2481 
Q 2819 2388 3044 2092 
Q 3269 1797 3269 1353 
Q 3269 753 2831 336 
Q 2394 -81 1725 -81 
Q 1122 -81 723 278 
Q 325 638 269 1209 
z
" transform="scale(0.015625)"/>
       </defs>
       <use xlink:href="#ArialMT-33"/>
       <use xlink:href="#ArialMT-30" x="55.615234"/>
      </g>
     </g>
    </g>
    <g id="xtick_4">
     <g id="line2d_7">
      <path d="M 376.714294 411.76275 
L 376.714294 23.68275 
" clip-path="url(#p4f0d2df615)" style="fill: none; stroke-dasharray: 1.85,0.8; stroke-dashoffset: 0; stroke: #b2b2b2; stroke-width: 0.5"/>
     </g>
     <g id="line2d_8"/>
     <g id="text_4">
      <!-- 40 -->
      <g style="fill: #555555" transform="translate(371.153356 422.420562)scale(0.1 -0.1)">
       <defs>
        <path id="ArialMT-34" d="M 2069 0 
L 2069 1097 
L 81 1097 
L 81 1613 
L 2172 4581 
L 2631 4581 
L 2631 1613 
L 3250 1613 
L 3250 1097 
L 2631 1097 
L 2631 0 
L 2069 0 
z
M 2069 1613 
L 2069 3678 
L 634 1613 
L 2069 1613 
z
" transform="scale(0.015625)"/>
       </defs>
       <use xlink:href="#ArialMT-34"/>
       <use xlink:href="#ArialMT-30" x="55.615234"/>
      </g>
     </g>
    </g>
    <g id="xtick_5">
     <g id="line2d_9">
      <path d="M 473.33767 411.76275 
L 473.33767 23.68275 
" clip-path="url(#p4f0d2df615)" style="fill: none; stroke-dasharray: 1.85,0.8; stroke-dashoffset: 0; stroke: #b2b2b2; stroke-width: 0.5"/>
     </g>
     <g id="line2d_10"/>
     <g id="text_5">
      <!-- 50 -->
      <g style="fill: #555555" transform="translate(467.776733 422.420562)scale(0.1 -0.1)">
       <defs>
        <path id="ArialMT-35" d="M 266 1200 
L 856 1250 
Q 922 819 1161 601 
Q 1400 384 1738 384 
Q 2144 384 2425 690 
Q 2706 997 2706 1503 
Q 2706 1984 2436 2262 
Q 2166 2541 1728 2541 
Q 1456 2541 1237 2417 
Q 1019 2294 894 2097 
L 366 2166 
L 809 4519 
L 3088 4519 
L 3088 3981 
L 1259 3981 
L 1013 2750 
Q 1425 3038 1878 3038 
Q 2478 3038 2890 2622 
Q 3303 2206 3303 1553 
Q 3303 931 2941 478 
Q 2500 -78 1738 -78 
Q 1113 -78 717 272 
Q 322 622 266 1200 
z
" transform="scale(0.015625)"/>
       </defs>
       <use xlink:href="#ArialMT-35"/>
       <use xlink:href="#ArialMT-30" x="55.615234"/>
      </g>
     </g>
    </g>
    <g id="xtick_6">
     <g id="line2d_11">
      <path d="M 569.961047 411.76275 
L 569.961047 23.68275 
" clip-path="url(#p4f0d2df615)" style="fill: none; stroke-dasharray: 1.85,0.8; stroke-dashoffset: 0; stroke: #b2b2b2; stroke-width: 0.5"/>
     </g>
     <g id="line2d_12"/>
     <g id="text_6">
      <!-- 60 -->
      <g style="fill: #555555" transform="translate(564.40011 422.420562)scale(0.1 -0.1)">
       <defs>
        <path id="ArialMT-36" d="M 3184 3459 
L 2625 3416 
Q 2550 3747 2413 3897 
Q 2184 4138 1850 4138 
Q 1581 4138 1378 3988 
Q 1113 3794 959 3422 
Q 806 3050 800 2363 
Q 1003 2672 1297 2822 
Q 1591 2972 1913 2972 
Q 2475 2972 2870 2558 
Q 3266 2144 3266 1488 
Q 3266 1056 3080 686 
Q 2894 316 2569 119 
Q 2244 -78 1831 -78 
Q 1128 -78 684 439 
Q 241 956 241 2144 
Q 241 3472 731 4075 
Q 1159 4600 1884 4600 
Q 2425 4600 2770 4297 
Q 3116 3994 3184 3459 
z
M 888 1484 
Q 888 1194 1011 928 
Q 1134 663 1356 523 
Q 1578 384 1822 384 
Q 2178 384 2434 671 
Q 2691 959 2691 1453 
Q 2691 1928 2437 2201 
Q 2184 2475 1800 2475 
Q 1419 2475 1153 2201 
Q 888 1928 888 1484 
z
" transform="scale(0.015625)"/>
       </defs>
       <use xlink:href="#ArialMT-36"/>
       <use xlink:href="#ArialMT-30" x="55.615234"/>
      </g>
     </g>
    </g>
    <g id="xtick_7">
     <g id="line2d_13">
      <path d="M 666.584424 411.76275 
L 666.584424 23.68275 
" clip-path="url(#p4f0d2df615)" style="fill: none; stroke-dasharray: 1.85,0.8; stroke-dashoffset: 0; stroke: #b2b2b2; stroke-width: 0.5"/>
     </g>
     <g id="line2d_14"/>
     <g id="text_7">
      <!-- 70 -->
      <g style="fill: #555555" transform="translate(661.023486 422.420562)scale(0.1 -0.1)">
       <defs>
        <path id="ArialMT-37" d="M 303 3981 
L 303 4522 
L 3269 4522 
L 3269 4084 
Q 2831 3619 2401 2847 
Q 1972 2075 1738 1259 
Q 1569 684 1522 0 
L 944 0 
Q 953 541 1156 1306 
Q 1359 2072 1739 2783 
Q 2119 3494 2547 3981 
L 303 3981 
z
" transform="scale(0.015625)"/>
       </defs>
       <use xlink:href="#ArialMT-37"/>
       <use xlink:href="#ArialMT-30" x="55.615234"/>
      </g>
     </g>
    </g>
    <g id="text_8">
     <!-- LapNumber -->
     <g style="fill: #555555" transform="translate(340.535 436.997437)scale(0.12 -0.12)">
      <defs>
       <path id="ArialMT-4c" d="M 469 0 
L 469 4581 
L 1075 4581 
L 1075 541 
L 3331 541 
L 3331 0 
L 469 0 
z
" transform="scale(0.015625)"/>
       <path id="ArialMT-61" d="M 2588 409 
Q 2275 144 1986 34 
Q 1697 -75 1366 -75 
Q 819 -75 525 192 
Q 231 459 231 875 
Q 231 1119 342 1320 
Q 453 1522 633 1644 
Q 813 1766 1038 1828 
Q 1203 1872 1538 1913 
Q 2219 1994 2541 2106 
Q 2544 2222 2544 2253 
Q 2544 2597 2384 2738 
Q 2169 2928 1744 2928 
Q 1347 2928 1158 2789 
Q 969 2650 878 2297 
L 328 2372 
Q 403 2725 575 2942 
Q 747 3159 1072 3276 
Q 1397 3394 1825 3394 
Q 2250 3394 2515 3294 
Q 2781 3194 2906 3042 
Q 3031 2891 3081 2659 
Q 3109 2516 3109 2141 
L 3109 1391 
Q 3109 606 3145 398 
Q 3181 191 3288 0 
L 2700 0 
Q 2613 175 2588 409 
z
M 2541 1666 
Q 2234 1541 1622 1453 
Q 1275 1403 1131 1340 
Q 988 1278 909 1158 
Q 831 1038 831 891 
Q 831 666 1001 516 
Q 1172 366 1500 366 
Q 1825 366 2078 508 
Q 2331 650 2450 897 
Q 2541 1088 2541 1459 
L 2541 1666 
z
" transform="scale(0.015625)"/>
       <path id="ArialMT-70" d="M 422 -1272 
L 422 3319 
L 934 3319 
L 934 2888 
Q 1116 3141 1344 3267 
Q 1572 3394 1897 3394 
Q 2322 3394 2647 3175 
Q 2972 2956 3137 2557 
Q 3303 2159 3303 1684 
Q 3303 1175 3120 767 
Q 2938 359 2589 142 
Q 2241 -75 1856 -75 
Q 1575 -75 1351 44 
Q 1128 163 984 344 
L 984 -1272 
L 422 -1272 
z
M 931 1641 
Q 931 1000 1190 694 
Q 1450 388 1819 388 
Q 2194 388 2461 705 
Q 2728 1022 2728 1688 
Q 2728 2322 2467 2637 
Q 2206 2953 1844 2953 
Q 1484 2953 1207 2617 
Q 931 2281 931 1641 
z
" transform="scale(0.015625)"/>
       <path id="ArialMT-4e" d="M 488 0 
L 488 4581 
L 1109 4581 
L 3516 984 
L 3516 4581 
L 4097 4581 
L 4097 0 
L 3475 0 
L 1069 3600 
L 1069 0 
L 488 0 
z
" transform="scale(0.015625)"/>
       <path id="ArialMT-75" d="M 2597 0 
L 2597 488 
Q 2209 -75 1544 -75 
Q 1250 -75 995 37 
Q 741 150 617 320 
Q 494 491 444 738 
Q 409 903 409 1263 
L 409 3319 
L 972 3319 
L 972 1478 
Q 972 1038 1006 884 
Q 1059 663 1231 536 
Q 1403 409 1656 409 
Q 1909 409 2131 539 
Q 2353 669 2445 892 
Q 2538 1116 2538 1541 
L 2538 3319 
L 3100 3319 
L 3100 0 
L 2597 0 
z
" transform="scale(0.015625)"/>
       <path id="ArialMT-6d" d="M 422 0 
L 422 3319 
L 925 3319 
L 925 2853 
Q 1081 3097 1340 3245 
Q 1600 3394 1931 3394 
Q 2300 3394 2536 3241 
Q 2772 3088 2869 2813 
Q 3263 3394 3894 3394 
Q 4388 3394 4653 3120 
Q 4919 2847 4919 2278 
L 4919 0 
L 4359 0 
L 4359 2091 
Q 4359 2428 4304 2576 
Q 4250 2725 4106 2815 
Q 3963 2906 3769 2906 
Q 3419 2906 3187 2673 
Q 2956 2441 2956 1928 
L 2956 0 
L 2394 0 
L 2394 2156 
Q 2394 2531 2256 2718 
Q 2119 2906 1806 2906 
Q 1569 2906 1367 2781 
Q 1166 2656 1075 2415 
Q 984 2175 984 1722 
L 984 0 
L 422 0 
z
" transform="scale(0.015625)"/>
       <path id="ArialMT-62" d="M 941 0 
L 419 0 
L 419 4581 
L 981 4581 
L 981 2947 
Q 1338 3394 1891 3394 
Q 2197 3394 2470 3270 
Q 2744 3147 2920 2923 
Q 3097 2700 3197 2384 
Q 3297 2069 3297 1709 
Q 3297 856 2875 390 
Q 2453 -75 1863 -75 
Q 1275 -75 941 416 
L 941 0 
z
M 934 1684 
Q 934 1088 1097 822 
Q 1363 388 1816 388 
Q 2184 388 2453 708 
Q 2722 1028 2722 1663 
Q 2722 2313 2464 2622 
Q 2206 2931 1841 2931 
Q 1472 2931 1203 2611 
Q 934 2291 934 1684 
z
" transform="scale(0.015625)"/>
       <path id="ArialMT-65" d="M 2694 1069 
L 3275 997 
Q 3138 488 2766 206 
Q 2394 -75 1816 -75 
Q 1088 -75 661 373 
Q 234 822 234 1631 
Q 234 2469 665 2931 
Q 1097 3394 1784 3394 
Q 2450 3394 2872 2941 
Q 3294 2488 3294 1666 
Q 3294 1616 3291 1516 
L 816 1516 
Q 847 969 1125 678 
Q 1403 388 1819 388 
Q 2128 388 2347 550 
Q 2566 713 2694 1069 
z
M 847 1978 
L 2700 1978 
Q 2663 2397 2488 2606 
Q 2219 2931 1791 2931 
Q 1403 2931 1139 2672 
Q 875 2413 847 1978 
z
" transform="scale(0.015625)"/>
       <path id="ArialMT-72" d="M 416 0 
L 416 3319 
L 922 3319 
L 922 2816 
Q 1116 3169 1280 3281 
Q 1444 3394 1641 3394 
Q 1925 3394 2219 3213 
L 2025 2691 
Q 1819 2813 1613 2813 
Q 1428 2813 1281 2702 
Q 1134 2591 1072 2394 
Q 978 2094 978 1738 
L 978 0 
L 416 0 
z
" transform="scale(0.015625)"/>
      </defs>
      <use xlink:href="#ArialMT-4c"/>
      <use xlink:href="#ArialMT-61" x="55.615234"/>
      <use xlink:href="#ArialMT-70" x="111.230469"/>
      <use xlink:href="#ArialMT-4e" x="166.845703"/>
      <use xlink:href="#ArialMT-75" x="239.0625"/>
      <use xlink:href="#ArialMT-6d" x="294.677734"/>
      <use xlink:href="#ArialMT-62" x="377.978516"/>
      <use xlink:href="#ArialMT-65" x="433.59375"/>
      <use xlink:href="#ArialMT-72" x="489.208984"/>
     </g>
    </g>
   </g>
   <g id="matplotlib.axis_2">
    <g id="ytick_1">
     <g id="line2d_15">
      <path d="M 37.083125 336.449468 
L 706.683125 336.449468 
" clip-path="url(#p4f0d2df615)" style="fill: none; stroke-dasharray: 1.85,0.8; stroke-dashoffset: 0; stroke: #b2b2b2; stroke-width: 0.5"/>
     </g>
     <g id="line2d_16"/>
     <g id="text_9">
      <!-- 75 -->
      <g style="fill: #555555" transform="translate(22.46125 340.028374)scale(0.1 -0.1)">
       <use xlink:href="#ArialMT-37"/>
       <use xlink:href="#ArialMT-35" x="55.615234"/>
      </g>
     </g>
    </g>
    <g id="ytick_2">
     <g id="line2d_17">
      <path d="M 37.083125 254.006719 
L 706.683125 254.006719 
" clip-path="url(#p4f0d2df615)" style="fill: none; stroke-dasharray: 1.85,0.8; stroke-dashoffset: 0; stroke: #b2b2b2; stroke-width: 0.5"/>
     </g>
     <g id="line2d_18"/>
     <g id="text_10">
      <!-- 76 -->
      <g style="fill: #555555" transform="translate(22.46125 257.585626)scale(0.1 -0.1)">
       <use xlink:href="#ArialMT-37"/>
       <use xlink:href="#ArialMT-36" x="55.615234"/>
      </g>
     </g>
    </g>
    <g id="ytick_3">
     <g id="line2d_19">
      <path d="M 37.083125 171.563971 
L 706.683125 171.563971 
" clip-path="url(#p4f0d2df615)" style="fill: none; stroke-dasharray: 1.85,0.8; stroke-dashoffset: 0; stroke: #b2b2b2; stroke-width: 0.5"/>
     </g>
     <g id="line2d_20"/>
     <g id="text_11">
      <!-- 77 -->
      <g style="fill: #555555" transform="translate(22.46125 175.142878)scale(0.1 -0.1)">
       <use xlink:href="#ArialMT-37"/>
       <use xlink:href="#ArialMT-37" x="55.615234"/>
      </g>
     </g>
    </g>
    <g id="ytick_4">
     <g id="line2d_21">
      <path d="M 37.083125 89.121223 
L 706.683125 89.121223 
" clip-path="url(#p4f0d2df615)" style="fill: none; stroke-dasharray: 1.85,0.8; stroke-dashoffset: 0; stroke: #b2b2b2; stroke-width: 0.5"/>
     </g>
     <g id="line2d_22"/>
     <g id="text_12">
      <!-- 78 -->
      <g style="fill: #555555" transform="translate(22.46125 92.70013)scale(0.1 -0.1)">
       <defs>
        <path id="ArialMT-38" d="M 1131 2484 
Q 781 2613 612 2850 
Q 444 3088 444 3419 
Q 444 3919 803 4259 
Q 1163 4600 1759 4600 
Q 2359 4600 2725 4251 
Q 3091 3903 3091 3403 
Q 3091 3084 2923 2848 
Q 2756 2613 2416 2484 
Q 2838 2347 3058 2040 
Q 3278 1734 3278 1309 
Q 3278 722 2862 322 
Q 2447 -78 1769 -78 
Q 1091 -78 675 323 
Q 259 725 259 1325 
Q 259 1772 486 2073 
Q 713 2375 1131 2484 
z
M 1019 3438 
Q 1019 3113 1228 2906 
Q 1438 2700 1772 2700 
Q 2097 2700 2305 2904 
Q 2513 3109 2513 3406 
Q 2513 3716 2298 3927 
Q 2084 4138 1766 4138 
Q 1444 4138 1231 3931 
Q 1019 3725 1019 3438 
z
M 838 1322 
Q 838 1081 952 856 
Q 1066 631 1291 507 
Q 1516 384 1775 384 
Q 2178 384 2440 643 
Q 2703 903 2703 1303 
Q 2703 1709 2433 1975 
Q 2163 2241 1756 2241 
Q 1359 2241 1098 1978 
Q 838 1716 838 1322 
z
" transform="scale(0.015625)"/>
       </defs>
       <use xlink:href="#ArialMT-37"/>
       <use xlink:href="#ArialMT-38" x="55.615234"/>
      </g>
     </g>
    </g>
    <g id="text_13">
     <!-- LapTime (s) -->
     <g style="fill: #555555" transform="translate(15.935625 249.502125)rotate(-90)scale(0.12 -0.12)">
      <defs>
       <path id="ArialMT-54" d="M 1659 0 
L 1659 4041 
L 150 4041 
L 150 4581 
L 3781 4581 
L 3781 4041 
L 2266 4041 
L 2266 0 
L 1659 0 
z
" transform="scale(0.015625)"/>
       <path id="ArialMT-69" d="M 425 3934 
L 425 4581 
L 988 4581 
L 988 3934 
L 425 3934 
z
M 425 0 
L 425 3319 
L 988 3319 
L 988 0 
L 425 0 
z
" transform="scale(0.015625)"/>
       <path id="ArialMT-20" transform="scale(0.015625)"/>
       <path id="ArialMT-28" d="M 1497 -1347 
Q 1031 -759 709 28 
Q 388 816 388 1659 
Q 388 2403 628 3084 
Q 909 3875 1497 4659 
L 1900 4659 
Q 1522 4009 1400 3731 
Q 1209 3300 1100 2831 
Q 966 2247 966 1656 
Q 966 153 1900 -1347 
L 1497 -1347 
z
" transform="scale(0.015625)"/>
       <path id="ArialMT-73" d="M 197 991 
L 753 1078 
Q 800 744 1014 566 
Q 1228 388 1613 388 
Q 2000 388 2187 545 
Q 2375 703 2375 916 
Q 2375 1106 2209 1216 
Q 2094 1291 1634 1406 
Q 1016 1563 777 1677 
Q 538 1791 414 1992 
Q 291 2194 291 2438 
Q 291 2659 392 2848 
Q 494 3038 669 3163 
Q 800 3259 1026 3326 
Q 1253 3394 1513 3394 
Q 1903 3394 2198 3281 
Q 2494 3169 2634 2976 
Q 2775 2784 2828 2463 
L 2278 2388 
Q 2241 2644 2061 2787 
Q 1881 2931 1553 2931 
Q 1166 2931 1000 2803 
Q 834 2675 834 2503 
Q 834 2394 903 2306 
Q 972 2216 1119 2156 
Q 1203 2125 1616 2013 
Q 2213 1853 2448 1751 
Q 2684 1650 2818 1456 
Q 2953 1263 2953 975 
Q 2953 694 2789 445 
Q 2625 197 2315 61 
Q 2006 -75 1616 -75 
Q 969 -75 630 194 
Q 291 463 197 991 
z
" transform="scale(0.015625)"/>
       <path id="ArialMT-29" d="M 791 -1347 
L 388 -1347 
Q 1322 153 1322 1656 
Q 1322 2244 1188 2822 
Q 1081 3291 891 3722 
Q 769 4003 388 4659 
L 791 4659 
Q 1378 3875 1659 3084 
Q 1900 2403 1900 1659 
Q 1900 816 1576 28 
Q 1253 -759 791 -1347 
z
" transform="scale(0.015625)"/>
      </defs>
      <use xlink:href="#ArialMT-4c"/>
      <use xlink:href="#ArialMT-61" x="55.615234"/>
      <use xlink:href="#ArialMT-70" x="111.230469"/>
      <use xlink:href="#ArialMT-54" x="166.845703"/>
      <use xlink:href="#ArialMT-69" x="224.179688"/>
      <use xlink:href="#ArialMT-6d" x="246.396484"/>
      <use xlink:href="#ArialMT-65" x="329.697266"/>
      <use xlink:href="#ArialMT-20" x="385.3125"/>
      <use xlink:href="#ArialMT-28" x="413.095703"/>
      <use xlink:href="#ArialMT-73" x="446.396484"/>
      <use xlink:href="#ArialMT-29" x="496.396484"/>
     </g>
    </g>
   </g>
   <g id="line2d_23">
    <path d="M 67.519489 246.092216 
L 77.181826 249.142597 
L 86.844164 246.174658 
L 96.506502 244.340307 
L 106.168839 238.606414 
L 115.831177 234.467788 
L 125.493515 232.406719 
L 135.155852 232.757101 
L 144.81819 232.599086 
L 154.480528 230.1313 
L 164.142865 228.119697 
L 173.805203 225.250689 
L 183.467541 222.958781 
L 193.129878 218.671758 
L 202.792216 216.973437 
L 212.454554 214.4342 
L 241.441567 218.276032 
L 251.103904 219.38901 
L 260.766242 220.807025 
L 270.42858 225.761834 
L 280.090917 228.614353 
L 289.753255 231.804887 
L 299.415593 235.308704 
L 309.07793 239.496796 
L 318.740268 244.138323 
L 328.402606 248.746872 
L 338.064943 247.864735 
L 347.727281 248.639697 
L 357.389619 253.198781 
L 367.051956 254.418933 
L 376.714294 253.973742 
L 386.376631 251.112979 
L 396.038969 250.123666 
L 405.701307 251.450994 
L 415.363644 253.42962 
L 425.025982 255.094964 
L 434.68832 255.169162 
L 444.350657 253.25649 
L 454.012995 251.920918 
L 483.000008 249.948704 
L 492.662346 257.725803 
L 579.623385 261.591452 
L 589.285722 264.323841 
L 598.94806 266.524277 
L 608.610398 266.8513 
L 618.272735 299.465651 
L 627.935073 330.777406 
L 637.597411 362.385956 
L 647.259748 384.348704 
L 656.922086 383.785345 
L 666.584424 393.183819 
L 676.246761 386.515771 
" clip-path="url(#p4f0d2df615)" style="fill: none; stroke: #00d2be; stroke-width: 2; stroke-linecap: round"/>
   </g>
   <g id="line2d_24">
    <path d="M 67.519489 361.687254 
L 77.181826 346.040307 
L 86.844164 338.642445 
L 96.506502 318.353284 
L 106.168839 294.428399 
L 115.831177 270.866261 
L 125.493515 249.694964 
L 135.155852 230.939239 
L 144.81819 215.778017 
L 154.480528 203.180765 
L 164.142865 206.602139 
L 173.805203 207.121529 
L 183.467541 202.776796 
L 193.129878 198.967941 
L 202.792216 202.504735 
L 212.454554 205.085193 
L 222.116891 208.333437 
L 231.779229 206.676338 
L 241.441567 202.719086 
L 251.103904 198.160002 
L 260.766242 192.751758 
L 289.753255 203.403361 
L 299.415593 209.199086 
L 309.07793 220.4113 
L 318.740268 229.521223 
L 328.402606 239.134048 
L 338.064943 248.037865 
L 347.727281 258.433895 
L 357.389619 270.322139 
L 367.051956 280.413132 
L 376.714294 290.166109 
L 386.376631 282.622597 
L 396.038969 281.822903 
L 405.701307 281.443666 
L 415.363644 271.459849 
L 425.025982 269.530689 
L 434.68832 264.946872 
L 444.350657 262.135574 
L 473.33767 272.762445 
L 483.000008 281.723971 
L 492.662346 288.830536 
L 579.623385 292.351758 
L 589.285722 294.073895 
L 598.94806 295.86408 
L 608.610398 312.788399 
L 618.272735 338.93649 
L 627.935073 365.428094 
L 637.597411 390.394506 
L 647.259748 385.626567 
L 656.922086 386.780765 
L 666.584424 388.773132 
L 676.246761 383.93649 
" clip-path="url(#p4f0d2df615)" style="fill: none; stroke: #00d2be; stroke-width: 2; stroke-linecap: round"/>
   </g>
   <g id="line2d_25">
    <path d="M 67.519489 361.975803 
L 77.181826 350.739544 
L 86.844164 336.985345 
L 96.506502 317.0342 
L 106.168839 296.604887 
L 115.831177 275.903513 
L 125.493515 256.290384 
L 135.155852 238.804277 
L 144.81819 222.637254 
L 173.805203 216.759086 
L 183.467541 217.105345 
L 193.129878 214.755727 
L 202.792216 217.698933 
L 212.454554 220.938933 
L 222.116891 223.42046 
L 231.779229 225.357865 
L 241.441567 229.298628 
L 251.103904 232.340765 
L 260.766242 235.226261 
L 270.42858 225.341376 
L 280.090917 225.423819 
L 289.753255 223.148399 
L 299.415593 219.694048 
L 309.07793 216.322139 
L 318.740268 215.101987 
L 328.402606 216.231452 
L 357.389619 229.397559 
L 367.051956 240.040918 
L 376.714294 251.706567 
L 386.376631 262.12733 
L 396.038969 273.141681 
L 405.701307 283.768552 
L 415.363644 294.576796 
L 425.025982 303.233284 
L 434.68832 307.8913 
L 444.350657 312.285498 
L 454.012995 305.418017 
L 463.675333 301.06504 
L 473.33767 292.952674 
L 483.000008 289.918781 
L 492.662346 278.302597 
L 579.623385 277.873895 
L 589.285722 287.948399 
L 598.94806 299.399697 
L 608.610398 313.184124 
L 618.272735 317.973132 
L 627.935073 330.715116 
L 637.597411 342.550231 
L 647.259748 355.154811 
L 656.922086 367.924277 
L 666.584424 387.261681 
L 676.246761 394.12275 
" clip-path="url(#p4f0d2df615)" style="fill: none; stroke: #dc0000; stroke-width: 2; stroke-linecap: round"/>
   </g>
   <g id="line2d_26">
    <path d="M 77.181826 382.370078 
L 86.844164 366.760918 
L 96.506502 349.008246 
L 106.168839 337.95817 
L 115.831177 318.757254 
L 125.493515 299.177101 
L 135.155852 281.781681 
L 144.81819 262.308704 
L 154.480528 243.404582 
L 164.142865 222.719697 
L 173.805203 208.003666 
L 183.467541 191.432674 
L 212.454554 191.647025 
L 222.116891 187.294048 
L 231.779229 188.621376 
L 241.441567 195.5713 
L 251.103904 203.724887 
L 260.766242 208.861071 
L 270.42858 214.508399 
L 280.090917 224.088246 
L 289.753255 231.969773 
L 299.415593 241.211605 
L 309.07793 239.496796 
L 318.740268 238.202445 
L 328.402606 237.072979 
L 338.064943 234.748094 
L 347.727281 229.587177 
L 357.389619 227.85588 
L 367.051956 222.249773 
L 376.714294 214.920613 
L 386.376631 207.904735 
L 396.038969 206.593895 
L 405.701307 203.494048 
L 434.68832 216.528246 
L 444.350657 223.774964 
L 454.012995 229.710842 
L 463.675333 241.261071 
L 473.33767 244.261987 
L 483.000008 259.670536 
L 579.623385 272.605803 
L 589.285722 294.70046 
L 598.94806 315.476032 
L 608.610398 333.044582 
L 618.272735 340.00275 
L 627.935073 348.123361 
L 637.597411 354.941376 
L 647.259748 356.153284 
L 656.922086 364.199697 
L 666.584424 365.246719 
L 676.246761 367.414964 
" clip-path="url(#p4f0d2df615)" style="fill: none; stroke: #dc0000; stroke-width: 2; stroke-linecap: round"/>
   </g>
   <g id="line2d_27">
    <path d="M 67.519489 335.427177 
L 77.181826 311.568246 
L 86.844164 290.570078 
L 96.506502 264.369773 
L 106.168839 237.806719 
L 115.831177 207.187483 
L 144.81819 197.764277 
L 154.480528 185.612216 
L 164.142865 168.39817 
L 173.805203 151.571605 
L 183.467541 159.659239 
L 193.129878 160.904124 
L 202.792216 159.799391 
L 212.454554 162.956948 
L 222.116891 168.422903 
L 231.779229 178.159391 
L 241.441567 168.686719 
L 251.103904 166.658628 
L 260.766242 165.397254 
L 270.42858 166.163971 
L 280.090917 172.413132 
L 289.753255 173.023208 
L 299.415593 174.99359 
L 309.07793 176.477559 
L 318.740268 176.799086 
L 347.727281 184.886719 
L 357.389619 195.637254 
L 367.051956 204.623513 
L 376.714294 214.854658 
L 386.376631 218.762445 
L 396.038969 223.824429 
L 405.701307 232.96733 
L 415.363644 239.892521 
L 425.025982 247.757559 
L 434.68832 260.247635 
L 444.350657 261.014353 
L 454.012995 258.491605 
L 463.675333 254.278781 
L 473.33767 251.986872 
L 483.000008 255.284582 
L 579.623385 263.298017 
L 589.285722 276.892826 
L 598.94806 291.130689 
L 608.610398 302.285193 
L 618.272735 309.836948 
L 627.935073 322.60733 
L 637.597411 336.795727 
L 647.259748 347.439086 
L 656.922086 356.598475 
L 666.584424 365.518781 
L 676.246761 366.079391 
" clip-path="url(#p4f0d2df615)" style="fill: none; stroke: #0090ff; stroke-width: 2; stroke-linecap: round"/>
   </g>
   <g id="line2d_28">
    <path d="M 77.181826 354.537406 
L 86.844164 342.698628 
L 96.506502 330.760918 
L 106.168839 316.679697 
L 115.831177 300.141681 
L 125.493515 284.279697 
L 135.155852 270.99817 
L 144.81819 256.455269 
L 154.480528 238.631147 
L 164.142865 221.672674 
L 173.805203 202.933437 
L 183.467541 190.921529 
L 193.129878 180.368857 
L 202.792216 173.287025 
L 231.779229 176.535269 
L 241.441567 178.250078 
L 260.766242 183.509926 
L 270.42858 186.131605 
L 280.090917 193.378323 
L 289.753255 198.127025 
L 299.415593 208.97649 
L 309.07793 211.65588 
L 318.740268 223.0742 
L 328.402606 229.809773 
L 338.064943 227.113895 
L 347.727281 228.078475 
L 357.389619 224.038781 
L 367.051956 223.098933 
L 376.714294 222.373437 
L 386.376631 221.895269 
L 396.038969 225.242445 
L 405.701307 231.65649 
L 415.363644 230.881529 
L 425.025982 224.723055 
L 434.68832 228.210384 
L 444.350657 225.885498 
L 473.33767 239.167025 
L 483.000008 250.956338 
L 579.623385 257.642445 
L 589.285722 266.117559 
L 598.94806 281.262292 
L 608.610398 297.956948 
L 618.272735 313.695269 
L 627.935073 335.649773 
L 637.597411 350.151452 
L 647.259748 364.018323 
L 656.922086 363.465956 
L 666.584424 367.645803 
L 676.246761 376.392979 
" clip-path="url(#p4f0d2df615)" style="fill: none; stroke: #0600ef; stroke-width: 2; stroke-linecap: round"/>
   </g>
   <g id="line2d_29">
    <path d="M 67.519489 369.978933 
L 77.181826 353.935574 
L 86.844164 337.240918 
L 96.506502 321.923055 
L 106.168839 307.322445 
L 115.831177 288.16275 
L 125.493515 271.888552 
L 135.155852 259.942597 
L 144.81819 243.322139 
L 154.480528 226.71817 
L 164.142865 223.865651 
L 173.805203 220.032063 
L 183.467541 214.54962 
L 193.129878 207.533742 
L 202.792216 201.317559 
L 231.779229 206.923666 
L 241.441567 209.487635 
L 251.103904 210.410994 
L 260.766242 213.980765 
L 270.42858 215.91817 
L 280.090917 217.550536 
L 289.753255 220.518475 
L 299.415593 225.283666 
L 309.07793 230.766109 
L 318.740268 236.726719 
L 328.402606 233.058017 
L 338.064943 234.022597 
L 347.727281 232.810689 
L 357.389619 232.456185 
L 367.051956 230.766109 
L 376.714294 227.493132 
L 386.376631 226.627483 
L 396.038969 226.693437 
L 405.701307 224.690078 
L 415.363644 218.086414 
L 425.025982 207.9542 
L 434.68832 200.789926 
L 463.675333 209.281529 
L 473.33767 216.643666 
L 483.000008 226.635727 
L 492.662346 236.108399 
L 579.623385 248.664429 
L 589.285722 265.284887 
L 598.94806 273.38901 
L 608.610398 285.77191 
L 618.272735 297.82504 
L 627.935073 315.772826 
L 637.597411 311.774353 
L 647.259748 313.23359 
L 656.922086 312.994506 
L 666.584424 316.597254 
L 676.246761 309.276338 
" clip-path="url(#p4f0d2df615)" style="fill: none; stroke: #0600ef; stroke-width: 2; stroke-linecap: round"/>
   </g>
   <g id="line2d_30">
    <path d="M 67.519489 279.679391 
L 77.181826 266.925498 
L 86.844164 254.146872 
L 96.506502 240.403666 
L 106.168839 216.388094 
L 115.831177 202.010078 
L 125.493515 181.020155 
L 135.155852 161.909926 
L 144.81819 140.672674 
L 154.480528 126.574964 
L 164.142865 131.480307 
L 173.805203 129.476948 
L 183.467541 127.399391 
L 193.129878 127.316948 
L 202.792216 127.861071 
L 212.454554 127.06962 
L 241.441567 141.315727 
L 251.103904 147.243361 
L 260.766242 157.523971 
L 270.42858 165.908399 
L 280.090917 171.539239 
L 289.753255 176.930994 
L 299.415593 181.077865 
L 309.07793 187.582597 
L 318.740268 193.749315 
L 328.402606 198.423819 
L 338.064943 190.987483 
L 347.727281 189.53649 
L 357.389619 184.952674 
L 367.051956 180.434811 
L 376.714294 176.221987 
L 386.376631 172.37191 
L 396.038969 171.679391 
L 405.701307 169.239086 
L 415.363644 168.018933 
L 425.025982 166.551452 
L 434.68832 166.361834 
L 463.675333 179.857712 
L 473.33767 189.470536 
L 483.000008 198.926719 
L 579.623385 206.107483 
L 589.285722 220.551452 
L 598.94806 232.076948 
L 608.610398 248.178017 
L 618.272735 264.831452 
L 627.935073 281.295269 
L 637.597411 295.623819 
L 647.259748 295.689773 
L 656.922086 298.1713 
L 666.584424 300.3313 
L 676.246761 303.414658 
" clip-path="url(#p4f0d2df615)" style="fill: none; stroke: #0090ff; stroke-width: 2; stroke-linecap: round"/>
   </g>
   <g id="line2d_31">
    <path d="M 67.519489 287.016796 
L 77.181826 275.738628 
L 86.844164 260.849468 
L 96.506502 237.781987 
L 106.168839 222.018933 
L 115.831177 201.564887 
L 125.493515 182.199086 
L 135.155852 166.534964 
L 144.81819 150.277254 
L 154.480528 138.809468 
L 164.142865 139.229926 
L 173.805203 136.022903 
L 183.467541 133.417712 
L 193.129878 133.887635 
L 202.792216 128.20733 
L 212.454554 130.383819 
L 241.441567 146.105651 
L 251.103904 153.789315 
L 260.766242 165.924887 
L 270.42858 168.241529 
L 280.090917 174.754506 
L 289.753255 181.556032 
L 299.415593 188.110231 
L 309.07793 195.563055 
L 318.740268 203.996948 
L 328.402606 210.699544 
L 338.064943 205.17588 
L 347.727281 201.210384 
L 357.389619 195.835116 
L 367.051956 196.36275 
L 376.714294 193.592674 
L 386.376631 188.505956 
L 396.038969 184.202445 
L 405.701307 182.776185 
L 415.363644 180.880002 
L 444.350657 170.492216 
L 454.012995 173.68275 
L 463.675333 176.296185 
L 473.33767 179.898933 
L 483.000008 187.079697 
L 579.623385 192.512674 
L 589.285722 206.396032 
L 598.94806 209.0342 
L 608.610398 219.075727 
L 618.272735 230.287941 
L 627.935073 248.301681 
L 637.597411 249.802139 
L 647.259748 258.112368 
L 656.922086 263.652521 
L 666.584424 265.960918 
L 676.246761 268.417712 
" clip-path="url(#p4f0d2df615)" style="fill: none; stroke: #900000; stroke-width: 2; stroke-linecap: round"/>
   </g>
   <g id="line2d_32">
    <path d="M 67.519489 254.954811 
L 77.181826 251.772521 
L 86.844164 239.884277 
L 96.506502 220.271147 
L 106.168839 198.225956 
L 115.831177 173.839391 
L 125.493515 149.889773 
L 135.155852 132.9313 
L 144.81819 107.637865 
L 154.480528 95.625956 
L 164.142865 89.294353 
L 173.805203 81.76733 
L 183.467541 72.030842 
L 193.129878 69.615269 
L 202.792216 70.052216 
L 212.454554 74.586567 
L 231.779229 75.897406 
L 241.441567 73.12733 
L 251.103904 78.881834 
L 260.766242 71.552674 
L 289.753255 84.8342 
L 299.415593 94.603666 
L 309.07793 107.926414 
L 318.740268 121.644887 
L 328.402606 133.763971 
L 338.064943 137.745956 
L 347.727281 148.883971 
L 357.389619 158.521529 
L 367.051956 166.97191 
L 376.714294 179.973132 
L 386.376631 175.521223 
L 396.038969 172.099849 
L 405.701307 171.374353 
L 415.363644 167.342903 
L 425.025982 165.479697 
L 434.68832 173.715727 
L 444.350657 161.909926 
L 473.33767 178.950842 
L 483.000008 197.541681 
L 579.623385 202.999391 
L 589.285722 211.697101 
L 598.94806 227.9713 
L 608.610398 239.917254 
L 618.272735 254.888857 
L 627.935073 264.559391 
L 637.597411 273.10046 
L 656.922086 296.217406 
L 666.584424 288.945956 
L 676.246761 281.748704 
" clip-path="url(#p4f0d2df615)" style="fill: none; stroke: #006f62; stroke-width: 2; stroke-linecap: round"/>
   </g>
   <g id="line2d_33">
    <path d="M 67.519489 272.482139 
L 77.181826 264.262597 
L 86.844164 252.976185 
L 96.506502 244.459849 
L 106.168839 229.298628 
L 115.831177 216.70962 
L 125.493515 198.300155 
L 135.155852 182.075422 
L 144.81819 166.081529 
L 154.480528 151.538628 
L 164.142865 149.617712 
L 173.805203 142.981071 
L 183.467541 137.836643 
L 193.129878 127.753895 
L 202.792216 124.2913 
L 212.454554 121.364582 
L 222.116891 124.052216 
L 231.779229 117.019849 
L 260.766242 119.501376 
L 270.42858 123.582292 
L 280.090917 129.897406 
L 289.753255 137.102903 
L 299.415593 141.818628 
L 309.07793 151.035727 
L 318.740268 154.679697 
L 328.402606 161.613132 
L 338.064943 170.467483 
L 347.727281 184.144735 
L 357.389619 188.275116 
L 367.051956 187.071452 
L 376.714294 184.688857 
L 386.376631 180.632674 
L 396.038969 176.353895 
L 405.701307 172.874811 
L 415.363644 172.8913 
L 444.350657 180.195727 
L 454.012995 181.605498 
L 463.675333 186.675727 
L 473.33767 189.635422 
L 483.000008 191.333742 
L 579.623385 198.382597 
L 589.285722 209.462903 
L 598.94806 221.565498 
L 608.610398 234.27817 
L 618.272735 236.363971 
L 627.935073 237.650078 
L 637.597411 240.609773 
L 647.259748 241.335269 
L 656.922086 245.993284 
L 666.584424 254.864124 
L 676.246761 254.039697 
" clip-path="url(#p4f0d2df615)" style="fill: none; stroke: #006f62; stroke-width: 2; stroke-linecap: round"/>
   </g>
   <g id="line2d_34">
    <path d="M 67.519489 230.543513 
L 77.181826 221.499544 
L 86.844164 207.970689 
L 96.506502 201.828704 
L 106.168839 184.664124 
L 115.831177 165.529162 
L 125.493515 148.414048 
L 135.155852 135.5942 
L 164.142865 131.744124 
L 173.805203 127.490078 
L 183.467541 141.678475 
L 193.129878 141.076643 
L 202.792216 141.018933 
L 212.454554 144.654658 
L 222.116891 151.06046 
L 231.779229 158.290689 
L 241.441567 158.191758 
L 251.103904 155.751452 
L 260.766242 142.156643 
L 270.42858 131.826567 
L 280.090917 121.092521 
L 289.753255 115.717254 
L 299.415593 113.161529 
L 309.07793 107.703819 
L 318.740268 100.918781 
L 328.402606 98.948399 
L 338.064943 99.203971 
L 367.051956 112.782292 
L 376.714294 126.978933 
L 386.376631 142.214353 
L 396.038969 158.200002 
L 405.701307 167.309926 
L 415.363644 175.174964 
L 425.025982 185.059849 
L 434.68832 182.965803 
L 444.350657 182.924582 
L 454.012995 187.277559 
L 463.675333 180.748094 
L 473.33767 174.432979 
L 483.000008 171.085803 
L 579.623385 172.454353 
L 589.285722 175.397559 
L 598.94806 175.257406 
L 608.610398 182.058933 
L 618.272735 200.484887 
L 627.935073 213.708704 
L 637.597411 224.797254 
L 647.259748 224.343819 
L 656.922086 231.978017 
L 666.584424 233.849468 
L 676.246761 231.928552 
" clip-path="url(#p4f0d2df615)" style="fill: none; stroke: #900000; stroke-width: 2; stroke-linecap: round"/>
   </g>
   <g id="line2d_35">
    <path d="M 67.519489 221.243971 
L 77.181826 214.871147 
L 86.844164 203.106567 
L 96.506502 190.764887 
L 106.168839 178.942597 
L 115.831177 169.280307 
L 125.493515 161.258628 
L 135.155852 144.563971 
L 144.81819 129.823208 
L 154.480528 110.13588 
L 164.142865 100.572521 
L 173.805203 91.594506 
L 183.467541 79.986567 
L 193.129878 72.434811 
L 202.792216 64.528552 
L 212.454554 56.383208 
L 241.441567 68.007635 
L 251.103904 78.58504 
L 260.766242 92.311758 
L 270.42858 105.230536 
L 280.090917 118.817101 
L 289.753255 130.054048 
L 299.415593 142.115422 
L 309.07793 151.761223 
L 318.740268 161.200918 
L 328.402606 164.663513 
L 338.064943 159.609773 
L 347.727281 156.1142 
L 357.389619 147.424735 
L 367.051956 147.226872 
L 376.714294 147.655574 
L 386.376631 139.229926 
L 396.038969 139.584429 
L 405.701307 139.493742 
L 415.363644 136.022903 
L 425.025982 142.346261 
L 454.012995 153.072063 
L 463.675333 166.988399 
L 473.33767 183.17191 
L 483.000008 198.052826 
L 579.623385 192.364277 
L 589.285722 212.480307 
L 598.94806 227.979544 
L 608.610398 243.552979 
L 618.272735 256.908704 
L 627.935073 256.183208 
L 637.597411 255.037254 
L 647.259748 250.956338 
L 656.922086 248.507788 
L 666.584424 241.013742 
L 676.246761 251.112979 
" clip-path="url(#p4f0d2df615)" style="fill: none; stroke: #ffffff; stroke-width: 2; stroke-linecap: round"/>
   </g>
   <g id="line2d_36">
    <path d="M 67.519489 236.603055 
L 77.181826 219.710536 
L 86.844164 201.251605 
L 96.506502 191.737712 
L 106.168839 191.680002 
L 115.831177 179.593895 
L 125.493515 166.394811 
L 135.155852 150.178323 
L 144.81819 136.707177 
L 154.480528 125.668094 
L 164.142865 123.7142 
L 193.129878 127.325193 
L 202.792216 129.798475 
L 212.454554 130.523971 
L 222.116891 129.831452 
L 231.779229 130.375574 
L 241.441567 134.415269 
L 251.103904 140.359391 
L 260.766242 140.656185 
L 270.42858 137.886109 
L 280.090917 132.87359 
L 289.753255 126.228704 
L 299.415593 123.203055 
L 309.07793 121.916948 
L 318.740268 118.916032 
L 347.727281 128.256796 
L 357.389619 132.906567 
L 367.051956 135.643666 
L 376.714294 145.305956 
L 386.376631 156.823208 
L 396.038969 170.080002 
L 405.701307 179.544429 
L 415.363644 187.788704 
L 434.68832 191.185345 
L 444.350657 199.165803 
L 454.012995 189.355116 
L 463.675333 183.823208 
L 473.33767 183.666567 
L 483.000008 183.567635 
L 579.623385 172.709926 
L 589.285722 179.626872 
L 598.94806 189.181987 
L 608.610398 199.742903 
L 618.272735 210.526414 
L 627.935073 215.497712 
L 637.597411 232.142903 
L 647.259748 243.610689 
L 656.922086 252.225956 
L 666.584424 260.165193 
L 676.246761 279.885498 
" clip-path="url(#p4f0d2df615)" style="fill: none; stroke: #2b4562; stroke-width: 2; stroke-linecap: round"/>
   </g>
   <g id="line2d_37">
    <path d="M 67.519489 251.55817 
L 77.181826 229.78504 
L 86.844164 208.671452 
L 96.506502 189.511758 
L 106.168839 176.535269 
L 115.831177 151.250078 
L 125.493515 133.038475 
L 135.155852 112.930689 
L 144.81819 94.282139 
L 154.480528 72.690384 
L 164.142865 80.192674 
L 173.805203 75.806719 
L 183.467541 70.917865 
L 193.129878 65.674506 
L 202.792216 58.534964 
L 212.454554 56.449162 
L 222.116891 54.454048 
L 251.103904 66.902903 
L 260.766242 77.892521 
L 270.42858 87.076643 
L 280.090917 90.662903 
L 289.753255 101.487635 
L 299.415593 111.248857 
L 309.07793 122.007635 
L 318.740268 132.057406 
L 328.402606 142.890384 
L 338.064943 146.756948 
L 347.727281 140.474811 
L 357.389619 135.635422 
L 367.051956 130.631147 
L 376.714294 126.995422 
L 386.376631 123.128857 
L 396.038969 120.828704 
L 405.701307 119.138628 
L 415.363644 118.083361 
L 425.025982 116.409773 
L 434.68832 117.003361 
L 463.675333 131.636948 
L 473.33767 142.923361 
L 483.000008 153.072063 
L 579.623385 154.01191 
L 589.285722 161.621376 
L 598.94806 164.638781 
L 608.610398 175.117254 
L 618.272735 185.101071 
L 627.935073 195.917559 
L 637.597411 209.652521 
L 647.259748 204.376185 
L 656.922086 201.944124 
L 666.584424 201.367025 
L 676.246761 213.799391 
" clip-path="url(#p4f0d2df615)" style="fill: none; stroke: #005aff; stroke-width: 2; stroke-linecap: round"/>
   </g>
   <g id="line2d_38">
    <path d="M 67.519489 195.208552 
L 77.181826 188.967635 
L 86.844164 176.667177 
L 96.506502 161.959391 
L 106.168839 154.72733 
L 115.831177 128.757865 
L 125.493515 106.480002 
L 135.155852 85.786872 
L 144.81819 65.487635 
L 154.480528 47.899849 
L 164.142865 51.52733 
L 173.805203 41.32275 
L 202.792216 45.252521 
L 212.454554 52.260155 
L 222.116891 57.075727 
L 231.779229 65.690994 
L 241.441567 71.626872 
L 251.103904 74.932826 
L 260.766242 81.264429 
L 270.42858 81.379849 
L 280.090917 82.748399 
L 289.753255 90.390842 
L 318.740268 90.844277 
L 328.402606 90.077559 
L 338.064943 95.1313 
L 347.727281 99.072063 
L 357.389619 103.449773 
L 367.051956 111.083971 
L 376.714294 104.554506 
L 386.376631 110.086414 
L 396.038969 119.122139 
L 405.701307 122.963971 
L 415.363644 120.696796 
L 425.025982 117.63817 
L 434.68832 113.417101 
L 444.350657 113.013132 
L 454.012995 110.003971 
L 463.675333 105.52733 
L 473.33767 114.637254 
L 483.000008 113.985956 
L 579.623385 126.706872 
L 589.285722 140.095574 
L 598.94806 153.319391 
L 608.610398 167.878781 
L 618.272735 183.048246 
L 627.935073 194.219239 
L 637.597411 208.927025 
L 647.259748 223.206109 
L 656.922086 236.479391 
L 666.584424 252.201223 
L 676.246761 244.534048 
" clip-path="url(#p4f0d2df615)" style="fill: none; stroke: #005aff; stroke-width: 2; stroke-linecap: round"/>
   </g>
   <g id="line2d_39">
    <path d="M 67.519489 222.521834 
L 77.181826 202.273895 
L 86.844164 189.948704 
L 96.506502 172.627483 
L 106.168839 155.776185 
L 115.831177 129.295574 
L 125.493515 111.174658 
L 135.155852 91.77588 
L 144.81819 73.795116 
L 154.480528 59.977712 
L 164.142865 61.24733 
L 173.805203 60.389926 
L 202.792216 67.150231 
L 212.454554 76.416796 
L 222.116891 83.012216 
L 231.779229 98.98962 
L 241.441567 107.423513 
L 251.103904 118.388399 
L 260.766242 128.281529 
L 270.42858 131.323666 
L 280.090917 142.42046 
L 289.753255 152.297101 
L 299.415593 144.984429 
L 309.07793 135.53649 
L 318.740268 128.636032 
L 328.402606 127.201529 
L 338.064943 122.419849 
L 347.727281 118.528552 
L 357.389619 109.278475 
L 367.051956 112.716338 
L 396.038969 117.629926 
L 405.701307 124.258323 
L 415.363644 130.977406 
L 425.025982 141.093132 
L 434.68832 153.418323 
L 444.350657 160.120918 
L 454.012995 167.985956 
L 463.675333 174.729773 
L 473.33767 189.858017 
L 483.000008 187.4342 
L 569.961047 185.546261 
L 579.623385 186.890078 
L 589.285722 195.035422 
L 598.94806 205.835422 
L 608.610398 214.813437 
L 618.272735 220.18046 
L 627.935073 227.171605 
L 637.597411 230.766109 
L 647.259748 233.214658 
L 656.922086 245.820155 
L 666.584424 249.777406 
" clip-path="url(#p4f0d2df615)" style="fill: none; stroke: #2b4562; stroke-width: 2; stroke-linecap: round"/>
   </g>
   <g id="line2d_40">
    <path d="M 67.519489 246.727025 
L 77.181826 237.674811 
L 86.844164 227.501376 
L 96.506502 216.363361 
L 106.168839 205.992063 
L 115.831177 193.419544 
L 125.493515 183.493437 
L 135.155852 167.43359 
L 144.81819 155.6113 
L 154.480528 136.146567 
L 164.142865 126.286414 
L 173.805203 118.380155 
L 193.129878 106.796948 
L 202.792216 96.128857 
L 212.454554 89.508704 
L 241.441567 95.774353 
L 251.103904 103.606414 
L 260.766242 115.24733 
L 270.42858 124.439697 
L 280.090917 141.711452 
L 289.753255 148.850994 
L 299.415593 153.27817 
L 309.07793 160.912368 
L 318.740268 171.217712 
L 328.402606 175.72733 
L 338.064943 174.432979 
L 347.727281 170.706567 
L 357.389619 164.81191 
L 367.051956 160.648552 
L 376.714294 156.361529 
L 386.376631 155.355727 
L 396.038969 157.581681 
L 405.701307 148.026567 
L 415.363644 141.983513 
L 444.350657 146.732216 
L 454.012995 155.388704 
L 463.675333 162.849773 
L 473.33767 173.311758 
" clip-path="url(#p4f0d2df615)" style="fill: none; stroke: #ff8700; stroke-width: 2; stroke-linecap: round"/>
   </g>
   <g id="line2d_41"/>
   <g id="line2d_42"/>
   <g id="line2d_43"/>
   <g id="line2d_44"/>
   <g id="line2d_45"/>
   <g id="line2d_46"/>
   <g id="line2d_47"/>
   <g id="line2d_48"/>
   <g id="line2d_49"/>
   <g id="line2d_50"/>
   <g id="line2d_51"/>
   <g id="line2d_52"/>
   <g id="line2d_53"/>
   <g id="line2d_54"/>
   <g id="line2d_55"/>
   <g id="line2d_56"/>
   <g id="line2d_57"/>
   <g id="line2d_58"/>
   <g id="patch_3">
    <path d="M 37.083125 411.76275 
L 37.083125 23.68275 
" style="fill: none; stroke: #bcbcbc; stroke-linejoin: miter; stroke-linecap: square"/>
   </g>
   <g id="patch_4">
    <path d="M 706.683125 411.76275 
L 706.683125 23.68275 
" style="fill: none; stroke: #bcbcbc; stroke-linejoin: miter; stroke-linecap: square"/>
   </g>
   <g id="patch_5">
    <path d="M 37.083125 411.76275 
L 706.683125 411.76275 
" style="fill: none; stroke: #bcbcbc; stroke-linejoin: miter; stroke-linecap: square"/>
   </g>
   <g id="patch_6">
    <path d="M 37.083125 23.68275 
L 706.683125 23.68275 
" style="fill: none; stroke: #bcbcbc; stroke-linejoin: miter; stroke-linecap: square"/>
   </g>
   <g id="text_14">
    <!-- 2022 São Paulo Grand Prix - Smoothed Racepace -->
    <g style="fill: #262626" transform="translate(210.596375 17.68275)scale(0.144 -0.144)">
     <defs>
      <path id="ArialMT-53" d="M 288 1472 
L 859 1522 
Q 900 1178 1048 958 
Q 1197 738 1509 602 
Q 1822 466 2213 466 
Q 2559 466 2825 569 
Q 3091 672 3220 851 
Q 3350 1031 3350 1244 
Q 3350 1459 3225 1620 
Q 3100 1781 2813 1891 
Q 2628 1963 1997 2114 
Q 1366 2266 1113 2400 
Q 784 2572 623 2826 
Q 463 3081 463 3397 
Q 463 3744 659 4045 
Q 856 4347 1234 4503 
Q 1613 4659 2075 4659 
Q 2584 4659 2973 4495 
Q 3363 4331 3572 4012 
Q 3781 3694 3797 3291 
L 3216 3247 
Q 3169 3681 2898 3903 
Q 2628 4125 2100 4125 
Q 1550 4125 1298 3923 
Q 1047 3722 1047 3438 
Q 1047 3191 1225 3031 
Q 1400 2872 2139 2705 
Q 2878 2538 3153 2413 
Q 3553 2228 3743 1945 
Q 3934 1663 3934 1294 
Q 3934 928 3725 604 
Q 3516 281 3123 101 
Q 2731 -78 2241 -78 
Q 1619 -78 1198 103 
Q 778 284 539 648 
Q 300 1013 288 1472 
z
" transform="scale(0.015625)"/>
      <path id="ArialMT-e3" d="M 2588 409 
Q 2275 144 1986 34 
Q 1697 -75 1366 -75 
Q 819 -75 525 192 
Q 231 459 231 875 
Q 231 1119 342 1320 
Q 453 1522 633 1644 
Q 813 1766 1038 1828 
Q 1203 1872 1538 1913 
Q 2219 1994 2541 2106 
Q 2544 2222 2544 2253 
Q 2544 2597 2384 2738 
Q 2169 2928 1744 2928 
Q 1347 2928 1158 2789 
Q 969 2650 878 2297 
L 328 2372 
Q 403 2725 575 2942 
Q 747 3159 1072 3276 
Q 1397 3394 1825 3394 
Q 2250 3394 2515 3294 
Q 2781 3194 2906 3042 
Q 3031 2891 3081 2659 
Q 3109 2516 3109 2141 
L 3109 1391 
Q 3109 606 3145 398 
Q 3181 191 3288 0 
L 2700 0 
Q 2613 175 2588 409 
z
M 2541 1666 
Q 2234 1541 1622 1453 
Q 1275 1403 1131 1340 
Q 988 1278 909 1158 
Q 831 1038 831 891 
Q 831 666 1001 516 
Q 1172 366 1500 366 
Q 1825 366 2078 508 
Q 2331 650 2450 897 
Q 2541 1088 2541 1459 
L 2541 1666 
z
M 716 3809 
Q 713 4134 894 4328 
Q 1072 4522 1350 4522 
Q 1544 4522 1878 4353 
Q 2063 4259 2172 4259 
Q 2272 4259 2325 4314 
Q 2378 4369 2400 4531 
L 2806 4531 
Q 2797 4175 2626 3997 
Q 2456 3819 2194 3819 
Q 1997 3819 1675 3994 
Q 1466 4106 1369 4106 
Q 1263 4106 1197 4031 
Q 1128 3956 1131 3809 
L 716 3809 
z
" transform="scale(0.015625)"/>
      <path id="ArialMT-6f" d="M 213 1659 
Q 213 2581 725 3025 
Q 1153 3394 1769 3394 
Q 2453 3394 2887 2945 
Q 3322 2497 3322 1706 
Q 3322 1066 3130 698 
Q 2938 331 2570 128 
Q 2203 -75 1769 -75 
Q 1072 -75 642 372 
Q 213 819 213 1659 
z
M 791 1659 
Q 791 1022 1069 705 
Q 1347 388 1769 388 
Q 2188 388 2466 706 
Q 2744 1025 2744 1678 
Q 2744 2294 2464 2611 
Q 2184 2928 1769 2928 
Q 1347 2928 1069 2612 
Q 791 2297 791 1659 
z
" transform="scale(0.015625)"/>
      <path id="ArialMT-50" d="M 494 0 
L 494 4581 
L 2222 4581 
Q 2678 4581 2919 4538 
Q 3256 4481 3484 4323 
Q 3713 4166 3852 3881 
Q 3991 3597 3991 3256 
Q 3991 2672 3619 2267 
Q 3247 1863 2275 1863 
L 1100 1863 
L 1100 0 
L 494 0 
z
M 1100 2403 
L 2284 2403 
Q 2872 2403 3119 2622 
Q 3366 2841 3366 3238 
Q 3366 3525 3220 3729 
Q 3075 3934 2838 4000 
Q 2684 4041 2272 4041 
L 1100 4041 
L 1100 2403 
z
" transform="scale(0.015625)"/>
      <path id="ArialMT-6c" d="M 409 0 
L 409 4581 
L 972 4581 
L 972 0 
L 409 0 
z
" transform="scale(0.015625)"/>
      <path id="ArialMT-47" d="M 2638 1797 
L 2638 2334 
L 4578 2338 
L 4578 638 
Q 4131 281 3656 101 
Q 3181 -78 2681 -78 
Q 2006 -78 1454 211 
Q 903 500 622 1047 
Q 341 1594 341 2269 
Q 341 2938 620 3517 
Q 900 4097 1425 4378 
Q 1950 4659 2634 4659 
Q 3131 4659 3532 4498 
Q 3934 4338 4162 4050 
Q 4391 3763 4509 3300 
L 3963 3150 
Q 3859 3500 3706 3700 
Q 3553 3900 3268 4020 
Q 2984 4141 2638 4141 
Q 2222 4141 1919 4014 
Q 1616 3888 1430 3681 
Q 1244 3475 1141 3228 
Q 966 2803 966 2306 
Q 966 1694 1177 1281 
Q 1388 869 1791 669 
Q 2194 469 2647 469 
Q 3041 469 3416 620 
Q 3791 772 3984 944 
L 3984 1797 
L 2638 1797 
z
" transform="scale(0.015625)"/>
      <path id="ArialMT-6e" d="M 422 0 
L 422 3319 
L 928 3319 
L 928 2847 
Q 1294 3394 1984 3394 
Q 2284 3394 2536 3286 
Q 2788 3178 2913 3003 
Q 3038 2828 3088 2588 
Q 3119 2431 3119 2041 
L 3119 0 
L 2556 0 
L 2556 2019 
Q 2556 2363 2490 2533 
Q 2425 2703 2258 2804 
Q 2091 2906 1866 2906 
Q 1506 2906 1245 2678 
Q 984 2450 984 1813 
L 984 0 
L 422 0 
z
" transform="scale(0.015625)"/>
      <path id="ArialMT-64" d="M 2575 0 
L 2575 419 
Q 2259 -75 1647 -75 
Q 1250 -75 917 144 
Q 584 363 401 755 
Q 219 1147 219 1656 
Q 219 2153 384 2558 
Q 550 2963 881 3178 
Q 1213 3394 1622 3394 
Q 1922 3394 2156 3267 
Q 2391 3141 2538 2938 
L 2538 4581 
L 3097 4581 
L 3097 0 
L 2575 0 
z
M 797 1656 
Q 797 1019 1065 703 
Q 1334 388 1700 388 
Q 2069 388 2326 689 
Q 2584 991 2584 1609 
Q 2584 2291 2321 2609 
Q 2059 2928 1675 2928 
Q 1300 2928 1048 2622 
Q 797 2316 797 1656 
z
" transform="scale(0.015625)"/>
      <path id="ArialMT-78" d="M 47 0 
L 1259 1725 
L 138 3319 
L 841 3319 
L 1350 2541 
Q 1494 2319 1581 2169 
Q 1719 2375 1834 2534 
L 2394 3319 
L 3066 3319 
L 1919 1756 
L 3153 0 
L 2463 0 
L 1781 1031 
L 1600 1309 
L 728 0 
L 47 0 
z
" transform="scale(0.015625)"/>
      <path id="ArialMT-2d" d="M 203 1375 
L 203 1941 
L 1931 1941 
L 1931 1375 
L 203 1375 
z
" transform="scale(0.015625)"/>
      <path id="ArialMT-74" d="M 1650 503 
L 1731 6 
Q 1494 -44 1306 -44 
Q 1000 -44 831 53 
Q 663 150 594 308 
Q 525 466 525 972 
L 525 2881 
L 113 2881 
L 113 3319 
L 525 3319 
L 525 4141 
L 1084 4478 
L 1084 3319 
L 1650 3319 
L 1650 2881 
L 1084 2881 
L 1084 941 
Q 1084 700 1114 631 
Q 1144 563 1211 522 
Q 1278 481 1403 481 
Q 1497 481 1650 503 
z
" transform="scale(0.015625)"/>
      <path id="ArialMT-68" d="M 422 0 
L 422 4581 
L 984 4581 
L 984 2938 
Q 1378 3394 1978 3394 
Q 2347 3394 2619 3248 
Q 2891 3103 3008 2847 
Q 3125 2591 3125 2103 
L 3125 0 
L 2563 0 
L 2563 2103 
Q 2563 2525 2380 2717 
Q 2197 2909 1863 2909 
Q 1613 2909 1392 2779 
Q 1172 2650 1078 2428 
Q 984 2206 984 1816 
L 984 0 
L 422 0 
z
" transform="scale(0.015625)"/>
      <path id="ArialMT-52" d="M 503 0 
L 503 4581 
L 2534 4581 
Q 3147 4581 3465 4457 
Q 3784 4334 3975 4021 
Q 4166 3709 4166 3331 
Q 4166 2844 3850 2509 
Q 3534 2175 2875 2084 
Q 3116 1969 3241 1856 
Q 3506 1613 3744 1247 
L 4541 0 
L 3778 0 
L 3172 953 
Q 2906 1366 2734 1584 
Q 2563 1803 2427 1890 
Q 2291 1978 2150 2013 
Q 2047 2034 1813 2034 
L 1109 2034 
L 1109 0 
L 503 0 
z
M 1109 2559 
L 2413 2559 
Q 2828 2559 3062 2645 
Q 3297 2731 3419 2920 
Q 3541 3109 3541 3331 
Q 3541 3656 3305 3865 
Q 3069 4075 2559 4075 
L 1109 4075 
L 1109 2559 
z
" transform="scale(0.015625)"/>
      <path id="ArialMT-63" d="M 2588 1216 
L 3141 1144 
Q 3050 572 2676 248 
Q 2303 -75 1759 -75 
Q 1078 -75 664 370 
Q 250 816 250 1647 
Q 250 2184 428 2587 
Q 606 2991 970 3192 
Q 1334 3394 1763 3394 
Q 2303 3394 2647 3120 
Q 2991 2847 3088 2344 
L 2541 2259 
Q 2463 2594 2264 2762 
Q 2066 2931 1784 2931 
Q 1359 2931 1093 2626 
Q 828 2322 828 1663 
Q 828 994 1084 691 
Q 1341 388 1753 388 
Q 2084 388 2306 591 
Q 2528 794 2588 1216 
z
" transform="scale(0.015625)"/>
     </defs>
     <use xlink:href="#ArialMT-32"/>
     <use xlink:href="#ArialMT-30" x="55.615234"/>
     <use xlink:href="#ArialMT-32" x="111.230469"/>
     <use xlink:href="#ArialMT-32" x="166.845703"/>
     <use xlink:href="#ArialMT-20" x="222.460938"/>
     <use xlink:href="#ArialMT-53" x="250.244141"/>
     <use xlink:href="#ArialMT-e3" x="316.943359"/>
     <use xlink:href="#ArialMT-6f" x="372.558594"/>
     <use xlink:href="#ArialMT-20" x="428.173828"/>
     <use xlink:href="#ArialMT-50" x="455.957031"/>
     <use xlink:href="#ArialMT-61" x="522.65625"/>
     <use xlink:href="#ArialMT-75" x="578.271484"/>
     <use xlink:href="#ArialMT-6c" x="633.886719"/>
     <use xlink:href="#ArialMT-6f" x="656.103516"/>
     <use xlink:href="#ArialMT-20" x="711.71875"/>
     <use xlink:href="#ArialMT-47" x="739.501953"/>
     <use xlink:href="#ArialMT-72" x="817.285156"/>
     <use xlink:href="#ArialMT-61" x="850.585938"/>
     <use xlink:href="#ArialMT-6e" x="906.201172"/>
     <use xlink:href="#ArialMT-64" x="961.816406"/>
     <use xlink:href="#ArialMT-20" x="1017.431641"/>
     <use xlink:href="#ArialMT-50" x="1045.214844"/>
     <use xlink:href="#ArialMT-72" x="1111.914062"/>
     <use xlink:href="#ArialMT-69" x="1145.214844"/>
     <use xlink:href="#ArialMT-78" x="1167.431641"/>
     <use xlink:href="#ArialMT-20" x="1217.431641"/>
     <use xlink:href="#ArialMT-2d" x="1245.214844"/>
     <use xlink:href="#ArialMT-20" x="1278.515625"/>
     <use xlink:href="#ArialMT-53" x="1306.298828"/>
     <use xlink:href="#ArialMT-6d" x="1372.998047"/>
     <use xlink:href="#ArialMT-6f" x="1456.298828"/>
     <use xlink:href="#ArialMT-6f" x="1511.914062"/>
     <use xlink:href="#ArialMT-74" x="1567.529297"/>
     <use xlink:href="#ArialMT-68" x="1595.3125"/>
     <use xlink:href="#ArialMT-65" x="1650.927734"/>
     <use xlink:href="#ArialMT-64" x="1706.542969"/>
     <use xlink:href="#ArialMT-20" x="1762.158203"/>
     <use xlink:href="#ArialMT-52" x="1789.941406"/>
     <use xlink:href="#ArialMT-61" x="1862.158203"/>
     <use xlink:href="#ArialMT-63" x="1917.773438"/>
     <use xlink:href="#ArialMT-65" x="1967.773438"/>
     <use xlink:href="#ArialMT-70" x="2023.388672"/>
     <use xlink:href="#ArialMT-61" x="2079.003906"/>
     <use xlink:href="#ArialMT-63" x="2134.619141"/>
     <use xlink:href="#ArialMT-65" x="2184.619141"/>
    </g>
   </g>
   <g id="legend_1">
    <g id="text_15">
     <!-- Driver -->
     <g style="fill: #262626" transform="translate(658.962031 39.840562)scale(0.1 -0.1)">
      <defs>
       <path id="ArialMT-44" d="M 494 0 
L 494 4581 
L 2072 4581 
Q 2606 4581 2888 4516 
Q 3281 4425 3559 4188 
Q 3922 3881 4101 3404 
Q 4281 2928 4281 2316 
Q 4281 1794 4159 1391 
Q 4038 988 3847 723 
Q 3656 459 3429 307 
Q 3203 156 2883 78 
Q 2563 0 2147 0 
L 494 0 
z
M 1100 541 
L 2078 541 
Q 2531 541 2789 625 
Q 3047 709 3200 863 
Q 3416 1078 3536 1442 
Q 3656 1806 3656 2325 
Q 3656 3044 3420 3430 
Q 3184 3816 2847 3947 
Q 2603 4041 2063 4041 
L 1100 4041 
L 1100 541 
z
" transform="scale(0.015625)"/>
       <path id="ArialMT-76" d="M 1344 0 
L 81 3319 
L 675 3319 
L 1388 1331 
Q 1503 1009 1600 663 
Q 1675 925 1809 1294 
L 2547 3319 
L 3125 3319 
L 1869 0 
L 1344 0 
z
" transform="scale(0.015625)"/>
      </defs>
      <use xlink:href="#ArialMT-44"/>
      <use xlink:href="#ArialMT-72" x="72.216797"/>
      <use xlink:href="#ArialMT-69" x="105.517578"/>
      <use xlink:href="#ArialMT-76" x="127.734375"/>
      <use xlink:href="#ArialMT-65" x="177.734375"/>
      <use xlink:href="#ArialMT-72" x="233.349609"/>
     </g>
    </g>
    <g id="line2d_59">
     <path d="M 646.905 50.485875 
L 656.905 50.485875 
L 666.905 50.485875 
" style="fill: none; stroke: #00d2be; stroke-width: 2; stroke-linecap: round"/>
    </g>
    <g id="text_16">
     <!-- RUS -->
     <g style="fill: #262626" transform="translate(674.905 53.985875)scale(0.1 -0.1)">
      <defs>
       <path id="ArialMT-55" d="M 3500 4581 
L 4106 4581 
L 4106 1934 
Q 4106 1244 3950 837 
Q 3794 431 3386 176 
Q 2978 -78 2316 -78 
Q 1672 -78 1262 144 
Q 853 366 678 786 
Q 503 1206 503 1934 
L 503 4581 
L 1109 4581 
L 1109 1938 
Q 1109 1341 1220 1058 
Q 1331 775 1601 622 
Q 1872 469 2263 469 
Q 2931 469 3215 772 
Q 3500 1075 3500 1938 
L 3500 4581 
z
" transform="scale(0.015625)"/>
      </defs>
      <use xlink:href="#ArialMT-52"/>
      <use xlink:href="#ArialMT-55" x="72.216797"/>
      <use xlink:href="#ArialMT-53" x="144.433594"/>
     </g>
    </g>
    <g id="line2d_60">
     <path d="M 646.905 64.631187 
L 656.905 64.631187 
L 666.905 64.631187 
" style="fill: none; stroke: #00d2be; stroke-width: 2; stroke-linecap: round"/>
    </g>
    <g id="text_17">
     <!-- HAM -->
     <g style="fill: #262626" transform="translate(674.905 68.131187)scale(0.1 -0.1)">
      <defs>
       <path id="ArialMT-48" d="M 513 0 
L 513 4581 
L 1119 4581 
L 1119 2700 
L 3500 2700 
L 3500 4581 
L 4106 4581 
L 4106 0 
L 3500 0 
L 3500 2159 
L 1119 2159 
L 1119 0 
L 513 0 
z
" transform="scale(0.015625)"/>
       <path id="ArialMT-41" d="M -9 0 
L 1750 4581 
L 2403 4581 
L 4278 0 
L 3588 0 
L 3053 1388 
L 1138 1388 
L 634 0 
L -9 0 
z
M 1313 1881 
L 2866 1881 
L 2388 3150 
Q 2169 3728 2063 4100 
Q 1975 3659 1816 3225 
L 1313 1881 
z
" transform="scale(0.015625)"/>
       <path id="ArialMT-4d" d="M 475 0 
L 475 4581 
L 1388 4581 
L 2472 1338 
Q 2622 884 2691 659 
Q 2769 909 2934 1394 
L 4031 4581 
L 4847 4581 
L 4847 0 
L 4263 0 
L 4263 3834 
L 2931 0 
L 2384 0 
L 1059 3900 
L 1059 0 
L 475 0 
z
" transform="scale(0.015625)"/>
      </defs>
      <use xlink:href="#ArialMT-48"/>
      <use xlink:href="#ArialMT-41" x="72.216797"/>
      <use xlink:href="#ArialMT-4d" x="138.916016"/>
     </g>
    </g>
    <g id="line2d_61">
     <path d="M 646.905 78.7765 
L 656.905 78.7765 
L 666.905 78.7765 
" style="fill: none; stroke: #dc0000; stroke-width: 2; stroke-linecap: round"/>
    </g>
    <g id="text_18">
     <!-- SAI -->
     <g style="fill: #262626" transform="translate(674.905 82.2765)scale(0.1 -0.1)">
      <defs>
       <path id="ArialMT-49" d="M 597 0 
L 597 4581 
L 1203 4581 
L 1203 0 
L 597 0 
z
" transform="scale(0.015625)"/>
      </defs>
      <use xlink:href="#ArialMT-53"/>
      <use xlink:href="#ArialMT-41" x="66.699219"/>
      <use xlink:href="#ArialMT-49" x="133.398438"/>
     </g>
    </g>
    <g id="line2d_62">
     <path d="M 646.905 92.921812 
L 656.905 92.921812 
L 666.905 92.921812 
" style="fill: none; stroke: #dc0000; stroke-width: 2; stroke-linecap: round"/>
    </g>
    <g id="text_19">
     <!-- LEC -->
     <g style="fill: #262626" transform="translate(674.905 96.421812)scale(0.1 -0.1)">
      <defs>
       <path id="ArialMT-45" d="M 506 0 
L 506 4581 
L 3819 4581 
L 3819 4041 
L 1113 4041 
L 1113 2638 
L 3647 2638 
L 3647 2100 
L 1113 2100 
L 1113 541 
L 3925 541 
L 3925 0 
L 506 0 
z
" transform="scale(0.015625)"/>
       <path id="ArialMT-43" d="M 3763 1606 
L 4369 1453 
Q 4178 706 3683 314 
Q 3188 -78 2472 -78 
Q 1731 -78 1267 223 
Q 803 525 561 1097 
Q 319 1669 319 2325 
Q 319 3041 592 3573 
Q 866 4106 1370 4382 
Q 1875 4659 2481 4659 
Q 3169 4659 3637 4309 
Q 4106 3959 4291 3325 
L 3694 3184 
Q 3534 3684 3231 3912 
Q 2928 4141 2469 4141 
Q 1941 4141 1586 3887 
Q 1231 3634 1087 3207 
Q 944 2781 944 2328 
Q 944 1744 1114 1308 
Q 1284 872 1643 656 
Q 2003 441 2422 441 
Q 2931 441 3284 734 
Q 3638 1028 3763 1606 
z
" transform="scale(0.015625)"/>
      </defs>
      <use xlink:href="#ArialMT-4c"/>
      <use xlink:href="#ArialMT-45" x="55.615234"/>
      <use xlink:href="#ArialMT-43" x="122.314453"/>
     </g>
    </g>
    <g id="line2d_63">
     <path d="M 646.905 107.067125 
L 656.905 107.067125 
L 666.905 107.067125 
" style="fill: none; stroke: #0090ff; stroke-width: 2; stroke-linecap: round"/>
    </g>
    <g id="text_20">
     <!-- ALO -->
     <g style="fill: #262626" transform="translate(674.905 110.567125)scale(0.1 -0.1)">
      <defs>
       <path id="ArialMT-4f" d="M 309 2231 
Q 309 3372 921 4017 
Q 1534 4663 2503 4663 
Q 3138 4663 3647 4359 
Q 4156 4056 4423 3514 
Q 4691 2972 4691 2284 
Q 4691 1588 4409 1038 
Q 4128 488 3612 205 
Q 3097 -78 2500 -78 
Q 1853 -78 1343 234 
Q 834 547 571 1087 
Q 309 1628 309 2231 
z
M 934 2222 
Q 934 1394 1379 917 
Q 1825 441 2497 441 
Q 3181 441 3623 922 
Q 4066 1403 4066 2288 
Q 4066 2847 3877 3264 
Q 3688 3681 3323 3911 
Q 2959 4141 2506 4141 
Q 1863 4141 1398 3698 
Q 934 3256 934 2222 
z
" transform="scale(0.015625)"/>
      </defs>
      <use xlink:href="#ArialMT-41"/>
      <use xlink:href="#ArialMT-4c" x="66.699219"/>
      <use xlink:href="#ArialMT-4f" x="122.314453"/>
     </g>
    </g>
    <g id="line2d_64">
     <path d="M 646.905 121.212437 
L 656.905 121.212437 
L 666.905 121.212437 
" style="fill: none; stroke: #0600ef; stroke-width: 2; stroke-linecap: round"/>
    </g>
    <g id="text_21">
     <!-- VER -->
     <g style="fill: #262626" transform="translate(674.905 124.712437)scale(0.1 -0.1)">
      <defs>
       <path id="ArialMT-56" d="M 1803 0 
L 28 4581 
L 684 4581 
L 1875 1253 
Q 2019 853 2116 503 
Q 2222 878 2363 1253 
L 3600 4581 
L 4219 4581 
L 2425 0 
L 1803 0 
z
" transform="scale(0.015625)"/>
      </defs>
      <use xlink:href="#ArialMT-56"/>
      <use xlink:href="#ArialMT-45" x="66.699219"/>
      <use xlink:href="#ArialMT-52" x="133.398438"/>
     </g>
    </g>
    <g id="line2d_65">
     <path d="M 646.905 135.35775 
L 656.905 135.35775 
L 666.905 135.35775 
" style="fill: none; stroke: #0600ef; stroke-width: 2; stroke-linecap: round"/>
    </g>
    <g id="text_22">
     <!-- PER -->
     <g style="fill: #262626" transform="translate(674.905 138.85775)scale(0.1 -0.1)">
      <use xlink:href="#ArialMT-50"/>
      <use xlink:href="#ArialMT-45" x="66.699219"/>
      <use xlink:href="#ArialMT-52" x="133.398438"/>
     </g>
    </g>
    <g id="line2d_66">
     <path d="M 646.905 149.503062 
L 656.905 149.503062 
L 666.905 149.503062 
" style="fill: none; stroke: #0090ff; stroke-width: 2; stroke-linecap: round"/>
    </g>
    <g id="text_23">
     <!-- OCO -->
     <g style="fill: #262626" transform="translate(674.905 153.003062)scale(0.1 -0.1)">
      <use xlink:href="#ArialMT-4f"/>
      <use xlink:href="#ArialMT-43" x="77.783203"/>
      <use xlink:href="#ArialMT-4f" x="150"/>
     </g>
    </g>
    <g id="line2d_67">
     <path d="M 646.905 163.648375 
L 656.905 163.648375 
L 666.905 163.648375 
" style="fill: none; stroke: #900000; stroke-width: 2; stroke-linecap: round"/>
    </g>
    <g id="text_24">
     <!-- BOT -->
     <g style="fill: #262626" transform="translate(674.905 167.148375)scale(0.1 -0.1)">
      <defs>
       <path id="ArialMT-42" d="M 469 0 
L 469 4581 
L 2188 4581 
Q 2713 4581 3030 4442 
Q 3347 4303 3526 4014 
Q 3706 3725 3706 3409 
Q 3706 3116 3547 2856 
Q 3388 2597 3066 2438 
Q 3481 2316 3704 2022 
Q 3928 1728 3928 1328 
Q 3928 1006 3792 729 
Q 3656 453 3456 303 
Q 3256 153 2954 76 
Q 2653 0 2216 0 
L 469 0 
z
M 1075 2656 
L 2066 2656 
Q 2469 2656 2644 2709 
Q 2875 2778 2992 2937 
Q 3109 3097 3109 3338 
Q 3109 3566 3000 3739 
Q 2891 3913 2687 3977 
Q 2484 4041 1991 4041 
L 1075 4041 
L 1075 2656 
z
M 1075 541 
L 2216 541 
Q 2509 541 2628 563 
Q 2838 600 2978 687 
Q 3119 775 3209 942 
Q 3300 1109 3300 1328 
Q 3300 1584 3169 1773 
Q 3038 1963 2805 2039 
Q 2572 2116 2134 2116 
L 1075 2116 
L 1075 541 
z
" transform="scale(0.015625)"/>
      </defs>
      <use xlink:href="#ArialMT-42"/>
      <use xlink:href="#ArialMT-4f" x="66.699219"/>
      <use xlink:href="#ArialMT-54" x="144.482422"/>
     </g>
    </g>
    <g id="line2d_68">
     <path d="M 646.905 177.793687 
L 656.905 177.793687 
L 666.905 177.793687 
" style="fill: none; stroke: #006f62; stroke-width: 2; stroke-linecap: round"/>
    </g>
    <g id="text_25">
     <!-- STR -->
     <g style="fill: #262626" transform="translate(674.905 181.293687)scale(0.1 -0.1)">
      <use xlink:href="#ArialMT-53"/>
      <use xlink:href="#ArialMT-54" x="66.699219"/>
      <use xlink:href="#ArialMT-52" x="127.783203"/>
     </g>
    </g>
    <g id="line2d_69">
     <path d="M 646.905 191.939 
L 656.905 191.939 
L 666.905 191.939 
" style="fill: none; stroke: #006f62; stroke-width: 2; stroke-linecap: round"/>
    </g>
    <g id="text_26">
     <!-- VET -->
     <g style="fill: #262626" transform="translate(674.905 195.439)scale(0.1 -0.1)">
      <use xlink:href="#ArialMT-56"/>
      <use xlink:href="#ArialMT-45" x="66.699219"/>
      <use xlink:href="#ArialMT-54" x="133.398438"/>
     </g>
    </g>
    <g id="line2d_70">
     <path d="M 646.905 206.084312 
L 656.905 206.084312 
L 666.905 206.084312 
" style="fill: none; stroke: #900000; stroke-width: 2; stroke-linecap: round"/>
    </g>
    <g id="text_27">
     <!-- ZHO -->
     <g style="fill: #262626" transform="translate(674.905 209.584312)scale(0.1 -0.1)">
      <defs>
       <path id="ArialMT-5a" d="M 128 0 
L 128 563 
L 2475 3497 
Q 2725 3809 2950 4041 
L 394 4041 
L 394 4581 
L 3675 4581 
L 3675 4041 
L 1103 863 
L 825 541 
L 3750 541 
L 3750 0 
L 128 0 
z
" transform="scale(0.015625)"/>
      </defs>
      <use xlink:href="#ArialMT-5a"/>
      <use xlink:href="#ArialMT-48" x="61.083984"/>
      <use xlink:href="#ArialMT-4f" x="133.300781"/>
     </g>
    </g>
    <g id="line2d_71">
     <path d="M 646.905 220.229625 
L 656.905 220.229625 
L 666.905 220.229625 
" style="fill: none; stroke: #ffffff; stroke-width: 2; stroke-linecap: round"/>
    </g>
    <g id="text_28">
     <!-- MSC -->
     <g style="fill: #262626" transform="translate(674.905 223.729625)scale(0.1 -0.1)">
      <use xlink:href="#ArialMT-4d"/>
      <use xlink:href="#ArialMT-53" x="83.300781"/>
      <use xlink:href="#ArialMT-43" x="150"/>
     </g>
    </g>
    <g id="line2d_72">
     <path d="M 646.905 234.374937 
L 656.905 234.374937 
L 666.905 234.374937 
" style="fill: none; stroke: #2b4562; stroke-width: 2; stroke-linecap: round"/>
    </g>
    <g id="text_29">
     <!-- GAS -->
     <g style="fill: #262626" transform="translate(674.905 237.874937)scale(0.1 -0.1)">
      <use xlink:href="#ArialMT-47"/>
      <use xlink:href="#ArialMT-41" x="77.783203"/>
      <use xlink:href="#ArialMT-53" x="144.482422"/>
     </g>
    </g>
    <g id="line2d_73">
     <path d="M 646.905 248.52025 
L 656.905 248.52025 
L 666.905 248.52025 
" style="fill: none; stroke: #005aff; stroke-width: 2; stroke-linecap: round"/>
    </g>
    <g id="text_30">
     <!-- ALB -->
     <g style="fill: #262626" transform="translate(674.905 252.02025)scale(0.1 -0.1)">
      <use xlink:href="#ArialMT-41"/>
      <use xlink:href="#ArialMT-4c" x="66.699219"/>
      <use xlink:href="#ArialMT-42" x="122.314453"/>
     </g>
    </g>
    <g id="line2d_74">
     <path d="M 646.905 262.665562 
L 656.905 262.665562 
L 666.905 262.665562 
" style="fill: none; stroke: #005aff; stroke-width: 2; stroke-linecap: round"/>
    </g>
    <g id="text_31">
     <!-- LAT -->
     <g style="fill: #262626" transform="translate(674.905 266.165562)scale(0.1 -0.1)">
      <use xlink:href="#ArialMT-4c"/>
      <use xlink:href="#ArialMT-41" x="55.615234"/>
      <use xlink:href="#ArialMT-54" x="114.939453"/>
     </g>
    </g>
    <g id="line2d_75">
     <path d="M 646.905 276.810875 
L 656.905 276.810875 
L 666.905 276.810875 
" style="fill: none; stroke: #2b4562; stroke-width: 2; stroke-linecap: round"/>
    </g>
    <g id="text_32">
     <!-- TSU -->
     <g style="fill: #262626" transform="translate(674.905 280.310875)scale(0.1 -0.1)">
      <use xlink:href="#ArialMT-54"/>
      <use xlink:href="#ArialMT-53" x="61.083984"/>
      <use xlink:href="#ArialMT-55" x="127.783203"/>
     </g>
    </g>
    <g id="line2d_76">
     <path d="M 646.905 290.956187 
L 656.905 290.956187 
L 666.905 290.956187 
" style="fill: none; stroke: #ff8700; stroke-width: 2; stroke-linecap: round"/>
    </g>
    <g id="text_33">
     <!-- NOR -->
     <g style="fill: #262626" transform="translate(674.905 294.456187)scale(0.1 -0.1)">
      <use xlink:href="#ArialMT-4e"/>
      <use xlink:href="#ArialMT-4f" x="72.216797"/>
      <use xlink:href="#ArialMT-52" x="150"/>
     </g>
    </g>
   </g>
  </g>
  <g id="text_34">
   <!-- © 2022 Yoann Betton -->
   <g style="fill: #262626" transform="translate(313.741719 398.760562)scale(0.1 -0.1)">
    <defs>
     <path id="ArialMT-a9" d="M 2369 4659 
Q 2963 4659 3528 4354 
Q 4094 4050 4409 3483 
Q 4725 2916 4725 2300 
Q 4725 1691 4414 1128 
Q 4103 566 3542 255 
Q 2981 -56 2369 -56 
Q 1756 -56 1195 255 
Q 634 566 321 1128 
Q 9 1691 9 2300 
Q 9 2916 326 3483 
Q 644 4050 1209 4354 
Q 1775 4659 2369 4659 
z
M 2369 4269 
Q 1872 4269 1401 4014 
Q 931 3759 665 3286 
Q 400 2813 400 2300 
Q 400 1791 661 1323 
Q 922 856 1390 595 
Q 1859 334 2369 334 
Q 2878 334 3347 595 
Q 3816 856 4075 1323 
Q 4334 1791 4334 2300 
Q 4334 2813 4070 3286 
Q 3806 3759 3334 4014 
Q 2863 4269 2369 4269 
z
M 3125 1919 
L 3509 1806 
Q 3416 1416 3111 1183 
Q 2806 950 2372 950 
Q 1822 950 1478 1306 
Q 1134 1663 1134 2294 
Q 1134 2706 1290 3011 
Q 1447 3316 1736 3470 
Q 2025 3625 2397 3625 
Q 2813 3625 3088 3426 
Q 3363 3228 3463 2888 
L 3091 2797 
Q 2997 3028 2814 3151 
Q 2631 3275 2384 3275 
Q 2025 3275 1792 3019 
Q 1559 2763 1559 2284 
Q 1559 1806 1779 1561 
Q 2000 1316 2350 1316 
Q 2631 1316 2843 1478 
Q 3056 1641 3125 1919 
z
" transform="scale(0.015625)"/>
     <path id="ArialMT-59" d="M 1784 0 
L 1784 1941 
L 19 4581 
L 756 4581 
L 1659 3200 
Q 1909 2813 2125 2425 
Q 2331 2784 2625 3234 
L 3513 4581 
L 4219 4581 
L 2391 1941 
L 2391 0 
L 1784 0 
z
" transform="scale(0.015625)"/>
    </defs>
    <use xlink:href="#ArialMT-a9"/>
    <use xlink:href="#ArialMT-20" x="73.681641"/>
    <use xlink:href="#ArialMT-32" x="101.464844"/>
    <use xlink:href="#ArialMT-30" x="157.080078"/>
    <use xlink:href="#ArialMT-32" x="212.695312"/>
    <use xlink:href="#ArialMT-32" x="268.310547"/>
    <use xlink:href="#ArialMT-20" x="323.925781"/>
    <use xlink:href="#ArialMT-59" x="349.958984"/>
    <use xlink:href="#ArialMT-6f" x="407.533203"/>
    <use xlink:href="#ArialMT-61" x="463.148438"/>
    <use xlink:href="#ArialMT-6e" x="518.763672"/>
    <use xlink:href="#ArialMT-6e" x="574.378906"/>
    <use xlink:href="#ArialMT-20" x="629.994141"/>
    <use xlink:href="#ArialMT-42" x="657.777344"/>
    <use xlink:href="#ArialMT-65" x="724.476562"/>
    <use xlink:href="#ArialMT-74" x="780.091797"/>
    <use xlink:href="#ArialMT-74" x="807.875"/>
    <use xlink:href="#ArialMT-6f" x="835.658203"/>
    <use xlink:href="#ArialMT-6e" x="891.273438"/>
   </g>
  </g>
 </g>
 <defs>
  <clipPath id="p4f0d2df615">
   <rect x="37.083125" y="23.68275" width="669.6" height="388.08"/>
  </clipPath>
 </defs>
</svg>
