<?xml version="1.0" encoding="utf-8" standalone="no"?>
<!DOCTYPE svg PUBLIC "-//W3C//DTD SVG 1.1//EN"
  "http://www.w3.org/Graphics/SVG/1.1/DTD/svg11.dtd">
<svg xmlns:xlink="http://www.w3.org/1999/xlink" width="719.444063pt" height="446.582437pt" viewBox="0 0 719.444063 446.582437" xmlns="http://www.w3.org/2000/svg" version="1.1">
 <metadata>
  <rdf:RDF xmlns:dc="http://purl.org/dc/elements/1.1/" xmlns:cc="http://creativecommons.org/ns#" xmlns:rdf="http://www.w3.org/1999/02/22-rdf-syntax-ns#">
   <cc:Work>
    <dc:type rdf:resource="http://purl.org/dc/dcmitype/StillImage"/>
    <dc:date>2023-03-05T17:31:57.753454</dc:date>
    <dc:format>image/svg+xml</dc:format>
    <dc:creator>
     <cc:Agent>
      <dc:title>Matplotlib v3.5.2, https://matplotlib.org/</dc:title>
     </cc:Agent>
    </dc:creator>
   </cc:Work>
  </rdf:RDF>
 </metadata>
 <defs>
  <style type="text/css">*{stroke-linejoin: round; stroke-linecap: butt}</style>
 </defs>
 <g id="figure_1">
  <g id="patch_1">
   <path d="M 0 446.582437 
L 719.444063 446.582437 
L 719.444063 0 
L 0 0 
z
" style="fill: #ffffff"/>
  </g>
  <g id="axes_1">
   <g id="patch_2">
    <path d="M 42.644063 411.76275 
L 712.244063 411.76275 
L 712.244063 23.68275 
L 42.644063 23.68275 
z
" style="fill: #eeeeee"/>
   </g>
   <g id="matplotlib.axis_1">
    <g id="xtick_1">
     <g id="line2d_1">
      <path d="M 50.944889 411.76275 
L 50.944889 23.68275 
" clip-path="url(#pa98928bff6)" style="fill: none; stroke-dasharray: 1.85,0.8; stroke-dashoffset: 0; stroke: #b2b2b2; stroke-width: 0.5"/>
     </g>
     <g id="line2d_2"/>
     <g id="text_1">
      <!-- 0 -->
      <g style="fill: #555555" transform="translate(48.16442 422.420562)scale(0.1 -0.1)">
       <defs>
        <path id="ArialMT-30" d="M 266 2259 
Q 266 3072 433 3567 
Q 600 4063 929 4331 
Q 1259 4600 1759 4600 
Q 2128 4600 2406 4451 
Q 2684 4303 2865 4023 
Q 3047 3744 3150 3342 
Q 3253 2941 3253 2259 
Q 3253 1453 3087 958 
Q 2922 463 2592 192 
Q 2263 -78 1759 -78 
Q 1097 -78 719 397 
Q 266 969 266 2259 
z
M 844 2259 
Q 844 1131 1108 757 
Q 1372 384 1759 384 
Q 2147 384 2411 759 
Q 2675 1134 2675 2259 
Q 2675 3391 2411 3762 
Q 2147 4134 1753 4134 
Q 1366 4134 1134 3806 
Q 844 3388 844 2259 
z
" transform="scale(0.015625)"/>
       </defs>
       <use xlink:href="#ArialMT-30"/>
      </g>
     </g>
    </g>
    <g id="xtick_2">
     <g id="line2d_3">
      <path d="M 161.622575 411.76275 
L 161.622575 23.68275 
" clip-path="url(#pa98928bff6)" style="fill: none; stroke-dasharray: 1.85,0.8; stroke-dashoffset: 0; stroke: #b2b2b2; stroke-width: 0.5"/>
     </g>
     <g id="line2d_4"/>
     <g id="text_2">
      <!-- 10 -->
      <g style="fill: #555555" transform="translate(156.061637 422.420562)scale(0.1 -0.1)">
       <defs>
        <path id="ArialMT-31" d="M 2384 0 
L 1822 0 
L 1822 3584 
Q 1619 3391 1289 3197 
Q 959 3003 697 2906 
L 697 3450 
Q 1169 3672 1522 3987 
Q 1875 4303 2022 4600 
L 2384 4600 
L 2384 0 
z
" transform="scale(0.015625)"/>
       </defs>
       <use xlink:href="#ArialMT-31"/>
       <use xlink:href="#ArialMT-30" x="55.615234"/>
      </g>
     </g>
    </g>
    <g id="xtick_3">
     <g id="line2d_5">
      <path d="M 272.300261 411.76275 
L 272.300261 23.68275 
" clip-path="url(#pa98928bff6)" style="fill: none; stroke-dasharray: 1.85,0.8; stroke-dashoffset: 0; stroke: #b2b2b2; stroke-width: 0.5"/>
     </g>
     <g id="line2d_6"/>
     <g id="text_3">
      <!-- 20 -->
      <g style="fill: #555555" transform="translate(266.739323 422.420562)scale(0.1 -0.1)">
       <defs>
        <path id="ArialMT-32" d="M 3222 541 
L 3222 0 
L 194 0 
Q 188 203 259 391 
Q 375 700 629 1000 
Q 884 1300 1366 1694 
Q 2113 2306 2375 2664 
Q 2638 3022 2638 3341 
Q 2638 3675 2398 3904 
Q 2159 4134 1775 4134 
Q 1369 4134 1125 3890 
Q 881 3647 878 3216 
L 300 3275 
Q 359 3922 746 4261 
Q 1134 4600 1788 4600 
Q 2447 4600 2831 4234 
Q 3216 3869 3216 3328 
Q 3216 3053 3103 2787 
Q 2991 2522 2730 2228 
Q 2469 1934 1863 1422 
Q 1356 997 1212 845 
Q 1069 694 975 541 
L 3222 541 
z
" transform="scale(0.015625)"/>
       </defs>
       <use xlink:href="#ArialMT-32"/>
       <use xlink:href="#ArialMT-30" x="55.615234"/>
      </g>
     </g>
    </g>
    <g id="xtick_4">
     <g id="line2d_7">
      <path d="M 382.977947 411.76275 
L 382.977947 23.68275 
" clip-path="url(#pa98928bff6)" style="fill: none; stroke-dasharray: 1.85,0.8; stroke-dashoffset: 0; stroke: #b2b2b2; stroke-width: 0.5"/>
     </g>
     <g id="line2d_8"/>
     <g id="text_4">
      <!-- 30 -->
      <g style="fill: #555555" transform="translate(377.417009 422.420562)scale(0.1 -0.1)">
       <defs>
        <path id="ArialMT-33" d="M 269 1209 
L 831 1284 
Q 928 806 1161 595 
Q 1394 384 1728 384 
Q 2125 384 2398 659 
Q 2672 934 2672 1341 
Q 2672 1728 2419 1979 
Q 2166 2231 1775 2231 
Q 1616 2231 1378 2169 
L 1441 2663 
Q 1497 2656 1531 2656 
Q 1891 2656 2178 2843 
Q 2466 3031 2466 3422 
Q 2466 3731 2256 3934 
Q 2047 4138 1716 4138 
Q 1388 4138 1169 3931 
Q 950 3725 888 3313 
L 325 3413 
Q 428 3978 793 4289 
Q 1159 4600 1703 4600 
Q 2078 4600 2393 4439 
Q 2709 4278 2876 4000 
Q 3044 3722 3044 3409 
Q 3044 3113 2884 2869 
Q 2725 2625 2413 2481 
Q 2819 2388 3044 2092 
Q 3269 1797 3269 1353 
Q 3269 753 2831 336 
Q 2394 -81 1725 -81 
Q 1122 -81 723 278 
Q 325 638 269 1209 
z
" transform="scale(0.015625)"/>
       </defs>
       <use xlink:href="#ArialMT-33"/>
       <use xlink:href="#ArialMT-30" x="55.615234"/>
      </g>
     </g>
    </g>
    <g id="xtick_5">
     <g id="line2d_9">
      <path d="M 493.655633 411.76275 
L 493.655633 23.68275 
" clip-path="url(#pa98928bff6)" style="fill: none; stroke-dasharray: 1.85,0.8; stroke-dashoffset: 0; stroke: #b2b2b2; stroke-width: 0.5"/>
     </g>
     <g id="line2d_10"/>
     <g id="text_5">
      <!-- 40 -->
      <g style="fill: #555555" transform="translate(488.094695 422.420562)scale(0.1 -0.1)">
       <defs>
        <path id="ArialMT-34" d="M 2069 0 
L 2069 1097 
L 81 1097 
L 81 1613 
L 2172 4581 
L 2631 4581 
L 2631 1613 
L 3250 1613 
L 3250 1097 
L 2631 1097 
L 2631 0 
L 2069 0 
z
M 2069 1613 
L 2069 3678 
L 634 1613 
L 2069 1613 
z
" transform="scale(0.015625)"/>
       </defs>
       <use xlink:href="#ArialMT-34"/>
       <use xlink:href="#ArialMT-30" x="55.615234"/>
      </g>
     </g>
    </g>
    <g id="xtick_6">
     <g id="line2d_11">
      <path d="M 604.333319 411.76275 
L 604.333319 23.68275 
" clip-path="url(#pa98928bff6)" style="fill: none; stroke-dasharray: 1.85,0.8; stroke-dashoffset: 0; stroke: #b2b2b2; stroke-width: 0.5"/>
     </g>
     <g id="line2d_12"/>
     <g id="text_6">
      <!-- 50 -->
      <g style="fill: #555555" transform="translate(598.772381 422.420562)scale(0.1 -0.1)">
       <defs>
        <path id="ArialMT-35" d="M 266 1200 
L 856 1250 
Q 922 819 1161 601 
Q 1400 384 1738 384 
Q 2144 384 2425 690 
Q 2706 997 2706 1503 
Q 2706 1984 2436 2262 
Q 2166 2541 1728 2541 
Q 1456 2541 1237 2417 
Q 1019 2294 894 2097 
L 366 2166 
L 809 4519 
L 3088 4519 
L 3088 3981 
L 1259 3981 
L 1013 2750 
Q 1425 3038 1878 3038 
Q 2478 3038 2890 2622 
Q 3303 2206 3303 1553 
Q 3303 931 2941 478 
Q 2500 -78 1738 -78 
Q 1113 -78 717 272 
Q 322 622 266 1200 
z
" transform="scale(0.015625)"/>
       </defs>
       <use xlink:href="#ArialMT-35"/>
       <use xlink:href="#ArialMT-30" x="55.615234"/>
      </g>
     </g>
    </g>
    <g id="text_7">
     <!-- LapNumber -->
     <g style="fill: #555555" transform="translate(346.095938 436.997437)scale(0.12 -0.12)">
      <defs>
       <path id="ArialMT-4c" d="M 469 0 
L 469 4581 
L 1075 4581 
L 1075 541 
L 3331 541 
L 3331 0 
L 469 0 
z
" transform="scale(0.015625)"/>
       <path id="ArialMT-61" d="M 2588 409 
Q 2275 144 1986 34 
Q 1697 -75 1366 -75 
Q 819 -75 525 192 
Q 231 459 231 875 
Q 231 1119 342 1320 
Q 453 1522 633 1644 
Q 813 1766 1038 1828 
Q 1203 1872 1538 1913 
Q 2219 1994 2541 2106 
Q 2544 2222 2544 2253 
Q 2544 2597 2384 2738 
Q 2169 2928 1744 2928 
Q 1347 2928 1158 2789 
Q 969 2650 878 2297 
L 328 2372 
Q 403 2725 575 2942 
Q 747 3159 1072 3276 
Q 1397 3394 1825 3394 
Q 2250 3394 2515 3294 
Q 2781 3194 2906 3042 
Q 3031 2891 3081 2659 
Q 3109 2516 3109 2141 
L 3109 1391 
Q 3109 606 3145 398 
Q 3181 191 3288 0 
L 2700 0 
Q 2613 175 2588 409 
z
M 2541 1666 
Q 2234 1541 1622 1453 
Q 1275 1403 1131 1340 
Q 988 1278 909 1158 
Q 831 1038 831 891 
Q 831 666 1001 516 
Q 1172 366 1500 366 
Q 1825 366 2078 508 
Q 2331 650 2450 897 
Q 2541 1088 2541 1459 
L 2541 1666 
z
" transform="scale(0.015625)"/>
       <path id="ArialMT-70" d="M 422 -1272 
L 422 3319 
L 934 3319 
L 934 2888 
Q 1116 3141 1344 3267 
Q 1572 3394 1897 3394 
Q 2322 3394 2647 3175 
Q 2972 2956 3137 2557 
Q 3303 2159 3303 1684 
Q 3303 1175 3120 767 
Q 2938 359 2589 142 
Q 2241 -75 1856 -75 
Q 1575 -75 1351 44 
Q 1128 163 984 344 
L 984 -1272 
L 422 -1272 
z
M 931 1641 
Q 931 1000 1190 694 
Q 1450 388 1819 388 
Q 2194 388 2461 705 
Q 2728 1022 2728 1688 
Q 2728 2322 2467 2637 
Q 2206 2953 1844 2953 
Q 1484 2953 1207 2617 
Q 931 2281 931 1641 
z
" transform="scale(0.015625)"/>
       <path id="ArialMT-4e" d="M 488 0 
L 488 4581 
L 1109 4581 
L 3516 984 
L 3516 4581 
L 4097 4581 
L 4097 0 
L 3475 0 
L 1069 3600 
L 1069 0 
L 488 0 
z
" transform="scale(0.015625)"/>
       <path id="ArialMT-75" d="M 2597 0 
L 2597 488 
Q 2209 -75 1544 -75 
Q 1250 -75 995 37 
Q 741 150 617 320 
Q 494 491 444 738 
Q 409 903 409 1263 
L 409 3319 
L 972 3319 
L 972 1478 
Q 972 1038 1006 884 
Q 1059 663 1231 536 
Q 1403 409 1656 409 
Q 1909 409 2131 539 
Q 2353 669 2445 892 
Q 2538 1116 2538 1541 
L 2538 3319 
L 3100 3319 
L 3100 0 
L 2597 0 
z
" transform="scale(0.015625)"/>
       <path id="ArialMT-6d" d="M 422 0 
L 422 3319 
L 925 3319 
L 925 2853 
Q 1081 3097 1340 3245 
Q 1600 3394 1931 3394 
Q 2300 3394 2536 3241 
Q 2772 3088 2869 2813 
Q 3263 3394 3894 3394 
Q 4388 3394 4653 3120 
Q 4919 2847 4919 2278 
L 4919 0 
L 4359 0 
L 4359 2091 
Q 4359 2428 4304 2576 
Q 4250 2725 4106 2815 
Q 3963 2906 3769 2906 
Q 3419 2906 3187 2673 
Q 2956 2441 2956 1928 
L 2956 0 
L 2394 0 
L 2394 2156 
Q 2394 2531 2256 2718 
Q 2119 2906 1806 2906 
Q 1569 2906 1367 2781 
Q 1166 2656 1075 2415 
Q 984 2175 984 1722 
L 984 0 
L 422 0 
z
" transform="scale(0.015625)"/>
       <path id="ArialMT-62" d="M 941 0 
L 419 0 
L 419 4581 
L 981 4581 
L 981 2947 
Q 1338 3394 1891 3394 
Q 2197 3394 2470 3270 
Q 2744 3147 2920 2923 
Q 3097 2700 3197 2384 
Q 3297 2069 3297 1709 
Q 3297 856 2875 390 
Q 2453 -75 1863 -75 
Q 1275 -75 941 416 
L 941 0 
z
M 934 1684 
Q 934 1088 1097 822 
Q 1363 388 1816 388 
Q 2184 388 2453 708 
Q 2722 1028 2722 1663 
Q 2722 2313 2464 2622 
Q 2206 2931 1841 2931 
Q 1472 2931 1203 2611 
Q 934 2291 934 1684 
z
" transform="scale(0.015625)"/>
       <path id="ArialMT-65" d="M 2694 1069 
L 3275 997 
Q 3138 488 2766 206 
Q 2394 -75 1816 -75 
Q 1088 -75 661 373 
Q 234 822 234 1631 
Q 234 2469 665 2931 
Q 1097 3394 1784 3394 
Q 2450 3394 2872 2941 
Q 3294 2488 3294 1666 
Q 3294 1616 3291 1516 
L 816 1516 
Q 847 969 1125 678 
Q 1403 388 1819 388 
Q 2128 388 2347 550 
Q 2566 713 2694 1069 
z
M 847 1978 
L 2700 1978 
Q 2663 2397 2488 2606 
Q 2219 2931 1791 2931 
Q 1403 2931 1139 2672 
Q 875 2413 847 1978 
z
" transform="scale(0.015625)"/>
       <path id="ArialMT-72" d="M 416 0 
L 416 3319 
L 922 3319 
L 922 2816 
Q 1116 3169 1280 3281 
Q 1444 3394 1641 3394 
Q 1925 3394 2219 3213 
L 2025 2691 
Q 1819 2813 1613 2813 
Q 1428 2813 1281 2702 
Q 1134 2591 1072 2394 
Q 978 2094 978 1738 
L 978 0 
L 416 0 
z
" transform="scale(0.015625)"/>
      </defs>
      <use xlink:href="#ArialMT-4c"/>
      <use xlink:href="#ArialMT-61" x="55.615234"/>
      <use xlink:href="#ArialMT-70" x="111.230469"/>
      <use xlink:href="#ArialMT-4e" x="166.845703"/>
      <use xlink:href="#ArialMT-75" x="239.0625"/>
      <use xlink:href="#ArialMT-6d" x="294.677734"/>
      <use xlink:href="#ArialMT-62" x="377.978516"/>
      <use xlink:href="#ArialMT-65" x="433.59375"/>
      <use xlink:href="#ArialMT-72" x="489.208984"/>
     </g>
    </g>
   </g>
   <g id="matplotlib.axis_2">
    <g id="ytick_1">
     <g id="line2d_13">
      <path d="M 42.644063 404.044262 
L 712.244063 404.044262 
" clip-path="url(#pa98928bff6)" style="fill: none; stroke-dasharray: 1.85,0.8; stroke-dashoffset: 0; stroke: #b2b2b2; stroke-width: 0.5"/>
     </g>
     <g id="line2d_14"/>
     <g id="text_8">
      <!-- 96 -->
      <g style="fill: #555555" transform="translate(28.022188 407.623168)scale(0.1 -0.1)">
       <defs>
        <path id="ArialMT-39" d="M 350 1059 
L 891 1109 
Q 959 728 1153 556 
Q 1347 384 1650 384 
Q 1909 384 2104 503 
Q 2300 622 2425 820 
Q 2550 1019 2634 1356 
Q 2719 1694 2719 2044 
Q 2719 2081 2716 2156 
Q 2547 1888 2255 1720 
Q 1963 1553 1622 1553 
Q 1053 1553 659 1965 
Q 266 2378 266 3053 
Q 266 3750 677 4175 
Q 1088 4600 1706 4600 
Q 2153 4600 2523 4359 
Q 2894 4119 3086 3673 
Q 3278 3228 3278 2384 
Q 3278 1506 3087 986 
Q 2897 466 2520 194 
Q 2144 -78 1638 -78 
Q 1100 -78 759 220 
Q 419 519 350 1059 
z
M 2653 3081 
Q 2653 3566 2395 3850 
Q 2138 4134 1775 4134 
Q 1400 4134 1122 3828 
Q 844 3522 844 3034 
Q 844 2597 1108 2323 
Q 1372 2050 1759 2050 
Q 2150 2050 2401 2323 
Q 2653 2597 2653 3081 
z
" transform="scale(0.015625)"/>
        <path id="ArialMT-36" d="M 3184 3459 
L 2625 3416 
Q 2550 3747 2413 3897 
Q 2184 4138 1850 4138 
Q 1581 4138 1378 3988 
Q 1113 3794 959 3422 
Q 806 3050 800 2363 
Q 1003 2672 1297 2822 
Q 1591 2972 1913 2972 
Q 2475 2972 2870 2558 
Q 3266 2144 3266 1488 
Q 3266 1056 3080 686 
Q 2894 316 2569 119 
Q 2244 -78 1831 -78 
Q 1128 -78 684 439 
Q 241 956 241 2144 
Q 241 3472 731 4075 
Q 1159 4600 1884 4600 
Q 2425 4600 2770 4297 
Q 3116 3994 3184 3459 
z
M 888 1484 
Q 888 1194 1011 928 
Q 1134 663 1356 523 
Q 1578 384 1822 384 
Q 2178 384 2434 671 
Q 2691 959 2691 1453 
Q 2691 1928 2437 2201 
Q 2184 2475 1800 2475 
Q 1419 2475 1153 2201 
Q 888 1928 888 1484 
z
" transform="scale(0.015625)"/>
       </defs>
       <use xlink:href="#ArialMT-39"/>
       <use xlink:href="#ArialMT-36" x="55.615234"/>
      </g>
     </g>
    </g>
    <g id="ytick_2">
     <g id="line2d_15">
      <path d="M 42.644063 338.164369 
L 712.244063 338.164369 
" clip-path="url(#pa98928bff6)" style="fill: none; stroke-dasharray: 1.85,0.8; stroke-dashoffset: 0; stroke: #b2b2b2; stroke-width: 0.5"/>
     </g>
     <g id="line2d_16"/>
     <g id="text_9">
      <!-- 97 -->
      <g style="fill: #555555" transform="translate(28.022188 341.743276)scale(0.1 -0.1)">
       <defs>
        <path id="ArialMT-37" d="M 303 3981 
L 303 4522 
L 3269 4522 
L 3269 4084 
Q 2831 3619 2401 2847 
Q 1972 2075 1738 1259 
Q 1569 684 1522 0 
L 944 0 
Q 953 541 1156 1306 
Q 1359 2072 1739 2783 
Q 2119 3494 2547 3981 
L 303 3981 
z
" transform="scale(0.015625)"/>
       </defs>
       <use xlink:href="#ArialMT-39"/>
       <use xlink:href="#ArialMT-37" x="55.615234"/>
      </g>
     </g>
    </g>
    <g id="ytick_3">
     <g id="line2d_17">
      <path d="M 42.644063 272.284477 
L 712.244063 272.284477 
" clip-path="url(#pa98928bff6)" style="fill: none; stroke-dasharray: 1.85,0.8; stroke-dashoffset: 0; stroke: #b2b2b2; stroke-width: 0.5"/>
     </g>
     <g id="line2d_18"/>
     <g id="text_10">
      <!-- 98 -->
      <g style="fill: #555555" transform="translate(28.022188 275.863383)scale(0.1 -0.1)">
       <defs>
        <path id="ArialMT-38" d="M 1131 2484 
Q 781 2613 612 2850 
Q 444 3088 444 3419 
Q 444 3919 803 4259 
Q 1163 4600 1759 4600 
Q 2359 4600 2725 4251 
Q 3091 3903 3091 3403 
Q 3091 3084 2923 2848 
Q 2756 2613 2416 2484 
Q 2838 2347 3058 2040 
Q 3278 1734 3278 1309 
Q 3278 722 2862 322 
Q 2447 -78 1769 -78 
Q 1091 -78 675 323 
Q 259 725 259 1325 
Q 259 1772 486 2073 
Q 713 2375 1131 2484 
z
M 1019 3438 
Q 1019 3113 1228 2906 
Q 1438 2700 1772 2700 
Q 2097 2700 2305 2904 
Q 2513 3109 2513 3406 
Q 2513 3716 2298 3927 
Q 2084 4138 1766 4138 
Q 1444 4138 1231 3931 
Q 1019 3725 1019 3438 
z
M 838 1322 
Q 838 1081 952 856 
Q 1066 631 1291 507 
Q 1516 384 1775 384 
Q 2178 384 2440 643 
Q 2703 903 2703 1303 
Q 2703 1709 2433 1975 
Q 2163 2241 1756 2241 
Q 1359 2241 1098 1978 
Q 838 1716 838 1322 
z
" transform="scale(0.015625)"/>
       </defs>
       <use xlink:href="#ArialMT-39"/>
       <use xlink:href="#ArialMT-38" x="55.615234"/>
      </g>
     </g>
    </g>
    <g id="ytick_4">
     <g id="line2d_19">
      <path d="M 42.644063 206.404584 
L 712.244063 206.404584 
" clip-path="url(#pa98928bff6)" style="fill: none; stroke-dasharray: 1.85,0.8; stroke-dashoffset: 0; stroke: #b2b2b2; stroke-width: 0.5"/>
     </g>
     <g id="line2d_20"/>
     <g id="text_11">
      <!-- 99 -->
      <g style="fill: #555555" transform="translate(28.022188 209.983491)scale(0.1 -0.1)">
       <use xlink:href="#ArialMT-39"/>
       <use xlink:href="#ArialMT-39" x="55.615234"/>
      </g>
     </g>
    </g>
    <g id="ytick_5">
     <g id="line2d_21">
      <path d="M 42.644063 140.524692 
L 712.244063 140.524692 
" clip-path="url(#pa98928bff6)" style="fill: none; stroke-dasharray: 1.85,0.8; stroke-dashoffset: 0; stroke: #b2b2b2; stroke-width: 0.5"/>
     </g>
     <g id="line2d_22"/>
     <g id="text_12">
      <!-- 100 -->
      <g style="fill: #555555" transform="translate(22.46125 144.103598)scale(0.1 -0.1)">
       <use xlink:href="#ArialMT-31"/>
       <use xlink:href="#ArialMT-30" x="55.615234"/>
       <use xlink:href="#ArialMT-30" x="111.230469"/>
      </g>
     </g>
    </g>
    <g id="ytick_6">
     <g id="line2d_23">
      <path d="M 42.644063 74.6448 
L 712.244063 74.6448 
" clip-path="url(#pa98928bff6)" style="fill: none; stroke-dasharray: 1.85,0.8; stroke-dashoffset: 0; stroke: #b2b2b2; stroke-width: 0.5"/>
     </g>
     <g id="line2d_24"/>
     <g id="text_13">
      <!-- 101 -->
      <g style="fill: #555555" transform="translate(22.46125 78.223706)scale(0.1 -0.1)">
       <use xlink:href="#ArialMT-31"/>
       <use xlink:href="#ArialMT-30" x="55.615234"/>
       <use xlink:href="#ArialMT-31" x="111.230469"/>
      </g>
     </g>
    </g>
    <g id="text_14">
     <!-- LapTime (s) -->
     <g style="fill: #555555" transform="translate(15.935625 249.502125)rotate(-90)scale(0.12 -0.12)">
      <defs>
       <path id="ArialMT-54" d="M 1659 0 
L 1659 4041 
L 150 4041 
L 150 4581 
L 3781 4581 
L 3781 4041 
L 2266 4041 
L 2266 0 
L 1659 0 
z
" transform="scale(0.015625)"/>
       <path id="ArialMT-69" d="M 425 3934 
L 425 4581 
L 988 4581 
L 988 3934 
L 425 3934 
z
M 425 0 
L 425 3319 
L 988 3319 
L 988 0 
L 425 0 
z
" transform="scale(0.015625)"/>
       <path id="ArialMT-20" transform="scale(0.015625)"/>
       <path id="ArialMT-28" d="M 1497 -1347 
Q 1031 -759 709 28 
Q 388 816 388 1659 
Q 388 2403 628 3084 
Q 909 3875 1497 4659 
L 1900 4659 
Q 1522 4009 1400 3731 
Q 1209 3300 1100 2831 
Q 966 2247 966 1656 
Q 966 153 1900 -1347 
L 1497 -1347 
z
" transform="scale(0.015625)"/>
       <path id="ArialMT-73" d="M 197 991 
L 753 1078 
Q 800 744 1014 566 
Q 1228 388 1613 388 
Q 2000 388 2187 545 
Q 2375 703 2375 916 
Q 2375 1106 2209 1216 
Q 2094 1291 1634 1406 
Q 1016 1563 777 1677 
Q 538 1791 414 1992 
Q 291 2194 291 2438 
Q 291 2659 392 2848 
Q 494 3038 669 3163 
Q 800 3259 1026 3326 
Q 1253 3394 1513 3394 
Q 1903 3394 2198 3281 
Q 2494 3169 2634 2976 
Q 2775 2784 2828 2463 
L 2278 2388 
Q 2241 2644 2061 2787 
Q 1881 2931 1553 2931 
Q 1166 2931 1000 2803 
Q 834 2675 834 2503 
Q 834 2394 903 2306 
Q 972 2216 1119 2156 
Q 1203 2125 1616 2013 
Q 2213 1853 2448 1751 
Q 2684 1650 2818 1456 
Q 2953 1263 2953 975 
Q 2953 694 2789 445 
Q 2625 197 2315 61 
Q 2006 -75 1616 -75 
Q 969 -75 630 194 
Q 291 463 197 991 
z
" transform="scale(0.015625)"/>
       <path id="ArialMT-29" d="M 791 -1347 
L 388 -1347 
Q 1322 153 1322 1656 
Q 1322 2244 1188 2822 
Q 1081 3291 891 3722 
Q 769 4003 388 4659 
L 791 4659 
Q 1378 3875 1659 3084 
Q 1900 2403 1900 1659 
Q 1900 816 1576 28 
Q 1253 -759 791 -1347 
z
" transform="scale(0.015625)"/>
      </defs>
      <use xlink:href="#ArialMT-4c"/>
      <use xlink:href="#ArialMT-61" x="55.615234"/>
      <use xlink:href="#ArialMT-70" x="111.230469"/>
      <use xlink:href="#ArialMT-54" x="166.845703"/>
      <use xlink:href="#ArialMT-69" x="224.179688"/>
      <use xlink:href="#ArialMT-6d" x="246.396484"/>
      <use xlink:href="#ArialMT-65" x="329.697266"/>
      <use xlink:href="#ArialMT-20" x="385.3125"/>
      <use xlink:href="#ArialMT-28" x="413.095703"/>
      <use xlink:href="#ArialMT-73" x="446.396484"/>
      <use xlink:href="#ArialMT-29" x="496.396484"/>
     </g>
    </g>
   </g>
   <g id="line2d_25">
    <path d="M 73.080426 273.997354 
L 84.148195 272.943276 
L 95.215963 273.250715 
L 106.283732 272.432707 
L 117.351501 272.587524 
L 128.419269 272.306437 
L 139.487038 270.853942 
L 150.554806 268.743433 
L 161.622575 266.435806 
L 172.690343 263.838675 
L 183.758112 259.773885 
L 194.825881 256.638002 
L 228.029186 257.790901 
L 239.096955 260.340452 
L 250.164724 262.791184 
L 261.232492 264.826873 
L 272.300261 267.238077 
L 283.368029 271.823318 
L 294.435798 276.553494 
L 305.503567 282.686912 
L 316.571335 290.618851 
L 338.706872 295.889242 
L 349.774641 298.669374 
L 360.84241 298.64961 
L 371.910178 298.932893 
L 382.977947 300.006736 
L 394.045715 302.358648 
L 405.113484 301.640557 
L 416.181253 301.409977 
L 427.249021 299.519224 
L 438.31679 296.468985 
L 471.520096 305.593351 
L 482.587864 311.739945 
L 493.655633 316.410829 
L 526.858939 320.89725 
L 537.926707 329.547279 
L 548.994476 332.287883 
L 560.062244 338.809992 
L 571.130013 343.270061 
L 582.197782 349.337599 
L 593.26555 355.187734 
L 604.333319 348.90938 
L 615.401087 342.446562 
L 626.468856 342.598086 
L 637.536624 342.598086 
L 648.604393 339.686195 
L 659.672162 344.251671 
L 670.73993 340.931325 
L 681.807699 345.121286 
" clip-path="url(#pa98928bff6)" style="fill: none; stroke: #0600ef; stroke-width: 2; stroke-linecap: round"/>
   </g>
   <g id="line2d_26">
    <path d="M 73.080426 332.314235 
L 84.148195 320.007871 
L 95.215963 310.073183 
L 106.283732 303.636718 
L 117.351501 291.784925 
L 128.419269 279.175514 
L 139.487038 262.745068 
L 150.554806 245.669 
L 161.622575 233.283581 
L 172.690343 214.336524 
L 183.758112 212.129547 
L 194.825881 208.796025 
L 205.893649 208.921196 
L 216.961418 207.577247 
L 228.029186 207.234671 
L 261.232492 214.777919 
L 272.300261 226.135612 
L 283.368029 237.163906 
L 294.435798 249.786494 
L 305.503567 262.600133 
L 316.571335 274.754973 
L 327.639104 280.802747 
L 338.706872 289.268313 
L 349.774641 297.312248 
L 360.84241 307.582923 
L 371.910178 307.095412 
L 382.977947 307.411636 
L 394.045715 302.938391 
L 405.113484 299.295233 
L 416.181253 295.573019 
L 449.384558 299.077829 
L 460.452327 312.741319 
L 471.520096 319.480832 
L 482.587864 325.792126 
L 493.655633 326.431161 
L 526.858939 334.1984 
L 537.926707 336.978531 
L 548.994476 343.507229 
L 560.062244 346.570644 
L 571.130013 354.528935 
L 582.197782 354.272003 
L 593.26555 349.627471 
L 604.333319 341.063085 
L 615.401087 336.978531 
L 626.468856 337.321107 
L 637.536624 332.110007 
L 648.604393 330.015027 
L 659.672162 328.934596 
L 670.73993 333.493485 
L 681.807699 334.172048 
" clip-path="url(#pa98928bff6)" style="fill: none; stroke: #0600ef; stroke-width: 2; stroke-linecap: round"/>
   </g>
   <g id="line2d_27">
    <path d="M 73.080426 314.849475 
L 84.148195 301.337509 
L 95.215963 289.367133 
L 106.283732 272.152717 
L 117.351501 254.944889 
L 128.419269 239.239123 
L 139.487038 221.695308 
L 150.554806 200.725738 
L 161.622575 176.758633 
L 172.690343 146.52635 
L 183.758112 139.002867 
L 194.825881 130.827172 
L 228.029186 144.042678 
L 239.096955 154.076186 
L 250.164724 164.287569 
L 261.232492 173.299939 
L 272.300261 184.110829 
L 283.368029 196.417193 
L 294.435798 209.612935 
L 305.503567 231.313772 
L 316.571335 251.446667 
L 327.639104 265.953419 
L 338.706872 262.099446 
L 349.774641 258.983327 
L 360.84241 258.489227 
L 371.910178 257.013518 
L 382.977947 257.250685 
L 394.045715 259.872705 
L 405.113484 262.040154 
L 416.181253 262.593545 
L 449.384558 273.938062 
L 460.452327 278.602359 
L 471.520096 286.013847 
L 482.587864 295.032804 
L 493.655633 301.561501 
L 515.79117 316.391065 
L 526.858939 325.423198 
L 537.926707 331.925544 
L 548.994476 331.530264 
L 560.062244 336.023273 
L 571.130013 328.315325 
L 582.197782 332.584342 
L 593.26555 334.402628 
L 604.333319 340.410874 
L 615.401087 342.044695 
L 626.468856 337.591214 
L 648.604393 333.058678 
L 659.672162 328.842365 
L 670.73993 331.859664 
L 681.807699 329.652687 
" clip-path="url(#pa98928bff6)" style="fill: none; stroke: #006f62; stroke-width: 2; stroke-linecap: round"/>
   </g>
   <g id="line2d_28">
    <path d="M 73.080426 319.065789 
L 84.148195 304.183521 
L 95.215963 289.301253 
L 106.283732 270.874647 
L 117.351501 254.312442 
L 128.419269 237.895173 
L 139.487038 223.533357 
L 150.554806 209.817163 
L 161.622575 192.497339 
L 172.690343 172.173392 
L 183.758112 161.718253 
L 216.961418 168.681758 
L 228.029186 172.318328 
L 239.096955 178.688914 
L 250.164724 186.508857 
L 261.232492 195.020539 
L 272.300261 206.108125 
L 283.368029 216.016461 
L 294.435798 226.880055 
L 305.503567 239.463115 
L 316.571335 253.996219 
L 327.639104 250.135657 
L 338.706872 250.807632 
L 349.774641 249.081579 
L 360.84241 247.849625 
L 371.910178 245.609708 
L 382.977947 242.282774 
L 416.181253 246.841662 
L 427.249021 253.284716 
L 438.31679 260.900432 
L 449.384558 264.905929 
L 460.452327 274.399221 
L 471.520096 280.242768 
L 482.587864 286.962517 
L 493.655633 292.806063 
L 515.79117 300.546951 
L 526.858939 309.157453 
L 537.926707 310.204943 
L 548.994476 296.462397 
L 560.062244 293.807438 
L 571.130013 290.408035 
L 582.197782 285.355048 
L 604.333319 284.300969 
L 615.401087 282.5288 
L 626.468856 283.167835 
L 637.536624 281.290258 
L 648.604393 278.655063 
L 659.672162 275.809051 
L 670.73993 285.262816 
L 681.807699 284.096742 
" clip-path="url(#pa98928bff6)" style="fill: none; stroke: #dc0000; stroke-width: 2; stroke-linecap: round"/>
   </g>
   <g id="line2d_29">
    <path d="M 73.080426 277.87768 
L 84.148195 269.16177 
L 95.215963 258.660515 
L 106.283732 247.704689 
L 117.351501 232.776305 
L 128.419269 218.961292 
L 139.487038 202.010396 
L 150.554806 185.527247 
L 161.622575 171.277426 
L 172.690343 153.285627 
L 205.893649 158.938122 
L 216.961418 163.503599 
L 228.029186 167.33122 
L 239.096955 171.488241 
L 250.164724 178.511038 
L 261.232492 185.57995 
L 272.300261 197.365863 
L 283.368029 208.84214 
L 294.435798 220.891573 
L 305.503567 236.491931 
L 316.571335 236.10324 
L 327.639104 237.664593 
L 338.706872 239.496054 
L 349.774641 241.703031 
L 360.84241 244.502926 
L 371.910178 246.505675 
L 405.113484 252.533685 
L 416.181253 259.33249 
L 427.249021 261.473587 
L 438.31679 271.704734 
L 449.384558 283.701462 
L 460.452327 289.643829 
L 471.520096 289.874408 
L 482.587864 295.744307 
L 493.655633 300.823646 
L 515.79117 309.513204 
L 526.858939 312.490975 
L 537.926707 315.791558 
L 548.994476 318.914265 
L 560.062244 312.668851 
L 571.130013 299.683924 
L 582.197782 296.679801 
L 593.26555 298.985597 
L 604.333319 297.061904 
L 615.401087 293.63615 
L 626.468856 288.747862 
L 637.536624 282.970195 
L 648.604393 276.197743 
L 659.672162 274.260874 
L 670.73993 272.073661 
L 681.807699 273.799714 
" clip-path="url(#pa98928bff6)" style="fill: none; stroke: #00d2be; stroke-width: 2; stroke-linecap: round"/>
   </g>
   <g id="line2d_30">
    <path d="M 73.080426 260.307512 
L 84.148195 249.298982 
L 95.215963 236.287704 
L 106.283732 228.843276 
L 117.351501 216.253628 
L 128.419269 203.360933 
L 139.487038 191.996652 
L 150.554806 177.825887 
L 161.622575 164.116282 
L 172.690343 146.539526 
L 183.758112 138.983103 
L 194.825881 129.134059 
L 205.893649 127.440945 
L 239.096955 138.225484 
L 250.164724 148.680623 
L 261.232492 157.627112 
L 272.300261 169.241737 
L 283.368029 181.317521 
L 294.435798 190.949162 
L 305.503567 208.262397 
L 316.571335 225.134238 
L 327.639104 244.041767 
L 338.706872 254.055511 
L 349.774641 244.081295 
L 360.84241 240.154853 
L 371.910178 239.344531 
L 405.113484 249.173811 
L 416.181253 256.176843 
L 427.249021 266.467282 
L 438.31679 271.566386 
L 449.384558 276.560082 
L 460.452327 280.315236 
L 471.520096 288.273527 
L 482.587864 298.58373 
L 515.79117 307.971615 
L 526.858939 317.234328 
L 537.926707 312.273572 
L 548.994476 312.194516 
L 560.062244 309.598848 
L 571.130013 311.338077 
L 582.197782 313.13001 
L 593.26555 313.979861 
L 604.333319 313.22883 
L 615.401087 310.527754 
L 626.468856 308.67653 
L 637.536624 301.594441 
L 648.604393 299.63122 
L 659.672162 296.475573 
L 670.73993 292.865355 
L 681.807699 288.029771 
" clip-path="url(#pa98928bff6)" style="fill: none; stroke: #006f62; stroke-width: 2; stroke-linecap: round"/>
   </g>
   <g id="line2d_31">
    <path d="M 73.080426 273.918298 
L 84.148195 263.759619 
L 95.215963 251.420315 
L 106.283732 240.332729 
L 117.351501 227.723318 
L 128.419269 216.67526 
L 139.487038 198.802045 
L 150.554806 180.889302 
L 161.622575 164.933192 
L 172.690343 144.549953 
L 183.758112 134.523034 
L 216.961418 145.28122 
L 228.029186 154.688869 
L 239.096955 160.914519 
L 250.164724 167.937315 
L 261.232492 178.109171 
L 272.300261 189.519568 
L 283.368029 201.806168 
L 294.435798 215.601417 
L 305.503567 230.832849 
L 316.571335 247.098594 
L 327.639104 240.332729 
L 338.706872 236.188884 
L 349.774641 236.050536 
L 360.84241 235.912188 
L 371.910178 234.067551 
L 382.977947 234.311307 
L 416.181253 243.099685 
L 427.249021 250.524348 
L 438.31679 258.304764 
L 449.384558 265.129921 
L 460.452327 269.510933 
L 471.520096 274.794501 
L 482.587864 282.238929 
L 515.79117 291.547757 
L 526.858939 300.191199 
L 537.926707 306.410261 
L 548.994476 305.784402 
L 560.062244 304.071525 
L 571.130013 305.125603 
L 582.197782 305.698758 
L 593.26555 306.383909 
L 604.333319 308.208782 
L 615.401087 306.034746 
L 626.468856 302.385 
L 637.536624 300.006736 
L 648.604393 297.859051 
L 659.672162 294.275185 
L 670.73993 293.846966 
L 681.807699 291.639989 
" clip-path="url(#pa98928bff6)" style="fill: none; stroke: #00d2be; stroke-width: 2; stroke-linecap: round"/>
   </g>
   <g id="line2d_32">
    <path d="M 73.080426 275.591648 
L 84.148195 264.530414 
L 95.215963 248.45572 
L 106.283732 227.32145 
L 117.351501 209.691991 
L 128.419269 191.752896 
L 139.487038 175.520091 
L 150.554806 159.610097 
L 161.622575 139.58261 
L 194.825881 137.849968 
L 205.893649 150.090452 
L 216.961418 153.687495 
L 228.029186 162.442932 
L 239.096955 169.426201 
L 250.164724 169.590901 
L 261.232492 176.620285 
L 272.300261 176.257946 
L 283.368029 182.318896 
L 294.435798 191.015042 
L 305.503567 182.575827 
L 316.571335 173.82039 
L 327.639104 169.610665 
L 338.706872 162.983147 
L 349.774641 167.502508 
L 360.84241 175.566207 
L 394.045715 189.519568 
L 405.113484 207.748534 
L 416.181253 218.157557 
L 427.249021 228.579756 
L 438.31679 238.422212 
L 449.384558 248.962995 
L 460.452327 260.267985 
L 471.520096 272.403061 
L 482.587864 282.304809 
L 515.79117 290.737435 
L 526.858939 287.878247 
L 537.926707 286.606766 
L 548.994476 287.179921 
L 560.062244 286.810993 
L 571.130013 286.824169 
L 582.197782 288.978442 
L 593.26555 288.477754 
L 604.333319 288.135179 
L 615.401087 287.924363 
L 626.468856 286.534298 
L 637.536624 286.251014 
L 648.604393 287.107453 
L 659.672162 286.323482 
L 670.73993 284.149446 
L 681.807699 280.249356 
" clip-path="url(#pa98928bff6)" style="fill: none; stroke: #900000; stroke-width: 2; stroke-linecap: round"/>
   </g>
   <g id="line2d_33">
    <path d="M 73.080426 260.893844 
L 84.148195 242.49359 
L 95.215963 221.517432 
L 106.283732 201.740288 
L 117.351501 180.902478 
L 128.419269 159.307049 
L 139.487038 136.677306 
L 172.690343 130.385777 
L 183.758112 125.326201 
L 194.825881 119.120315 
L 205.893649 129.52275 
L 216.961418 140.445636 
L 228.029186 153.285627 
L 239.096955 165.190124 
L 250.164724 178.899729 
L 261.232492 192.523691 
L 272.300261 206.727396 
L 283.368029 203.005182 
L 294.435798 199.335672 
L 305.503567 199.902239 
L 316.571335 193.959873 
L 349.774641 195.646398 
L 360.84241 203.446577 
L 371.910178 210.027979 
L 382.977947 218.388137 
L 394.045715 225.621749 
L 405.113484 232.242678 
L 416.181253 241.156228 
L 427.249021 250.794456 
L 438.31679 258.535343 
L 449.384558 268.924602 
L 460.452327 272.851044 
L 471.520096 270.565012 
L 482.587864 267.106317 
L 515.79117 284.841184 
L 526.858939 298.188451 
L 537.926707 312.813787 
L 548.994476 324.593112 
L 560.062244 337.643918 
L 571.130013 350.609081 
L 582.197782 362.57287 
L 593.26555 371.334895 
L 604.333319 381.592394 
L 615.401087 394.12275 
L 626.468856 382.112846 
L 637.536624 375.281101 
L 648.604393 365.860276 
L 659.672162 356.814967 
L 670.73993 344.930234 
L 681.807699 331.57638 
" clip-path="url(#pa98928bff6)" style="fill: none; stroke: #0090ff; stroke-width: 2; stroke-linecap: round"/>
   </g>
   <g id="line2d_34">
    <path d="M 73.080426 304.815968 
L 84.148195 282.812084 
L 95.215963 261.664638 
L 106.283732 235.503733 
L 117.351501 210.12021 
L 128.419269 185.962054 
L 139.487038 161.612846 
L 150.554806 139.147802 
L 161.622575 117.578726 
L 194.825881 114.271555 
L 205.893649 127.170838 
L 216.961418 133.660007 
L 228.029186 137.006706 
L 239.096955 146.967746 
L 250.164724 158.134387 
L 261.232492 167.186285 
L 272.300261 177.852239 
L 283.368029 186.930488 
L 294.435798 197.0167 
L 305.503567 189.420748 
L 316.571335 180.078979 
L 327.639104 175.638675 
L 360.84241 187.167656 
L 371.910178 193.538241 
L 382.977947 200.903613 
L 394.045715 208.598385 
L 405.113484 217.68981 
L 416.181253 227.48615 
L 427.249021 238.204809 
L 438.31679 250.181773 
L 449.384558 261.473587 
L 460.452327 273.292439 
L 471.520096 267.844172 
L 482.587864 266.401403 
L 515.79117 271.144755 
L 526.858939 277.469224 
L 537.926707 281.369314 
L 548.994476 285.328696 
L 560.062244 287.858483 
L 571.130013 290.750611 
L 582.197782 293.991901 
L 593.26555 296.818149 
L 604.333319 301.001522 
L 615.401087 305.079487 
L 626.468856 300.797294 
L 637.536624 296.620509 
L 648.604393 293.63615 
L 659.672162 291.659753 
L 670.73993 287.825544 
L 681.807699 283.925454 
" clip-path="url(#pa98928bff6)" style="fill: none; stroke: #005aff; stroke-width: 2; stroke-linecap: round"/>
   </g>
   <g id="line2d_35">
    <path d="M 73.080426 263.153524 
L 84.148195 245.80076 
L 95.215963 230.944844 
L 106.283732 208.519329 
L 117.351501 188.590662 
L 128.419269 167.680384 
L 139.487038 147.481609 
L 150.554806 126.353927 
L 183.758112 119.871346 
L 194.825881 111.082968 
L 205.893649 124.884806 
L 216.961418 133.238376 
L 228.029186 139.095098 
L 239.096955 152.995756 
L 250.164724 163.431131 
L 261.232492 175.170927 
L 272.300261 185.474543 
L 283.368029 196.575305 
L 294.435798 194.62526 
L 305.503567 193.564593 
L 316.571335 184.558812 
L 327.639104 179.479472 
L 360.84241 187.628815 
L 371.910178 195.811098 
L 382.977947 203.420225 
L 394.045715 212.360127 
L 405.113484 220.693933 
L 416.181253 228.803748 
L 427.249021 237.427426 
L 438.31679 247.105182 
L 449.384558 260.61056 
L 460.452327 271.61909 
L 471.520096 269.906213 
L 482.587864 265.6899 
L 515.79117 275.637763 
L 526.858939 280.809335 
L 537.926707 287.44344 
L 548.994476 294.512353 
L 560.062244 300.257079 
L 571.130013 305.553823 
L 582.197782 310.962562 
L 593.26555 314.566192 
L 604.333319 317.596667 
L 615.401087 322.293903 
L 626.468856 316.01555 
L 637.536624 311.75312 
L 648.604393 307.075648 
L 659.672162 300.988346 
L 670.73993 295.428083 
L 681.807699 289.584537 
" clip-path="url(#pa98928bff6)" style="fill: none; stroke: #2b4562; stroke-width: 2; stroke-linecap: round"/>
   </g>
   <g id="line2d_36">
    <path d="M 73.080426 268.311919 
L 84.148195 249.727202 
L 95.215963 229.831474 
L 106.283732 208.776261 
L 117.351501 187.688107 
L 128.419269 166.494546 
L 139.487038 145.755555 
L 150.554806 126.235343 
L 161.622575 106.267148 
L 172.690343 84.619015 
L 205.893649 98.150745 
L 216.961418 106.820539 
L 228.029186 117.730249 
L 239.096955 127.368478 
L 250.164724 136.538959 
L 261.232492 147.554077 
L 272.300261 158.635074 
L 283.368029 167.173109 
L 294.435798 178.840437 
L 305.503567 190.962338 
L 316.571335 181.350461 
L 327.639104 176.073482 
L 338.706872 169.366909 
L 349.774641 168.293067 
L 360.84241 166.837121 
L 371.910178 163.852762 
L 405.113484 174.215669 
L 416.181253 185.74465 
L 427.249021 195.363115 
L 438.31679 206.318941 
L 449.384558 220.516057 
L 460.452327 233.7118 
L 471.520096 246.828486 
L 482.587864 257.573497 
L 515.79117 281.178262 
L 526.858939 300.098968 
L 537.926707 301.456093 
L 548.994476 304.091289 
L 560.062244 300.540363 
L 571.130013 305.82393 
L 582.197782 310.099535 
L 593.26555 314.091857 
L 604.333319 318.868149 
L 615.401087 322.155555 
L 626.468856 312.807199 
L 637.536624 307.13494 
L 648.604393 303.649894 
L 659.672162 298.023751 
L 670.73993 290.216984 
" clip-path="url(#pa98928bff6)" style="fill: none; stroke: #005aff; stroke-width: 2; stroke-linecap: round"/>
   </g>
   <g id="line2d_37">
    <path d="M 73.080426 261.928158 
L 84.148195 229.581131 
L 95.215963 206.206945 
L 106.283732 179.525588 
L 117.351501 155.459664 
L 128.419269 128.646547 
L 139.487038 104.791438 
L 150.554806 82.774378 
L 161.622575 60.355451 
L 172.690343 44.392753 
L 183.758112 45.552239 
L 194.825881 47.686748 
L 205.893649 41.32275 
L 239.096955 61.225066 
L 250.164724 80.007423 
L 261.232492 97.946518 
L 272.300261 112.440094 
L 283.368029 126.880966 
L 294.435798 145.366864 
L 305.503567 165.275768 
L 316.571335 181.073766 
L 327.639104 195.422406 
L 338.706872 209.507527 
L 349.774641 203.057886 
L 360.84241 196.193201 
L 394.045715 197.576679 
L 405.113484 207.056795 
L 416.181253 220.160306 
L 427.249021 229.284671 
L 438.31679 239.60805 
L 449.384558 247.467521 
L 460.452327 257.20457 
L 471.520096 265.75578 
L 482.587864 270.43984 
L 515.79117 289.182669 
L 526.858939 300.05944 
L 537.926707 307.016356 
L 548.994476 306.825305 
L 560.062244 306.423437 
L 571.130013 305.310067 
L 582.197782 306.278501 
L 593.26555 307.984791 
L 604.333319 307.905735 
L 615.401087 310.73857 
L 626.468856 300.90929 
L 637.536624 294.057781 
L 648.604393 273.87877 
L 659.672162 265.182625 
L 670.73993 257.342917 
" clip-path="url(#pa98928bff6)" style="fill: none; stroke: #ffffff; stroke-width: 2; stroke-linecap: round"/>
   </g>
   <g id="line2d_38">
    <path d="M 73.080426 233.230877 
L 84.148195 211.444396 
L 95.215963 194.091633 
L 106.283732 178.840437 
L 117.351501 159.287285 
L 128.419269 138.185956 
L 139.487038 116.788167 
L 150.554806 104.126051 
L 161.622575 82.912726 
L 194.825881 81.957468 
L 205.893649 98.163921 
L 216.961418 111.642947 
L 228.029186 119.851582 
L 239.096955 130.616356 
L 250.164724 144.260082 
L 261.232492 158.015803 
L 294.435798 170.756975 
L 305.503567 184.137181 
L 316.571335 196.384253 
L 327.639104 182.971107 
L 338.706872 175.454211 
L 371.910178 180.375439 
L 382.977947 189.717208 
L 394.045715 196.878352 
L 405.113484 204.467716 
L 416.181253 212.010963 
L 427.249021 218.796592 
L 438.31679 228.144949 
L 449.384558 238.69232 
L 460.452327 255.406048 
L 471.520096 265.887539 
L 482.587864 263.160112 
L 515.79117 248.903703 
L 526.858939 233.962143 
L 537.926707 222.854794 
L 548.994476 216.556676 
L 560.062244 212.570942 
L 571.130013 207.313727 
L 582.197782 192.589571 
L 593.26555 188.887121 
L 604.333319 184.209649 
L 615.401087 171.42895 
L 626.468856 168.418238 
L 637.536624 175.184103 
L 648.604393 179.81546 
L 659.672162 177.509664 
L 670.73993 175.599147 
" clip-path="url(#pa98928bff6)" style="fill: none; stroke: #2b4562; stroke-width: 2; stroke-linecap: round"/>
   </g>
   <g id="line2d_39">
    <path d="M 73.080426 163.747354 
L 84.148195 163.464071 
L 95.215963 150.16292 
L 106.283732 137.560097 
L 128.419269 133.12638 
L 139.487038 127.072018 
L 150.554806 110.832625 
L 161.622575 99.371719 
L 194.825881 98.149281 
L 205.893649 100.447757 
L 216.961418 113.243097 
L 228.029186 123.11044 
L 239.096955 134.880981 
L 250.164724 139.851253 
L 261.232492 150.941035 
L 272.300261 163.780294 
L 283.368029 177.776111 
L 294.435798 174.485777 
L 305.503567 171.455302 
L 316.571335 164.814608 
L 327.639104 156.098699 
L 360.84241 170.295815 
L 371.910178 183.458618 
L 382.977947 201.285717 
L 394.045715 212.761994 
L 405.113484 223.889108 
L 416.181253 236.682983 
L 427.249021 250.115893 
L 438.31679 261.796398 
L 449.384558 272.403061 
L 460.452327 286.810993 
L 471.520096 278.839526 
L 482.587864 273.661367 
L 515.79117 280.255944 
L 526.858939 287.489556 
L 537.926707 292.298788 
L 548.994476 295.243619 
L 560.062244 281.560366 
L 571.130013 290.039108 
L 582.197782 297.674587 
L 593.26555 304.466804 
L 604.333319 310.718806 
L 615.401087 316.503061 
L 626.468856 307.932087 
L 637.536624 299.538988 
L 648.604393 290.434387 
L 659.672162 282.199401 
L 670.73993 287.2458 
" clip-path="url(#pa98928bff6)" style="fill: none; stroke: #ffffff; stroke-width: 2; stroke-linecap: round"/>
   </g>
   <g id="line2d_40">
    <path d="M 73.080426 259.016267 
L 84.148195 235.892424 
L 95.215963 211.016177 
L 106.283732 187.483879 
L 117.351501 162.120121 
L 128.419269 140.511516 
L 139.487038 119.976754 
L 150.554806 99.764803 
L 161.622575 78.821585 
L 172.690343 66.153613 
L 205.893649 79.044112 
L 216.961418 89.050536 
L 228.029186 102.629114 
L 239.096955 114.860814 
L 250.164724 131.572347 
L 261.232492 149.162278 
L 272.300261 165.910411 
L 283.368029 185.220539 
L 294.435798 204.457468 
L 305.503567 201.608528 
L 316.571335 200.468806 
L 327.639104 201.542648 
L 338.706872 198.716401 
L 349.774641 198.110306 
L 360.84241 194.55938 
L 371.910178 190.82399 
L 382.977947 187.622227 
L 394.045715 182.47042 
L 427.249021 196.160261 
L 438.31679 208.756497 
L 449.384558 218.941528 
L 460.452327 225.944561 
L 471.520096 232.56549 
L 482.587864 238.277276 
L 515.79117 235.035986 
L 526.858939 241.953374 
L 537.926707 251.229263 
L 548.994476 262.560605 
L 560.062244 254.002807 
L 571.130013 240.807064 
L 582.197782 236.597339 
L 593.26555 232.479846 
L 604.333319 222.788914 
L 615.401087 220.47653 
L 626.468856 228.322825 
L 637.536624 226.194904 
L 670.73993 220.883521 
" clip-path="url(#pa98928bff6)" style="fill: none; stroke: #900000; stroke-width: 2; stroke-linecap: round"/>
   </g>
   <g id="line2d_41">
    <path d="M 73.080426 202.707991 
L 84.148195 192.159888 
L 95.215963 194.933248 
L 106.283732 177.903296 
L 117.351501 159.901615 
L 128.419269 153.041872 
L 139.487038 135.43547 
L 150.554806 118.389048 
L 183.758112 112.789257 
L 194.825881 119.457766 
L 205.893649 128.168552 
L 216.961418 134.807781 
L 228.029186 142.88978 
L 261.232492 160.664175 
L 272.300261 176.929921 
L 283.368029 192.932146 
L 294.435798 205.772138 
L 305.503567 222.189407 
L 316.571335 226.260784 
L 327.639104 233.263817 
L 338.706872 238.553972 
L 371.910178 249.160635 
L 382.977947 257.428561 
L 394.045715 258.732983 
L 405.113484 260.274573 
L 416.181253 265.39344 
L 427.249021 271.460978 
L 438.31679 274.234522 
L 449.384558 266.394815 
L 482.587864 267.053613 
L 504.723401 278.483775 
L 515.79117 282.383864 
L 526.858939 288.431639 
L 537.926707 292.048445 
L 548.994476 296.561217 
L 560.062244 295.665251 
L 593.26555 288.464579 
L 604.333319 305.678994 
L 615.401087 332.452583 
L 626.468856 346.913219 
L 637.536624 348.263757 
" clip-path="url(#pa98928bff6)" style="fill: none; stroke: #ff8700; stroke-width: 2; stroke-linecap: round"/>
   </g>
   <g id="line2d_42">
    <path d="M 73.080426 323.624677 
L 84.148195 302.141244 
L 95.215963 286.830757 
L 106.283732 268.022048 
L 117.351501 250.399177 
L 128.419269 241.123288 
L 139.487038 206.174005 
L 150.554806 172.944187 
L 161.622575 141.94111 
L 172.690343 112.064579 
L 205.893649 123.652852 
L 239.096955 131.347623 
L 250.164724 135.675932 
L 261.232492 145.320748 
L 272.300261 155.347668 
L 283.368029 165.308708 
L 294.435798 175.414683 
L 305.503567 180.777306 
L 316.571335 190.501178 
L 327.639104 201.041961 
L 338.706872 195.297235 
L 349.774641 189.934611 
L 360.84241 182.424304 
L 371.910178 166.850297 
L 382.977947 160.604883 
L 394.045715 155.518956 
L 427.249021 170.21676 
L 438.31679 190.56047 
L 449.384558 203.855033 
L 460.452327 217.670046 
L 471.520096 232.855361 
L 482.587864 246.499087 
" clip-path="url(#pa98928bff6)" style="fill: none; stroke: #0090ff; stroke-width: 2; stroke-linecap: round"/>
   </g>
   <g id="line2d_43">
    <path d="M 73.080426 254.905361 
L 84.148195 271.526858 
L 95.215963 277.666864 
L 106.283732 284.808244 
L 117.351501 273.114564 
L 128.419269 261.737106 
L 139.487038 253.50212 
L 150.554806 243.686016 
L 161.622575 231.45212 
L 172.690343 220.325006 
L 183.758112 215.456482 
L 216.961418 216.648908 
L 228.029186 222.393634 
L 239.096955 226.563832 
L 250.164724 231.662935 
L 261.232492 237.15073 
L 272.300261 243.626724 
L 283.368029 250.708812 
L 294.435798 256.71047 
L 305.503567 264.339362 
L 316.571335 274.333342 
L 327.639104 273.91171 
L 338.706872 262.613309 
L 349.774641 257.454913 
L 360.84241 252.052762 
L 371.910178 248.172436 
L 382.977947 243.172152 
L 394.045715 236.630279 
L 405.113484 231.45212 
L 438.31679 231.326948 
L 449.384558 235.668433 
L 482.587864 243.929771 
" clip-path="url(#pa98928bff6)" style="fill: none; stroke: #dc0000; stroke-width: 2; stroke-linecap: round"/>
   </g>
   <g id="line2d_44">
    <path d="M 73.080426 236.274528 
L 84.148195 223.908872 
L 95.215963 210.074094 
L 106.283732 194.1641 
L 117.351501 176.238182 
L 128.419269 160.28866 
L 139.487038 144.826649 
L 150.554806 122.025618 
L 161.622575 93.888316 
L 172.690343 67.10814 
L 183.758112 64.960455 
" clip-path="url(#pa98928bff6)" style="fill: none; stroke: #ff8700; stroke-width: 2; stroke-linecap: round"/>
   </g>
   <g id="line2d_45"/>
   <g id="line2d_46"/>
   <g id="line2d_47"/>
   <g id="line2d_48"/>
   <g id="line2d_49"/>
   <g id="line2d_50"/>
   <g id="line2d_51"/>
   <g id="line2d_52"/>
   <g id="line2d_53"/>
   <g id="line2d_54"/>
   <g id="line2d_55"/>
   <g id="line2d_56"/>
   <g id="line2d_57"/>
   <g id="line2d_58"/>
   <g id="line2d_59"/>
   <g id="line2d_60"/>
   <g id="line2d_61"/>
   <g id="line2d_62"/>
   <g id="line2d_63"/>
   <g id="line2d_64"/>
   <g id="patch_3">
    <path d="M 42.644063 411.76275 
L 42.644063 23.68275 
" style="fill: none; stroke: #bcbcbc; stroke-linejoin: miter; stroke-linecap: square"/>
   </g>
   <g id="patch_4">
    <path d="M 712.244063 411.76275 
L 712.244063 23.68275 
" style="fill: none; stroke: #bcbcbc; stroke-linejoin: miter; stroke-linecap: square"/>
   </g>
   <g id="patch_5">
    <path d="M 42.644063 411.76275 
L 712.244063 411.76275 
" style="fill: none; stroke: #bcbcbc; stroke-linejoin: miter; stroke-linecap: square"/>
   </g>
   <g id="patch_6">
    <path d="M 42.644063 23.68275 
L 712.244063 23.68275 
" style="fill: none; stroke: #bcbcbc; stroke-linejoin: miter; stroke-linecap: square"/>
   </g>
   <g id="text_15">
    <!-- 2023 Bahrain Grand Prix - Smoothed Racepace -->
    <g style="fill: #262626" transform="translate(224.566688 17.68275)scale(0.144 -0.144)">
     <defs>
      <path id="ArialMT-42" d="M 469 0 
L 469 4581 
L 2188 4581 
Q 2713 4581 3030 4442 
Q 3347 4303 3526 4014 
Q 3706 3725 3706 3409 
Q 3706 3116 3547 2856 
Q 3388 2597 3066 2438 
Q 3481 2316 3704 2022 
Q 3928 1728 3928 1328 
Q 3928 1006 3792 729 
Q 3656 453 3456 303 
Q 3256 153 2954 76 
Q 2653 0 2216 0 
L 469 0 
z
M 1075 2656 
L 2066 2656 
Q 2469 2656 2644 2709 
Q 2875 2778 2992 2937 
Q 3109 3097 3109 3338 
Q 3109 3566 3000 3739 
Q 2891 3913 2687 3977 
Q 2484 4041 1991 4041 
L 1075 4041 
L 1075 2656 
z
M 1075 541 
L 2216 541 
Q 2509 541 2628 563 
Q 2838 600 2978 687 
Q 3119 775 3209 942 
Q 3300 1109 3300 1328 
Q 3300 1584 3169 1773 
Q 3038 1963 2805 2039 
Q 2572 2116 2134 2116 
L 1075 2116 
L 1075 541 
z
" transform="scale(0.015625)"/>
      <path id="ArialMT-68" d="M 422 0 
L 422 4581 
L 984 4581 
L 984 2938 
Q 1378 3394 1978 3394 
Q 2347 3394 2619 3248 
Q 2891 3103 3008 2847 
Q 3125 2591 3125 2103 
L 3125 0 
L 2563 0 
L 2563 2103 
Q 2563 2525 2380 2717 
Q 2197 2909 1863 2909 
Q 1613 2909 1392 2779 
Q 1172 2650 1078 2428 
Q 984 2206 984 1816 
L 984 0 
L 422 0 
z
" transform="scale(0.015625)"/>
      <path id="ArialMT-6e" d="M 422 0 
L 422 3319 
L 928 3319 
L 928 2847 
Q 1294 3394 1984 3394 
Q 2284 3394 2536 3286 
Q 2788 3178 2913 3003 
Q 3038 2828 3088 2588 
Q 3119 2431 3119 2041 
L 3119 0 
L 2556 0 
L 2556 2019 
Q 2556 2363 2490 2533 
Q 2425 2703 2258 2804 
Q 2091 2906 1866 2906 
Q 1506 2906 1245 2678 
Q 984 2450 984 1813 
L 984 0 
L 422 0 
z
" transform="scale(0.015625)"/>
      <path id="ArialMT-47" d="M 2638 1797 
L 2638 2334 
L 4578 2338 
L 4578 638 
Q 4131 281 3656 101 
Q 3181 -78 2681 -78 
Q 2006 -78 1454 211 
Q 903 500 622 1047 
Q 341 1594 341 2269 
Q 341 2938 620 3517 
Q 900 4097 1425 4378 
Q 1950 4659 2634 4659 
Q 3131 4659 3532 4498 
Q 3934 4338 4162 4050 
Q 4391 3763 4509 3300 
L 3963 3150 
Q 3859 3500 3706 3700 
Q 3553 3900 3268 4020 
Q 2984 4141 2638 4141 
Q 2222 4141 1919 4014 
Q 1616 3888 1430 3681 
Q 1244 3475 1141 3228 
Q 966 2803 966 2306 
Q 966 1694 1177 1281 
Q 1388 869 1791 669 
Q 2194 469 2647 469 
Q 3041 469 3416 620 
Q 3791 772 3984 944 
L 3984 1797 
L 2638 1797 
z
" transform="scale(0.015625)"/>
      <path id="ArialMT-64" d="M 2575 0 
L 2575 419 
Q 2259 -75 1647 -75 
Q 1250 -75 917 144 
Q 584 363 401 755 
Q 219 1147 219 1656 
Q 219 2153 384 2558 
Q 550 2963 881 3178 
Q 1213 3394 1622 3394 
Q 1922 3394 2156 3267 
Q 2391 3141 2538 2938 
L 2538 4581 
L 3097 4581 
L 3097 0 
L 2575 0 
z
M 797 1656 
Q 797 1019 1065 703 
Q 1334 388 1700 388 
Q 2069 388 2326 689 
Q 2584 991 2584 1609 
Q 2584 2291 2321 2609 
Q 2059 2928 1675 2928 
Q 1300 2928 1048 2622 
Q 797 2316 797 1656 
z
" transform="scale(0.015625)"/>
      <path id="ArialMT-50" d="M 494 0 
L 494 4581 
L 2222 4581 
Q 2678 4581 2919 4538 
Q 3256 4481 3484 4323 
Q 3713 4166 3852 3881 
Q 3991 3597 3991 3256 
Q 3991 2672 3619 2267 
Q 3247 1863 2275 1863 
L 1100 1863 
L 1100 0 
L 494 0 
z
M 1100 2403 
L 2284 2403 
Q 2872 2403 3119 2622 
Q 3366 2841 3366 3238 
Q 3366 3525 3220 3729 
Q 3075 3934 2838 4000 
Q 2684 4041 2272 4041 
L 1100 4041 
L 1100 2403 
z
" transform="scale(0.015625)"/>
      <path id="ArialMT-78" d="M 47 0 
L 1259 1725 
L 138 3319 
L 841 3319 
L 1350 2541 
Q 1494 2319 1581 2169 
Q 1719 2375 1834 2534 
L 2394 3319 
L 3066 3319 
L 1919 1756 
L 3153 0 
L 2463 0 
L 1781 1031 
L 1600 1309 
L 728 0 
L 47 0 
z
" transform="scale(0.015625)"/>
      <path id="ArialMT-2d" d="M 203 1375 
L 203 1941 
L 1931 1941 
L 1931 1375 
L 203 1375 
z
" transform="scale(0.015625)"/>
      <path id="ArialMT-53" d="M 288 1472 
L 859 1522 
Q 900 1178 1048 958 
Q 1197 738 1509 602 
Q 1822 466 2213 466 
Q 2559 466 2825 569 
Q 3091 672 3220 851 
Q 3350 1031 3350 1244 
Q 3350 1459 3225 1620 
Q 3100 1781 2813 1891 
Q 2628 1963 1997 2114 
Q 1366 2266 1113 2400 
Q 784 2572 623 2826 
Q 463 3081 463 3397 
Q 463 3744 659 4045 
Q 856 4347 1234 4503 
Q 1613 4659 2075 4659 
Q 2584 4659 2973 4495 
Q 3363 4331 3572 4012 
Q 3781 3694 3797 3291 
L 3216 3247 
Q 3169 3681 2898 3903 
Q 2628 4125 2100 4125 
Q 1550 4125 1298 3923 
Q 1047 3722 1047 3438 
Q 1047 3191 1225 3031 
Q 1400 2872 2139 2705 
Q 2878 2538 3153 2413 
Q 3553 2228 3743 1945 
Q 3934 1663 3934 1294 
Q 3934 928 3725 604 
Q 3516 281 3123 101 
Q 2731 -78 2241 -78 
Q 1619 -78 1198 103 
Q 778 284 539 648 
Q 300 1013 288 1472 
z
" transform="scale(0.015625)"/>
      <path id="ArialMT-6f" d="M 213 1659 
Q 213 2581 725 3025 
Q 1153 3394 1769 3394 
Q 2453 3394 2887 2945 
Q 3322 2497 3322 1706 
Q 3322 1066 3130 698 
Q 2938 331 2570 128 
Q 2203 -75 1769 -75 
Q 1072 -75 642 372 
Q 213 819 213 1659 
z
M 791 1659 
Q 791 1022 1069 705 
Q 1347 388 1769 388 
Q 2188 388 2466 706 
Q 2744 1025 2744 1678 
Q 2744 2294 2464 2611 
Q 2184 2928 1769 2928 
Q 1347 2928 1069 2612 
Q 791 2297 791 1659 
z
" transform="scale(0.015625)"/>
      <path id="ArialMT-74" d="M 1650 503 
L 1731 6 
Q 1494 -44 1306 -44 
Q 1000 -44 831 53 
Q 663 150 594 308 
Q 525 466 525 972 
L 525 2881 
L 113 2881 
L 113 3319 
L 525 3319 
L 525 4141 
L 1084 4478 
L 1084 3319 
L 1650 3319 
L 1650 2881 
L 1084 2881 
L 1084 941 
Q 1084 700 1114 631 
Q 1144 563 1211 522 
Q 1278 481 1403 481 
Q 1497 481 1650 503 
z
" transform="scale(0.015625)"/>
      <path id="ArialMT-52" d="M 503 0 
L 503 4581 
L 2534 4581 
Q 3147 4581 3465 4457 
Q 3784 4334 3975 4021 
Q 4166 3709 4166 3331 
Q 4166 2844 3850 2509 
Q 3534 2175 2875 2084 
Q 3116 1969 3241 1856 
Q 3506 1613 3744 1247 
L 4541 0 
L 3778 0 
L 3172 953 
Q 2906 1366 2734 1584 
Q 2563 1803 2427 1890 
Q 2291 1978 2150 2013 
Q 2047 2034 1813 2034 
L 1109 2034 
L 1109 0 
L 503 0 
z
M 1109 2559 
L 2413 2559 
Q 2828 2559 3062 2645 
Q 3297 2731 3419 2920 
Q 3541 3109 3541 3331 
Q 3541 3656 3305 3865 
Q 3069 4075 2559 4075 
L 1109 4075 
L 1109 2559 
z
" transform="scale(0.015625)"/>
      <path id="ArialMT-63" d="M 2588 1216 
L 3141 1144 
Q 3050 572 2676 248 
Q 2303 -75 1759 -75 
Q 1078 -75 664 370 
Q 250 816 250 1647 
Q 250 2184 428 2587 
Q 606 2991 970 3192 
Q 1334 3394 1763 3394 
Q 2303 3394 2647 3120 
Q 2991 2847 3088 2344 
L 2541 2259 
Q 2463 2594 2264 2762 
Q 2066 2931 1784 2931 
Q 1359 2931 1093 2626 
Q 828 2322 828 1663 
Q 828 994 1084 691 
Q 1341 388 1753 388 
Q 2084 388 2306 591 
Q 2528 794 2588 1216 
z
" transform="scale(0.015625)"/>
     </defs>
     <use xlink:href="#ArialMT-32"/>
     <use xlink:href="#ArialMT-30" x="55.615234"/>
     <use xlink:href="#ArialMT-32" x="111.230469"/>
     <use xlink:href="#ArialMT-33" x="166.845703"/>
     <use xlink:href="#ArialMT-20" x="222.460938"/>
     <use xlink:href="#ArialMT-42" x="250.244141"/>
     <use xlink:href="#ArialMT-61" x="316.943359"/>
     <use xlink:href="#ArialMT-68" x="372.558594"/>
     <use xlink:href="#ArialMT-72" x="428.173828"/>
     <use xlink:href="#ArialMT-61" x="461.474609"/>
     <use xlink:href="#ArialMT-69" x="517.089844"/>
     <use xlink:href="#ArialMT-6e" x="539.306641"/>
     <use xlink:href="#ArialMT-20" x="594.921875"/>
     <use xlink:href="#ArialMT-47" x="622.705078"/>
     <use xlink:href="#ArialMT-72" x="700.488281"/>
     <use xlink:href="#ArialMT-61" x="733.789062"/>
     <use xlink:href="#ArialMT-6e" x="789.404297"/>
     <use xlink:href="#ArialMT-64" x="845.019531"/>
     <use xlink:href="#ArialMT-20" x="900.634766"/>
     <use xlink:href="#ArialMT-50" x="928.417969"/>
     <use xlink:href="#ArialMT-72" x="995.117188"/>
     <use xlink:href="#ArialMT-69" x="1028.417969"/>
     <use xlink:href="#ArialMT-78" x="1050.634766"/>
     <use xlink:href="#ArialMT-20" x="1100.634766"/>
     <use xlink:href="#ArialMT-2d" x="1128.417969"/>
     <use xlink:href="#ArialMT-20" x="1161.71875"/>
     <use xlink:href="#ArialMT-53" x="1189.501953"/>
     <use xlink:href="#ArialMT-6d" x="1256.201172"/>
     <use xlink:href="#ArialMT-6f" x="1339.501953"/>
     <use xlink:href="#ArialMT-6f" x="1395.117188"/>
     <use xlink:href="#ArialMT-74" x="1450.732422"/>
     <use xlink:href="#ArialMT-68" x="1478.515625"/>
     <use xlink:href="#ArialMT-65" x="1534.130859"/>
     <use xlink:href="#ArialMT-64" x="1589.746094"/>
     <use xlink:href="#ArialMT-20" x="1645.361328"/>
     <use xlink:href="#ArialMT-52" x="1673.144531"/>
     <use xlink:href="#ArialMT-61" x="1745.361328"/>
     <use xlink:href="#ArialMT-63" x="1800.976562"/>
     <use xlink:href="#ArialMT-65" x="1850.976562"/>
     <use xlink:href="#ArialMT-70" x="1906.591797"/>
     <use xlink:href="#ArialMT-61" x="1962.207031"/>
     <use xlink:href="#ArialMT-63" x="2017.822266"/>
     <use xlink:href="#ArialMT-65" x="2067.822266"/>
    </g>
   </g>
   <g id="legend_1">
    <g id="text_16">
     <!-- Driver -->
     <g style="fill: #262626" transform="translate(664.522969 39.840562)scale(0.1 -0.1)">
      <defs>
       <path id="ArialMT-44" d="M 494 0 
L 494 4581 
L 2072 4581 
Q 2606 4581 2888 4516 
Q 3281 4425 3559 4188 
Q 3922 3881 4101 3404 
Q 4281 2928 4281 2316 
Q 4281 1794 4159 1391 
Q 4038 988 3847 723 
Q 3656 459 3429 307 
Q 3203 156 2883 78 
Q 2563 0 2147 0 
L 494 0 
z
M 1100 541 
L 2078 541 
Q 2531 541 2789 625 
Q 3047 709 3200 863 
Q 3416 1078 3536 1442 
Q 3656 1806 3656 2325 
Q 3656 3044 3420 3430 
Q 3184 3816 2847 3947 
Q 2603 4041 2063 4041 
L 1100 4041 
L 1100 541 
z
" transform="scale(0.015625)"/>
       <path id="ArialMT-76" d="M 1344 0 
L 81 3319 
L 675 3319 
L 1388 1331 
Q 1503 1009 1600 663 
Q 1675 925 1809 1294 
L 2547 3319 
L 3125 3319 
L 1869 0 
L 1344 0 
z
" transform="scale(0.015625)"/>
      </defs>
      <use xlink:href="#ArialMT-44"/>
      <use xlink:href="#ArialMT-72" x="72.216797"/>
      <use xlink:href="#ArialMT-69" x="105.517578"/>
      <use xlink:href="#ArialMT-76" x="127.734375"/>
      <use xlink:href="#ArialMT-65" x="177.734375"/>
      <use xlink:href="#ArialMT-72" x="233.349609"/>
     </g>
    </g>
    <g id="line2d_65">
     <path d="M 652.465937 50.485875 
L 662.465937 50.485875 
L 672.465937 50.485875 
" style="fill: none; stroke: #0600ef; stroke-width: 2; stroke-linecap: round"/>
    </g>
    <g id="text_17">
     <!-- VER -->
     <g style="fill: #262626" transform="translate(680.465937 53.985875)scale(0.1 -0.1)">
      <defs>
       <path id="ArialMT-56" d="M 1803 0 
L 28 4581 
L 684 4581 
L 1875 1253 
Q 2019 853 2116 503 
Q 2222 878 2363 1253 
L 3600 4581 
L 4219 4581 
L 2425 0 
L 1803 0 
z
" transform="scale(0.015625)"/>
       <path id="ArialMT-45" d="M 506 0 
L 506 4581 
L 3819 4581 
L 3819 4041 
L 1113 4041 
L 1113 2638 
L 3647 2638 
L 3647 2100 
L 1113 2100 
L 1113 541 
L 3925 541 
L 3925 0 
L 506 0 
z
" transform="scale(0.015625)"/>
      </defs>
      <use xlink:href="#ArialMT-56"/>
      <use xlink:href="#ArialMT-45" x="66.699219"/>
      <use xlink:href="#ArialMT-52" x="133.398438"/>
     </g>
    </g>
    <g id="line2d_66">
     <path d="M 652.465937 64.631187 
L 662.465937 64.631187 
L 672.465937 64.631187 
" style="fill: none; stroke: #0600ef; stroke-width: 2; stroke-linecap: round"/>
    </g>
    <g id="text_18">
     <!-- PER -->
     <g style="fill: #262626" transform="translate(680.465937 68.131187)scale(0.1 -0.1)">
      <use xlink:href="#ArialMT-50"/>
      <use xlink:href="#ArialMT-45" x="66.699219"/>
      <use xlink:href="#ArialMT-52" x="133.398438"/>
     </g>
    </g>
    <g id="line2d_67">
     <path d="M 652.465937 78.7765 
L 662.465937 78.7765 
L 672.465937 78.7765 
" style="fill: none; stroke: #006f62; stroke-width: 2; stroke-linecap: round"/>
    </g>
    <g id="text_19">
     <!-- ALO -->
     <g style="fill: #262626" transform="translate(680.465937 82.2765)scale(0.1 -0.1)">
      <defs>
       <path id="ArialMT-41" d="M -9 0 
L 1750 4581 
L 2403 4581 
L 4278 0 
L 3588 0 
L 3053 1388 
L 1138 1388 
L 634 0 
L -9 0 
z
M 1313 1881 
L 2866 1881 
L 2388 3150 
Q 2169 3728 2063 4100 
Q 1975 3659 1816 3225 
L 1313 1881 
z
" transform="scale(0.015625)"/>
       <path id="ArialMT-4f" d="M 309 2231 
Q 309 3372 921 4017 
Q 1534 4663 2503 4663 
Q 3138 4663 3647 4359 
Q 4156 4056 4423 3514 
Q 4691 2972 4691 2284 
Q 4691 1588 4409 1038 
Q 4128 488 3612 205 
Q 3097 -78 2500 -78 
Q 1853 -78 1343 234 
Q 834 547 571 1087 
Q 309 1628 309 2231 
z
M 934 2222 
Q 934 1394 1379 917 
Q 1825 441 2497 441 
Q 3181 441 3623 922 
Q 4066 1403 4066 2288 
Q 4066 2847 3877 3264 
Q 3688 3681 3323 3911 
Q 2959 4141 2506 4141 
Q 1863 4141 1398 3698 
Q 934 3256 934 2222 
z
" transform="scale(0.015625)"/>
      </defs>
      <use xlink:href="#ArialMT-41"/>
      <use xlink:href="#ArialMT-4c" x="66.699219"/>
      <use xlink:href="#ArialMT-4f" x="122.314453"/>
     </g>
    </g>
    <g id="line2d_68">
     <path d="M 652.465937 92.921812 
L 662.465937 92.921812 
L 672.465937 92.921812 
" style="fill: none; stroke: #dc0000; stroke-width: 2; stroke-linecap: round"/>
    </g>
    <g id="text_20">
     <!-- SAI -->
     <g style="fill: #262626" transform="translate(680.465937 96.421812)scale(0.1 -0.1)">
      <defs>
       <path id="ArialMT-49" d="M 597 0 
L 597 4581 
L 1203 4581 
L 1203 0 
L 597 0 
z
" transform="scale(0.015625)"/>
      </defs>
      <use xlink:href="#ArialMT-53"/>
      <use xlink:href="#ArialMT-41" x="66.699219"/>
      <use xlink:href="#ArialMT-49" x="133.398438"/>
     </g>
    </g>
    <g id="line2d_69">
     <path d="M 652.465937 107.067125 
L 662.465937 107.067125 
L 672.465937 107.067125 
" style="fill: none; stroke: #00d2be; stroke-width: 2; stroke-linecap: round"/>
    </g>
    <g id="text_21">
     <!-- HAM -->
     <g style="fill: #262626" transform="translate(680.465937 110.567125)scale(0.1 -0.1)">
      <defs>
       <path id="ArialMT-48" d="M 513 0 
L 513 4581 
L 1119 4581 
L 1119 2700 
L 3500 2700 
L 3500 4581 
L 4106 4581 
L 4106 0 
L 3500 0 
L 3500 2159 
L 1119 2159 
L 1119 0 
L 513 0 
z
" transform="scale(0.015625)"/>
       <path id="ArialMT-4d" d="M 475 0 
L 475 4581 
L 1388 4581 
L 2472 1338 
Q 2622 884 2691 659 
Q 2769 909 2934 1394 
L 4031 4581 
L 4847 4581 
L 4847 0 
L 4263 0 
L 4263 3834 
L 2931 0 
L 2384 0 
L 1059 3900 
L 1059 0 
L 475 0 
z
" transform="scale(0.015625)"/>
      </defs>
      <use xlink:href="#ArialMT-48"/>
      <use xlink:href="#ArialMT-41" x="72.216797"/>
      <use xlink:href="#ArialMT-4d" x="138.916016"/>
     </g>
    </g>
    <g id="line2d_70">
     <path d="M 652.465937 121.212437 
L 662.465937 121.212437 
L 672.465937 121.212437 
" style="fill: none; stroke: #006f62; stroke-width: 2; stroke-linecap: round"/>
    </g>
    <g id="text_22">
     <!-- STR -->
     <g style="fill: #262626" transform="translate(680.465937 124.712437)scale(0.1 -0.1)">
      <use xlink:href="#ArialMT-53"/>
      <use xlink:href="#ArialMT-54" x="66.699219"/>
      <use xlink:href="#ArialMT-52" x="127.783203"/>
     </g>
    </g>
    <g id="line2d_71">
     <path d="M 652.465937 135.35775 
L 662.465937 135.35775 
L 672.465937 135.35775 
" style="fill: none; stroke: #00d2be; stroke-width: 2; stroke-linecap: round"/>
    </g>
    <g id="text_23">
     <!-- RUS -->
     <g style="fill: #262626" transform="translate(680.465937 138.85775)scale(0.1 -0.1)">
      <defs>
       <path id="ArialMT-55" d="M 3500 4581 
L 4106 4581 
L 4106 1934 
Q 4106 1244 3950 837 
Q 3794 431 3386 176 
Q 2978 -78 2316 -78 
Q 1672 -78 1262 144 
Q 853 366 678 786 
Q 503 1206 503 1934 
L 503 4581 
L 1109 4581 
L 1109 1938 
Q 1109 1341 1220 1058 
Q 1331 775 1601 622 
Q 1872 469 2263 469 
Q 2931 469 3215 772 
Q 3500 1075 3500 1938 
L 3500 4581 
z
" transform="scale(0.015625)"/>
      </defs>
      <use xlink:href="#ArialMT-52"/>
      <use xlink:href="#ArialMT-55" x="72.216797"/>
      <use xlink:href="#ArialMT-53" x="144.433594"/>
     </g>
    </g>
    <g id="line2d_72">
     <path d="M 652.465937 149.503062 
L 662.465937 149.503062 
L 672.465937 149.503062 
" style="fill: none; stroke: #900000; stroke-width: 2; stroke-linecap: round"/>
    </g>
    <g id="text_24">
     <!-- BOT -->
     <g style="fill: #262626" transform="translate(680.465937 153.003062)scale(0.1 -0.1)">
      <use xlink:href="#ArialMT-42"/>
      <use xlink:href="#ArialMT-4f" x="66.699219"/>
      <use xlink:href="#ArialMT-54" x="144.482422"/>
     </g>
    </g>
    <g id="line2d_73">
     <path d="M 652.465937 163.648375 
L 662.465937 163.648375 
L 672.465937 163.648375 
" style="fill: none; stroke: #0090ff; stroke-width: 2; stroke-linecap: round"/>
    </g>
    <g id="text_25">
     <!-- GAS -->
     <g style="fill: #262626" transform="translate(680.465937 167.148375)scale(0.1 -0.1)">
      <use xlink:href="#ArialMT-47"/>
      <use xlink:href="#ArialMT-41" x="77.783203"/>
      <use xlink:href="#ArialMT-53" x="144.482422"/>
     </g>
    </g>
    <g id="line2d_74">
     <path d="M 652.465937 177.793687 
L 662.465937 177.793687 
L 672.465937 177.793687 
" style="fill: none; stroke: #005aff; stroke-width: 2; stroke-linecap: round"/>
    </g>
    <g id="text_26">
     <!-- ALB -->
     <g style="fill: #262626" transform="translate(680.465937 181.293687)scale(0.1 -0.1)">
      <use xlink:href="#ArialMT-41"/>
      <use xlink:href="#ArialMT-4c" x="66.699219"/>
      <use xlink:href="#ArialMT-42" x="122.314453"/>
     </g>
    </g>
    <g id="line2d_75">
     <path d="M 652.465937 191.939 
L 662.465937 191.939 
L 672.465937 191.939 
" style="fill: none; stroke: #2b4562; stroke-width: 2; stroke-linecap: round"/>
    </g>
    <g id="text_27">
     <!-- TSU -->
     <g style="fill: #262626" transform="translate(680.465937 195.439)scale(0.1 -0.1)">
      <use xlink:href="#ArialMT-54"/>
      <use xlink:href="#ArialMT-53" x="61.083984"/>
      <use xlink:href="#ArialMT-55" x="127.783203"/>
     </g>
    </g>
    <g id="line2d_76">
     <path d="M 652.465937 206.084312 
L 662.465937 206.084312 
L 672.465937 206.084312 
" style="fill: none; stroke: #005aff; stroke-width: 2; stroke-linecap: round"/>
    </g>
    <g id="text_28">
     <!-- SAR -->
     <g style="fill: #262626" transform="translate(680.465937 209.584312)scale(0.1 -0.1)">
      <use xlink:href="#ArialMT-53"/>
      <use xlink:href="#ArialMT-41" x="66.699219"/>
      <use xlink:href="#ArialMT-52" x="133.398438"/>
     </g>
    </g>
    <g id="line2d_77">
     <path d="M 652.465937 220.229625 
L 662.465937 220.229625 
L 672.465937 220.229625 
" style="fill: none; stroke: #ffffff; stroke-width: 2; stroke-linecap: round"/>
    </g>
    <g id="text_29">
     <!-- MAG -->
     <g style="fill: #262626" transform="translate(680.465937 223.729625)scale(0.1 -0.1)">
      <use xlink:href="#ArialMT-4d"/>
      <use xlink:href="#ArialMT-41" x="83.300781"/>
      <use xlink:href="#ArialMT-47" x="150"/>
     </g>
    </g>
    <g id="line2d_78">
     <path d="M 652.465937 234.374937 
L 662.465937 234.374937 
L 672.465937 234.374937 
" style="fill: none; stroke: #2b4562; stroke-width: 2; stroke-linecap: round"/>
    </g>
    <g id="text_30">
     <!-- DEV -->
     <g style="fill: #262626" transform="translate(680.465937 237.874937)scale(0.1 -0.1)">
      <use xlink:href="#ArialMT-44"/>
      <use xlink:href="#ArialMT-45" x="72.216797"/>
      <use xlink:href="#ArialMT-56" x="138.916016"/>
     </g>
    </g>
    <g id="line2d_79">
     <path d="M 652.465937 248.52025 
L 662.465937 248.52025 
L 672.465937 248.52025 
" style="fill: none; stroke: #ffffff; stroke-width: 2; stroke-linecap: round"/>
    </g>
    <g id="text_31">
     <!-- HUL -->
     <g style="fill: #262626" transform="translate(680.465937 252.02025)scale(0.1 -0.1)">
      <use xlink:href="#ArialMT-48"/>
      <use xlink:href="#ArialMT-55" x="72.216797"/>
      <use xlink:href="#ArialMT-4c" x="144.433594"/>
     </g>
    </g>
    <g id="line2d_80">
     <path d="M 652.465937 262.665562 
L 662.465937 262.665562 
L 672.465937 262.665562 
" style="fill: none; stroke: #900000; stroke-width: 2; stroke-linecap: round"/>
    </g>
    <g id="text_32">
     <!-- ZHO -->
     <g style="fill: #262626" transform="translate(680.465937 266.165562)scale(0.1 -0.1)">
      <defs>
       <path id="ArialMT-5a" d="M 128 0 
L 128 563 
L 2475 3497 
Q 2725 3809 2950 4041 
L 394 4041 
L 394 4581 
L 3675 4581 
L 3675 4041 
L 1103 863 
L 825 541 
L 3750 541 
L 3750 0 
L 128 0 
z
" transform="scale(0.015625)"/>
      </defs>
      <use xlink:href="#ArialMT-5a"/>
      <use xlink:href="#ArialMT-48" x="61.083984"/>
      <use xlink:href="#ArialMT-4f" x="133.300781"/>
     </g>
    </g>
    <g id="line2d_81">
     <path d="M 652.465937 276.810875 
L 662.465937 276.810875 
L 672.465937 276.810875 
" style="fill: none; stroke: #ff8700; stroke-width: 2; stroke-linecap: round"/>
    </g>
    <g id="text_33">
     <!-- NOR -->
     <g style="fill: #262626" transform="translate(680.465937 280.310875)scale(0.1 -0.1)">
      <use xlink:href="#ArialMT-4e"/>
      <use xlink:href="#ArialMT-4f" x="72.216797"/>
      <use xlink:href="#ArialMT-52" x="150"/>
     </g>
    </g>
    <g id="line2d_82">
     <path d="M 652.465937 290.956187 
L 662.465937 290.956187 
L 672.465937 290.956187 
" style="fill: none; stroke: #0090ff; stroke-width: 2; stroke-linecap: round"/>
    </g>
    <g id="text_34">
     <!-- OCO -->
     <g style="fill: #262626" transform="translate(680.465937 294.456187)scale(0.1 -0.1)">
      <defs>
       <path id="ArialMT-43" d="M 3763 1606 
L 4369 1453 
Q 4178 706 3683 314 
Q 3188 -78 2472 -78 
Q 1731 -78 1267 223 
Q 803 525 561 1097 
Q 319 1669 319 2325 
Q 319 3041 592 3573 
Q 866 4106 1370 4382 
Q 1875 4659 2481 4659 
Q 3169 4659 3637 4309 
Q 4106 3959 4291 3325 
L 3694 3184 
Q 3534 3684 3231 3912 
Q 2928 4141 2469 4141 
Q 1941 4141 1586 3887 
Q 1231 3634 1087 3207 
Q 944 2781 944 2328 
Q 944 1744 1114 1308 
Q 1284 872 1643 656 
Q 2003 441 2422 441 
Q 2931 441 3284 734 
Q 3638 1028 3763 1606 
z
" transform="scale(0.015625)"/>
      </defs>
      <use xlink:href="#ArialMT-4f"/>
      <use xlink:href="#ArialMT-43" x="77.783203"/>
      <use xlink:href="#ArialMT-4f" x="150"/>
     </g>
    </g>
    <g id="line2d_83">
     <path d="M 652.465937 305.1015 
L 662.465937 305.1015 
L 672.465937 305.1015 
" style="fill: none; stroke: #dc0000; stroke-width: 2; stroke-linecap: round"/>
    </g>
    <g id="text_35">
     <!-- LEC -->
     <g style="fill: #262626" transform="translate(680.465937 308.6015)scale(0.1 -0.1)">
      <use xlink:href="#ArialMT-4c"/>
      <use xlink:href="#ArialMT-45" x="55.615234"/>
      <use xlink:href="#ArialMT-43" x="122.314453"/>
     </g>
    </g>
    <g id="line2d_84">
     <path d="M 652.465937 319.246812 
L 662.465937 319.246812 
L 672.465937 319.246812 
" style="fill: none; stroke: #ff8700; stroke-width: 2; stroke-linecap: round"/>
    </g>
    <g id="text_36">
     <!-- PIA -->
     <g style="fill: #262626" transform="translate(680.465937 322.746812)scale(0.1 -0.1)">
      <use xlink:href="#ArialMT-50"/>
      <use xlink:href="#ArialMT-49" x="66.699219"/>
      <use xlink:href="#ArialMT-41" x="94.482422"/>
     </g>
    </g>
   </g>
  </g>
  <g id="text_37">
   <!--  2022 Yoann Betton -->
   <g style="fill: #262626" transform="translate(319.302656 398.760562)scale(0.1 -0.1)">
    <defs>
     <path id="ArialMT-a9" d="M 2369 4659 
Q 2963 4659 3528 4354 
Q 4094 4050 4409 3483 
Q 4725 2916 4725 2300 
Q 4725 1691 4414 1128 
Q 4103 566 3542 255 
Q 2981 -56 2369 -56 
Q 1756 -56 1195 255 
Q 634 566 321 1128 
Q 9 1691 9 2300 
Q 9 2916 326 3483 
Q 644 4050 1209 4354 
Q 1775 4659 2369 4659 
z
M 2369 4269 
Q 1872 4269 1401 4014 
Q 931 3759 665 3286 
Q 400 2813 400 2300 
Q 400 1791 661 1323 
Q 922 856 1390 595 
Q 1859 334 2369 334 
Q 2878 334 3347 595 
Q 3816 856 4075 1323 
Q 4334 1791 4334 2300 
Q 4334 2813 4070 3286 
Q 3806 3759 3334 4014 
Q 2863 4269 2369 4269 
z
M 3125 1919 
L 3509 1806 
Q 3416 1416 3111 1183 
Q 2806 950 2372 950 
Q 1822 950 1478 1306 
Q 1134 1663 1134 2294 
Q 1134 2706 1290 3011 
Q 1447 3316 1736 3470 
Q 2025 3625 2397 3625 
Q 2813 3625 3088 3426 
Q 3363 3228 3463 2888 
L 3091 2797 
Q 2997 3028 2814 3151 
Q 2631 3275 2384 3275 
Q 2025 3275 1792 3019 
Q 1559 2763 1559 2284 
Q 1559 1806 1779 1561 
Q 2000 1316 2350 1316 
Q 2631 1316 2843 1478 
Q 3056 1641 3125 1919 
z
" transform="scale(0.015625)"/>
     <path id="ArialMT-59" d="M 1784 0 
L 1784 1941 
L 19 4581 
L 756 4581 
L 1659 3200 
Q 1909 2813 2125 2425 
Q 2331 2784 2625 3234 
L 3513 4581 
L 4219 4581 
L 2391 1941 
L 2391 0 
L 1784 0 
z
" transform="scale(0.015625)"/>
    </defs>
    <use xlink:href="#ArialMT-a9"/>
    <use xlink:href="#ArialMT-20" x="73.681641"/>
    <use xlink:href="#ArialMT-32" x="101.464844"/>
    <use xlink:href="#ArialMT-30" x="157.080078"/>
    <use xlink:href="#ArialMT-32" x="212.695312"/>
    <use xlink:href="#ArialMT-32" x="268.310547"/>
    <use xlink:href="#ArialMT-20" x="323.925781"/>
    <use xlink:href="#ArialMT-59" x="349.958984"/>
    <use xlink:href="#ArialMT-6f" x="407.533203"/>
    <use xlink:href="#ArialMT-61" x="463.148438"/>
    <use xlink:href="#ArialMT-6e" x="518.763672"/>
    <use xlink:href="#ArialMT-6e" x="574.378906"/>
    <use xlink:href="#ArialMT-20" x="629.994141"/>
    <use xlink:href="#ArialMT-42" x="657.777344"/>
    <use xlink:href="#ArialMT-65" x="724.476562"/>
    <use xlink:href="#ArialMT-74" x="780.091797"/>
    <use xlink:href="#ArialMT-74" x="807.875"/>
    <use xlink:href="#ArialMT-6f" x="835.658203"/>
    <use xlink:href="#ArialMT-6e" x="891.273438"/>
   </g>
  </g>
 </g>
 <defs>
  <clipPath id="pa98928bff6">
   <rect x="42.644063" y="23.68275" width="669.6" height="388.08"/>
  </clipPath>
 </defs>
</svg>
