<?xml version="1.0" encoding="utf-8" standalone="no"?>
<!DOCTYPE svg PUBLIC "-//W3C//DTD SVG 1.1//EN"
  "http://www.w3.org/Graphics/SVG/1.1/DTD/svg11.dtd">
<svg xmlns:xlink="http://www.w3.org/1999/xlink" width="719.444062pt" height="446.582437pt" viewBox="0 0 719.444062 446.582437" xmlns="http://www.w3.org/2000/svg" version="1.1">
 <metadata>
  <rdf:RDF xmlns:dc="http://purl.org/dc/elements/1.1/" xmlns:cc="http://creativecommons.org/ns#" xmlns:rdf="http://www.w3.org/1999/02/22-rdf-syntax-ns#">
   <cc:Work>
    <dc:type rdf:resource="http://purl.org/dc/dcmitype/StillImage"/>
    <dc:date>2022-11-06T13:37:02.635549</dc:date>
    <dc:format>image/svg+xml</dc:format>
    <dc:creator>
     <cc:Agent>
      <dc:title>Matplotlib v3.5.2, https://matplotlib.org/</dc:title>
     </cc:Agent>
    </dc:creator>
   </cc:Work>
  </rdf:RDF>
 </metadata>
 <defs>
  <style type="text/css">*{stroke-linejoin: round; stroke-linecap: butt}</style>
 </defs>
 <g id="figure_1">
  <g id="patch_1">
   <path d="M 0 446.582437 
L 719.444062 446.582437 
L 719.444062 0 
L 0 0 
z
" style="fill: #ffffff"/>
  </g>
  <g id="axes_1">
   <g id="patch_2">
    <path d="M 42.644063 411.76275 
L 712.244063 411.76275 
L 712.244063 23.68275 
L 42.644063 23.68275 
z
" style="fill: #eeeeee"/>
   </g>
   <g id="matplotlib.axis_1">
    <g id="xtick_1">
     <g id="line2d_1">
      <path d="M 50.534972 411.76275 
L 50.534972 23.68275 
" clip-path="url(#p7effaa355f)" style="fill: none; stroke-dasharray: 1.85,0.8; stroke-dashoffset: 0; stroke: #b2b2b2; stroke-width: 0.5"/>
     </g>
     <g id="line2d_2"/>
     <g id="text_1">
      <!-- 0 -->
      <g style="fill: #555555" transform="translate(47.754503 422.420562)scale(0.1 -0.1)">
       <defs>
        <path id="ArialMT-30" d="M 266 2259 
Q 266 3072 433 3567 
Q 600 4063 929 4331 
Q 1259 4600 1759 4600 
Q 2128 4600 2406 4451 
Q 2684 4303 2865 4023 
Q 3047 3744 3150 3342 
Q 3253 2941 3253 2259 
Q 3253 1453 3087 958 
Q 2922 463 2592 192 
Q 2263 -78 1759 -78 
Q 1097 -78 719 397 
Q 266 969 266 2259 
z
M 844 2259 
Q 844 1131 1108 757 
Q 1372 384 1759 384 
Q 2147 384 2411 759 
Q 2675 1134 2675 2259 
Q 2675 3391 2411 3762 
Q 2147 4134 1753 4134 
Q 1366 4134 1134 3806 
Q 844 3388 844 2259 
z
" transform="scale(0.015625)"/>
       </defs>
       <use xlink:href="#ArialMT-30"/>
      </g>
     </g>
    </g>
    <g id="xtick_2">
     <g id="line2d_3">
      <path d="M 163.262244 411.76275 
L 163.262244 23.68275 
" clip-path="url(#p7effaa355f)" style="fill: none; stroke-dasharray: 1.85,0.8; stroke-dashoffset: 0; stroke: #b2b2b2; stroke-width: 0.5"/>
     </g>
     <g id="line2d_4"/>
     <g id="text_2">
      <!-- 10 -->
      <g style="fill: #555555" transform="translate(157.701307 422.420562)scale(0.1 -0.1)">
       <defs>
        <path id="ArialMT-31" d="M 2384 0 
L 1822 0 
L 1822 3584 
Q 1619 3391 1289 3197 
Q 959 3003 697 2906 
L 697 3450 
Q 1169 3672 1522 3987 
Q 1875 4303 2022 4600 
L 2384 4600 
L 2384 0 
z
" transform="scale(0.015625)"/>
       </defs>
       <use xlink:href="#ArialMT-31"/>
       <use xlink:href="#ArialMT-30" x="55.615234"/>
      </g>
     </g>
    </g>
    <g id="xtick_3">
     <g id="line2d_5">
      <path d="M 275.989517 411.76275 
L 275.989517 23.68275 
" clip-path="url(#p7effaa355f)" style="fill: none; stroke-dasharray: 1.85,0.8; stroke-dashoffset: 0; stroke: #b2b2b2; stroke-width: 0.5"/>
     </g>
     <g id="line2d_6"/>
     <g id="text_3">
      <!-- 20 -->
      <g style="fill: #555555" transform="translate(270.42858 422.420562)scale(0.1 -0.1)">
       <defs>
        <path id="ArialMT-32" d="M 3222 541 
L 3222 0 
L 194 0 
Q 188 203 259 391 
Q 375 700 629 1000 
Q 884 1300 1366 1694 
Q 2113 2306 2375 2664 
Q 2638 3022 2638 3341 
Q 2638 3675 2398 3904 
Q 2159 4134 1775 4134 
Q 1369 4134 1125 3890 
Q 881 3647 878 3216 
L 300 3275 
Q 359 3922 746 4261 
Q 1134 4600 1788 4600 
Q 2447 4600 2831 4234 
Q 3216 3869 3216 3328 
Q 3216 3053 3103 2787 
Q 2991 2522 2730 2228 
Q 2469 1934 1863 1422 
Q 1356 997 1212 845 
Q 1069 694 975 541 
L 3222 541 
z
" transform="scale(0.015625)"/>
       </defs>
       <use xlink:href="#ArialMT-32"/>
       <use xlink:href="#ArialMT-30" x="55.615234"/>
      </g>
     </g>
    </g>
    <g id="xtick_4">
     <g id="line2d_7">
      <path d="M 388.71679 411.76275 
L 388.71679 23.68275 
" clip-path="url(#p7effaa355f)" style="fill: none; stroke-dasharray: 1.85,0.8; stroke-dashoffset: 0; stroke: #b2b2b2; stroke-width: 0.5"/>
     </g>
     <g id="line2d_8"/>
     <g id="text_4">
      <!-- 30 -->
      <g style="fill: #555555" transform="translate(383.155852 422.420562)scale(0.1 -0.1)">
       <defs>
        <path id="ArialMT-33" d="M 269 1209 
L 831 1284 
Q 928 806 1161 595 
Q 1394 384 1728 384 
Q 2125 384 2398 659 
Q 2672 934 2672 1341 
Q 2672 1728 2419 1979 
Q 2166 2231 1775 2231 
Q 1616 2231 1378 2169 
L 1441 2663 
Q 1497 2656 1531 2656 
Q 1891 2656 2178 2843 
Q 2466 3031 2466 3422 
Q 2466 3731 2256 3934 
Q 2047 4138 1716 4138 
Q 1388 4138 1169 3931 
Q 950 3725 888 3313 
L 325 3413 
Q 428 3978 793 4289 
Q 1159 4600 1703 4600 
Q 2078 4600 2393 4439 
Q 2709 4278 2876 4000 
Q 3044 3722 3044 3409 
Q 3044 3113 2884 2869 
Q 2725 2625 2413 2481 
Q 2819 2388 3044 2092 
Q 3269 1797 3269 1353 
Q 3269 753 2831 336 
Q 2394 -81 1725 -81 
Q 1122 -81 723 278 
Q 325 638 269 1209 
z
" transform="scale(0.015625)"/>
       </defs>
       <use xlink:href="#ArialMT-33"/>
       <use xlink:href="#ArialMT-30" x="55.615234"/>
      </g>
     </g>
    </g>
    <g id="xtick_5">
     <g id="line2d_9">
      <path d="M 501.444063 411.76275 
L 501.444063 23.68275 
" clip-path="url(#p7effaa355f)" style="fill: none; stroke-dasharray: 1.85,0.8; stroke-dashoffset: 0; stroke: #b2b2b2; stroke-width: 0.5"/>
     </g>
     <g id="line2d_10"/>
     <g id="text_5">
      <!-- 40 -->
      <g style="fill: #555555" transform="translate(495.883125 422.420562)scale(0.1 -0.1)">
       <defs>
        <path id="ArialMT-34" d="M 2069 0 
L 2069 1097 
L 81 1097 
L 81 1613 
L 2172 4581 
L 2631 4581 
L 2631 1613 
L 3250 1613 
L 3250 1097 
L 2631 1097 
L 2631 0 
L 2069 0 
z
M 2069 1613 
L 2069 3678 
L 634 1613 
L 2069 1613 
z
" transform="scale(0.015625)"/>
       </defs>
       <use xlink:href="#ArialMT-34"/>
       <use xlink:href="#ArialMT-30" x="55.615234"/>
      </g>
     </g>
    </g>
    <g id="xtick_6">
     <g id="line2d_11">
      <path d="M 614.171335 411.76275 
L 614.171335 23.68275 
" clip-path="url(#p7effaa355f)" style="fill: none; stroke-dasharray: 1.85,0.8; stroke-dashoffset: 0; stroke: #b2b2b2; stroke-width: 0.5"/>
     </g>
     <g id="line2d_12"/>
     <g id="text_6">
      <!-- 50 -->
      <g style="fill: #555555" transform="translate(608.610398 422.420562)scale(0.1 -0.1)">
       <defs>
        <path id="ArialMT-35" d="M 266 1200 
L 856 1250 
Q 922 819 1161 601 
Q 1400 384 1738 384 
Q 2144 384 2425 690 
Q 2706 997 2706 1503 
Q 2706 1984 2436 2262 
Q 2166 2541 1728 2541 
Q 1456 2541 1237 2417 
Q 1019 2294 894 2097 
L 366 2166 
L 809 4519 
L 3088 4519 
L 3088 3981 
L 1259 3981 
L 1013 2750 
Q 1425 3038 1878 3038 
Q 2478 3038 2890 2622 
Q 3303 2206 3303 1553 
Q 3303 931 2941 478 
Q 2500 -78 1738 -78 
Q 1113 -78 717 272 
Q 322 622 266 1200 
z
" transform="scale(0.015625)"/>
       </defs>
       <use xlink:href="#ArialMT-35"/>
       <use xlink:href="#ArialMT-30" x="55.615234"/>
      </g>
     </g>
    </g>
    <g id="text_7">
     <!-- LapNumber -->
     <g style="fill: #555555" transform="translate(346.095938 436.997437)scale(0.12 -0.12)">
      <defs>
       <path id="ArialMT-4c" d="M 469 0 
L 469 4581 
L 1075 4581 
L 1075 541 
L 3331 541 
L 3331 0 
L 469 0 
z
" transform="scale(0.015625)"/>
       <path id="ArialMT-61" d="M 2588 409 
Q 2275 144 1986 34 
Q 1697 -75 1366 -75 
Q 819 -75 525 192 
Q 231 459 231 875 
Q 231 1119 342 1320 
Q 453 1522 633 1644 
Q 813 1766 1038 1828 
Q 1203 1872 1538 1913 
Q 2219 1994 2541 2106 
Q 2544 2222 2544 2253 
Q 2544 2597 2384 2738 
Q 2169 2928 1744 2928 
Q 1347 2928 1158 2789 
Q 969 2650 878 2297 
L 328 2372 
Q 403 2725 575 2942 
Q 747 3159 1072 3276 
Q 1397 3394 1825 3394 
Q 2250 3394 2515 3294 
Q 2781 3194 2906 3042 
Q 3031 2891 3081 2659 
Q 3109 2516 3109 2141 
L 3109 1391 
Q 3109 606 3145 398 
Q 3181 191 3288 0 
L 2700 0 
Q 2613 175 2588 409 
z
M 2541 1666 
Q 2234 1541 1622 1453 
Q 1275 1403 1131 1340 
Q 988 1278 909 1158 
Q 831 1038 831 891 
Q 831 666 1001 516 
Q 1172 366 1500 366 
Q 1825 366 2078 508 
Q 2331 650 2450 897 
Q 2541 1088 2541 1459 
L 2541 1666 
z
" transform="scale(0.015625)"/>
       <path id="ArialMT-70" d="M 422 -1272 
L 422 3319 
L 934 3319 
L 934 2888 
Q 1116 3141 1344 3267 
Q 1572 3394 1897 3394 
Q 2322 3394 2647 3175 
Q 2972 2956 3137 2557 
Q 3303 2159 3303 1684 
Q 3303 1175 3120 767 
Q 2938 359 2589 142 
Q 2241 -75 1856 -75 
Q 1575 -75 1351 44 
Q 1128 163 984 344 
L 984 -1272 
L 422 -1272 
z
M 931 1641 
Q 931 1000 1190 694 
Q 1450 388 1819 388 
Q 2194 388 2461 705 
Q 2728 1022 2728 1688 
Q 2728 2322 2467 2637 
Q 2206 2953 1844 2953 
Q 1484 2953 1207 2617 
Q 931 2281 931 1641 
z
" transform="scale(0.015625)"/>
       <path id="ArialMT-4e" d="M 488 0 
L 488 4581 
L 1109 4581 
L 3516 984 
L 3516 4581 
L 4097 4581 
L 4097 0 
L 3475 0 
L 1069 3600 
L 1069 0 
L 488 0 
z
" transform="scale(0.015625)"/>
       <path id="ArialMT-75" d="M 2597 0 
L 2597 488 
Q 2209 -75 1544 -75 
Q 1250 -75 995 37 
Q 741 150 617 320 
Q 494 491 444 738 
Q 409 903 409 1263 
L 409 3319 
L 972 3319 
L 972 1478 
Q 972 1038 1006 884 
Q 1059 663 1231 536 
Q 1403 409 1656 409 
Q 1909 409 2131 539 
Q 2353 669 2445 892 
Q 2538 1116 2538 1541 
L 2538 3319 
L 3100 3319 
L 3100 0 
L 2597 0 
z
" transform="scale(0.015625)"/>
       <path id="ArialMT-6d" d="M 422 0 
L 422 3319 
L 925 3319 
L 925 2853 
Q 1081 3097 1340 3245 
Q 1600 3394 1931 3394 
Q 2300 3394 2536 3241 
Q 2772 3088 2869 2813 
Q 3263 3394 3894 3394 
Q 4388 3394 4653 3120 
Q 4919 2847 4919 2278 
L 4919 0 
L 4359 0 
L 4359 2091 
Q 4359 2428 4304 2576 
Q 4250 2725 4106 2815 
Q 3963 2906 3769 2906 
Q 3419 2906 3187 2673 
Q 2956 2441 2956 1928 
L 2956 0 
L 2394 0 
L 2394 2156 
Q 2394 2531 2256 2718 
Q 2119 2906 1806 2906 
Q 1569 2906 1367 2781 
Q 1166 2656 1075 2415 
Q 984 2175 984 1722 
L 984 0 
L 422 0 
z
" transform="scale(0.015625)"/>
       <path id="ArialMT-62" d="M 941 0 
L 419 0 
L 419 4581 
L 981 4581 
L 981 2947 
Q 1338 3394 1891 3394 
Q 2197 3394 2470 3270 
Q 2744 3147 2920 2923 
Q 3097 2700 3197 2384 
Q 3297 2069 3297 1709 
Q 3297 856 2875 390 
Q 2453 -75 1863 -75 
Q 1275 -75 941 416 
L 941 0 
z
M 934 1684 
Q 934 1088 1097 822 
Q 1363 388 1816 388 
Q 2184 388 2453 708 
Q 2722 1028 2722 1663 
Q 2722 2313 2464 2622 
Q 2206 2931 1841 2931 
Q 1472 2931 1203 2611 
Q 934 2291 934 1684 
z
" transform="scale(0.015625)"/>
       <path id="ArialMT-65" d="M 2694 1069 
L 3275 997 
Q 3138 488 2766 206 
Q 2394 -75 1816 -75 
Q 1088 -75 661 373 
Q 234 822 234 1631 
Q 234 2469 665 2931 
Q 1097 3394 1784 3394 
Q 2450 3394 2872 2941 
Q 3294 2488 3294 1666 
Q 3294 1616 3291 1516 
L 816 1516 
Q 847 969 1125 678 
Q 1403 388 1819 388 
Q 2128 388 2347 550 
Q 2566 713 2694 1069 
z
M 847 1978 
L 2700 1978 
Q 2663 2397 2488 2606 
Q 2219 2931 1791 2931 
Q 1403 2931 1139 2672 
Q 875 2413 847 1978 
z
" transform="scale(0.015625)"/>
       <path id="ArialMT-72" d="M 416 0 
L 416 3319 
L 922 3319 
L 922 2816 
Q 1116 3169 1280 3281 
Q 1444 3394 1641 3394 
Q 1925 3394 2219 3213 
L 2025 2691 
Q 1819 2813 1613 2813 
Q 1428 2813 1281 2702 
Q 1134 2591 1072 2394 
Q 978 2094 978 1738 
L 978 0 
L 416 0 
z
" transform="scale(0.015625)"/>
      </defs>
      <use xlink:href="#ArialMT-4c"/>
      <use xlink:href="#ArialMT-61" x="55.615234"/>
      <use xlink:href="#ArialMT-70" x="111.230469"/>
      <use xlink:href="#ArialMT-4e" x="166.845703"/>
      <use xlink:href="#ArialMT-75" x="239.0625"/>
      <use xlink:href="#ArialMT-6d" x="294.677734"/>
      <use xlink:href="#ArialMT-62" x="377.978516"/>
      <use xlink:href="#ArialMT-65" x="433.59375"/>
      <use xlink:href="#ArialMT-72" x="489.208984"/>
     </g>
    </g>
   </g>
   <g id="matplotlib.axis_2">
    <g id="ytick_1">
     <g id="line2d_13">
      <path d="M 42.644063 395.879572 
L 712.244063 395.879572 
" clip-path="url(#p7effaa355f)" style="fill: none; stroke-dasharray: 1.85,0.8; stroke-dashoffset: 0; stroke: #b2b2b2; stroke-width: 0.5"/>
     </g>
     <g id="line2d_14"/>
     <g id="text_8">
      <!-- 100 -->
      <g style="fill: #555555" transform="translate(22.46125 399.458479)scale(0.1 -0.1)">
       <use xlink:href="#ArialMT-31"/>
       <use xlink:href="#ArialMT-30" x="55.615234"/>
       <use xlink:href="#ArialMT-30" x="111.230469"/>
      </g>
     </g>
    </g>
    <g id="ytick_2">
     <g id="line2d_15">
      <path d="M 42.644063 327.520727 
L 712.244063 327.520727 
" clip-path="url(#p7effaa355f)" style="fill: none; stroke-dasharray: 1.85,0.8; stroke-dashoffset: 0; stroke: #b2b2b2; stroke-width: 0.5"/>
     </g>
     <g id="line2d_16"/>
     <g id="text_9">
      <!-- 101 -->
      <g style="fill: #555555" transform="translate(22.46125 331.099633)scale(0.1 -0.1)">
       <use xlink:href="#ArialMT-31"/>
       <use xlink:href="#ArialMT-30" x="55.615234"/>
       <use xlink:href="#ArialMT-31" x="111.230469"/>
      </g>
     </g>
    </g>
    <g id="ytick_3">
     <g id="line2d_17">
      <path d="M 42.644063 259.161882 
L 712.244063 259.161882 
" clip-path="url(#p7effaa355f)" style="fill: none; stroke-dasharray: 1.85,0.8; stroke-dashoffset: 0; stroke: #b2b2b2; stroke-width: 0.5"/>
     </g>
     <g id="line2d_18"/>
     <g id="text_10">
      <!-- 102 -->
      <g style="fill: #555555" transform="translate(22.46125 262.740788)scale(0.1 -0.1)">
       <use xlink:href="#ArialMT-31"/>
       <use xlink:href="#ArialMT-30" x="55.615234"/>
       <use xlink:href="#ArialMT-32" x="111.230469"/>
      </g>
     </g>
    </g>
    <g id="ytick_4">
     <g id="line2d_19">
      <path d="M 42.644063 190.803037 
L 712.244063 190.803037 
" clip-path="url(#p7effaa355f)" style="fill: none; stroke-dasharray: 1.85,0.8; stroke-dashoffset: 0; stroke: #b2b2b2; stroke-width: 0.5"/>
     </g>
     <g id="line2d_20"/>
     <g id="text_11">
      <!-- 103 -->
      <g style="fill: #555555" transform="translate(22.46125 194.381943)scale(0.1 -0.1)">
       <use xlink:href="#ArialMT-31"/>
       <use xlink:href="#ArialMT-30" x="55.615234"/>
       <use xlink:href="#ArialMT-33" x="111.230469"/>
      </g>
     </g>
    </g>
    <g id="ytick_5">
     <g id="line2d_21">
      <path d="M 42.644063 122.444192 
L 712.244063 122.444192 
" clip-path="url(#p7effaa355f)" style="fill: none; stroke-dasharray: 1.85,0.8; stroke-dashoffset: 0; stroke: #b2b2b2; stroke-width: 0.5"/>
     </g>
     <g id="line2d_22"/>
     <g id="text_12">
      <!-- 104 -->
      <g style="fill: #555555" transform="translate(22.46125 126.023098)scale(0.1 -0.1)">
       <use xlink:href="#ArialMT-31"/>
       <use xlink:href="#ArialMT-30" x="55.615234"/>
       <use xlink:href="#ArialMT-34" x="111.230469"/>
      </g>
     </g>
    </g>
    <g id="ytick_6">
     <g id="line2d_23">
      <path d="M 42.644063 54.085346 
L 712.244063 54.085346 
" clip-path="url(#p7effaa355f)" style="fill: none; stroke-dasharray: 1.85,0.8; stroke-dashoffset: 0; stroke: #b2b2b2; stroke-width: 0.5"/>
     </g>
     <g id="line2d_24"/>
     <g id="text_13">
      <!-- 105 -->
      <g style="fill: #555555" transform="translate(22.46125 57.664253)scale(0.1 -0.1)">
       <use xlink:href="#ArialMT-31"/>
       <use xlink:href="#ArialMT-30" x="55.615234"/>
       <use xlink:href="#ArialMT-35" x="111.230469"/>
      </g>
     </g>
    </g>
    <g id="text_14">
     <!-- LapTime (s) -->
     <g style="fill: #555555" transform="translate(15.935625 249.502125)rotate(-90)scale(0.12 -0.12)">
      <defs>
       <path id="ArialMT-54" d="M 1659 0 
L 1659 4041 
L 150 4041 
L 150 4581 
L 3781 4581 
L 3781 4041 
L 2266 4041 
L 2266 0 
L 1659 0 
z
" transform="scale(0.015625)"/>
       <path id="ArialMT-69" d="M 425 3934 
L 425 4581 
L 988 4581 
L 988 3934 
L 425 3934 
z
M 425 0 
L 425 3319 
L 988 3319 
L 988 0 
L 425 0 
z
" transform="scale(0.015625)"/>
       <path id="ArialMT-20" transform="scale(0.015625)"/>
       <path id="ArialMT-28" d="M 1497 -1347 
Q 1031 -759 709 28 
Q 388 816 388 1659 
Q 388 2403 628 3084 
Q 909 3875 1497 4659 
L 1900 4659 
Q 1522 4009 1400 3731 
Q 1209 3300 1100 2831 
Q 966 2247 966 1656 
Q 966 153 1900 -1347 
L 1497 -1347 
z
" transform="scale(0.015625)"/>
       <path id="ArialMT-73" d="M 197 991 
L 753 1078 
Q 800 744 1014 566 
Q 1228 388 1613 388 
Q 2000 388 2187 545 
Q 2375 703 2375 916 
Q 2375 1106 2209 1216 
Q 2094 1291 1634 1406 
Q 1016 1563 777 1677 
Q 538 1791 414 1992 
Q 291 2194 291 2438 
Q 291 2659 392 2848 
Q 494 3038 669 3163 
Q 800 3259 1026 3326 
Q 1253 3394 1513 3394 
Q 1903 3394 2198 3281 
Q 2494 3169 2634 2976 
Q 2775 2784 2828 2463 
L 2278 2388 
Q 2241 2644 2061 2787 
Q 1881 2931 1553 2931 
Q 1166 2931 1000 2803 
Q 834 2675 834 2503 
Q 834 2394 903 2306 
Q 972 2216 1119 2156 
Q 1203 2125 1616 2013 
Q 2213 1853 2448 1751 
Q 2684 1650 2818 1456 
Q 2953 1263 2953 975 
Q 2953 694 2789 445 
Q 2625 197 2315 61 
Q 2006 -75 1616 -75 
Q 969 -75 630 194 
Q 291 463 197 991 
z
" transform="scale(0.015625)"/>
       <path id="ArialMT-29" d="M 791 -1347 
L 388 -1347 
Q 1322 153 1322 1656 
Q 1322 2244 1188 2822 
Q 1081 3291 891 3722 
Q 769 4003 388 4659 
L 791 4659 
Q 1378 3875 1659 3084 
Q 1900 2403 1900 1659 
Q 1900 816 1576 28 
Q 1253 -759 791 -1347 
z
" transform="scale(0.015625)"/>
      </defs>
      <use xlink:href="#ArialMT-4c"/>
      <use xlink:href="#ArialMT-61" x="55.615234"/>
      <use xlink:href="#ArialMT-70" x="111.230469"/>
      <use xlink:href="#ArialMT-54" x="166.845703"/>
      <use xlink:href="#ArialMT-69" x="224.179688"/>
      <use xlink:href="#ArialMT-6d" x="246.396484"/>
      <use xlink:href="#ArialMT-65" x="329.697266"/>
      <use xlink:href="#ArialMT-20" x="385.3125"/>
      <use xlink:href="#ArialMT-28" x="413.095703"/>
      <use xlink:href="#ArialMT-73" x="446.396484"/>
      <use xlink:href="#ArialMT-29" x="496.396484"/>
     </g>
    </g>
   </g>
   <g id="line2d_25">
    <path d="M 73.080426 279.942971 
L 84.353153 273.209625 
L 95.625881 255.288214 
L 106.898608 241.388582 
L 118.171335 233.650361 
L 129.444063 234.324835 
L 140.71679 229.767579 
L 151.989517 229.921386 
L 163.262244 229.43338 
L 174.534972 228.420909 
L 185.807699 219.431721 
L 219.625881 215.801866 
L 230.898608 220.422924 
L 242.171335 223.068412 
L 354.898608 232.098615 
L 366.171335 237.403262 
L 377.444063 249.605315 
L 388.71679 257.999782 
L 399.989517 265.389373 
L 411.262244 273.900049 
L 422.534972 282.71834 
L 433.807699 290.798356 
L 467.625881 306.958387 
L 478.898608 322.489516 
L 490.171335 330.473829 
L 501.444063 340.249144 
L 512.71679 346.86628 
L 523.989517 354.891609 
L 535.262244 366.06828 
L 546.534972 372.411981 
L 557.807699 384.27224 
L 569.080426 393.138383 
L 580.353153 389.60423 
L 591.625881 389.194077 
L 602.898608 389.925517 
L 614.171335 384.990008 
L 625.444063 384.477317 
L 636.71679 381.59941 
L 647.989517 378.037914 
L 659.262244 379.692198 
L 670.534972 374.989109 
L 681.807699 370.142467 
" clip-path="url(#p7effaa355f)" style="fill: none; stroke: #0600ef; stroke-width: 2; stroke-linecap: round"/>
   </g>
   <g id="line2d_26">
    <path d="M 73.080426 354.645517 
L 84.353153 341.629993 
L 95.625881 324.075441 
L 106.898608 307.901739 
L 118.171335 291.331554 
L 129.444063 275.807261 
L 140.71679 255.880657 
L 151.989517 238.763603 
L 163.262244 224.784219 
L 174.534972 207.32537 
L 208.353153 204.830272 
L 219.625881 199.935778 
L 230.898608 204.973825 
L 242.171335 209.656406 
L 354.898608 214.673946 
L 366.171335 222.733453 
L 377.444063 235.776321 
L 388.71679 245.086796 
L 399.989517 252.961735 
L 411.262244 266.804401 
L 422.534972 275.909799 
L 456.353153 292.972167 
L 467.625881 301.845145 
L 478.898608 315.462227 
L 490.171335 323.754155 
L 501.444063 326.61839 
L 512.71679 333.946459 
L 523.989517 342.060654 
L 535.262244 350.660196 
L 546.534972 352.970725 
L 557.807699 363.415957 
L 569.080426 363.47748 
L 580.353153 364.625908 
L 591.625881 365.630783 
L 602.898608 364.345637 
L 614.171335 356.374996 
L 625.444063 354.932624 
L 636.71679 352.888695 
L 647.989517 351.207067 
L 659.262244 348.29498 
L 670.534972 333.905443 
L 681.807699 321.682882 
" clip-path="url(#p7effaa355f)" style="fill: none; stroke: #00d2be; stroke-width: 2; stroke-linecap: round"/>
   </g>
   <g id="line2d_27">
    <path d="M 73.080426 297.463343 
L 84.353153 277.058228 
L 95.625881 254.390435 
L 106.898608 242.83779 
L 118.171335 225.249059 
L 129.444063 209.888826 
L 140.71679 186.92709 
L 151.989517 170.411593 
L 163.262244 159.945854 
L 174.534972 150.813112 
L 185.807699 157.44392 
L 197.080426 154.27207 
L 208.353153 160.328664 
L 219.625881 169.140119 
L 230.898608 172.352984 
L 242.171335 168.477038 
L 354.898608 181.102917 
L 366.171335 195.588156 
L 377.444063 203.702351 
L 388.71679 216.902444 
L 399.989517 224.729532 
L 411.262244 239.63176 
L 422.534972 246.850454 
L 433.807699 254.19903 
L 467.625881 273.442045 
L 478.898608 293.737786 
L 490.171335 297.627404 
L 501.444063 306.691787 
L 512.71679 320.725858 
L 523.989517 331.567571 
L 535.262244 346.503978 
L 546.534972 352.43069 
L 557.807699 360.182583 
L 569.080426 362.547799 
L 580.353153 357.359363 
L 591.625881 355.445315 
L 602.898608 360.886679 
L 614.171335 356.887687 
L 625.444063 354.563486 
L 636.71679 350.824257 
L 647.989517 346.579173 
L 659.262244 345.615313 
L 670.534972 345.581134 
L 681.807699 344.234465 
" clip-path="url(#p7effaa355f)" style="fill: none; stroke: #dc0000; stroke-width: 2; stroke-linecap: round"/>
   </g>
   <g id="line2d_28">
    <path d="M 73.080426 325.893787 
L 84.353153 312.748381 
L 95.625881 299.233837 
L 106.898608 278.972275 
L 118.171335 264.029032 
L 129.444063 249.003758 
L 140.71679 231.121084 
L 151.989517 215.651477 
L 163.262244 200.209214 
L 174.534972 186.69467 
L 185.807699 184.274767 
L 197.080426 175.545343 
L 230.898608 180.515031 
L 242.171335 189.251291 
L 354.898608 195.69753 
L 366.171335 202.950404 
L 377.444063 208.166183 
L 388.71679 206.716976 
L 399.989517 217.633884 
L 411.262244 225.748078 
L 422.534972 235.885695 
L 433.807699 250.596519 
L 445.080426 250.664877 
L 456.353153 252.490059 
L 467.625881 253.529113 
L 501.444063 263.926493 
L 512.71679 277.632442 
L 523.989517 303.150799 
L 535.262244 315.612616 
L 546.534972 333.891772 
L 557.807699 345.745195 
L 569.080426 354.563486 
L 580.353153 368.276271 
L 591.625881 383.34256 
L 602.898608 394.12275 
L 614.171335 390.21946 
L 625.444063 388.824939 
L 636.71679 380.63555 
L 647.989517 375.590667 
L 659.262244 367.654205 
L 670.534972 366.813391 
L 681.807699 363.621033 
" clip-path="url(#p7effaa355f)" style="fill: none; stroke: #0600ef; stroke-width: 2; stroke-linecap: round"/>
   </g>
   <g id="line2d_29">
    <path d="M 73.080426 341.424916 
L 84.353153 321.805928 
L 95.625881 301.223079 
L 106.898608 281.111907 
L 118.171335 264.199929 
L 129.444063 251.068195 
L 140.71679 231.749985 
L 151.989517 215.077263 
L 163.262244 198.083254 
L 174.534972 180.713271 
L 185.807699 176.892012 
L 219.625881 177.411539 
L 230.898608 181.971074 
L 242.171335 188.629225 
L 354.898608 193.728795 
L 366.171335 199.552969 
L 377.444063 208.617352 
L 388.71679 215.227652 
L 399.989517 223.123099 
L 411.262244 232.187482 
L 422.534972 243.056538 
L 433.807699 251.368974 
L 445.080426 255.449997 
L 478.898608 269.771175 
L 490.171335 268.697941 
L 501.444063 276.634403 
L 512.71679 284.912659 
L 523.989517 294.455554 
L 535.262244 303.246501 
L 546.534972 310.102893 
L 557.807699 319.761998 
L 569.080426 320.773709 
L 580.353153 326.064684 
L 591.625881 321.956317 
L 602.898608 329.769733 
L 614.171335 327.103738 
L 625.444063 327.425025 
L 636.71679 322.140886 
L 647.989517 312.345064 
L 681.807699 310.537352 
" clip-path="url(#p7effaa355f)" style="fill: none; stroke: #00d2be; stroke-width: 2; stroke-linecap: round"/>
   </g>
   <g id="line2d_30">
    <path d="M 73.080426 278.484649 
L 84.353153 261.09112 
L 95.625881 232.570291 
L 106.898608 201.216368 
L 118.171335 178.566803 
L 129.444063 149.544676 
L 140.71679 121.844153 
L 151.989517 95.427257 
L 163.262244 77.205827 
L 174.534972 77.53243 
L 185.807699 84.204254 
L 197.080426 77.190636 
L 230.898608 83.848788 
L 242.171335 93.918045 
L 354.898608 99.202184 
L 366.171335 106.749001 
L 377.444063 114.541909 
L 388.71679 127.543761 
L 399.989517 134.666753 
L 411.262244 145.180343 
L 422.534972 153.062118 
L 456.353153 164.102072 
L 467.625881 173.754341 
L 478.898608 185.38218 
L 490.171335 196.27858 
L 501.444063 209.30094 
L 512.71679 214.872186 
L 523.989517 222.78814 
L 535.262244 230.416988 
L 546.534972 238.804618 
L 557.807699 243.220599 
L 569.080426 252.4217 
L 580.353153 258.744893 
L 591.625881 262.552481 
L 602.898608 266.284874 
L 614.171335 267.576856 
L 625.444063 272.122719 
L 636.71679 274.775042 
L 647.989517 275.636364 
L 659.262244 270.529958 
L 670.534972 269.203796 
L 681.807699 268.814151 
" clip-path="url(#p7effaa355f)" style="fill: none; stroke: #ff8700; stroke-width: 2; stroke-linecap: round"/>
   </g>
   <g id="line2d_31">
    <path d="M 73.080426 243.234271 
L 84.353153 223.389698 
L 95.625881 201.384986 
L 106.898608 179.763083 
L 118.171335 162.010291 
L 129.444063 143.765315 
L 140.71679 125.930493 
L 151.989517 113.113209 
L 163.262244 97.479541 
L 174.534972 78.26387 
L 185.807699 80.950373 
L 197.080426 78.468946 
L 208.353153 82.420088 
L 219.625881 88.81164 
L 230.898608 88.093872 
L 242.171335 86.945443 
L 354.898608 84.573391 
L 366.171335 91.525486 
L 377.444063 98.675821 
L 388.71679 103.542971 
L 399.989517 112.313411 
L 411.262244 120.830923 
L 422.534972 125.568191 
L 433.807699 131.241975 
L 445.080426 141.659863 
L 456.353153 149.897104 
L 467.625881 163.596216 
L 478.898608 166.870605 
L 490.171335 170.302219 
L 501.444063 179.516991 
L 512.71679 184.062855 
L 523.989517 190.768857 
L 535.262244 194.562773 
L 546.534972 197.584234 
L 557.807699 204.973825 
L 569.080426 211.912248 
L 580.353153 215.193473 
L 591.625881 221.660219 
L 602.898608 228.079115 
L 614.171335 231.380847 
L 625.444063 238.859305 
L 636.71679 241.901274 
L 647.989517 244.956914 
L 659.262244 246.768423 
L 670.534972 234.169888 
L 681.807699 232.898414 
" clip-path="url(#p7effaa355f)" style="fill: none; stroke: #0090ff; stroke-width: 2; stroke-linecap: round"/>
   </g>
   <g id="line2d_32">
    <path d="M 73.080426 226.117216 
L 84.353153 219.26766 
L 95.625881 204.966989 
L 106.898608 190.085269 
L 118.171335 174.656678 
L 129.444063 164.724137 
L 140.71679 150.36878 
L 151.989517 139.58859 
L 163.262244 140.66866 
L 174.534972 132.096461 
L 185.807699 123.059421 
L 197.080426 114.268474 
L 208.353153 114.801673 
L 219.625881 118.786993 
L 230.898608 119.969601 
L 242.171335 120.967641 
L 354.898608 132.36306 
L 366.171335 142.774112 
L 377.444063 151.045532 
L 388.71679 159.439999 
L 399.989517 177.527749 
L 411.262244 191.09698 
L 422.534972 202.957239 
L 433.807699 213.70325 
L 445.080426 227.402362 
L 456.353153 236.446238 
L 467.625881 241.019444 
L 478.898608 245.04578 
L 490.171335 251.485184 
L 501.444063 251.594558 
L 535.262244 253.679503 
L 546.534972 255.449997 
L 557.807699 257.610136 
L 569.080426 257.767362 
L 580.353153 249.188326 
L 591.625881 249.318208 
L 602.898608 247.007679 
L 614.171335 243.179584 
L 625.444063 230.779289 
L 636.71679 233.404269 
L 647.989517 232.214825 
L 659.262244 233.233372 
L 670.534972 235.414019 
L 681.807699 225.584017 
" clip-path="url(#p7effaa355f)" style="fill: none; stroke: #006f62; stroke-width: 2; stroke-linecap: round"/>
   </g>
   <g id="line2d_33">
    <path d="M 73.080426 200.352767 
L 84.353153 173.241649 
L 95.625881 155.523037 
L 106.898608 136.73119 
L 118.171335 127.536926 
L 129.444063 109.093709 
L 140.71679 87.417119 
L 151.989517 67.729772 
L 163.262244 47.939886 
L 174.534972 41.32275 
L 185.807699 55.117565 
L 197.080426 58.795271 
L 208.353153 59.417336 
L 219.625881 64.475891 
L 230.898608 64.134097 
L 242.171335 58.022816 
L 354.898608 66.854779 
L 366.171335 71.940677 
L 377.444063 78.831248 
L 388.71679 86.583141 
L 399.989517 93.446369 
L 411.262244 105.976546 
L 422.534972 113.516526 
L 433.807699 124.460778 
L 445.080426 139.506559 
L 456.353153 156.090415 
L 467.625881 158.353093 
L 478.898608 167.137205 
L 490.171335 170.862762 
L 501.444063 174.513124 
L 512.71679 177.076581 
L 523.989517 184.520859 
L 535.262244 190.59796 
L 546.534972 190.919247 
L 557.807699 188.834302 
L 569.080426 189.852849 
L 580.353153 195.827412 
L 591.625881 188.554031 
L 602.898608 181.034558 
L 614.171335 179.182033 
L 625.444063 182.230838 
L 636.71679 179.045315 
L 647.989517 175.401789 
L 659.262244 166.91162 
L 670.534972 165.271008 
L 681.807699 152.433217 
" clip-path="url(#p7effaa355f)" style="fill: none; stroke: #ffffff; stroke-width: 2; stroke-linecap: round"/>
   </g>
   <g id="line2d_34">
    <path d="M 73.080426 133.812268 
L 84.353153 128.623831 
L 95.625881 125.240068 
L 106.898608 113.345629 
L 118.171335 102.011733 
L 129.444063 92.209074 
L 140.71679 76.944544 
L 151.989517 69.267846 
L 185.807699 68.864529 
L 197.080426 77.525594 
L 208.353153 92.379971 
L 219.625881 93.719805 
L 230.898608 102.011733 
L 242.171335 111.903258 
L 354.898608 119.942258 
L 366.171335 122.710791 
L 377.444063 139.991907 
L 388.71679 153.725199 
L 399.989517 153.157821 
L 411.262244 157.751535 
L 445.080426 164.156759 
L 456.353153 179.168361 
L 467.625881 188.000324 
L 478.898608 194.138948 
L 490.171335 202.102754 
L 501.444063 212.876108 
L 512.71679 215.883897 
L 523.989517 214.092895 
L 535.262244 219.465901 
L 546.534972 216.369245 
L 557.807699 210.182769 
L 569.080426 207.17498 
L 580.353153 201.467017 
L 591.625881 196.128191 
L 602.898608 192.970012 
L 614.171335 191.261041 
L 625.444063 189.66828 
L 636.71679 188.779615 
L 647.989517 172.47603 
L 659.262244 179.100002 
L 670.534972 182.640991 
L 681.807699 184.725935 
" clip-path="url(#p7effaa355f)" style="fill: none; stroke: #2b4562; stroke-width: 2; stroke-linecap: round"/>
   </g>
   <g id="line2d_35">
    <path d="M 73.080426 169.18797 
L 84.353153 160.68413 
L 95.625881 151.394163 
L 106.898608 138.467505 
L 118.171335 125.356278 
L 129.444063 119.176639 
L 140.71679 117.802626 
L 151.989517 98.983436 
L 163.262244 85.113426 
L 174.534972 74.353744 
L 185.807699 79.610539 
L 197.080426 68.686796 
L 208.353153 65.405571 
L 219.625881 69.199487 
L 230.898608 70.34108 
L 242.171335 70.313736 
L 354.898608 75.748264 
L 366.171335 83.09684 
L 377.444063 89.97374 
L 388.71679 91.108497 
L 399.989517 94.854562 
L 411.262244 111.807555 
L 422.534972 116.777243 
L 433.807699 124.118983 
L 445.080426 133.887462 
L 456.353153 142.917666 
L 467.625881 150.402959 
L 478.898608 157.860909 
L 490.171335 161.832558 
L 501.444063 154.203711 
L 512.71679 158.75641 
L 523.989517 162.119665 
L 535.262244 166.029791 
L 546.534972 164.177267 
L 580.353153 176.468187 
L 591.625881 189.305978 
L 602.898608 202.294159 
L 614.171335 213.867311 
L 625.444063 225.87796 
L 636.71679 248.36802 
L 647.989517 260.836674 
L 659.262244 266.626668 
L 670.534972 274.672504 
L 681.807699 286.382374 
" clip-path="url(#p7effaa355f)" style="fill: none; stroke: #0090ff; stroke-width: 2; stroke-linecap: round"/>
   </g>
   <g id="line2d_36">
    <path d="M 73.080426 258.348412 
L 84.353153 236.282176 
L 95.625881 213.942506 
L 106.898608 189.757146 
L 118.171335 168.695786 
L 129.444063 149.015275 
L 140.71679 123.004734 
L 174.534972 112.504815 
L 185.807699 98.675821 
L 197.080426 77.573446 
L 208.353153 89.269644 
L 219.625881 94.717844 
L 230.898608 98.005904 
L 242.171335 102.367199 
L 354.898608 97.725633 
L 366.171335 100.911155 
L 377.444063 105.723618 
L 388.71679 99.701204 
L 399.989517 97.670946 
L 411.262244 95.524478 
L 422.534972 96.050841 
L 433.807699 96.987358 
L 445.080426 102.804695 
L 456.353153 110.009718 
L 467.625881 126.039867 
L 478.898608 136.03393 
L 490.171335 151.496701 
L 501.444063 162.81009 
L 512.71679 174.820739 
L 523.989517 192.183885 
L 535.262244 193.434852 
L 546.534972 193.448524 
L 557.807699 194.227815 
L 569.080426 197.659429 
L 580.353153 197.454352 
L 591.625881 196.709241 
L 602.898608 188.444657 
L 614.171335 190.427063 
L 625.444063 179.243556 
L 636.71679 173.364695 
L 647.989517 162.181188 
L 659.262244 158.763246 
L 670.534972 153.65684 
L 681.807699 145.65202 
" clip-path="url(#p7effaa355f)" style="fill: none; stroke: #900000; stroke-width: 2; stroke-linecap: round"/>
   </g>
   <g id="line2d_37">
    <path d="M 73.080426 128.493949 
L 84.353153 113.824141 
L 95.625881 103.296879 
L 106.898608 79.979677 
L 118.171335 77.518759 
L 129.444063 69.233666 
L 140.71679 65.036433 
L 174.534972 72.473876 
L 185.807699 74.866435 
L 197.080426 74.264877 
L 208.353153 84.737453 
L 219.625881 87.451299 
L 230.898608 88.900506 
L 242.171335 102.87989 
L 354.898608 103.303715 
L 366.171335 106.591775 
L 377.444063 120.099483 
L 388.71679 116.770407 
L 399.989517 114.070233 
L 411.262244 114.063397 
L 422.534972 109.859328 
L 433.807699 114.412027 
L 445.080426 124.317224 
L 456.353153 131.419708 
L 467.625881 141.311233 
L 478.898608 147.087555 
L 490.171335 153.383405 
L 501.444063 152.269156 
L 512.71679 154.217383 
L 523.989517 160.711473 
L 535.262244 166.993651 
L 546.534972 164.874527 
L 557.807699 166.645021 
L 569.080426 171.341274 
L 580.353153 172.257282 
L 591.625881 176.611741 
L 602.898608 178.785552 
L 614.171335 181.663459 
L 625.444063 176.611741 
L 636.71679 172.70845 
L 647.989517 163.575709 
L 659.262244 161.955604 
L 670.534972 159.132384 
L 681.807699 147.347319 
" clip-path="url(#p7effaa355f)" style="fill: none; stroke: #005aff; stroke-width: 2; stroke-linecap: round"/>
   </g>
   <g id="line2d_38">
    <path d="M 73.080426 137.394271 
L 84.353153 130.695104 
L 95.625881 124.050624 
L 106.898608 102.230481 
L 118.171335 101.348652 
L 129.444063 101.259785 
L 140.71679 102.9961 
L 151.989517 97.841843 
L 163.262244 93.781328 
L 197.080426 96.426815 
L 208.353153 101.608416 
L 219.625881 99.065467 
L 230.898608 96.96685 
L 242.171335 116.435449 
L 354.898608 123.319185 
L 366.171335 118.800665 
L 377.444063 130.73612 
L 388.71679 141.536817 
L 399.989517 149.726207 
L 433.807699 158.380436 
L 445.080426 168.02587 
L 456.353153 177.849036 
L 467.625881 187.289392 
L 478.898608 190.59796 
L 490.171335 197.153573 
L 501.444063 209.888826 
L 512.71679 211.447408 
L 523.989517 216.362409 
L 535.262244 219.445393 
L 546.534972 221.708071 
L 557.807699 217.989349 
L 569.080426 218.085052 
L 580.353153 216.697367 
L 591.625881 221.85846 
L 602.898608 223.943405 
L 614.171335 226.219754 
L 625.444063 224.292035 
L 636.71679 220.252027 
L 647.989517 209.355627 
L 659.262244 198.78735 
L 670.534972 207.004083 
L 681.807699 207.619313 
" clip-path="url(#p7effaa355f)" style="fill: none; stroke: #2b4562; stroke-width: 2; stroke-linecap: round"/>
   </g>
   <g id="line2d_39">
    <path d="M 73.080426 180.583389 
L 84.353153 163.165556 
L 95.625881 148.297507 
L 106.898608 129.88847 
L 118.171335 114.678627 
L 129.444063 103.419925 
L 140.71679 97.042045 
L 151.989517 87.656375 
L 163.262244 58.767927 
L 174.534972 44.966276 
L 185.807699 60.681975 
L 197.080426 60.25815 
L 208.353153 61.987629 
L 219.625881 65.446586 
L 230.898608 57.804068 
L 242.171335 59.779638 
L 354.898608 69.568625 
L 366.171335 79.268745 
L 377.444063 96.112364 
L 388.71679 104.780266 
L 399.989517 111.192326 
L 411.262244 123.455902 
L 445.080426 134.598394 
L 456.353153 146.46549 
L 467.625881 168.005362 
L 478.898608 178.375399 
L 490.171335 183.686881 
L 501.444063 181.957402 
L 512.71679 184.650741 
L 523.989517 185.826513 
L 535.262244 188.916333 
L 546.534972 189.955387 
L 557.807699 184.322618 
L 569.080426 180.036519 
L 580.353153 181.499398 
L 591.625881 182.422242 
L 602.898608 181.096081 
L 614.171335 187.685873 
L 625.444063 190.522766 
L 636.71679 185.908543 
L 647.989517 183.481804 
L 659.262244 176.201587 
L 670.534972 182.798216 
L 681.807699 180.467179 
" clip-path="url(#p7effaa355f)" style="fill: none; stroke: #ffffff; stroke-width: 2; stroke-linecap: round"/>
   </g>
   <g id="line2d_40">
    <path d="M 73.080426 164.095236 
L 84.353153 153.827737 
L 95.625881 142.616887 
L 106.898608 121.917828 
L 118.171335 101.047873 
L 129.444063 94.9571 
L 140.71679 81.032403 
L 151.989517 73.157464 
L 185.807699 58.050159 
L 197.080426 49.27972 
L 208.353153 56.395875 
L 219.625881 58.2484 
L 230.898608 62.261064 
L 242.171335 70.641859 
L 354.898608 79.54218 
L 366.171335 83.219886 
L 377.444063 92.981529 
L 388.71679 95.045966 
L 399.989517 93.542072 
L 411.262244 95.162176 
L 422.534972 90.917092 
L 433.807699 90.951272 
L 467.625881 99.578158 
L 478.898608 112.648369 
L 490.171335 123.59262 
L 501.444063 131.248811 
L 512.71679 136.676503 
L 523.989517 148.400045 
L 535.262244 161.777871 
L 546.534972 174.670349 
L 557.807699 187.555992 
L 569.080426 192.012988 
L 580.353153 192.594039 
L 591.625881 192.081347 
L 602.898608 189.353829 
L 614.171335 185.929051 
L 625.444063 176.434008 
L 636.71679 180.713271 
L 647.989517 179.879293 
L 659.262244 178.710357 
L 670.534972 182.483765 
L 681.807699 188.601882 
" clip-path="url(#p7effaa355f)" style="fill: none; stroke: #ff8700; stroke-width: 2; stroke-linecap: round"/>
   </g>
   <g id="line2d_41">
    <path d="M 73.080426 171.354945 
L 84.353153 160.321828 
L 95.625881 150.854128 
L 129.444063 148.735003 
L 140.71679 148.82387 
L 151.989517 134.885501 
L 163.262244 124.201014 
L 174.534972 111.247013 
L 185.807699 95.674868 
L 197.080426 77.819537 
L 208.353153 83.541173 
L 219.625881 83.636875 
L 230.898608 80.492368 
L 242.171335 69.60964 
L 354.898608 68.755155 
L 366.171335 66.998332 
L 377.444063 66.219041 
L 388.71679 67.012004 
L 399.989517 66.034473 
L 411.262244 70.416275 
L 422.534972 66.649702 
L 433.807699 69.650655 
L 445.080426 77.129113 
L 456.353153 81.982591 
L 467.625881 81.278495 
L 478.898608 70.737561 
L 490.171335 75.40647 
L 501.444063 78.858592 
L 512.71679 85.318503 
L 523.989517 91.060646 
L 535.262244 100.248075 
L 546.534972 102.845711 
L 557.807699 102.975592 
L 569.080426 109.620072 
L 580.353153 113.024343 
L 591.625881 132.807393 
L 602.898608 131.057406 
L 614.171335 128.979297 
L 625.444063 110.419871 
L 636.71679 106.612283 
L 647.989517 104.397456 
L 659.262244 106.181622 
L 670.534972 105.347644 
L 681.807699 103.166997 
" clip-path="url(#p7effaa355f)" style="fill: none; stroke: #005aff; stroke-width: 2; stroke-linecap: round"/>
   </g>
   <g id="line2d_42">
    <path d="M 73.080426 109.681595 
L 84.353153 112.757743 
L 95.625881 118.698127 
L 106.898608 112.648369 
L 118.171335 128.951954 
L 129.444063 134.263436 
L 140.71679 132.62966 
L 151.989517 129.991008 
L 163.262244 131.836697 
L 174.534972 133.962657 
L 185.807699 129.30742 
L 197.080426 119.634643 
L 208.353153 102.825203 
L 242.171335 113.844649 
" clip-path="url(#p7effaa355f)" style="fill: none; stroke: #006f62; stroke-width: 2; stroke-linecap: round"/>
   </g>
   <g id="line2d_43">
    <path d="M 73.080426 109.886672 
L 84.353153 102.326183 
L 95.625881 108.232388 
L 106.898608 102.490245 
L 118.171335 100.596705 
L 129.444063 97.308644 
L 140.71679 92.954186 
L 151.989517 90.151473 
L 185.807699 105.70311 
L 197.080426 101.820328 
L 208.353153 107.86325 
L 219.625881 113.400316 
L 230.898608 110.713814 
" clip-path="url(#p7effaa355f)" style="fill: none; stroke: #900000; stroke-width: 2; stroke-linecap: round"/>
   </g>
   <g id="line2d_44"/>
   <g id="line2d_45"/>
   <g id="line2d_46"/>
   <g id="line2d_47"/>
   <g id="line2d_48"/>
   <g id="line2d_49"/>
   <g id="line2d_50"/>
   <g id="line2d_51"/>
   <g id="line2d_52"/>
   <g id="line2d_53"/>
   <g id="line2d_54"/>
   <g id="line2d_55"/>
   <g id="line2d_56"/>
   <g id="line2d_57"/>
   <g id="line2d_58"/>
   <g id="line2d_59"/>
   <g id="line2d_60"/>
   <g id="line2d_61"/>
   <g id="line2d_62"/>
   <g id="patch_3">
    <path d="M 42.644063 411.76275 
L 42.644063 23.68275 
" style="fill: none; stroke: #bcbcbc; stroke-linejoin: miter; stroke-linecap: square"/>
   </g>
   <g id="patch_4">
    <path d="M 712.244063 411.76275 
L 712.244063 23.68275 
" style="fill: none; stroke: #bcbcbc; stroke-linejoin: miter; stroke-linecap: square"/>
   </g>
   <g id="patch_5">
    <path d="M 42.644063 411.76275 
L 712.244063 411.76275 
" style="fill: none; stroke: #bcbcbc; stroke-linejoin: miter; stroke-linecap: square"/>
   </g>
   <g id="patch_6">
    <path d="M 42.644063 23.68275 
L 712.244063 23.68275 
" style="fill: none; stroke: #bcbcbc; stroke-linejoin: miter; stroke-linecap: square"/>
   </g>
   <g id="text_15">
    <!-- 2022 United States Grand Prix - Smoothed Racepace -->
    <g style="fill: #262626" transform="translate(206.159438 17.68275)scale(0.144 -0.144)">
     <defs>
      <path id="ArialMT-55" d="M 3500 4581 
L 4106 4581 
L 4106 1934 
Q 4106 1244 3950 837 
Q 3794 431 3386 176 
Q 2978 -78 2316 -78 
Q 1672 -78 1262 144 
Q 853 366 678 786 
Q 503 1206 503 1934 
L 503 4581 
L 1109 4581 
L 1109 1938 
Q 1109 1341 1220 1058 
Q 1331 775 1601 622 
Q 1872 469 2263 469 
Q 2931 469 3215 772 
Q 3500 1075 3500 1938 
L 3500 4581 
z
" transform="scale(0.015625)"/>
      <path id="ArialMT-6e" d="M 422 0 
L 422 3319 
L 928 3319 
L 928 2847 
Q 1294 3394 1984 3394 
Q 2284 3394 2536 3286 
Q 2788 3178 2913 3003 
Q 3038 2828 3088 2588 
Q 3119 2431 3119 2041 
L 3119 0 
L 2556 0 
L 2556 2019 
Q 2556 2363 2490 2533 
Q 2425 2703 2258 2804 
Q 2091 2906 1866 2906 
Q 1506 2906 1245 2678 
Q 984 2450 984 1813 
L 984 0 
L 422 0 
z
" transform="scale(0.015625)"/>
      <path id="ArialMT-74" d="M 1650 503 
L 1731 6 
Q 1494 -44 1306 -44 
Q 1000 -44 831 53 
Q 663 150 594 308 
Q 525 466 525 972 
L 525 2881 
L 113 2881 
L 113 3319 
L 525 3319 
L 525 4141 
L 1084 4478 
L 1084 3319 
L 1650 3319 
L 1650 2881 
L 1084 2881 
L 1084 941 
Q 1084 700 1114 631 
Q 1144 563 1211 522 
Q 1278 481 1403 481 
Q 1497 481 1650 503 
z
" transform="scale(0.015625)"/>
      <path id="ArialMT-64" d="M 2575 0 
L 2575 419 
Q 2259 -75 1647 -75 
Q 1250 -75 917 144 
Q 584 363 401 755 
Q 219 1147 219 1656 
Q 219 2153 384 2558 
Q 550 2963 881 3178 
Q 1213 3394 1622 3394 
Q 1922 3394 2156 3267 
Q 2391 3141 2538 2938 
L 2538 4581 
L 3097 4581 
L 3097 0 
L 2575 0 
z
M 797 1656 
Q 797 1019 1065 703 
Q 1334 388 1700 388 
Q 2069 388 2326 689 
Q 2584 991 2584 1609 
Q 2584 2291 2321 2609 
Q 2059 2928 1675 2928 
Q 1300 2928 1048 2622 
Q 797 2316 797 1656 
z
" transform="scale(0.015625)"/>
      <path id="ArialMT-53" d="M 288 1472 
L 859 1522 
Q 900 1178 1048 958 
Q 1197 738 1509 602 
Q 1822 466 2213 466 
Q 2559 466 2825 569 
Q 3091 672 3220 851 
Q 3350 1031 3350 1244 
Q 3350 1459 3225 1620 
Q 3100 1781 2813 1891 
Q 2628 1963 1997 2114 
Q 1366 2266 1113 2400 
Q 784 2572 623 2826 
Q 463 3081 463 3397 
Q 463 3744 659 4045 
Q 856 4347 1234 4503 
Q 1613 4659 2075 4659 
Q 2584 4659 2973 4495 
Q 3363 4331 3572 4012 
Q 3781 3694 3797 3291 
L 3216 3247 
Q 3169 3681 2898 3903 
Q 2628 4125 2100 4125 
Q 1550 4125 1298 3923 
Q 1047 3722 1047 3438 
Q 1047 3191 1225 3031 
Q 1400 2872 2139 2705 
Q 2878 2538 3153 2413 
Q 3553 2228 3743 1945 
Q 3934 1663 3934 1294 
Q 3934 928 3725 604 
Q 3516 281 3123 101 
Q 2731 -78 2241 -78 
Q 1619 -78 1198 103 
Q 778 284 539 648 
Q 300 1013 288 1472 
z
" transform="scale(0.015625)"/>
      <path id="ArialMT-47" d="M 2638 1797 
L 2638 2334 
L 4578 2338 
L 4578 638 
Q 4131 281 3656 101 
Q 3181 -78 2681 -78 
Q 2006 -78 1454 211 
Q 903 500 622 1047 
Q 341 1594 341 2269 
Q 341 2938 620 3517 
Q 900 4097 1425 4378 
Q 1950 4659 2634 4659 
Q 3131 4659 3532 4498 
Q 3934 4338 4162 4050 
Q 4391 3763 4509 3300 
L 3963 3150 
Q 3859 3500 3706 3700 
Q 3553 3900 3268 4020 
Q 2984 4141 2638 4141 
Q 2222 4141 1919 4014 
Q 1616 3888 1430 3681 
Q 1244 3475 1141 3228 
Q 966 2803 966 2306 
Q 966 1694 1177 1281 
Q 1388 869 1791 669 
Q 2194 469 2647 469 
Q 3041 469 3416 620 
Q 3791 772 3984 944 
L 3984 1797 
L 2638 1797 
z
" transform="scale(0.015625)"/>
      <path id="ArialMT-50" d="M 494 0 
L 494 4581 
L 2222 4581 
Q 2678 4581 2919 4538 
Q 3256 4481 3484 4323 
Q 3713 4166 3852 3881 
Q 3991 3597 3991 3256 
Q 3991 2672 3619 2267 
Q 3247 1863 2275 1863 
L 1100 1863 
L 1100 0 
L 494 0 
z
M 1100 2403 
L 2284 2403 
Q 2872 2403 3119 2622 
Q 3366 2841 3366 3238 
Q 3366 3525 3220 3729 
Q 3075 3934 2838 4000 
Q 2684 4041 2272 4041 
L 1100 4041 
L 1100 2403 
z
" transform="scale(0.015625)"/>
      <path id="ArialMT-78" d="M 47 0 
L 1259 1725 
L 138 3319 
L 841 3319 
L 1350 2541 
Q 1494 2319 1581 2169 
Q 1719 2375 1834 2534 
L 2394 3319 
L 3066 3319 
L 1919 1756 
L 3153 0 
L 2463 0 
L 1781 1031 
L 1600 1309 
L 728 0 
L 47 0 
z
" transform="scale(0.015625)"/>
      <path id="ArialMT-2d" d="M 203 1375 
L 203 1941 
L 1931 1941 
L 1931 1375 
L 203 1375 
z
" transform="scale(0.015625)"/>
      <path id="ArialMT-6f" d="M 213 1659 
Q 213 2581 725 3025 
Q 1153 3394 1769 3394 
Q 2453 3394 2887 2945 
Q 3322 2497 3322 1706 
Q 3322 1066 3130 698 
Q 2938 331 2570 128 
Q 2203 -75 1769 -75 
Q 1072 -75 642 372 
Q 213 819 213 1659 
z
M 791 1659 
Q 791 1022 1069 705 
Q 1347 388 1769 388 
Q 2188 388 2466 706 
Q 2744 1025 2744 1678 
Q 2744 2294 2464 2611 
Q 2184 2928 1769 2928 
Q 1347 2928 1069 2612 
Q 791 2297 791 1659 
z
" transform="scale(0.015625)"/>
      <path id="ArialMT-68" d="M 422 0 
L 422 4581 
L 984 4581 
L 984 2938 
Q 1378 3394 1978 3394 
Q 2347 3394 2619 3248 
Q 2891 3103 3008 2847 
Q 3125 2591 3125 2103 
L 3125 0 
L 2563 0 
L 2563 2103 
Q 2563 2525 2380 2717 
Q 2197 2909 1863 2909 
Q 1613 2909 1392 2779 
Q 1172 2650 1078 2428 
Q 984 2206 984 1816 
L 984 0 
L 422 0 
z
" transform="scale(0.015625)"/>
      <path id="ArialMT-52" d="M 503 0 
L 503 4581 
L 2534 4581 
Q 3147 4581 3465 4457 
Q 3784 4334 3975 4021 
Q 4166 3709 4166 3331 
Q 4166 2844 3850 2509 
Q 3534 2175 2875 2084 
Q 3116 1969 3241 1856 
Q 3506 1613 3744 1247 
L 4541 0 
L 3778 0 
L 3172 953 
Q 2906 1366 2734 1584 
Q 2563 1803 2427 1890 
Q 2291 1978 2150 2013 
Q 2047 2034 1813 2034 
L 1109 2034 
L 1109 0 
L 503 0 
z
M 1109 2559 
L 2413 2559 
Q 2828 2559 3062 2645 
Q 3297 2731 3419 2920 
Q 3541 3109 3541 3331 
Q 3541 3656 3305 3865 
Q 3069 4075 2559 4075 
L 1109 4075 
L 1109 2559 
z
" transform="scale(0.015625)"/>
      <path id="ArialMT-63" d="M 2588 1216 
L 3141 1144 
Q 3050 572 2676 248 
Q 2303 -75 1759 -75 
Q 1078 -75 664 370 
Q 250 816 250 1647 
Q 250 2184 428 2587 
Q 606 2991 970 3192 
Q 1334 3394 1763 3394 
Q 2303 3394 2647 3120 
Q 2991 2847 3088 2344 
L 2541 2259 
Q 2463 2594 2264 2762 
Q 2066 2931 1784 2931 
Q 1359 2931 1093 2626 
Q 828 2322 828 1663 
Q 828 994 1084 691 
Q 1341 388 1753 388 
Q 2084 388 2306 591 
Q 2528 794 2588 1216 
z
" transform="scale(0.015625)"/>
     </defs>
     <use xlink:href="#ArialMT-32"/>
     <use xlink:href="#ArialMT-30" x="55.615234"/>
     <use xlink:href="#ArialMT-32" x="111.230469"/>
     <use xlink:href="#ArialMT-32" x="166.845703"/>
     <use xlink:href="#ArialMT-20" x="222.460938"/>
     <use xlink:href="#ArialMT-55" x="250.244141"/>
     <use xlink:href="#ArialMT-6e" x="322.460938"/>
     <use xlink:href="#ArialMT-69" x="378.076172"/>
     <use xlink:href="#ArialMT-74" x="400.292969"/>
     <use xlink:href="#ArialMT-65" x="428.076172"/>
     <use xlink:href="#ArialMT-64" x="483.691406"/>
     <use xlink:href="#ArialMT-20" x="539.306641"/>
     <use xlink:href="#ArialMT-53" x="567.089844"/>
     <use xlink:href="#ArialMT-74" x="633.789062"/>
     <use xlink:href="#ArialMT-61" x="661.572266"/>
     <use xlink:href="#ArialMT-74" x="717.1875"/>
     <use xlink:href="#ArialMT-65" x="744.970703"/>
     <use xlink:href="#ArialMT-73" x="800.585938"/>
     <use xlink:href="#ArialMT-20" x="850.585938"/>
     <use xlink:href="#ArialMT-47" x="878.369141"/>
     <use xlink:href="#ArialMT-72" x="956.152344"/>
     <use xlink:href="#ArialMT-61" x="989.453125"/>
     <use xlink:href="#ArialMT-6e" x="1045.068359"/>
     <use xlink:href="#ArialMT-64" x="1100.683594"/>
     <use xlink:href="#ArialMT-20" x="1156.298828"/>
     <use xlink:href="#ArialMT-50" x="1184.082031"/>
     <use xlink:href="#ArialMT-72" x="1250.78125"/>
     <use xlink:href="#ArialMT-69" x="1284.082031"/>
     <use xlink:href="#ArialMT-78" x="1306.298828"/>
     <use xlink:href="#ArialMT-20" x="1356.298828"/>
     <use xlink:href="#ArialMT-2d" x="1384.082031"/>
     <use xlink:href="#ArialMT-20" x="1417.382812"/>
     <use xlink:href="#ArialMT-53" x="1445.166016"/>
     <use xlink:href="#ArialMT-6d" x="1511.865234"/>
     <use xlink:href="#ArialMT-6f" x="1595.166016"/>
     <use xlink:href="#ArialMT-6f" x="1650.78125"/>
     <use xlink:href="#ArialMT-74" x="1706.396484"/>
     <use xlink:href="#ArialMT-68" x="1734.179688"/>
     <use xlink:href="#ArialMT-65" x="1789.794922"/>
     <use xlink:href="#ArialMT-64" x="1845.410156"/>
     <use xlink:href="#ArialMT-20" x="1901.025391"/>
     <use xlink:href="#ArialMT-52" x="1928.808594"/>
     <use xlink:href="#ArialMT-61" x="2001.025391"/>
     <use xlink:href="#ArialMT-63" x="2056.640625"/>
     <use xlink:href="#ArialMT-65" x="2106.640625"/>
     <use xlink:href="#ArialMT-70" x="2162.255859"/>
     <use xlink:href="#ArialMT-61" x="2217.871094"/>
     <use xlink:href="#ArialMT-63" x="2273.486328"/>
     <use xlink:href="#ArialMT-65" x="2323.486328"/>
    </g>
   </g>
   <g id="legend_1">
    <g id="line2d_63">
     <path d="M 51.644063 36.340562 
L 61.644063 36.340562 
L 71.644063 36.340562 
" style="fill: none; stroke: #0600ef; stroke-width: 2; stroke-linecap: round"/>
    </g>
    <g id="text_16">
     <!-- VER -->
     <g style="fill: #262626" transform="translate(79.644063 39.840562)scale(0.1 -0.1)">
      <defs>
       <path id="ArialMT-56" d="M 1803 0 
L 28 4581 
L 684 4581 
L 1875 1253 
Q 2019 853 2116 503 
Q 2222 878 2363 1253 
L 3600 4581 
L 4219 4581 
L 2425 0 
L 1803 0 
z
" transform="scale(0.015625)"/>
       <path id="ArialMT-45" d="M 506 0 
L 506 4581 
L 3819 4581 
L 3819 4041 
L 1113 4041 
L 1113 2638 
L 3647 2638 
L 3647 2100 
L 1113 2100 
L 1113 541 
L 3925 541 
L 3925 0 
L 506 0 
z
" transform="scale(0.015625)"/>
      </defs>
      <use xlink:href="#ArialMT-56"/>
      <use xlink:href="#ArialMT-45" x="66.699219"/>
      <use xlink:href="#ArialMT-52" x="133.398438"/>
     </g>
    </g>
    <g id="line2d_64">
     <path d="M 51.644063 50.485875 
L 61.644063 50.485875 
L 71.644063 50.485875 
" style="fill: none; stroke: #00d2be; stroke-width: 2; stroke-linecap: round"/>
    </g>
    <g id="text_17">
     <!-- HAM -->
     <g style="fill: #262626" transform="translate(79.644063 53.985875)scale(0.1 -0.1)">
      <defs>
       <path id="ArialMT-48" d="M 513 0 
L 513 4581 
L 1119 4581 
L 1119 2700 
L 3500 2700 
L 3500 4581 
L 4106 4581 
L 4106 0 
L 3500 0 
L 3500 2159 
L 1119 2159 
L 1119 0 
L 513 0 
z
" transform="scale(0.015625)"/>
       <path id="ArialMT-41" d="M -9 0 
L 1750 4581 
L 2403 4581 
L 4278 0 
L 3588 0 
L 3053 1388 
L 1138 1388 
L 634 0 
L -9 0 
z
M 1313 1881 
L 2866 1881 
L 2388 3150 
Q 2169 3728 2063 4100 
Q 1975 3659 1816 3225 
L 1313 1881 
z
" transform="scale(0.015625)"/>
       <path id="ArialMT-4d" d="M 475 0 
L 475 4581 
L 1388 4581 
L 2472 1338 
Q 2622 884 2691 659 
Q 2769 909 2934 1394 
L 4031 4581 
L 4847 4581 
L 4847 0 
L 4263 0 
L 4263 3834 
L 2931 0 
L 2384 0 
L 1059 3900 
L 1059 0 
L 475 0 
z
" transform="scale(0.015625)"/>
      </defs>
      <use xlink:href="#ArialMT-48"/>
      <use xlink:href="#ArialMT-41" x="72.216797"/>
      <use xlink:href="#ArialMT-4d" x="138.916016"/>
     </g>
    </g>
    <g id="line2d_65">
     <path d="M 51.644063 64.631187 
L 61.644063 64.631187 
L 71.644063 64.631187 
" style="fill: none; stroke: #dc0000; stroke-width: 2; stroke-linecap: round"/>
    </g>
    <g id="text_18">
     <!-- LEC -->
     <g style="fill: #262626" transform="translate(79.644063 68.131187)scale(0.1 -0.1)">
      <defs>
       <path id="ArialMT-43" d="M 3763 1606 
L 4369 1453 
Q 4178 706 3683 314 
Q 3188 -78 2472 -78 
Q 1731 -78 1267 223 
Q 803 525 561 1097 
Q 319 1669 319 2325 
Q 319 3041 592 3573 
Q 866 4106 1370 4382 
Q 1875 4659 2481 4659 
Q 3169 4659 3637 4309 
Q 4106 3959 4291 3325 
L 3694 3184 
Q 3534 3684 3231 3912 
Q 2928 4141 2469 4141 
Q 1941 4141 1586 3887 
Q 1231 3634 1087 3207 
Q 944 2781 944 2328 
Q 944 1744 1114 1308 
Q 1284 872 1643 656 
Q 2003 441 2422 441 
Q 2931 441 3284 734 
Q 3638 1028 3763 1606 
z
" transform="scale(0.015625)"/>
      </defs>
      <use xlink:href="#ArialMT-4c"/>
      <use xlink:href="#ArialMT-45" x="55.615234"/>
      <use xlink:href="#ArialMT-43" x="122.314453"/>
     </g>
    </g>
    <g id="line2d_66">
     <path d="M 51.644063 78.7765 
L 61.644063 78.7765 
L 71.644063 78.7765 
" style="fill: none; stroke: #0600ef; stroke-width: 2; stroke-linecap: round"/>
    </g>
    <g id="text_19">
     <!-- PER -->
     <g style="fill: #262626" transform="translate(79.644063 82.2765)scale(0.1 -0.1)">
      <use xlink:href="#ArialMT-50"/>
      <use xlink:href="#ArialMT-45" x="66.699219"/>
      <use xlink:href="#ArialMT-52" x="133.398438"/>
     </g>
    </g>
    <g id="line2d_67">
     <path d="M 51.644063 92.921812 
L 61.644063 92.921812 
L 71.644063 92.921812 
" style="fill: none; stroke: #00d2be; stroke-width: 2; stroke-linecap: round"/>
    </g>
    <g id="text_20">
     <!-- RUS -->
     <g style="fill: #262626" transform="translate(79.644063 96.421812)scale(0.1 -0.1)">
      <use xlink:href="#ArialMT-52"/>
      <use xlink:href="#ArialMT-55" x="72.216797"/>
      <use xlink:href="#ArialMT-53" x="144.433594"/>
     </g>
    </g>
    <g id="line2d_68">
     <path d="M 51.644063 107.067125 
L 61.644063 107.067125 
L 71.644063 107.067125 
" style="fill: none; stroke: #ff8700; stroke-width: 2; stroke-linecap: round"/>
    </g>
    <g id="text_21">
     <!-- NOR -->
     <g style="fill: #262626" transform="translate(79.644063 110.567125)scale(0.1 -0.1)">
      <defs>
       <path id="ArialMT-4f" d="M 309 2231 
Q 309 3372 921 4017 
Q 1534 4663 2503 4663 
Q 3138 4663 3647 4359 
Q 4156 4056 4423 3514 
Q 4691 2972 4691 2284 
Q 4691 1588 4409 1038 
Q 4128 488 3612 205 
Q 3097 -78 2500 -78 
Q 1853 -78 1343 234 
Q 834 547 571 1087 
Q 309 1628 309 2231 
z
M 934 2222 
Q 934 1394 1379 917 
Q 1825 441 2497 441 
Q 3181 441 3623 922 
Q 4066 1403 4066 2288 
Q 4066 2847 3877 3264 
Q 3688 3681 3323 3911 
Q 2959 4141 2506 4141 
Q 1863 4141 1398 3698 
Q 934 3256 934 2222 
z
" transform="scale(0.015625)"/>
      </defs>
      <use xlink:href="#ArialMT-4e"/>
      <use xlink:href="#ArialMT-4f" x="72.216797"/>
      <use xlink:href="#ArialMT-52" x="150"/>
     </g>
    </g>
    <g id="line2d_69">
     <path d="M 51.644063 121.212437 
L 61.644063 121.212437 
L 71.644063 121.212437 
" style="fill: none; stroke: #0090ff; stroke-width: 2; stroke-linecap: round"/>
    </g>
    <g id="text_22">
     <!-- ALO -->
     <g style="fill: #262626" transform="translate(79.644063 124.712437)scale(0.1 -0.1)">
      <use xlink:href="#ArialMT-41"/>
      <use xlink:href="#ArialMT-4c" x="66.699219"/>
      <use xlink:href="#ArialMT-4f" x="122.314453"/>
     </g>
    </g>
    <g id="line2d_70">
     <path d="M 51.644063 135.35775 
L 61.644063 135.35775 
L 71.644063 135.35775 
" style="fill: none; stroke: #006f62; stroke-width: 2; stroke-linecap: round"/>
    </g>
    <g id="text_23">
     <!-- VET -->
     <g style="fill: #262626" transform="translate(79.644063 138.85775)scale(0.1 -0.1)">
      <use xlink:href="#ArialMT-56"/>
      <use xlink:href="#ArialMT-45" x="66.699219"/>
      <use xlink:href="#ArialMT-54" x="133.398438"/>
     </g>
    </g>
    <g id="line2d_71">
     <path d="M 51.644063 149.503062 
L 61.644063 149.503062 
L 71.644063 149.503062 
" style="fill: none; stroke: #ffffff; stroke-width: 2; stroke-linecap: round"/>
    </g>
    <g id="text_24">
     <!-- MAG -->
     <g style="fill: #262626" transform="translate(79.644063 153.003062)scale(0.1 -0.1)">
      <use xlink:href="#ArialMT-4d"/>
      <use xlink:href="#ArialMT-41" x="83.300781"/>
      <use xlink:href="#ArialMT-47" x="150"/>
     </g>
    </g>
    <g id="line2d_72">
     <path d="M 51.644063 163.648375 
L 61.644063 163.648375 
L 71.644063 163.648375 
" style="fill: none; stroke: #2b4562; stroke-width: 2; stroke-linecap: round"/>
    </g>
    <g id="text_25">
     <!-- TSU -->
     <g style="fill: #262626" transform="translate(79.644063 167.148375)scale(0.1 -0.1)">
      <use xlink:href="#ArialMT-54"/>
      <use xlink:href="#ArialMT-53" x="61.083984"/>
      <use xlink:href="#ArialMT-55" x="127.783203"/>
     </g>
    </g>
    <g id="line2d_73">
     <path d="M 51.644063 177.793687 
L 61.644063 177.793687 
L 71.644063 177.793687 
" style="fill: none; stroke: #0090ff; stroke-width: 2; stroke-linecap: round"/>
    </g>
    <g id="text_26">
     <!-- OCO -->
     <g style="fill: #262626" transform="translate(79.644063 181.293687)scale(0.1 -0.1)">
      <use xlink:href="#ArialMT-4f"/>
      <use xlink:href="#ArialMT-43" x="77.783203"/>
      <use xlink:href="#ArialMT-4f" x="150"/>
     </g>
    </g>
    <g id="line2d_74">
     <path d="M 51.644063 191.939 
L 61.644063 191.939 
L 71.644063 191.939 
" style="fill: none; stroke: #900000; stroke-width: 2; stroke-linecap: round"/>
    </g>
    <g id="text_27">
     <!-- ZHO -->
     <g style="fill: #262626" transform="translate(79.644063 195.439)scale(0.1 -0.1)">
      <defs>
       <path id="ArialMT-5a" d="M 128 0 
L 128 563 
L 2475 3497 
Q 2725 3809 2950 4041 
L 394 4041 
L 394 4581 
L 3675 4581 
L 3675 4041 
L 1103 863 
L 825 541 
L 3750 541 
L 3750 0 
L 128 0 
z
" transform="scale(0.015625)"/>
      </defs>
      <use xlink:href="#ArialMT-5a"/>
      <use xlink:href="#ArialMT-48" x="61.083984"/>
      <use xlink:href="#ArialMT-4f" x="133.300781"/>
     </g>
    </g>
    <g id="line2d_75">
     <path d="M 51.644063 206.084312 
L 61.644063 206.084312 
L 71.644063 206.084312 
" style="fill: none; stroke: #005aff; stroke-width: 2; stroke-linecap: round"/>
    </g>
    <g id="text_28">
     <!-- ALB -->
     <g style="fill: #262626" transform="translate(79.644063 209.584312)scale(0.1 -0.1)">
      <defs>
       <path id="ArialMT-42" d="M 469 0 
L 469 4581 
L 2188 4581 
Q 2713 4581 3030 4442 
Q 3347 4303 3526 4014 
Q 3706 3725 3706 3409 
Q 3706 3116 3547 2856 
Q 3388 2597 3066 2438 
Q 3481 2316 3704 2022 
Q 3928 1728 3928 1328 
Q 3928 1006 3792 729 
Q 3656 453 3456 303 
Q 3256 153 2954 76 
Q 2653 0 2216 0 
L 469 0 
z
M 1075 2656 
L 2066 2656 
Q 2469 2656 2644 2709 
Q 2875 2778 2992 2937 
Q 3109 3097 3109 3338 
Q 3109 3566 3000 3739 
Q 2891 3913 2687 3977 
Q 2484 4041 1991 4041 
L 1075 4041 
L 1075 2656 
z
M 1075 541 
L 2216 541 
Q 2509 541 2628 563 
Q 2838 600 2978 687 
Q 3119 775 3209 942 
Q 3300 1109 3300 1328 
Q 3300 1584 3169 1773 
Q 3038 1963 2805 2039 
Q 2572 2116 2134 2116 
L 1075 2116 
L 1075 541 
z
" transform="scale(0.015625)"/>
      </defs>
      <use xlink:href="#ArialMT-41"/>
      <use xlink:href="#ArialMT-4c" x="66.699219"/>
      <use xlink:href="#ArialMT-42" x="122.314453"/>
     </g>
    </g>
    <g id="line2d_76">
     <path d="M 51.644063 220.229625 
L 61.644063 220.229625 
L 71.644063 220.229625 
" style="fill: none; stroke: #2b4562; stroke-width: 2; stroke-linecap: round"/>
    </g>
    <g id="text_29">
     <!-- GAS -->
     <g style="fill: #262626" transform="translate(79.644063 223.729625)scale(0.1 -0.1)">
      <use xlink:href="#ArialMT-47"/>
      <use xlink:href="#ArialMT-41" x="77.783203"/>
      <use xlink:href="#ArialMT-53" x="144.482422"/>
     </g>
    </g>
    <g id="line2d_77">
     <path d="M 51.644063 234.374937 
L 61.644063 234.374937 
L 71.644063 234.374937 
" style="fill: none; stroke: #ffffff; stroke-width: 2; stroke-linecap: round"/>
    </g>
    <g id="text_30">
     <!-- MSC -->
     <g style="fill: #262626" transform="translate(79.644063 237.874937)scale(0.1 -0.1)">
      <use xlink:href="#ArialMT-4d"/>
      <use xlink:href="#ArialMT-53" x="83.300781"/>
      <use xlink:href="#ArialMT-43" x="150"/>
     </g>
    </g>
    <g id="line2d_78">
     <path d="M 51.644063 248.52025 
L 61.644063 248.52025 
L 71.644063 248.52025 
" style="fill: none; stroke: #ff8700; stroke-width: 2; stroke-linecap: round"/>
    </g>
    <g id="text_31">
     <!-- RIC -->
     <g style="fill: #262626" transform="translate(79.644063 252.02025)scale(0.1 -0.1)">
      <defs>
       <path id="ArialMT-49" d="M 597 0 
L 597 4581 
L 1203 4581 
L 1203 0 
L 597 0 
z
" transform="scale(0.015625)"/>
      </defs>
      <use xlink:href="#ArialMT-52"/>
      <use xlink:href="#ArialMT-49" x="72.216797"/>
      <use xlink:href="#ArialMT-43" x="100"/>
     </g>
    </g>
    <g id="line2d_79">
     <path d="M 51.644063 262.665562 
L 61.644063 262.665562 
L 71.644063 262.665562 
" style="fill: none; stroke: #005aff; stroke-width: 2; stroke-linecap: round"/>
    </g>
    <g id="text_32">
     <!-- LAT -->
     <g style="fill: #262626" transform="translate(79.644063 266.165562)scale(0.1 -0.1)">
      <use xlink:href="#ArialMT-4c"/>
      <use xlink:href="#ArialMT-41" x="55.615234"/>
      <use xlink:href="#ArialMT-54" x="114.939453"/>
     </g>
    </g>
    <g id="line2d_80">
     <path d="M 51.644063 276.810875 
L 61.644063 276.810875 
L 71.644063 276.810875 
" style="fill: none; stroke: #006f62; stroke-width: 2; stroke-linecap: round"/>
    </g>
    <g id="text_33">
     <!-- STR -->
     <g style="fill: #262626" transform="translate(79.644063 280.310875)scale(0.1 -0.1)">
      <use xlink:href="#ArialMT-53"/>
      <use xlink:href="#ArialMT-54" x="66.699219"/>
      <use xlink:href="#ArialMT-52" x="127.783203"/>
     </g>
    </g>
    <g id="line2d_81">
     <path d="M 51.644063 290.956187 
L 61.644063 290.956187 
L 71.644063 290.956187 
" style="fill: none; stroke: #900000; stroke-width: 2; stroke-linecap: round"/>
    </g>
    <g id="text_34">
     <!-- BOT -->
     <g style="fill: #262626" transform="translate(79.644063 294.456187)scale(0.1 -0.1)">
      <use xlink:href="#ArialMT-42"/>
      <use xlink:href="#ArialMT-4f" x="66.699219"/>
      <use xlink:href="#ArialMT-54" x="144.482422"/>
     </g>
    </g>
   </g>
  </g>
  <g id="text_35">
   <!--  2022 Yoann Betton -->
   <g style="fill: #262626" transform="translate(319.302656 398.760562)scale(0.1 -0.1)">
    <defs>
     <path id="ArialMT-a9" d="M 2369 4659 
Q 2963 4659 3528 4354 
Q 4094 4050 4409 3483 
Q 4725 2916 4725 2300 
Q 4725 1691 4414 1128 
Q 4103 566 3542 255 
Q 2981 -56 2369 -56 
Q 1756 -56 1195 255 
Q 634 566 321 1128 
Q 9 1691 9 2300 
Q 9 2916 326 3483 
Q 644 4050 1209 4354 
Q 1775 4659 2369 4659 
z
M 2369 4269 
Q 1872 4269 1401 4014 
Q 931 3759 665 3286 
Q 400 2813 400 2300 
Q 400 1791 661 1323 
Q 922 856 1390 595 
Q 1859 334 2369 334 
Q 2878 334 3347 595 
Q 3816 856 4075 1323 
Q 4334 1791 4334 2300 
Q 4334 2813 4070 3286 
Q 3806 3759 3334 4014 
Q 2863 4269 2369 4269 
z
M 3125 1919 
L 3509 1806 
Q 3416 1416 3111 1183 
Q 2806 950 2372 950 
Q 1822 950 1478 1306 
Q 1134 1663 1134 2294 
Q 1134 2706 1290 3011 
Q 1447 3316 1736 3470 
Q 2025 3625 2397 3625 
Q 2813 3625 3088 3426 
Q 3363 3228 3463 2888 
L 3091 2797 
Q 2997 3028 2814 3151 
Q 2631 3275 2384 3275 
Q 2025 3275 1792 3019 
Q 1559 2763 1559 2284 
Q 1559 1806 1779 1561 
Q 2000 1316 2350 1316 
Q 2631 1316 2843 1478 
Q 3056 1641 3125 1919 
z
" transform="scale(0.015625)"/>
     <path id="ArialMT-59" d="M 1784 0 
L 1784 1941 
L 19 4581 
L 756 4581 
L 1659 3200 
Q 1909 2813 2125 2425 
Q 2331 2784 2625 3234 
L 3513 4581 
L 4219 4581 
L 2391 1941 
L 2391 0 
L 1784 0 
z
" transform="scale(0.015625)"/>
    </defs>
    <use xlink:href="#ArialMT-a9"/>
    <use xlink:href="#ArialMT-20" x="73.681641"/>
    <use xlink:href="#ArialMT-32" x="101.464844"/>
    <use xlink:href="#ArialMT-30" x="157.080078"/>
    <use xlink:href="#ArialMT-32" x="212.695312"/>
    <use xlink:href="#ArialMT-32" x="268.310547"/>
    <use xlink:href="#ArialMT-20" x="323.925781"/>
    <use xlink:href="#ArialMT-59" x="349.958984"/>
    <use xlink:href="#ArialMT-6f" x="407.533203"/>
    <use xlink:href="#ArialMT-61" x="463.148438"/>
    <use xlink:href="#ArialMT-6e" x="518.763672"/>
    <use xlink:href="#ArialMT-6e" x="574.378906"/>
    <use xlink:href="#ArialMT-20" x="629.994141"/>
    <use xlink:href="#ArialMT-42" x="657.777344"/>
    <use xlink:href="#ArialMT-65" x="724.476562"/>
    <use xlink:href="#ArialMT-74" x="780.091797"/>
    <use xlink:href="#ArialMT-74" x="807.875"/>
    <use xlink:href="#ArialMT-6f" x="835.658203"/>
    <use xlink:href="#ArialMT-6e" x="891.273438"/>
   </g>
  </g>
 </g>
 <defs>
  <clipPath id="p7effaa355f">
   <rect x="42.644063" y="23.68275" width="669.6" height="388.08"/>
  </clipPath>
 </defs>
</svg>
