<?xml version="1.0" encoding="utf-8" standalone="no"?>
<!DOCTYPE svg PUBLIC "-//W3C//DTD SVG 1.1//EN"
  "http://www.w3.org/Graphics/SVG/1.1/DTD/svg11.dtd">
<svg xmlns:xlink="http://www.w3.org/1999/xlink" width="719.444063pt" height="469.851562pt" viewBox="0 0 719.444063 469.851562" xmlns="http://www.w3.org/2000/svg" version="1.1">
 <metadata>
  <rdf:RDF xmlns:dc="http://purl.org/dc/elements/1.1/" xmlns:cc="http://creativecommons.org/ns#" xmlns:rdf="http://www.w3.org/1999/02/22-rdf-syntax-ns#">
   <cc:Work>
    <dc:type rdf:resource="http://purl.org/dc/dcmitype/StillImage"/>
    <dc:date>2022-11-18T10:05:21.457873</dc:date>
    <dc:format>image/svg+xml</dc:format>
    <dc:creator>
     <cc:Agent>
      <dc:title>Matplotlib v3.5.2, https://matplotlib.org/</dc:title>
     </cc:Agent>
    </dc:creator>
   </cc:Work>
  </rdf:RDF>
 </metadata>
 <defs>
  <style type="text/css">*{stroke-linejoin: round; stroke-linecap: butt}</style>
 </defs>
 <g id="figure_1">
  <g id="patch_1">
   <path d="M 0 469.851562 
L 719.444063 469.851562 
L 719.444063 0 
L 0 0 
z
" style="fill: #ffffff"/>
  </g>
  <g id="axes_1">
   <g id="patch_2">
    <path d="M 42.644063 411.58725 
L 712.244063 411.58725 
L 712.244063 23.50725 
L 42.644063 23.50725 
z
" style="fill: #eeeeee"/>
   </g>
   <g id="matplotlib.axis_1">
    <g id="xtick_1">
     <g id="line2d_1"/>
     <g id="text_1">
      <!-- VER -->
      <g style="fill: #555555" transform="translate(49.102813 422.245063)scale(0.1 -0.1)">
       <defs>
        <path id="ArialMT-56" d="M 1803 0 
L 28 4581 
L 684 4581 
L 1875 1253 
Q 2019 853 2116 503 
Q 2222 878 2363 1253 
L 3600 4581 
L 4219 4581 
L 2425 0 
L 1803 0 
z
" transform="scale(0.015625)"/>
        <path id="ArialMT-45" d="M 506 0 
L 506 4581 
L 3819 4581 
L 3819 4041 
L 1113 4041 
L 1113 2638 
L 3647 2638 
L 3647 2100 
L 1113 2100 
L 1113 541 
L 3925 541 
L 3925 0 
L 506 0 
z
" transform="scale(0.015625)"/>
        <path id="ArialMT-52" d="M 503 0 
L 503 4581 
L 2534 4581 
Q 3147 4581 3465 4457 
Q 3784 4334 3975 4021 
Q 4166 3709 4166 3331 
Q 4166 2844 3850 2509 
Q 3534 2175 2875 2084 
Q 3116 1969 3241 1856 
Q 3506 1613 3744 1247 
L 4541 0 
L 3778 0 
L 3172 953 
Q 2906 1366 2734 1584 
Q 2563 1803 2427 1890 
Q 2291 1978 2150 2013 
Q 2047 2034 1813 2034 
L 1109 2034 
L 1109 0 
L 503 0 
z
M 1109 2559 
L 2413 2559 
Q 2828 2559 3062 2645 
Q 3297 2731 3419 2920 
Q 3541 3109 3541 3331 
Q 3541 3656 3305 3865 
Q 3069 4075 2559 4075 
L 1109 4075 
L 1109 2559 
z
" transform="scale(0.015625)"/>
       </defs>
       <use xlink:href="#ArialMT-56"/>
       <use xlink:href="#ArialMT-45" x="66.699219"/>
       <use xlink:href="#ArialMT-52" x="133.398438"/>
      </g>
      <!-- 12 -->
      <g style="fill: #555555" transform="translate(53.823125 432.821937)scale(0.1 -0.1)">
       <defs>
        <path id="ArialMT-31" d="M 2384 0 
L 1822 0 
L 1822 3584 
Q 1619 3391 1289 3197 
Q 959 3003 697 2906 
L 697 3450 
Q 1169 3672 1522 3987 
Q 1875 4303 2022 4600 
L 2384 4600 
L 2384 0 
z
" transform="scale(0.015625)"/>
        <path id="ArialMT-32" d="M 3222 541 
L 3222 0 
L 194 0 
Q 188 203 259 391 
Q 375 700 629 1000 
Q 884 1300 1366 1694 
Q 2113 2306 2375 2664 
Q 2638 3022 2638 3341 
Q 2638 3675 2398 3904 
Q 2159 4134 1775 4134 
Q 1369 4134 1125 3890 
Q 881 3647 878 3216 
L 300 3275 
Q 359 3922 746 4261 
Q 1134 4600 1788 4600 
Q 2447 4600 2831 4234 
Q 3216 3869 3216 3328 
Q 3216 3053 3103 2787 
Q 2991 2522 2730 2228 
Q 2469 1934 1863 1422 
Q 1356 997 1212 845 
Q 1069 694 975 541 
L 3222 541 
z
" transform="scale(0.015625)"/>
       </defs>
       <use xlink:href="#ArialMT-31"/>
       <use xlink:href="#ArialMT-32" x="55.615234"/>
      </g>
     </g>
    </g>
    <g id="xtick_2">
     <g id="line2d_2"/>
     <g id="text_2">
      <!-- RUS -->
      <g style="fill: #555555" transform="translate(82.307031 422.245063)scale(0.1 -0.1)">
       <defs>
        <path id="ArialMT-55" d="M 3500 4581 
L 4106 4581 
L 4106 1934 
Q 4106 1244 3950 837 
Q 3794 431 3386 176 
Q 2978 -78 2316 -78 
Q 1672 -78 1262 144 
Q 853 366 678 786 
Q 503 1206 503 1934 
L 503 4581 
L 1109 4581 
L 1109 1938 
Q 1109 1341 1220 1058 
Q 1331 775 1601 622 
Q 1872 469 2263 469 
Q 2931 469 3215 772 
Q 3500 1075 3500 1938 
L 3500 4581 
z
" transform="scale(0.015625)"/>
        <path id="ArialMT-53" d="M 288 1472 
L 859 1522 
Q 900 1178 1048 958 
Q 1197 738 1509 602 
Q 1822 466 2213 466 
Q 2559 466 2825 569 
Q 3091 672 3220 851 
Q 3350 1031 3350 1244 
Q 3350 1459 3225 1620 
Q 3100 1781 2813 1891 
Q 2628 1963 1997 2114 
Q 1366 2266 1113 2400 
Q 784 2572 623 2826 
Q 463 3081 463 3397 
Q 463 3744 659 4045 
Q 856 4347 1234 4503 
Q 1613 4659 2075 4659 
Q 2584 4659 2973 4495 
Q 3363 4331 3572 4012 
Q 3781 3694 3797 3291 
L 3216 3247 
Q 3169 3681 2898 3903 
Q 2628 4125 2100 4125 
Q 1550 4125 1298 3923 
Q 1047 3722 1047 3438 
Q 1047 3191 1225 3031 
Q 1400 2872 2139 2705 
Q 2878 2538 3153 2413 
Q 3553 2228 3743 1945 
Q 3934 1663 3934 1294 
Q 3934 928 3725 604 
Q 3516 281 3123 101 
Q 2731 -78 2241 -78 
Q 1619 -78 1198 103 
Q 778 284 539 648 
Q 300 1013 288 1472 
z
" transform="scale(0.015625)"/>
       </defs>
       <use xlink:href="#ArialMT-52"/>
       <use xlink:href="#ArialMT-55" x="72.216797"/>
       <use xlink:href="#ArialMT-53" x="144.433594"/>
      </g>
      <!-- 13 -->
      <g style="fill: #555555" transform="translate(87.303125 432.821937)scale(0.1 -0.1)">
       <defs>
        <path id="ArialMT-33" d="M 269 1209 
L 831 1284 
Q 928 806 1161 595 
Q 1394 384 1728 384 
Q 2125 384 2398 659 
Q 2672 934 2672 1341 
Q 2672 1728 2419 1979 
Q 2166 2231 1775 2231 
Q 1616 2231 1378 2169 
L 1441 2663 
Q 1497 2656 1531 2656 
Q 1891 2656 2178 2843 
Q 2466 3031 2466 3422 
Q 2466 3731 2256 3934 
Q 2047 4138 1716 4138 
Q 1388 4138 1169 3931 
Q 950 3725 888 3313 
L 325 3413 
Q 428 3978 793 4289 
Q 1159 4600 1703 4600 
Q 2078 4600 2393 4439 
Q 2709 4278 2876 4000 
Q 3044 3722 3044 3409 
Q 3044 3113 2884 2869 
Q 2725 2625 2413 2481 
Q 2819 2388 3044 2092 
Q 3269 1797 3269 1353 
Q 3269 753 2831 336 
Q 2394 -81 1725 -81 
Q 1122 -81 723 278 
Q 325 638 269 1209 
z
" transform="scale(0.015625)"/>
       </defs>
       <use xlink:href="#ArialMT-31"/>
       <use xlink:href="#ArialMT-33" x="55.615234"/>
      </g>
     </g>
    </g>
    <g id="xtick_3">
     <g id="line2d_3"/>
     <g id="text_3">
      <!-- LEC -->
      <g style="fill: #555555" transform="translate(116.6175 422.245063)scale(0.1 -0.1)">
       <defs>
        <path id="ArialMT-4c" d="M 469 0 
L 469 4581 
L 1075 4581 
L 1075 541 
L 3331 541 
L 3331 0 
L 469 0 
z
" transform="scale(0.015625)"/>
        <path id="ArialMT-43" d="M 3763 1606 
L 4369 1453 
Q 4178 706 3683 314 
Q 3188 -78 2472 -78 
Q 1731 -78 1267 223 
Q 803 525 561 1097 
Q 319 1669 319 2325 
Q 319 3041 592 3573 
Q 866 4106 1370 4382 
Q 1875 4659 2481 4659 
Q 3169 4659 3637 4309 
Q 4106 3959 4291 3325 
L 3694 3184 
Q 3534 3684 3231 3912 
Q 2928 4141 2469 4141 
Q 1941 4141 1586 3887 
Q 1231 3634 1087 3207 
Q 944 2781 944 2328 
Q 944 1744 1114 1308 
Q 1284 872 1643 656 
Q 2003 441 2422 441 
Q 2931 441 3284 734 
Q 3638 1028 3763 1606 
z
" transform="scale(0.015625)"/>
       </defs>
       <use xlink:href="#ArialMT-4c"/>
       <use xlink:href="#ArialMT-45" x="55.615234"/>
       <use xlink:href="#ArialMT-43" x="122.314453"/>
      </g>
      <!-- 17 -->
      <g style="fill: #555555" transform="translate(120.783125 432.821937)scale(0.1 -0.1)">
       <defs>
        <path id="ArialMT-37" d="M 303 3981 
L 303 4522 
L 3269 4522 
L 3269 4084 
Q 2831 3619 2401 2847 
Q 1972 2075 1738 1259 
Q 1569 684 1522 0 
L 944 0 
Q 953 541 1156 1306 
Q 1359 2072 1739 2783 
Q 2119 3494 2547 3981 
L 303 3981 
z
" transform="scale(0.015625)"/>
       </defs>
       <use xlink:href="#ArialMT-31"/>
       <use xlink:href="#ArialMT-37" x="55.615234"/>
      </g>
     </g>
    </g>
    <g id="xtick_4">
     <g id="line2d_4"/>
     <g id="text_4">
      <!-- HAM -->
      <g style="fill: #555555" transform="translate(148.713125 422.245063)scale(0.1 -0.1)">
       <defs>
        <path id="ArialMT-48" d="M 513 0 
L 513 4581 
L 1119 4581 
L 1119 2700 
L 3500 2700 
L 3500 4581 
L 4106 4581 
L 4106 0 
L 3500 0 
L 3500 2159 
L 1119 2159 
L 1119 0 
L 513 0 
z
" transform="scale(0.015625)"/>
        <path id="ArialMT-41" d="M -9 0 
L 1750 4581 
L 2403 4581 
L 4278 0 
L 3588 0 
L 3053 1388 
L 1138 1388 
L 634 0 
L -9 0 
z
M 1313 1881 
L 2866 1881 
L 2388 3150 
Q 2169 3728 2063 4100 
Q 1975 3659 1816 3225 
L 1313 1881 
z
" transform="scale(0.015625)"/>
        <path id="ArialMT-4d" d="M 475 0 
L 475 4581 
L 1388 4581 
L 2472 1338 
Q 2622 884 2691 659 
Q 2769 909 2934 1394 
L 4031 4581 
L 4847 4581 
L 4847 0 
L 4263 0 
L 4263 3834 
L 2931 0 
L 2384 0 
L 1059 3900 
L 1059 0 
L 475 0 
z
" transform="scale(0.015625)"/>
       </defs>
       <use xlink:href="#ArialMT-48"/>
       <use xlink:href="#ArialMT-41" x="72.216797"/>
       <use xlink:href="#ArialMT-4d" x="138.916016"/>
      </g>
      <!-- 9 -->
      <g style="fill: #555555" transform="translate(157.043594 432.821937)scale(0.1 -0.1)">
       <defs>
        <path id="ArialMT-39" d="M 350 1059 
L 891 1109 
Q 959 728 1153 556 
Q 1347 384 1650 384 
Q 1909 384 2104 503 
Q 2300 622 2425 820 
Q 2550 1019 2634 1356 
Q 2719 1694 2719 2044 
Q 2719 2081 2716 2156 
Q 2547 1888 2255 1720 
Q 1963 1553 1622 1553 
Q 1053 1553 659 1965 
Q 266 2378 266 3053 
Q 266 3750 677 4175 
Q 1088 4600 1706 4600 
Q 2153 4600 2523 4359 
Q 2894 4119 3086 3673 
Q 3278 3228 3278 2384 
Q 3278 1506 3087 986 
Q 2897 466 2520 194 
Q 2144 -78 1638 -78 
Q 1100 -78 759 220 
Q 419 519 350 1059 
z
M 2653 3081 
Q 2653 3566 2395 3850 
Q 2138 4134 1775 4134 
Q 1400 4134 1122 3828 
Q 844 3522 844 3034 
Q 844 2597 1108 2323 
Q 1372 2050 1759 2050 
Q 2150 2050 2401 2323 
Q 2653 2597 2653 3081 
z
" transform="scale(0.015625)"/>
       </defs>
       <use xlink:href="#ArialMT-39"/>
      </g>
     </g>
    </g>
    <g id="xtick_5">
     <g id="line2d_5"/>
     <g id="text_5">
      <!-- PER -->
      <g style="fill: #555555" transform="translate(183.022813 422.245063)scale(0.1 -0.1)">
       <defs>
        <path id="ArialMT-50" d="M 494 0 
L 494 4581 
L 2222 4581 
Q 2678 4581 2919 4538 
Q 3256 4481 3484 4323 
Q 3713 4166 3852 3881 
Q 3991 3597 3991 3256 
Q 3991 2672 3619 2267 
Q 3247 1863 2275 1863 
L 1100 1863 
L 1100 0 
L 494 0 
z
M 1100 2403 
L 2284 2403 
Q 2872 2403 3119 2622 
Q 3366 2841 3366 3238 
Q 3366 3525 3220 3729 
Q 3075 3934 2838 4000 
Q 2684 4041 2272 4041 
L 1100 4041 
L 1100 2403 
z
" transform="scale(0.015625)"/>
       </defs>
       <use xlink:href="#ArialMT-50"/>
       <use xlink:href="#ArialMT-45" x="66.699219"/>
       <use xlink:href="#ArialMT-52" x="133.398438"/>
      </g>
      <!-- 13 -->
      <g style="fill: #555555" transform="translate(187.743125 432.821937)scale(0.1 -0.1)">
       <use xlink:href="#ArialMT-31"/>
       <use xlink:href="#ArialMT-33" x="55.615234"/>
      </g>
     </g>
    </g>
    <g id="xtick_6">
     <g id="line2d_6"/>
     <g id="text_6">
      <!-- SAI -->
      <g style="fill: #555555" transform="translate(218.724688 422.245063)scale(0.1 -0.1)">
       <defs>
        <path id="ArialMT-49" d="M 597 0 
L 597 4581 
L 1203 4581 
L 1203 0 
L 597 0 
z
" transform="scale(0.015625)"/>
       </defs>
       <use xlink:href="#ArialMT-53"/>
       <use xlink:href="#ArialMT-41" x="66.699219"/>
       <use xlink:href="#ArialMT-49" x="133.398438"/>
      </g>
      <!-- 14 -->
      <g style="fill: #555555" transform="translate(221.223125 432.821937)scale(0.1 -0.1)">
       <defs>
        <path id="ArialMT-34" d="M 2069 0 
L 2069 1097 
L 81 1097 
L 81 1613 
L 2172 4581 
L 2631 4581 
L 2631 1613 
L 3250 1613 
L 3250 1097 
L 2631 1097 
L 2631 0 
L 2069 0 
z
M 2069 1613 
L 2069 3678 
L 634 1613 
L 2069 1613 
z
" transform="scale(0.015625)"/>
       </defs>
       <use xlink:href="#ArialMT-31"/>
       <use xlink:href="#ArialMT-34" x="55.615234"/>
      </g>
     </g>
    </g>
    <g id="xtick_7">
     <g id="line2d_7"/>
     <g id="text_7">
      <!-- OCO -->
      <g style="fill: #555555" transform="translate(248.875 422.245063)scale(0.1 -0.1)">
       <defs>
        <path id="ArialMT-4f" d="M 309 2231 
Q 309 3372 921 4017 
Q 1534 4663 2503 4663 
Q 3138 4663 3647 4359 
Q 4156 4056 4423 3514 
Q 4691 2972 4691 2284 
Q 4691 1588 4409 1038 
Q 4128 488 3612 205 
Q 3097 -78 2500 -78 
Q 1853 -78 1343 234 
Q 834 547 571 1087 
Q 309 1628 309 2231 
z
M 934 2222 
Q 934 1394 1379 917 
Q 1825 441 2497 441 
Q 3181 441 3623 922 
Q 4066 1403 4066 2288 
Q 4066 2847 3877 3264 
Q 3688 3681 3323 3911 
Q 2959 4141 2506 4141 
Q 1863 4141 1398 3698 
Q 934 3256 934 2222 
z
" transform="scale(0.015625)"/>
       </defs>
       <use xlink:href="#ArialMT-4f"/>
       <use xlink:href="#ArialMT-43" x="77.783203"/>
       <use xlink:href="#ArialMT-4f" x="150"/>
      </g>
      <!-- 17 -->
      <g style="fill: #555555" transform="translate(254.703125 432.821937)scale(0.1 -0.1)">
       <use xlink:href="#ArialMT-31"/>
       <use xlink:href="#ArialMT-37" x="55.615234"/>
      </g>
     </g>
    </g>
    <g id="xtick_8">
     <g id="line2d_8"/>
     <g id="text_8">
      <!-- ALO -->
      <g style="fill: #555555" transform="translate(283.739375 422.245063)scale(0.1 -0.1)">
       <use xlink:href="#ArialMT-41"/>
       <use xlink:href="#ArialMT-4c" x="66.699219"/>
       <use xlink:href="#ArialMT-4f" x="122.314453"/>
      </g>
      <!-- 14 -->
      <g style="fill: #555555" transform="translate(288.183125 432.821937)scale(0.1 -0.1)">
       <use xlink:href="#ArialMT-31"/>
       <use xlink:href="#ArialMT-34" x="55.615234"/>
      </g>
     </g>
    </g>
    <g id="xtick_9">
     <g id="line2d_9"/>
     <g id="text_9">
      <!-- RIC -->
      <g style="fill: #555555" transform="translate(318.613125 422.245063)scale(0.1 -0.1)">
       <use xlink:href="#ArialMT-52"/>
       <use xlink:href="#ArialMT-49" x="72.216797"/>
       <use xlink:href="#ArialMT-43" x="100"/>
      </g>
      <!-- 3 -->
      <g style="fill: #555555" transform="translate(324.443594 432.821937)scale(0.1 -0.1)">
       <use xlink:href="#ArialMT-33"/>
      </g>
     </g>
    </g>
    <g id="xtick_10">
     <g id="line2d_10"/>
     <g id="text_10">
      <!-- BOT -->
      <g style="fill: #555555" transform="translate(350.425938 422.245063)scale(0.1 -0.1)">
       <defs>
        <path id="ArialMT-42" d="M 469 0 
L 469 4581 
L 2188 4581 
Q 2713 4581 3030 4442 
Q 3347 4303 3526 4014 
Q 3706 3725 3706 3409 
Q 3706 3116 3547 2856 
Q 3388 2597 3066 2438 
Q 3481 2316 3704 2022 
Q 3928 1728 3928 1328 
Q 3928 1006 3792 729 
Q 3656 453 3456 303 
Q 3256 153 2954 76 
Q 2653 0 2216 0 
L 469 0 
z
M 1075 2656 
L 2066 2656 
Q 2469 2656 2644 2709 
Q 2875 2778 2992 2937 
Q 3109 3097 3109 3338 
Q 3109 3566 3000 3739 
Q 2891 3913 2687 3977 
Q 2484 4041 1991 4041 
L 1075 4041 
L 1075 2656 
z
M 1075 541 
L 2216 541 
Q 2509 541 2628 563 
Q 2838 600 2978 687 
Q 3119 775 3209 942 
Q 3300 1109 3300 1328 
Q 3300 1584 3169 1773 
Q 3038 1963 2805 2039 
Q 2572 2116 2134 2116 
L 1075 2116 
L 1075 541 
z
" transform="scale(0.015625)"/>
        <path id="ArialMT-54" d="M 1659 0 
L 1659 4041 
L 150 4041 
L 150 4581 
L 3781 4581 
L 3781 4041 
L 2266 4041 
L 2266 0 
L 1659 0 
z
" transform="scale(0.015625)"/>
       </defs>
       <use xlink:href="#ArialMT-42"/>
       <use xlink:href="#ArialMT-4f" x="66.699219"/>
       <use xlink:href="#ArialMT-54" x="144.482422"/>
      </g>
      <!-- 15 -->
      <g style="fill: #555555" transform="translate(355.143125 432.821937)scale(0.1 -0.1)">
       <defs>
        <path id="ArialMT-35" d="M 266 1200 
L 856 1250 
Q 922 819 1161 601 
Q 1400 384 1738 384 
Q 2144 384 2425 690 
Q 2706 997 2706 1503 
Q 2706 1984 2436 2262 
Q 2166 2541 1728 2541 
Q 1456 2541 1237 2417 
Q 1019 2294 894 2097 
L 366 2166 
L 809 4519 
L 3088 4519 
L 3088 3981 
L 1259 3981 
L 1013 2750 
Q 1425 3038 1878 3038 
Q 2478 3038 2890 2622 
Q 3303 2206 3303 1553 
Q 3303 931 2941 478 
Q 2500 -78 1738 -78 
Q 1113 -78 717 272 
Q 322 622 266 1200 
z
" transform="scale(0.015625)"/>
       </defs>
       <use xlink:href="#ArialMT-31"/>
       <use xlink:href="#ArialMT-35" x="55.615234"/>
      </g>
     </g>
    </g>
    <g id="xtick_11">
     <g id="line2d_11"/>
     <g id="text_11">
      <!-- NOR -->
      <g style="fill: #555555" transform="translate(383.073125 422.245063)scale(0.1 -0.1)">
       <defs>
        <path id="ArialMT-4e" d="M 488 0 
L 488 4581 
L 1109 4581 
L 3516 984 
L 3516 4581 
L 4097 4581 
L 4097 0 
L 3475 0 
L 1069 3600 
L 1069 0 
L 488 0 
z
" transform="scale(0.015625)"/>
       </defs>
       <use xlink:href="#ArialMT-4e"/>
       <use xlink:href="#ArialMT-4f" x="72.216797"/>
       <use xlink:href="#ArialMT-52" x="150"/>
      </g>
      <!-- 14 -->
      <g style="fill: #555555" transform="translate(388.623125 432.821937)scale(0.1 -0.1)">
       <use xlink:href="#ArialMT-31"/>
       <use xlink:href="#ArialMT-34" x="55.615234"/>
      </g>
     </g>
    </g>
    <g id="xtick_12">
     <g id="line2d_12"/>
     <g id="text_12">
      <!-- VET -->
      <g style="fill: #555555" transform="translate(417.939844 422.245063)scale(0.1 -0.1)">
       <use xlink:href="#ArialMT-56"/>
       <use xlink:href="#ArialMT-45" x="66.699219"/>
       <use xlink:href="#ArialMT-54" x="133.398438"/>
      </g>
      <!-- 13 -->
      <g style="fill: #555555" transform="translate(422.103125 432.821937)scale(0.1 -0.1)">
       <use xlink:href="#ArialMT-31"/>
       <use xlink:href="#ArialMT-33" x="55.615234"/>
      </g>
     </g>
    </g>
    <g id="xtick_13">
     <g id="line2d_13"/>
     <g id="text_13">
      <!-- ZHO -->
      <g style="fill: #555555" transform="translate(450.590156 422.245063)scale(0.1 -0.1)">
       <defs>
        <path id="ArialMT-5a" d="M 128 0 
L 128 563 
L 2475 3497 
Q 2725 3809 2950 4041 
L 394 4041 
L 394 4581 
L 3675 4581 
L 3675 4041 
L 1103 863 
L 825 541 
L 3750 541 
L 3750 0 
L 128 0 
z
" transform="scale(0.015625)"/>
       </defs>
       <use xlink:href="#ArialMT-5a"/>
       <use xlink:href="#ArialMT-48" x="61.083984"/>
       <use xlink:href="#ArialMT-4f" x="133.300781"/>
      </g>
      <!-- 17 -->
      <g style="fill: #555555" transform="translate(455.583125 432.821937)scale(0.1 -0.1)">
       <use xlink:href="#ArialMT-31"/>
       <use xlink:href="#ArialMT-37" x="55.615234"/>
      </g>
     </g>
    </g>
    <g id="xtick_14">
     <g id="line2d_14"/>
     <g id="text_14">
      <!-- STR -->
      <g style="fill: #555555" transform="translate(484.624063 422.245063)scale(0.1 -0.1)">
       <use xlink:href="#ArialMT-53"/>
       <use xlink:href="#ArialMT-54" x="66.699219"/>
       <use xlink:href="#ArialMT-52" x="127.783203"/>
      </g>
      <!-- 13 -->
      <g style="fill: #555555" transform="translate(489.063125 432.821937)scale(0.1 -0.1)">
       <use xlink:href="#ArialMT-31"/>
       <use xlink:href="#ArialMT-33" x="55.615234"/>
      </g>
     </g>
    </g>
    <g id="xtick_15">
     <g id="line2d_15"/>
     <g id="text_15">
      <!-- TSU -->
      <g style="fill: #555555" transform="translate(518.104063 422.245063)scale(0.1 -0.1)">
       <use xlink:href="#ArialMT-54"/>
       <use xlink:href="#ArialMT-53" x="61.083984"/>
       <use xlink:href="#ArialMT-55" x="127.783203"/>
      </g>
      <!-- 18 -->
      <g style="fill: #555555" transform="translate(522.543125 432.821937)scale(0.1 -0.1)">
       <defs>
        <path id="ArialMT-38" d="M 1131 2484 
Q 781 2613 612 2850 
Q 444 3088 444 3419 
Q 444 3919 803 4259 
Q 1163 4600 1759 4600 
Q 2359 4600 2725 4251 
Q 3091 3903 3091 3403 
Q 3091 3084 2923 2848 
Q 2756 2613 2416 2484 
Q 2838 2347 3058 2040 
Q 3278 1734 3278 1309 
Q 3278 722 2862 322 
Q 2447 -78 1769 -78 
Q 1091 -78 675 323 
Q 259 725 259 1325 
Q 259 1772 486 2073 
Q 713 2375 1131 2484 
z
M 1019 3438 
Q 1019 3113 1228 2906 
Q 1438 2700 1772 2700 
Q 2097 2700 2305 2904 
Q 2513 3109 2513 3406 
Q 2513 3716 2298 3927 
Q 2084 4138 1766 4138 
Q 1444 4138 1231 3931 
Q 1019 3725 1019 3438 
z
M 838 1322 
Q 838 1081 952 856 
Q 1066 631 1291 507 
Q 1516 384 1775 384 
Q 2178 384 2440 643 
Q 2703 903 2703 1303 
Q 2703 1709 2433 1975 
Q 2163 2241 1756 2241 
Q 1359 2241 1098 1978 
Q 838 1716 838 1322 
z
" transform="scale(0.015625)"/>
       </defs>
       <use xlink:href="#ArialMT-31"/>
       <use xlink:href="#ArialMT-38" x="55.615234"/>
      </g>
     </g>
    </g>
    <g id="xtick_16">
     <g id="line2d_16"/>
     <g id="text_16">
      <!-- ALB -->
      <g style="fill: #555555" transform="translate(552.133281 422.245063)scale(0.1 -0.1)">
       <use xlink:href="#ArialMT-41"/>
       <use xlink:href="#ArialMT-4c" x="66.699219"/>
       <use xlink:href="#ArialMT-42" x="122.314453"/>
      </g>
      <!-- 16 -->
      <g style="fill: #555555" transform="translate(556.023125 432.821937)scale(0.1 -0.1)">
       <defs>
        <path id="ArialMT-36" d="M 3184 3459 
L 2625 3416 
Q 2550 3747 2413 3897 
Q 2184 4138 1850 4138 
Q 1581 4138 1378 3988 
Q 1113 3794 959 3422 
Q 806 3050 800 2363 
Q 1003 2672 1297 2822 
Q 1591 2972 1913 2972 
Q 2475 2972 2870 2558 
Q 3266 2144 3266 1488 
Q 3266 1056 3080 686 
Q 2894 316 2569 119 
Q 2244 -78 1831 -78 
Q 1128 -78 684 439 
Q 241 956 241 2144 
Q 241 3472 731 4075 
Q 1159 4600 1884 4600 
Q 2425 4600 2770 4297 
Q 3116 3994 3184 3459 
z
M 888 1484 
Q 888 1194 1011 928 
Q 1134 663 1356 523 
Q 1578 384 1822 384 
Q 2178 384 2434 671 
Q 2691 959 2691 1453 
Q 2691 1928 2437 2201 
Q 2184 2475 1800 2475 
Q 1419 2475 1153 2201 
Q 888 1928 888 1484 
z
" transform="scale(0.015625)"/>
       </defs>
       <use xlink:href="#ArialMT-31"/>
       <use xlink:href="#ArialMT-36" x="55.615234"/>
      </g>
     </g>
    </g>
    <g id="xtick_17">
     <g id="line2d_17"/>
     <g id="text_17">
      <!-- MSC -->
      <g style="fill: #555555" transform="translate(583.953125 422.245063)scale(0.1 -0.1)">
       <use xlink:href="#ArialMT-4d"/>
       <use xlink:href="#ArialMT-53" x="83.300781"/>
       <use xlink:href="#ArialMT-43" x="150"/>
      </g>
      <!-- 14 -->
      <g style="fill: #555555" transform="translate(589.503125 432.821937)scale(0.1 -0.1)">
       <use xlink:href="#ArialMT-31"/>
       <use xlink:href="#ArialMT-34" x="55.615234"/>
      </g>
     </g>
    </g>
    <g id="xtick_18">
     <g id="line2d_18"/>
     <g id="text_18">
      <!-- MAG -->
      <g style="fill: #555555" transform="translate(617.155 422.245063)scale(0.1 -0.1)">
       <defs>
        <path id="ArialMT-47" d="M 2638 1797 
L 2638 2334 
L 4578 2338 
L 4578 638 
Q 4131 281 3656 101 
Q 3181 -78 2681 -78 
Q 2006 -78 1454 211 
Q 903 500 622 1047 
Q 341 1594 341 2269 
Q 341 2938 620 3517 
Q 900 4097 1425 4378 
Q 1950 4659 2634 4659 
Q 3131 4659 3532 4498 
Q 3934 4338 4162 4050 
Q 4391 3763 4509 3300 
L 3963 3150 
Q 3859 3500 3706 3700 
Q 3553 3900 3268 4020 
Q 2984 4141 2638 4141 
Q 2222 4141 1919 4014 
Q 1616 3888 1430 3681 
Q 1244 3475 1141 3228 
Q 966 2803 966 2306 
Q 966 1694 1177 1281 
Q 1388 869 1791 669 
Q 2194 469 2647 469 
Q 3041 469 3416 620 
Q 3791 772 3984 944 
L 3984 1797 
L 2638 1797 
z
" transform="scale(0.015625)"/>
       </defs>
       <use xlink:href="#ArialMT-4d"/>
       <use xlink:href="#ArialMT-41" x="83.300781"/>
       <use xlink:href="#ArialMT-47" x="150"/>
      </g>
      <!-- 13 -->
      <g style="fill: #555555" transform="translate(622.983125 432.821937)scale(0.1 -0.1)">
       <use xlink:href="#ArialMT-31"/>
       <use xlink:href="#ArialMT-33" x="55.615234"/>
      </g>
     </g>
    </g>
    <g id="xtick_19">
     <g id="line2d_19"/>
     <g id="text_19">
      <!-- GAS -->
      <g style="fill: #555555" transform="translate(651.464688 422.245063)scale(0.1 -0.1)">
       <use xlink:href="#ArialMT-47"/>
       <use xlink:href="#ArialMT-41" x="77.783203"/>
       <use xlink:href="#ArialMT-53" x="144.482422"/>
      </g>
      <!-- 15 -->
      <g style="fill: #555555" transform="translate(656.463125 432.821937)scale(0.1 -0.1)">
       <use xlink:href="#ArialMT-31"/>
       <use xlink:href="#ArialMT-35" x="55.615234"/>
      </g>
     </g>
    </g>
    <g id="xtick_20">
     <g id="line2d_20"/>
     <g id="text_20">
      <!-- LAT -->
      <g style="fill: #555555" transform="translate(686.703281 422.245063)scale(0.1 -0.1)">
       <use xlink:href="#ArialMT-4c"/>
       <use xlink:href="#ArialMT-41" x="55.615234"/>
       <use xlink:href="#ArialMT-54" x="114.939453"/>
      </g>
      <!-- 15 -->
      <g style="fill: #555555" transform="translate(689.943125 432.821937)scale(0.1 -0.1)">
       <use xlink:href="#ArialMT-31"/>
       <use xlink:href="#ArialMT-35" x="55.615234"/>
      </g>
     </g>
    </g>
    <g id="text_21">
     <!-- Driver -->
     <g style="fill: #555555" transform="translate(361.445625 447.398813)scale(0.12 -0.12)">
      <defs>
       <path id="ArialMT-44" d="M 494 0 
L 494 4581 
L 2072 4581 
Q 2606 4581 2888 4516 
Q 3281 4425 3559 4188 
Q 3922 3881 4101 3404 
Q 4281 2928 4281 2316 
Q 4281 1794 4159 1391 
Q 4038 988 3847 723 
Q 3656 459 3429 307 
Q 3203 156 2883 78 
Q 2563 0 2147 0 
L 494 0 
z
M 1100 541 
L 2078 541 
Q 2531 541 2789 625 
Q 3047 709 3200 863 
Q 3416 1078 3536 1442 
Q 3656 1806 3656 2325 
Q 3656 3044 3420 3430 
Q 3184 3816 2847 3947 
Q 2603 4041 2063 4041 
L 1100 4041 
L 1100 541 
z
" transform="scale(0.015625)"/>
       <path id="ArialMT-72" d="M 416 0 
L 416 3319 
L 922 3319 
L 922 2816 
Q 1116 3169 1280 3281 
Q 1444 3394 1641 3394 
Q 1925 3394 2219 3213 
L 2025 2691 
Q 1819 2813 1613 2813 
Q 1428 2813 1281 2702 
Q 1134 2591 1072 2394 
Q 978 2094 978 1738 
L 978 0 
L 416 0 
z
" transform="scale(0.015625)"/>
       <path id="ArialMT-69" d="M 425 3934 
L 425 4581 
L 988 4581 
L 988 3934 
L 425 3934 
z
M 425 0 
L 425 3319 
L 988 3319 
L 988 0 
L 425 0 
z
" transform="scale(0.015625)"/>
       <path id="ArialMT-76" d="M 1344 0 
L 81 3319 
L 675 3319 
L 1388 1331 
Q 1503 1009 1600 663 
Q 1675 925 1809 1294 
L 2547 3319 
L 3125 3319 
L 1869 0 
L 1344 0 
z
" transform="scale(0.015625)"/>
       <path id="ArialMT-65" d="M 2694 1069 
L 3275 997 
Q 3138 488 2766 206 
Q 2394 -75 1816 -75 
Q 1088 -75 661 373 
Q 234 822 234 1631 
Q 234 2469 665 2931 
Q 1097 3394 1784 3394 
Q 2450 3394 2872 2941 
Q 3294 2488 3294 1666 
Q 3294 1616 3291 1516 
L 816 1516 
Q 847 969 1125 678 
Q 1403 388 1819 388 
Q 2128 388 2347 550 
Q 2566 713 2694 1069 
z
M 847 1978 
L 2700 1978 
Q 2663 2397 2488 2606 
Q 2219 2931 1791 2931 
Q 1403 2931 1139 2672 
Q 875 2413 847 1978 
z
" transform="scale(0.015625)"/>
      </defs>
      <use xlink:href="#ArialMT-44"/>
      <use xlink:href="#ArialMT-72" x="72.216797"/>
      <use xlink:href="#ArialMT-69" x="105.517578"/>
      <use xlink:href="#ArialMT-76" x="127.734375"/>
      <use xlink:href="#ArialMT-65" x="177.734375"/>
      <use xlink:href="#ArialMT-72" x="233.349609"/>
     </g>
     <!-- Number of laps used to estimate median pace -->
     <g style="fill: #555555" transform="translate(255.053438 460.266563)scale(0.12 -0.12)">
      <defs>
       <path id="ArialMT-75" d="M 2597 0 
L 2597 488 
Q 2209 -75 1544 -75 
Q 1250 -75 995 37 
Q 741 150 617 320 
Q 494 491 444 738 
Q 409 903 409 1263 
L 409 3319 
L 972 3319 
L 972 1478 
Q 972 1038 1006 884 
Q 1059 663 1231 536 
Q 1403 409 1656 409 
Q 1909 409 2131 539 
Q 2353 669 2445 892 
Q 2538 1116 2538 1541 
L 2538 3319 
L 3100 3319 
L 3100 0 
L 2597 0 
z
" transform="scale(0.015625)"/>
       <path id="ArialMT-6d" d="M 422 0 
L 422 3319 
L 925 3319 
L 925 2853 
Q 1081 3097 1340 3245 
Q 1600 3394 1931 3394 
Q 2300 3394 2536 3241 
Q 2772 3088 2869 2813 
Q 3263 3394 3894 3394 
Q 4388 3394 4653 3120 
Q 4919 2847 4919 2278 
L 4919 0 
L 4359 0 
L 4359 2091 
Q 4359 2428 4304 2576 
Q 4250 2725 4106 2815 
Q 3963 2906 3769 2906 
Q 3419 2906 3187 2673 
Q 2956 2441 2956 1928 
L 2956 0 
L 2394 0 
L 2394 2156 
Q 2394 2531 2256 2718 
Q 2119 2906 1806 2906 
Q 1569 2906 1367 2781 
Q 1166 2656 1075 2415 
Q 984 2175 984 1722 
L 984 0 
L 422 0 
z
" transform="scale(0.015625)"/>
       <path id="ArialMT-62" d="M 941 0 
L 419 0 
L 419 4581 
L 981 4581 
L 981 2947 
Q 1338 3394 1891 3394 
Q 2197 3394 2470 3270 
Q 2744 3147 2920 2923 
Q 3097 2700 3197 2384 
Q 3297 2069 3297 1709 
Q 3297 856 2875 390 
Q 2453 -75 1863 -75 
Q 1275 -75 941 416 
L 941 0 
z
M 934 1684 
Q 934 1088 1097 822 
Q 1363 388 1816 388 
Q 2184 388 2453 708 
Q 2722 1028 2722 1663 
Q 2722 2313 2464 2622 
Q 2206 2931 1841 2931 
Q 1472 2931 1203 2611 
Q 934 2291 934 1684 
z
" transform="scale(0.015625)"/>
       <path id="ArialMT-20" transform="scale(0.015625)"/>
       <path id="ArialMT-6f" d="M 213 1659 
Q 213 2581 725 3025 
Q 1153 3394 1769 3394 
Q 2453 3394 2887 2945 
Q 3322 2497 3322 1706 
Q 3322 1066 3130 698 
Q 2938 331 2570 128 
Q 2203 -75 1769 -75 
Q 1072 -75 642 372 
Q 213 819 213 1659 
z
M 791 1659 
Q 791 1022 1069 705 
Q 1347 388 1769 388 
Q 2188 388 2466 706 
Q 2744 1025 2744 1678 
Q 2744 2294 2464 2611 
Q 2184 2928 1769 2928 
Q 1347 2928 1069 2612 
Q 791 2297 791 1659 
z
" transform="scale(0.015625)"/>
       <path id="ArialMT-66" d="M 556 0 
L 556 2881 
L 59 2881 
L 59 3319 
L 556 3319 
L 556 3672 
Q 556 4006 616 4169 
Q 697 4388 901 4523 
Q 1106 4659 1475 4659 
Q 1713 4659 2000 4603 
L 1916 4113 
Q 1741 4144 1584 4144 
Q 1328 4144 1222 4034 
Q 1116 3925 1116 3625 
L 1116 3319 
L 1763 3319 
L 1763 2881 
L 1116 2881 
L 1116 0 
L 556 0 
z
" transform="scale(0.015625)"/>
       <path id="ArialMT-6c" d="M 409 0 
L 409 4581 
L 972 4581 
L 972 0 
L 409 0 
z
" transform="scale(0.015625)"/>
       <path id="ArialMT-61" d="M 2588 409 
Q 2275 144 1986 34 
Q 1697 -75 1366 -75 
Q 819 -75 525 192 
Q 231 459 231 875 
Q 231 1119 342 1320 
Q 453 1522 633 1644 
Q 813 1766 1038 1828 
Q 1203 1872 1538 1913 
Q 2219 1994 2541 2106 
Q 2544 2222 2544 2253 
Q 2544 2597 2384 2738 
Q 2169 2928 1744 2928 
Q 1347 2928 1158 2789 
Q 969 2650 878 2297 
L 328 2372 
Q 403 2725 575 2942 
Q 747 3159 1072 3276 
Q 1397 3394 1825 3394 
Q 2250 3394 2515 3294 
Q 2781 3194 2906 3042 
Q 3031 2891 3081 2659 
Q 3109 2516 3109 2141 
L 3109 1391 
Q 3109 606 3145 398 
Q 3181 191 3288 0 
L 2700 0 
Q 2613 175 2588 409 
z
M 2541 1666 
Q 2234 1541 1622 1453 
Q 1275 1403 1131 1340 
Q 988 1278 909 1158 
Q 831 1038 831 891 
Q 831 666 1001 516 
Q 1172 366 1500 366 
Q 1825 366 2078 508 
Q 2331 650 2450 897 
Q 2541 1088 2541 1459 
L 2541 1666 
z
" transform="scale(0.015625)"/>
       <path id="ArialMT-70" d="M 422 -1272 
L 422 3319 
L 934 3319 
L 934 2888 
Q 1116 3141 1344 3267 
Q 1572 3394 1897 3394 
Q 2322 3394 2647 3175 
Q 2972 2956 3137 2557 
Q 3303 2159 3303 1684 
Q 3303 1175 3120 767 
Q 2938 359 2589 142 
Q 2241 -75 1856 -75 
Q 1575 -75 1351 44 
Q 1128 163 984 344 
L 984 -1272 
L 422 -1272 
z
M 931 1641 
Q 931 1000 1190 694 
Q 1450 388 1819 388 
Q 2194 388 2461 705 
Q 2728 1022 2728 1688 
Q 2728 2322 2467 2637 
Q 2206 2953 1844 2953 
Q 1484 2953 1207 2617 
Q 931 2281 931 1641 
z
" transform="scale(0.015625)"/>
       <path id="ArialMT-73" d="M 197 991 
L 753 1078 
Q 800 744 1014 566 
Q 1228 388 1613 388 
Q 2000 388 2187 545 
Q 2375 703 2375 916 
Q 2375 1106 2209 1216 
Q 2094 1291 1634 1406 
Q 1016 1563 777 1677 
Q 538 1791 414 1992 
Q 291 2194 291 2438 
Q 291 2659 392 2848 
Q 494 3038 669 3163 
Q 800 3259 1026 3326 
Q 1253 3394 1513 3394 
Q 1903 3394 2198 3281 
Q 2494 3169 2634 2976 
Q 2775 2784 2828 2463 
L 2278 2388 
Q 2241 2644 2061 2787 
Q 1881 2931 1553 2931 
Q 1166 2931 1000 2803 
Q 834 2675 834 2503 
Q 834 2394 903 2306 
Q 972 2216 1119 2156 
Q 1203 2125 1616 2013 
Q 2213 1853 2448 1751 
Q 2684 1650 2818 1456 
Q 2953 1263 2953 975 
Q 2953 694 2789 445 
Q 2625 197 2315 61 
Q 2006 -75 1616 -75 
Q 969 -75 630 194 
Q 291 463 197 991 
z
" transform="scale(0.015625)"/>
       <path id="ArialMT-64" d="M 2575 0 
L 2575 419 
Q 2259 -75 1647 -75 
Q 1250 -75 917 144 
Q 584 363 401 755 
Q 219 1147 219 1656 
Q 219 2153 384 2558 
Q 550 2963 881 3178 
Q 1213 3394 1622 3394 
Q 1922 3394 2156 3267 
Q 2391 3141 2538 2938 
L 2538 4581 
L 3097 4581 
L 3097 0 
L 2575 0 
z
M 797 1656 
Q 797 1019 1065 703 
Q 1334 388 1700 388 
Q 2069 388 2326 689 
Q 2584 991 2584 1609 
Q 2584 2291 2321 2609 
Q 2059 2928 1675 2928 
Q 1300 2928 1048 2622 
Q 797 2316 797 1656 
z
" transform="scale(0.015625)"/>
       <path id="ArialMT-74" d="M 1650 503 
L 1731 6 
Q 1494 -44 1306 -44 
Q 1000 -44 831 53 
Q 663 150 594 308 
Q 525 466 525 972 
L 525 2881 
L 113 2881 
L 113 3319 
L 525 3319 
L 525 4141 
L 1084 4478 
L 1084 3319 
L 1650 3319 
L 1650 2881 
L 1084 2881 
L 1084 941 
Q 1084 700 1114 631 
Q 1144 563 1211 522 
Q 1278 481 1403 481 
Q 1497 481 1650 503 
z
" transform="scale(0.015625)"/>
       <path id="ArialMT-6e" d="M 422 0 
L 422 3319 
L 928 3319 
L 928 2847 
Q 1294 3394 1984 3394 
Q 2284 3394 2536 3286 
Q 2788 3178 2913 3003 
Q 3038 2828 3088 2588 
Q 3119 2431 3119 2041 
L 3119 0 
L 2556 0 
L 2556 2019 
Q 2556 2363 2490 2533 
Q 2425 2703 2258 2804 
Q 2091 2906 1866 2906 
Q 1506 2906 1245 2678 
Q 984 2450 984 1813 
L 984 0 
L 422 0 
z
" transform="scale(0.015625)"/>
       <path id="ArialMT-63" d="M 2588 1216 
L 3141 1144 
Q 3050 572 2676 248 
Q 2303 -75 1759 -75 
Q 1078 -75 664 370 
Q 250 816 250 1647 
Q 250 2184 428 2587 
Q 606 2991 970 3192 
Q 1334 3394 1763 3394 
Q 2303 3394 2647 3120 
Q 2991 2847 3088 2344 
L 2541 2259 
Q 2463 2594 2264 2762 
Q 2066 2931 1784 2931 
Q 1359 2931 1093 2626 
Q 828 2322 828 1663 
Q 828 994 1084 691 
Q 1341 388 1753 388 
Q 2084 388 2306 591 
Q 2528 794 2588 1216 
z
" transform="scale(0.015625)"/>
      </defs>
      <use xlink:href="#ArialMT-4e"/>
      <use xlink:href="#ArialMT-75" x="72.216797"/>
      <use xlink:href="#ArialMT-6d" x="127.832031"/>
      <use xlink:href="#ArialMT-62" x="211.132812"/>
      <use xlink:href="#ArialMT-65" x="266.748047"/>
      <use xlink:href="#ArialMT-72" x="322.363281"/>
      <use xlink:href="#ArialMT-20" x="355.664062"/>
      <use xlink:href="#ArialMT-6f" x="383.447266"/>
      <use xlink:href="#ArialMT-66" x="439.0625"/>
      <use xlink:href="#ArialMT-20" x="466.845703"/>
      <use xlink:href="#ArialMT-6c" x="494.628906"/>
      <use xlink:href="#ArialMT-61" x="516.845703"/>
      <use xlink:href="#ArialMT-70" x="572.460938"/>
      <use xlink:href="#ArialMT-73" x="628.076172"/>
      <use xlink:href="#ArialMT-20" x="678.076172"/>
      <use xlink:href="#ArialMT-75" x="705.859375"/>
      <use xlink:href="#ArialMT-73" x="761.474609"/>
      <use xlink:href="#ArialMT-65" x="811.474609"/>
      <use xlink:href="#ArialMT-64" x="867.089844"/>
      <use xlink:href="#ArialMT-20" x="922.705078"/>
      <use xlink:href="#ArialMT-74" x="950.488281"/>
      <use xlink:href="#ArialMT-6f" x="978.271484"/>
      <use xlink:href="#ArialMT-20" x="1033.886719"/>
      <use xlink:href="#ArialMT-65" x="1061.669922"/>
      <use xlink:href="#ArialMT-73" x="1117.285156"/>
      <use xlink:href="#ArialMT-74" x="1167.285156"/>
      <use xlink:href="#ArialMT-69" x="1195.068359"/>
      <use xlink:href="#ArialMT-6d" x="1217.285156"/>
      <use xlink:href="#ArialMT-61" x="1300.585938"/>
      <use xlink:href="#ArialMT-74" x="1356.201172"/>
      <use xlink:href="#ArialMT-65" x="1383.984375"/>
      <use xlink:href="#ArialMT-20" x="1439.599609"/>
      <use xlink:href="#ArialMT-6d" x="1467.382812"/>
      <use xlink:href="#ArialMT-65" x="1550.683594"/>
      <use xlink:href="#ArialMT-64" x="1606.298828"/>
      <use xlink:href="#ArialMT-69" x="1661.914062"/>
      <use xlink:href="#ArialMT-61" x="1684.130859"/>
      <use xlink:href="#ArialMT-6e" x="1739.746094"/>
      <use xlink:href="#ArialMT-20" x="1795.361328"/>
      <use xlink:href="#ArialMT-70" x="1823.144531"/>
      <use xlink:href="#ArialMT-61" x="1878.759766"/>
      <use xlink:href="#ArialMT-63" x="1934.375"/>
      <use xlink:href="#ArialMT-65" x="1984.375"/>
     </g>
    </g>
   </g>
   <g id="matplotlib.axis_2">
    <g id="ytick_1">
     <g id="line2d_21">
      <path d="M 42.644063 375.399405 
L 712.244063 375.399405 
" clip-path="url(#p7a1898bd03)" style="fill: none; stroke-dasharray: 1.85,0.8; stroke-dashoffset: 0; stroke: #b2b2b2; stroke-width: 0.5"/>
     </g>
     <g id="line2d_22"/>
     <g id="text_22">
      <!-- 86 -->
      <g style="fill: #555555" transform="translate(28.022188 378.978311)scale(0.1 -0.1)">
       <use xlink:href="#ArialMT-38"/>
       <use xlink:href="#ArialMT-36" x="55.615234"/>
      </g>
     </g>
    </g>
    <g id="ytick_2">
     <g id="line2d_23">
      <path d="M 42.644063 331.961828 
L 712.244063 331.961828 
" clip-path="url(#p7a1898bd03)" style="fill: none; stroke-dasharray: 1.85,0.8; stroke-dashoffset: 0; stroke: #b2b2b2; stroke-width: 0.5"/>
     </g>
     <g id="line2d_24"/>
     <g id="text_23">
      <!-- 88 -->
      <g style="fill: #555555" transform="translate(28.022188 335.540734)scale(0.1 -0.1)">
       <use xlink:href="#ArialMT-38"/>
       <use xlink:href="#ArialMT-38" x="55.615234"/>
      </g>
     </g>
    </g>
    <g id="ytick_3">
     <g id="line2d_25">
      <path d="M 42.644063 288.524251 
L 712.244063 288.524251 
" clip-path="url(#p7a1898bd03)" style="fill: none; stroke-dasharray: 1.85,0.8; stroke-dashoffset: 0; stroke: #b2b2b2; stroke-width: 0.5"/>
     </g>
     <g id="line2d_26"/>
     <g id="text_24">
      <!-- 90 -->
      <g style="fill: #555555" transform="translate(28.022188 292.103157)scale(0.1 -0.1)">
       <defs>
        <path id="ArialMT-30" d="M 266 2259 
Q 266 3072 433 3567 
Q 600 4063 929 4331 
Q 1259 4600 1759 4600 
Q 2128 4600 2406 4451 
Q 2684 4303 2865 4023 
Q 3047 3744 3150 3342 
Q 3253 2941 3253 2259 
Q 3253 1453 3087 958 
Q 2922 463 2592 192 
Q 2263 -78 1759 -78 
Q 1097 -78 719 397 
Q 266 969 266 2259 
z
M 844 2259 
Q 844 1131 1108 757 
Q 1372 384 1759 384 
Q 2147 384 2411 759 
Q 2675 1134 2675 2259 
Q 2675 3391 2411 3762 
Q 2147 4134 1753 4134 
Q 1366 4134 1134 3806 
Q 844 3388 844 2259 
z
" transform="scale(0.015625)"/>
       </defs>
       <use xlink:href="#ArialMT-39"/>
       <use xlink:href="#ArialMT-30" x="55.615234"/>
      </g>
     </g>
    </g>
    <g id="ytick_4">
     <g id="line2d_27">
      <path d="M 42.644063 245.086674 
L 712.244063 245.086674 
" clip-path="url(#p7a1898bd03)" style="fill: none; stroke-dasharray: 1.85,0.8; stroke-dashoffset: 0; stroke: #b2b2b2; stroke-width: 0.5"/>
     </g>
     <g id="line2d_28"/>
     <g id="text_25">
      <!-- 92 -->
      <g style="fill: #555555" transform="translate(28.022188 248.66558)scale(0.1 -0.1)">
       <use xlink:href="#ArialMT-39"/>
       <use xlink:href="#ArialMT-32" x="55.615234"/>
      </g>
     </g>
    </g>
    <g id="ytick_5">
     <g id="line2d_29">
      <path d="M 42.644063 201.649097 
L 712.244063 201.649097 
" clip-path="url(#p7a1898bd03)" style="fill: none; stroke-dasharray: 1.85,0.8; stroke-dashoffset: 0; stroke: #b2b2b2; stroke-width: 0.5"/>
     </g>
     <g id="line2d_30"/>
     <g id="text_26">
      <!-- 94 -->
      <g style="fill: #555555" transform="translate(28.022188 205.228003)scale(0.1 -0.1)">
       <use xlink:href="#ArialMT-39"/>
       <use xlink:href="#ArialMT-34" x="55.615234"/>
      </g>
     </g>
    </g>
    <g id="ytick_6">
     <g id="line2d_31">
      <path d="M 42.644063 158.21152 
L 712.244063 158.21152 
" clip-path="url(#p7a1898bd03)" style="fill: none; stroke-dasharray: 1.85,0.8; stroke-dashoffset: 0; stroke: #b2b2b2; stroke-width: 0.5"/>
     </g>
     <g id="line2d_32"/>
     <g id="text_27">
      <!-- 96 -->
      <g style="fill: #555555" transform="translate(28.022188 161.790426)scale(0.1 -0.1)">
       <use xlink:href="#ArialMT-39"/>
       <use xlink:href="#ArialMT-36" x="55.615234"/>
      </g>
     </g>
    </g>
    <g id="ytick_7">
     <g id="line2d_33">
      <path d="M 42.644063 114.773943 
L 712.244063 114.773943 
" clip-path="url(#p7a1898bd03)" style="fill: none; stroke-dasharray: 1.85,0.8; stroke-dashoffset: 0; stroke: #b2b2b2; stroke-width: 0.5"/>
     </g>
     <g id="line2d_34"/>
     <g id="text_28">
      <!-- 98 -->
      <g style="fill: #555555" transform="translate(28.022188 118.352849)scale(0.1 -0.1)">
       <use xlink:href="#ArialMT-39"/>
       <use xlink:href="#ArialMT-38" x="55.615234"/>
      </g>
     </g>
    </g>
    <g id="ytick_8">
     <g id="line2d_35">
      <path d="M 42.644063 71.336366 
L 712.244063 71.336366 
" clip-path="url(#p7a1898bd03)" style="fill: none; stroke-dasharray: 1.85,0.8; stroke-dashoffset: 0; stroke: #b2b2b2; stroke-width: 0.5"/>
     </g>
     <g id="line2d_36"/>
     <g id="text_29">
      <!-- 100 -->
      <g style="fill: #555555" transform="translate(22.46125 74.915272)scale(0.1 -0.1)">
       <use xlink:href="#ArialMT-31"/>
       <use xlink:href="#ArialMT-30" x="55.615234"/>
       <use xlink:href="#ArialMT-30" x="111.230469"/>
      </g>
     </g>
    </g>
    <g id="ytick_9">
     <g id="line2d_37">
      <path d="M 42.644063 27.898789 
L 712.244063 27.898789 
" clip-path="url(#p7a1898bd03)" style="fill: none; stroke-dasharray: 1.85,0.8; stroke-dashoffset: 0; stroke: #b2b2b2; stroke-width: 0.5"/>
     </g>
     <g id="line2d_38"/>
     <g id="text_30">
      <!-- 102 -->
      <g style="fill: #555555" transform="translate(22.46125 31.477695)scale(0.1 -0.1)">
       <use xlink:href="#ArialMT-31"/>
       <use xlink:href="#ArialMT-30" x="55.615234"/>
       <use xlink:href="#ArialMT-32" x="111.230469"/>
      </g>
     </g>
    </g>
    <g id="text_31">
     <!-- LapTime (s) -->
     <g style="fill: #555555" transform="translate(15.935625 249.326625)rotate(-90)scale(0.12 -0.12)">
      <defs>
       <path id="ArialMT-28" d="M 1497 -1347 
Q 1031 -759 709 28 
Q 388 816 388 1659 
Q 388 2403 628 3084 
Q 909 3875 1497 4659 
L 1900 4659 
Q 1522 4009 1400 3731 
Q 1209 3300 1100 2831 
Q 966 2247 966 1656 
Q 966 153 1900 -1347 
L 1497 -1347 
z
" transform="scale(0.015625)"/>
       <path id="ArialMT-29" d="M 791 -1347 
L 388 -1347 
Q 1322 153 1322 1656 
Q 1322 2244 1188 2822 
Q 1081 3291 891 3722 
Q 769 4003 388 4659 
L 791 4659 
Q 1378 3875 1659 3084 
Q 1900 2403 1900 1659 
Q 1900 816 1576 28 
Q 1253 -759 791 -1347 
z
" transform="scale(0.015625)"/>
      </defs>
      <use xlink:href="#ArialMT-4c"/>
      <use xlink:href="#ArialMT-61" x="55.615234"/>
      <use xlink:href="#ArialMT-70" x="111.230469"/>
      <use xlink:href="#ArialMT-54" x="166.845703"/>
      <use xlink:href="#ArialMT-69" x="224.179688"/>
      <use xlink:href="#ArialMT-6d" x="246.396484"/>
      <use xlink:href="#ArialMT-65" x="329.697266"/>
      <use xlink:href="#ArialMT-20" x="385.3125"/>
      <use xlink:href="#ArialMT-28" x="413.095703"/>
      <use xlink:href="#ArialMT-73" x="446.396484"/>
      <use xlink:href="#ArialMT-29" x="496.396484"/>
     </g>
    </g>
   </g>
   <g id="patch_3">
    <path d="M 45.992063 371.956977 
L 72.776063 371.956977 
L 72.776063 277.024152 
L 45.992063 277.024152 
L 45.992063 371.956977 
z
" clip-path="url(#p7a1898bd03)" style="fill: #221ed1; stroke: #212121; stroke-width: 2; stroke-linejoin: miter"/>
   </g>
   <g id="patch_4">
    <path d="M 79.472063 356.894997 
L 106.256063 356.894997 
L 106.256063 262.852643 
L 79.472063 262.852643 
L 79.472063 356.894997 
z
" clip-path="url(#p7a1898bd03)" style="fill: #1ab8a9; stroke: #212121; stroke-width: 2; stroke-linejoin: miter"/>
   </g>
   <g id="patch_5">
    <path d="M 112.952063 362.498444 
L 139.736063 362.498444 
L 139.736063 247.497459 
L 112.952063 247.497459 
L 112.952063 362.498444 
z
" clip-path="url(#p7a1898bd03)" style="fill: #c01c1c; stroke: #212121; stroke-width: 2; stroke-linejoin: miter"/>
   </g>
   <g id="patch_6">
    <path d="M 146.432063 364.040478 
L 173.216063 364.040478 
L 173.216063 263.308737 
L 146.432063 263.308737 
L 146.432063 364.040478 
z
" clip-path="url(#p7a1898bd03)" style="fill: #1ab8a9; stroke: #212121; stroke-width: 2; stroke-linejoin: miter"/>
   </g>
   <g id="patch_7">
    <path d="M 179.912063 343.624817 
L 206.696063 343.624817 
L 206.696063 257.87904 
L 179.912063 257.87904 
L 179.912063 343.624817 
z
" clip-path="url(#p7a1898bd03)" style="fill: #221ed1; stroke: #212121; stroke-width: 2; stroke-linejoin: miter"/>
   </g>
   <g id="patch_8">
    <path d="M 213.392063 343.733411 
L 240.176063 343.733411 
L 240.176063 262.564869 
L 213.392063 262.564869 
L 213.392063 343.733411 
z
" clip-path="url(#p7a1898bd03)" style="fill: #c01c1c; stroke: #212121; stroke-width: 2; stroke-linejoin: miter"/>
   </g>
   <g id="patch_9">
    <path d="M 246.872062 364.149072 
L 273.656063 364.149072 
L 273.656063 244.956361 
L 246.872062 244.956361 
L 246.872062 364.149072 
z
" clip-path="url(#p7a1898bd03)" style="fill: #208cdf; stroke: #212121; stroke-width: 2; stroke-linejoin: miter"/>
   </g>
   <g id="patch_10">
    <path d="M 280.352063 336.76711 
L 307.136063 336.76711 
L 307.136063 253.605869 
L 280.352063 253.605869 
L 280.352063 336.76711 
z
" clip-path="url(#p7a1898bd03)" style="fill: #208cdf; stroke: #212121; stroke-width: 2; stroke-linejoin: miter"/>
   </g>
   <g id="patch_11">
    <path d="M 313.832063 363.334618 
L 340.616063 363.334618 
L 340.616063 349.890688 
L 313.832063 349.890688 
L 313.832063 363.334618 
z
" clip-path="url(#p7a1898bd03)" style="fill: #df8520; stroke: #212121; stroke-width: 2; stroke-linejoin: miter"/>
   </g>
   <g id="patch_12">
    <path d="M 347.312063 304.118341 
L 374.096063 304.118341 
L 374.096063 230.231022 
L 347.312063 230.231022 
L 347.312063 304.118341 
z
" clip-path="url(#p7a1898bd03)" style="fill: #7e1212; stroke: #212121; stroke-width: 2; stroke-linejoin: miter"/>
   </g>
   <g id="patch_13">
    <path d="M 380.792063 303.271308 
L 407.576063 303.271308 
L 407.576063 247.361717 
L 380.792063 247.361717 
L 380.792063 303.271308 
z
" clip-path="url(#p7a1898bd03)" style="fill: #df8520; stroke: #212121; stroke-width: 2; stroke-linejoin: miter"/>
   </g>
   <g id="patch_14">
    <path d="M 414.272063 329.355573 
L 441.056063 329.355573 
L 441.056063 235.964783 
L 414.272063 235.964783 
L 414.272063 329.355573 
z
" clip-path="url(#p7a1898bd03)" style="fill: #0e6157; stroke: #212121; stroke-width: 2; stroke-linejoin: miter"/>
   </g>
   <g id="patch_15">
    <path d="M 447.752063 323.382906 
L 474.536063 323.382906 
L 474.536063 217.851313 
L 447.752063 217.851313 
L 447.752063 323.382906 
z
" clip-path="url(#p7a1898bd03)" style="fill: #7e1212; stroke: #212121; stroke-width: 2; stroke-linejoin: miter"/>
   </g>
   <g id="patch_16">
    <path d="M 481.232063 322.079779 
L 508.016063 322.079779 
L 508.016063 231.751338 
L 481.232063 231.751338 
L 481.232063 322.079779 
z
" clip-path="url(#p7a1898bd03)" style="fill: #0e6157; stroke: #212121; stroke-width: 2; stroke-linejoin: miter"/>
   </g>
   <g id="patch_17">
    <path d="M 514.712063 332.206164 
L 541.496063 332.206164 
L 541.496063 244.668587 
L 514.712063 244.668587 
L 514.712063 332.206164 
z
" clip-path="url(#p7a1898bd03)" style="fill: #32455b; stroke: #212121; stroke-width: 2; stroke-linejoin: miter"/>
   </g>
   <g id="patch_18">
    <path d="M 548.192063 274.331022 
L 574.976063 274.331022 
L 574.976063 237.539395 
L 548.192063 237.539395 
L 548.192063 274.331022 
z
" clip-path="url(#p7a1898bd03)" style="fill: #2063df; stroke: #212121; stroke-width: 2; stroke-linejoin: miter"/>
   </g>
   <g id="patch_19">
    <path d="M 581.672063 319.109735 
L 608.456063 319.109735 
L 608.456063 222.059328 
L 581.672063 222.059328 
L 581.672063 319.109735 
z
" clip-path="url(#p7a1898bd03)" style="fill: #ffffff; stroke: #212121; stroke-width: 2; stroke-linejoin: miter"/>
   </g>
   <g id="patch_20">
    <path d="M 615.152063 331.636046 
L 641.936063 331.636046 
L 641.936063 220.544443 
L 615.152063 220.544443 
L 615.152063 331.636046 
z
" clip-path="url(#p7a1898bd03)" style="fill: #ffffff; stroke: #212121; stroke-width: 2; stroke-linejoin: miter"/>
   </g>
   <g id="patch_21">
    <path d="M 648.632063 340.225827 
L 675.416063 340.225827 
L 675.416063 253.426689 
L 648.632063 253.426689 
L 648.632063 340.225827 
z
" clip-path="url(#p7a1898bd03)" style="fill: #32455b; stroke: #212121; stroke-width: 2; stroke-linejoin: miter"/>
   </g>
   <g id="patch_22">
    <path d="M 682.112063 294.475199 
L 708.896063 294.475199 
L 708.896063 227.168673 
L 682.112063 227.168673 
L 682.112063 294.475199 
z
" clip-path="url(#p7a1898bd03)" style="fill: #2063df; stroke: #212121; stroke-width: 2; stroke-linejoin: miter"/>
   </g>
   <g id="patch_23">
    <path d="M 59.384063 2243.215214 
L 59.384063 2243.215214 
L 59.384063 2243.215214 
L 59.384063 2243.215214 
z
" clip-path="url(#p7a1898bd03)" style="fill: #221ed1; stroke: #212121; stroke-linejoin: miter"/>
   </g>
   <g id="patch_24">
    <path d="M 59.384063 2243.215214 
L 59.384063 2243.215214 
L 59.384063 2243.215214 
L 59.384063 2243.215214 
z
" clip-path="url(#p7a1898bd03)" style="fill: #1ab8a9; stroke: #212121; stroke-linejoin: miter"/>
   </g>
   <g id="patch_25">
    <path d="M 59.384063 2243.215214 
L 59.384063 2243.215214 
L 59.384063 2243.215214 
L 59.384063 2243.215214 
z
" clip-path="url(#p7a1898bd03)" style="fill: #c01c1c; stroke: #212121; stroke-linejoin: miter"/>
   </g>
   <g id="patch_26">
    <path d="M 59.384063 2243.215214 
L 59.384063 2243.215214 
L 59.384063 2243.215214 
L 59.384063 2243.215214 
z
" clip-path="url(#p7a1898bd03)" style="fill: #208cdf; stroke: #212121; stroke-linejoin: miter"/>
   </g>
   <g id="patch_27">
    <path d="M 59.384063 2243.215214 
L 59.384063 2243.215214 
L 59.384063 2243.215214 
L 59.384063 2243.215214 
z
" clip-path="url(#p7a1898bd03)" style="fill: #df8520; stroke: #212121; stroke-linejoin: miter"/>
   </g>
   <g id="patch_28">
    <path d="M 59.384063 2243.215214 
L 59.384063 2243.215214 
L 59.384063 2243.215214 
L 59.384063 2243.215214 
z
" clip-path="url(#p7a1898bd03)" style="fill: #7e1212; stroke: #212121; stroke-linejoin: miter"/>
   </g>
   <g id="patch_29">
    <path d="M 59.384063 2243.215214 
L 59.384063 2243.215214 
L 59.384063 2243.215214 
L 59.384063 2243.215214 
z
" clip-path="url(#p7a1898bd03)" style="fill: #0e6157; stroke: #212121; stroke-linejoin: miter"/>
   </g>
   <g id="patch_30">
    <path d="M 59.384063 2243.215214 
L 59.384063 2243.215214 
L 59.384063 2243.215214 
L 59.384063 2243.215214 
z
" clip-path="url(#p7a1898bd03)" style="fill: #32455b; stroke: #212121; stroke-linejoin: miter"/>
   </g>
   <g id="patch_31">
    <path d="M 59.384063 2243.215214 
L 59.384063 2243.215214 
L 59.384063 2243.215214 
L 59.384063 2243.215214 
z
" clip-path="url(#p7a1898bd03)" style="fill: #2063df; stroke: #212121; stroke-linejoin: miter"/>
   </g>
   <g id="patch_32">
    <path d="M 59.384063 2243.215214 
L 59.384063 2243.215214 
L 59.384063 2243.215214 
L 59.384063 2243.215214 
z
" clip-path="url(#p7a1898bd03)" style="fill: #ffffff; stroke: #212121; stroke-linejoin: miter"/>
   </g>
   <g id="line2d_39">
    <path d="M 59.384063 371.956977 
L 59.384063 393.94725 
" clip-path="url(#p7a1898bd03)" style="fill: none; stroke: #212121; stroke-width: 2; stroke-linecap: round"/>
   </g>
   <g id="line2d_40">
    <path d="M 59.384063 277.024152 
L 59.384063 271.192658 
" clip-path="url(#p7a1898bd03)" style="fill: none; stroke: #212121; stroke-width: 2; stroke-linecap: round"/>
   </g>
   <g id="line2d_41">
    <path d="M 52.688063 393.94725 
L 66.080063 393.94725 
" clip-path="url(#p7a1898bd03)" style="fill: none; stroke: #212121; stroke-width: 2; stroke-linecap: round"/>
   </g>
   <g id="line2d_42">
    <path d="M 52.688063 271.192658 
L 66.080063 271.192658 
" clip-path="url(#p7a1898bd03)" style="fill: none; stroke: #212121; stroke-width: 2; stroke-linecap: round"/>
   </g>
   <g id="line2d_43">
    <defs>
     <path id="m92e1ffe3e1" d="M 0 3.535534 
L 2.12132 0 
L 0 -3.535534 
L -2.12132 0 
z
" style="stroke: #212121; stroke-linejoin: miter"/>
    </defs>
    <g clip-path="url(#p7a1898bd03)">
     <use xlink:href="#m92e1ffe3e1" x="59.384063" y="123.396302" style="fill: #212121; stroke: #212121; stroke-linejoin: miter"/>
    </g>
   </g>
   <g id="line2d_44">
    <path d="M 92.864063 356.894997 
L 92.864063 386.541143 
" clip-path="url(#p7a1898bd03)" style="fill: none; stroke: #212121; stroke-width: 2; stroke-linecap: round"/>
   </g>
   <g id="line2d_45">
    <path d="M 92.864063 262.852643 
L 92.864063 257.16232 
" clip-path="url(#p7a1898bd03)" style="fill: none; stroke: #212121; stroke-width: 2; stroke-linecap: round"/>
   </g>
   <g id="line2d_46">
    <path d="M 86.168063 386.541143 
L 99.560063 386.541143 
" clip-path="url(#p7a1898bd03)" style="fill: none; stroke: #212121; stroke-width: 2; stroke-linecap: round"/>
   </g>
   <g id="line2d_47">
    <path d="M 86.168063 257.16232 
L 99.560063 257.16232 
" clip-path="url(#p7a1898bd03)" style="fill: none; stroke: #212121; stroke-width: 2; stroke-linecap: round"/>
   </g>
   <g id="line2d_48"/>
   <g id="line2d_49">
    <path d="M 126.344063 362.498444 
L 126.344063 384.108639 
" clip-path="url(#p7a1898bd03)" style="fill: none; stroke: #212121; stroke-width: 2; stroke-linecap: round"/>
   </g>
   <g id="line2d_50">
    <path d="M 126.344063 247.497459 
L 126.344063 237.98463 
" clip-path="url(#p7a1898bd03)" style="fill: none; stroke: #212121; stroke-width: 2; stroke-linecap: round"/>
   </g>
   <g id="line2d_51">
    <path d="M 119.648063 384.108639 
L 133.040063 384.108639 
" clip-path="url(#p7a1898bd03)" style="fill: none; stroke: #212121; stroke-width: 2; stroke-linecap: round"/>
   </g>
   <g id="line2d_52">
    <path d="M 119.648063 237.98463 
L 133.040063 237.98463 
" clip-path="url(#p7a1898bd03)" style="fill: none; stroke: #212121; stroke-width: 2; stroke-linecap: round"/>
   </g>
   <g id="line2d_53">
    <g clip-path="url(#p7a1898bd03)">
     <use xlink:href="#m92e1ffe3e1" x="126.344063" y="49.878203" style="fill: #212121; stroke: #212121; stroke-linejoin: miter"/>
    </g>
   </g>
   <g id="line2d_54">
    <path d="M 159.824063 364.040478 
L 159.824063 380.590195 
" clip-path="url(#p7a1898bd03)" style="fill: none; stroke: #212121; stroke-width: 2; stroke-linecap: round"/>
   </g>
   <g id="line2d_55">
    <path d="M 159.824063 263.308737 
L 159.824063 168.441069 
" clip-path="url(#p7a1898bd03)" style="fill: none; stroke: #212121; stroke-width: 2; stroke-linecap: round"/>
   </g>
   <g id="line2d_56">
    <path d="M 153.128062 380.590195 
L 166.520063 380.590195 
" clip-path="url(#p7a1898bd03)" style="fill: none; stroke: #212121; stroke-width: 2; stroke-linecap: round"/>
   </g>
   <g id="line2d_57">
    <path d="M 153.128062 168.441069 
L 166.520063 168.441069 
" clip-path="url(#p7a1898bd03)" style="fill: none; stroke: #212121; stroke-width: 2; stroke-linecap: round"/>
   </g>
   <g id="line2d_58"/>
   <g id="line2d_59">
    <path d="M 193.304063 343.624817 
L 193.304063 378.613785 
" clip-path="url(#p7a1898bd03)" style="fill: none; stroke: #212121; stroke-width: 2; stroke-linecap: round"/>
   </g>
   <g id="line2d_60">
    <path d="M 193.304063 257.87904 
L 193.304063 186.163601 
" clip-path="url(#p7a1898bd03)" style="fill: none; stroke: #212121; stroke-width: 2; stroke-linecap: round"/>
   </g>
   <g id="line2d_61">
    <path d="M 186.608063 378.613785 
L 200.000063 378.613785 
" clip-path="url(#p7a1898bd03)" style="fill: none; stroke: #212121; stroke-width: 2; stroke-linecap: round"/>
   </g>
   <g id="line2d_62">
    <path d="M 186.608063 186.163601 
L 200.000063 186.163601 
" clip-path="url(#p7a1898bd03)" style="fill: none; stroke: #212121; stroke-width: 2; stroke-linecap: round"/>
   </g>
   <g id="line2d_63"/>
   <g id="line2d_64">
    <path d="M 226.784063 343.733411 
L 226.784063 376.876282 
" clip-path="url(#p7a1898bd03)" style="fill: none; stroke: #212121; stroke-width: 2; stroke-linecap: round"/>
   </g>
   <g id="line2d_65">
    <path d="M 226.784063 262.564869 
L 226.784063 252.883719 
" clip-path="url(#p7a1898bd03)" style="fill: none; stroke: #212121; stroke-width: 2; stroke-linecap: round"/>
   </g>
   <g id="line2d_66">
    <path d="M 220.088063 376.876282 
L 233.480063 376.876282 
" clip-path="url(#p7a1898bd03)" style="fill: none; stroke: #212121; stroke-width: 2; stroke-linecap: round"/>
   </g>
   <g id="line2d_67">
    <path d="M 220.088063 252.883719 
L 233.480063 252.883719 
" clip-path="url(#p7a1898bd03)" style="fill: none; stroke: #212121; stroke-width: 2; stroke-linecap: round"/>
   </g>
   <g id="line2d_68"/>
   <g id="line2d_69">
    <path d="M 260.264063 364.149072 
L 260.264063 374.574091 
" clip-path="url(#p7a1898bd03)" style="fill: none; stroke: #212121; stroke-width: 2; stroke-linecap: round"/>
   </g>
   <g id="line2d_70">
    <path d="M 260.264063 244.956361 
L 260.264063 238.245255 
" clip-path="url(#p7a1898bd03)" style="fill: none; stroke: #212121; stroke-width: 2; stroke-linecap: round"/>
   </g>
   <g id="line2d_71">
    <path d="M 253.568063 374.574091 
L 266.960063 374.574091 
" clip-path="url(#p7a1898bd03)" style="fill: none; stroke: #212121; stroke-width: 2; stroke-linecap: round"/>
   </g>
   <g id="line2d_72">
    <path d="M 253.568063 238.245255 
L 266.960063 238.245255 
" clip-path="url(#p7a1898bd03)" style="fill: none; stroke: #212121; stroke-width: 2; stroke-linecap: round"/>
   </g>
   <g id="line2d_73"/>
   <g id="line2d_74">
    <path d="M 293.744063 336.76711 
L 293.744063 374.465497 
" clip-path="url(#p7a1898bd03)" style="fill: none; stroke: #212121; stroke-width: 2; stroke-linecap: round"/>
   </g>
   <g id="line2d_75">
    <path d="M 293.744063 253.605869 
L 293.744063 238.940257 
" clip-path="url(#p7a1898bd03)" style="fill: none; stroke: #212121; stroke-width: 2; stroke-linecap: round"/>
   </g>
   <g id="line2d_76">
    <path d="M 287.048063 374.465497 
L 300.440063 374.465497 
" clip-path="url(#p7a1898bd03)" style="fill: none; stroke: #212121; stroke-width: 2; stroke-linecap: round"/>
   </g>
   <g id="line2d_77">
    <path d="M 287.048063 238.940257 
L 300.440063 238.940257 
" clip-path="url(#p7a1898bd03)" style="fill: none; stroke: #212121; stroke-width: 2; stroke-linecap: round"/>
   </g>
   <g id="line2d_78"/>
   <g id="line2d_79">
    <path d="M 327.224063 363.334618 
L 327.224063 372.706275 
" clip-path="url(#p7a1898bd03)" style="fill: none; stroke: #212121; stroke-width: 2; stroke-linecap: round"/>
   </g>
   <g id="line2d_80">
    <path d="M 327.224063 349.890688 
L 327.224063 345.818415 
" clip-path="url(#p7a1898bd03)" style="fill: none; stroke: #212121; stroke-width: 2; stroke-linecap: round"/>
   </g>
   <g id="line2d_81">
    <path d="M 320.528063 372.706275 
L 333.920063 372.706275 
" clip-path="url(#p7a1898bd03)" style="fill: none; stroke: #212121; stroke-width: 2; stroke-linecap: round"/>
   </g>
   <g id="line2d_82">
    <path d="M 320.528063 345.818415 
L 333.920063 345.818415 
" clip-path="url(#p7a1898bd03)" style="fill: none; stroke: #212121; stroke-width: 2; stroke-linecap: round"/>
   </g>
   <g id="line2d_83"/>
   <g id="line2d_84">
    <path d="M 360.704063 304.118341 
L 360.704063 368.883768 
" clip-path="url(#p7a1898bd03)" style="fill: none; stroke: #212121; stroke-width: 2; stroke-linecap: round"/>
   </g>
   <g id="line2d_85">
    <path d="M 360.704063 230.231022 
L 360.704063 205.949417 
" clip-path="url(#p7a1898bd03)" style="fill: none; stroke: #212121; stroke-width: 2; stroke-linecap: round"/>
   </g>
   <g id="line2d_86">
    <path d="M 354.008063 368.883768 
L 367.400063 368.883768 
" clip-path="url(#p7a1898bd03)" style="fill: none; stroke: #212121; stroke-width: 2; stroke-linecap: round"/>
   </g>
   <g id="line2d_87">
    <path d="M 354.008063 205.949417 
L 367.400063 205.949417 
" clip-path="url(#p7a1898bd03)" style="fill: none; stroke: #212121; stroke-width: 2; stroke-linecap: round"/>
   </g>
   <g id="line2d_88"/>
   <g id="line2d_89">
    <path d="M 394.184063 303.271308 
L 394.184063 367.211421 
" clip-path="url(#p7a1898bd03)" style="fill: none; stroke: #212121; stroke-width: 2; stroke-linecap: round"/>
   </g>
   <g id="line2d_90">
    <path d="M 394.184063 247.361717 
L 394.184063 237.354785 
" clip-path="url(#p7a1898bd03)" style="fill: none; stroke: #212121; stroke-width: 2; stroke-linecap: round"/>
   </g>
   <g id="line2d_91">
    <path d="M 387.488063 367.211421 
L 400.880063 367.211421 
" clip-path="url(#p7a1898bd03)" style="fill: none; stroke: #212121; stroke-width: 2; stroke-linecap: round"/>
   </g>
   <g id="line2d_92">
    <path d="M 387.488063 237.354785 
L 400.880063 237.354785 
" clip-path="url(#p7a1898bd03)" style="fill: none; stroke: #212121; stroke-width: 2; stroke-linecap: round"/>
   </g>
   <g id="line2d_93">
    <g clip-path="url(#p7a1898bd03)">
     <use xlink:href="#m92e1ffe3e1" x="394.184063" y="41.14725" style="fill: #212121; stroke: #212121; stroke-linejoin: miter"/>
    </g>
   </g>
   <g id="line2d_94">
    <path d="M 427.664063 329.355573 
L 427.664063 366.820483 
" clip-path="url(#p7a1898bd03)" style="fill: none; stroke: #212121; stroke-width: 2; stroke-linecap: round"/>
   </g>
   <g id="line2d_95">
    <path d="M 427.664063 235.964783 
L 427.664063 167.70263 
" clip-path="url(#p7a1898bd03)" style="fill: none; stroke: #212121; stroke-width: 2; stroke-linecap: round"/>
   </g>
   <g id="line2d_96">
    <path d="M 420.968063 366.820483 
L 434.360063 366.820483 
" clip-path="url(#p7a1898bd03)" style="fill: none; stroke: #212121; stroke-width: 2; stroke-linecap: round"/>
   </g>
   <g id="line2d_97">
    <path d="M 420.968063 167.70263 
L 434.360063 167.70263 
" clip-path="url(#p7a1898bd03)" style="fill: none; stroke: #212121; stroke-width: 2; stroke-linecap: round"/>
   </g>
   <g id="line2d_98"/>
   <g id="line2d_99">
    <path d="M 461.144063 323.382906 
L 461.144063 364.996105 
" clip-path="url(#p7a1898bd03)" style="fill: none; stroke: #212121; stroke-width: 2; stroke-linecap: round"/>
   </g>
   <g id="line2d_100">
    <path d="M 461.144063 217.851313 
L 461.144063 169.917947 
" clip-path="url(#p7a1898bd03)" style="fill: none; stroke: #212121; stroke-width: 2; stroke-linecap: round"/>
   </g>
   <g id="line2d_101">
    <path d="M 454.448063 364.996105 
L 467.840063 364.996105 
" clip-path="url(#p7a1898bd03)" style="fill: none; stroke: #212121; stroke-width: 2; stroke-linecap: round"/>
   </g>
   <g id="line2d_102">
    <path d="M 454.448063 169.917947 
L 467.840063 169.917947 
" clip-path="url(#p7a1898bd03)" style="fill: none; stroke: #212121; stroke-width: 2; stroke-linecap: round"/>
   </g>
   <g id="line2d_103"/>
   <g id="line2d_104">
    <path d="M 494.624063 322.079779 
L 494.624063 363.519227 
" clip-path="url(#p7a1898bd03)" style="fill: none; stroke: #212121; stroke-width: 2; stroke-linecap: round"/>
   </g>
   <g id="line2d_105">
    <path d="M 494.624063 231.751338 
L 494.624063 209.467861 
" clip-path="url(#p7a1898bd03)" style="fill: none; stroke: #212121; stroke-width: 2; stroke-linecap: round"/>
   </g>
   <g id="line2d_106">
    <path d="M 487.928063 363.519227 
L 501.320063 363.519227 
" clip-path="url(#p7a1898bd03)" style="fill: none; stroke: #212121; stroke-width: 2; stroke-linecap: round"/>
   </g>
   <g id="line2d_107">
    <path d="M 487.928063 209.467861 
L 501.320063 209.467861 
" clip-path="url(#p7a1898bd03)" style="fill: none; stroke: #212121; stroke-width: 2; stroke-linecap: round"/>
   </g>
   <g id="line2d_108"/>
   <g id="line2d_109">
    <path d="M 528.104063 332.206164 
L 528.104063 360.630628 
" clip-path="url(#p7a1898bd03)" style="fill: none; stroke: #212121; stroke-width: 2; stroke-linecap: round"/>
   </g>
   <g id="line2d_110">
    <path d="M 528.104063 244.668587 
L 528.104063 237.550254 
" clip-path="url(#p7a1898bd03)" style="fill: none; stroke: #212121; stroke-width: 2; stroke-linecap: round"/>
   </g>
   <g id="line2d_111">
    <path d="M 521.408063 360.630628 
L 534.800063 360.630628 
" clip-path="url(#p7a1898bd03)" style="fill: none; stroke: #212121; stroke-width: 2; stroke-linecap: round"/>
   </g>
   <g id="line2d_112">
    <path d="M 521.408063 237.550254 
L 534.800063 237.550254 
" clip-path="url(#p7a1898bd03)" style="fill: none; stroke: #212121; stroke-width: 2; stroke-linecap: round"/>
   </g>
   <g id="line2d_113"/>
   <g id="line2d_114">
    <path d="M 561.584063 274.331022 
L 561.584063 318.865398 
" clip-path="url(#p7a1898bd03)" style="fill: none; stroke: #212121; stroke-width: 2; stroke-linecap: round"/>
   </g>
   <g id="line2d_115">
    <path d="M 561.584063 237.539395 
L 561.584063 225.08367 
" clip-path="url(#p7a1898bd03)" style="fill: none; stroke: #212121; stroke-width: 2; stroke-linecap: round"/>
   </g>
   <g id="line2d_116">
    <path d="M 554.888063 318.865398 
L 568.280062 318.865398 
" clip-path="url(#p7a1898bd03)" style="fill: none; stroke: #212121; stroke-width: 2; stroke-linecap: round"/>
   </g>
   <g id="line2d_117">
    <path d="M 554.888063 225.08367 
L 568.280062 225.08367 
" clip-path="url(#p7a1898bd03)" style="fill: none; stroke: #212121; stroke-width: 2; stroke-linecap: round"/>
   </g>
   <g id="line2d_118">
    <g clip-path="url(#p7a1898bd03)">
     <use xlink:href="#m92e1ffe3e1" x="561.584063" y="359.110313" style="fill: #212121; stroke: #212121; stroke-linejoin: miter"/>
     <use xlink:href="#m92e1ffe3e1" x="561.584063" y="347.599355" style="fill: #212121; stroke: #212121; stroke-linejoin: miter"/>
     <use xlink:href="#m92e1ffe3e1" x="561.584063" y="332.113859" style="fill: #212121; stroke: #212121; stroke-linejoin: miter"/>
    </g>
   </g>
   <g id="line2d_119">
    <path d="M 595.064063 319.109735 
L 595.064063 357.177341 
" clip-path="url(#p7a1898bd03)" style="fill: none; stroke: #212121; stroke-width: 2; stroke-linecap: round"/>
   </g>
   <g id="line2d_120">
    <path d="M 595.064063 222.059328 
L 595.064063 189.530013 
" clip-path="url(#p7a1898bd03)" style="fill: none; stroke: #212121; stroke-width: 2; stroke-linecap: round"/>
   </g>
   <g id="line2d_121">
    <path d="M 588.368063 357.177341 
L 601.760063 357.177341 
" clip-path="url(#p7a1898bd03)" style="fill: none; stroke: #212121; stroke-width: 2; stroke-linecap: round"/>
   </g>
   <g id="line2d_122">
    <path d="M 588.368063 189.530013 
L 601.760063 189.530013 
" clip-path="url(#p7a1898bd03)" style="fill: none; stroke: #212121; stroke-width: 2; stroke-linecap: round"/>
   </g>
   <g id="line2d_123"/>
   <g id="line2d_124">
    <path d="M 628.544063 331.636046 
L 628.544063 355.526713 
" clip-path="url(#p7a1898bd03)" style="fill: none; stroke: #212121; stroke-width: 2; stroke-linecap: round"/>
   </g>
   <g id="line2d_125">
    <path d="M 628.544063 220.544443 
L 628.544063 201.649097 
" clip-path="url(#p7a1898bd03)" style="fill: none; stroke: #212121; stroke-width: 2; stroke-linecap: round"/>
   </g>
   <g id="line2d_126">
    <path d="M 621.848063 355.526713 
L 635.240063 355.526713 
" clip-path="url(#p7a1898bd03)" style="fill: none; stroke: #212121; stroke-width: 2; stroke-linecap: round"/>
   </g>
   <g id="line2d_127">
    <path d="M 621.848063 201.649097 
L 635.240063 201.649097 
" clip-path="url(#p7a1898bd03)" style="fill: none; stroke: #212121; stroke-width: 2; stroke-linecap: round"/>
   </g>
   <g id="line2d_128"/>
   <g id="line2d_129">
    <path d="M 662.024063 340.225827 
L 662.024063 352.89874 
" clip-path="url(#p7a1898bd03)" style="fill: none; stroke: #212121; stroke-width: 2; stroke-linecap: round"/>
   </g>
   <g id="line2d_130">
    <path d="M 662.024063 253.426689 
L 662.024063 226.321641 
" clip-path="url(#p7a1898bd03)" style="fill: none; stroke: #212121; stroke-width: 2; stroke-linecap: round"/>
   </g>
   <g id="line2d_131">
    <path d="M 655.328063 352.89874 
L 668.720063 352.89874 
" clip-path="url(#p7a1898bd03)" style="fill: none; stroke: #212121; stroke-width: 2; stroke-linecap: round"/>
   </g>
   <g id="line2d_132">
    <path d="M 655.328063 226.321641 
L 668.720063 226.321641 
" clip-path="url(#p7a1898bd03)" style="fill: none; stroke: #212121; stroke-width: 2; stroke-linecap: round"/>
   </g>
   <g id="line2d_133"/>
   <g id="line2d_134">
    <path d="M 695.504063 294.475199 
L 695.504063 347.990294 
" clip-path="url(#p7a1898bd03)" style="fill: none; stroke: #212121; stroke-width: 2; stroke-linecap: round"/>
   </g>
   <g id="line2d_135">
    <path d="M 695.504063 227.168673 
L 695.504063 218.872096 
" clip-path="url(#p7a1898bd03)" style="fill: none; stroke: #212121; stroke-width: 2; stroke-linecap: round"/>
   </g>
   <g id="line2d_136">
    <path d="M 688.808063 347.990294 
L 702.200063 347.990294 
" clip-path="url(#p7a1898bd03)" style="fill: none; stroke: #212121; stroke-width: 2; stroke-linecap: round"/>
   </g>
   <g id="line2d_137">
    <path d="M 688.808063 218.872096 
L 702.200063 218.872096 
" clip-path="url(#p7a1898bd03)" style="fill: none; stroke: #212121; stroke-width: 2; stroke-linecap: round"/>
   </g>
   <g id="line2d_138"/>
   <g id="line2d_139">
    <path d="M 45.992063 283.083694 
L 72.776063 283.083694 
" clip-path="url(#p7a1898bd03)" style="fill: none; stroke: #212121; stroke-width: 2; stroke-linecap: round"/>
   </g>
   <g id="line2d_140">
    <path d="M 79.472063 277.534544 
L 106.256063 277.534544 
" clip-path="url(#p7a1898bd03)" style="fill: none; stroke: #212121; stroke-width: 2; stroke-linecap: round"/>
   </g>
   <g id="line2d_141">
    <path d="M 112.952063 261.614672 
L 139.736063 261.614672 
" clip-path="url(#p7a1898bd03)" style="fill: none; stroke: #212121; stroke-width: 2; stroke-linecap: round"/>
   </g>
   <g id="line2d_142">
    <path d="M 146.432063 281.90002 
L 173.216063 281.90002 
" clip-path="url(#p7a1898bd03)" style="fill: none; stroke: #212121; stroke-width: 2; stroke-linecap: round"/>
   </g>
   <g id="line2d_143">
    <path d="M 179.912063 280.379705 
L 206.696063 280.379705 
" clip-path="url(#p7a1898bd03)" style="fill: none; stroke: #212121; stroke-width: 2; stroke-linecap: round"/>
   </g>
   <g id="line2d_144">
    <path d="M 213.392063 275.862197 
L 240.176063 275.862197 
" clip-path="url(#p7a1898bd03)" style="fill: none; stroke: #212121; stroke-width: 2; stroke-linecap: round"/>
   </g>
   <g id="line2d_145">
    <path d="M 246.872062 256.489038 
L 273.656063 256.489038 
" clip-path="url(#p7a1898bd03)" style="fill: none; stroke: #212121; stroke-width: 2; stroke-linecap: round"/>
   </g>
   <g id="line2d_146">
    <path d="M 280.352063 264.753037 
L 307.136063 264.753037 
" clip-path="url(#p7a1898bd03)" style="fill: none; stroke: #212121; stroke-width: 2; stroke-linecap: round"/>
   </g>
   <g id="line2d_147">
    <path d="M 313.832063 353.96296 
L 340.616063 353.96296 
" clip-path="url(#p7a1898bd03)" style="fill: none; stroke: #212121; stroke-width: 2; stroke-linecap: round"/>
   </g>
   <g id="line2d_148">
    <path d="M 347.312063 257.270914 
L 374.096063 257.270914 
" clip-path="url(#p7a1898bd03)" style="fill: none; stroke: #212121; stroke-width: 2; stroke-linecap: round"/>
   </g>
   <g id="line2d_149">
    <path d="M 380.792063 256.793101 
L 407.576063 256.793101 
" clip-path="url(#p7a1898bd03)" style="fill: none; stroke: #212121; stroke-width: 2; stroke-linecap: round"/>
   </g>
   <g id="line2d_150">
    <path d="M 414.272063 253.709033 
L 441.056063 253.709033 
" clip-path="url(#p7a1898bd03)" style="fill: none; stroke: #212121; stroke-width: 2; stroke-linecap: round"/>
   </g>
   <g id="line2d_151">
    <path d="M 447.752063 238.766506 
L 474.536063 238.766506 
" clip-path="url(#p7a1898bd03)" style="fill: none; stroke: #212121; stroke-width: 2; stroke-linecap: round"/>
   </g>
   <g id="line2d_152">
    <path d="M 481.232063 243.457765 
L 508.016063 243.457765 
" clip-path="url(#p7a1898bd03)" style="fill: none; stroke: #212121; stroke-width: 2; stroke-linecap: round"/>
   </g>
   <g id="line2d_153">
    <path d="M 514.712063 255.099035 
L 541.496063 255.099035 
" clip-path="url(#p7a1898bd03)" style="fill: none; stroke: #212121; stroke-width: 2; stroke-linecap: round"/>
   </g>
   <g id="line2d_154">
    <path d="M 548.192063 244.152766 
L 574.976063 244.152766 
" clip-path="url(#p7a1898bd03)" style="fill: none; stroke: #212121; stroke-width: 2; stroke-linecap: round"/>
   </g>
   <g id="line2d_155">
    <path d="M 581.672063 233.782044 
L 608.456063 233.782044 
" clip-path="url(#p7a1898bd03)" style="fill: none; stroke: #212121; stroke-width: 2; stroke-linecap: round"/>
   </g>
   <g id="line2d_156">
    <path d="M 615.152063 225.713514 
L 641.936063 225.713514 
" clip-path="url(#p7a1898bd03)" style="fill: none; stroke: #212121; stroke-width: 2; stroke-linecap: round"/>
   </g>
   <g id="line2d_157">
    <path d="M 648.632063 257.33607 
L 675.416063 257.33607 
" clip-path="url(#p7a1898bd03)" style="fill: none; stroke: #212121; stroke-width: 2; stroke-linecap: round"/>
   </g>
   <g id="line2d_158">
    <path d="M 682.112063 236.029939 
L 708.896063 236.029939 
" clip-path="url(#p7a1898bd03)" style="fill: none; stroke: #212121; stroke-width: 2; stroke-linecap: round"/>
   </g>
   <g id="patch_33">
    <path d="M 42.644063 411.58725 
L 42.644063 23.50725 
" style="fill: none; stroke: #bcbcbc; stroke-linejoin: miter; stroke-linecap: square"/>
   </g>
   <g id="patch_34">
    <path d="M 712.244063 411.58725 
L 712.244063 23.50725 
" style="fill: none; stroke: #bcbcbc; stroke-linejoin: miter; stroke-linecap: square"/>
   </g>
   <g id="patch_35">
    <path d="M 42.644063 411.58725 
L 712.244063 411.58725 
" style="fill: none; stroke: #bcbcbc; stroke-linejoin: miter; stroke-linecap: square"/>
   </g>
   <g id="patch_36">
    <path d="M 42.644063 23.50725 
L 712.244063 23.50725 
" style="fill: none; stroke: #bcbcbc; stroke-linejoin: miter; stroke-linecap: square"/>
   </g>
   <g id="text_32">
    <!-- 2022 Abu Dhabi Grand Prix - FP2 Median Pace -->
    <g style="fill: #262626" transform="translate(226.167563 17.50725)scale(0.144 -0.144)">
     <defs>
      <path id="ArialMT-68" d="M 422 0 
L 422 4581 
L 984 4581 
L 984 2938 
Q 1378 3394 1978 3394 
Q 2347 3394 2619 3248 
Q 2891 3103 3008 2847 
Q 3125 2591 3125 2103 
L 3125 0 
L 2563 0 
L 2563 2103 
Q 2563 2525 2380 2717 
Q 2197 2909 1863 2909 
Q 1613 2909 1392 2779 
Q 1172 2650 1078 2428 
Q 984 2206 984 1816 
L 984 0 
L 422 0 
z
" transform="scale(0.015625)"/>
      <path id="ArialMT-78" d="M 47 0 
L 1259 1725 
L 138 3319 
L 841 3319 
L 1350 2541 
Q 1494 2319 1581 2169 
Q 1719 2375 1834 2534 
L 2394 3319 
L 3066 3319 
L 1919 1756 
L 3153 0 
L 2463 0 
L 1781 1031 
L 1600 1309 
L 728 0 
L 47 0 
z
" transform="scale(0.015625)"/>
      <path id="ArialMT-2d" d="M 203 1375 
L 203 1941 
L 1931 1941 
L 1931 1375 
L 203 1375 
z
" transform="scale(0.015625)"/>
      <path id="ArialMT-46" d="M 525 0 
L 525 4581 
L 3616 4581 
L 3616 4041 
L 1131 4041 
L 1131 2622 
L 3281 2622 
L 3281 2081 
L 1131 2081 
L 1131 0 
L 525 0 
z
" transform="scale(0.015625)"/>
     </defs>
     <use xlink:href="#ArialMT-32"/>
     <use xlink:href="#ArialMT-30" x="55.615234"/>
     <use xlink:href="#ArialMT-32" x="111.230469"/>
     <use xlink:href="#ArialMT-32" x="166.845703"/>
     <use xlink:href="#ArialMT-20" x="222.460938"/>
     <use xlink:href="#ArialMT-41" x="244.744141"/>
     <use xlink:href="#ArialMT-62" x="311.443359"/>
     <use xlink:href="#ArialMT-75" x="367.058594"/>
     <use xlink:href="#ArialMT-20" x="422.673828"/>
     <use xlink:href="#ArialMT-44" x="450.457031"/>
     <use xlink:href="#ArialMT-68" x="522.673828"/>
     <use xlink:href="#ArialMT-61" x="578.289062"/>
     <use xlink:href="#ArialMT-62" x="633.904297"/>
     <use xlink:href="#ArialMT-69" x="689.519531"/>
     <use xlink:href="#ArialMT-20" x="711.736328"/>
     <use xlink:href="#ArialMT-47" x="739.519531"/>
     <use xlink:href="#ArialMT-72" x="817.302734"/>
     <use xlink:href="#ArialMT-61" x="850.603516"/>
     <use xlink:href="#ArialMT-6e" x="906.21875"/>
     <use xlink:href="#ArialMT-64" x="961.833984"/>
     <use xlink:href="#ArialMT-20" x="1017.449219"/>
     <use xlink:href="#ArialMT-50" x="1045.232422"/>
     <use xlink:href="#ArialMT-72" x="1111.931641"/>
     <use xlink:href="#ArialMT-69" x="1145.232422"/>
     <use xlink:href="#ArialMT-78" x="1167.449219"/>
     <use xlink:href="#ArialMT-20" x="1217.449219"/>
     <use xlink:href="#ArialMT-2d" x="1245.232422"/>
     <use xlink:href="#ArialMT-20" x="1278.533203"/>
     <use xlink:href="#ArialMT-46" x="1306.316406"/>
     <use xlink:href="#ArialMT-50" x="1367.400391"/>
     <use xlink:href="#ArialMT-32" x="1434.099609"/>
     <use xlink:href="#ArialMT-20" x="1489.714844"/>
     <use xlink:href="#ArialMT-4d" x="1517.498047"/>
     <use xlink:href="#ArialMT-65" x="1600.798828"/>
     <use xlink:href="#ArialMT-64" x="1656.414062"/>
     <use xlink:href="#ArialMT-69" x="1712.029297"/>
     <use xlink:href="#ArialMT-61" x="1734.246094"/>
     <use xlink:href="#ArialMT-6e" x="1789.861328"/>
     <use xlink:href="#ArialMT-20" x="1845.476562"/>
     <use xlink:href="#ArialMT-50" x="1873.259766"/>
     <use xlink:href="#ArialMT-61" x="1939.958984"/>
     <use xlink:href="#ArialMT-63" x="1995.574219"/>
     <use xlink:href="#ArialMT-65" x="2045.574219"/>
    </g>
   </g>
   <g id="legend_1">
    <g id="patch_37">
     <path d="M 51.644063 39.665062 
L 71.644063 39.665062 
L 71.644063 32.665062 
L 51.644063 32.665062 
z
" style="fill: #221ed1; stroke: #212121; stroke-linejoin: miter"/>
    </g>
    <g id="text_33">
     <!-- Red Bull Racing -->
     <g style="fill: #262626" transform="translate(79.644063 39.665062)scale(0.1 -0.1)">
      <defs>
       <path id="ArialMT-67" d="M 319 -275 
L 866 -356 
Q 900 -609 1056 -725 
Q 1266 -881 1628 -881 
Q 2019 -881 2231 -725 
Q 2444 -569 2519 -288 
Q 2563 -116 2559 434 
Q 2191 0 1641 0 
Q 956 0 581 494 
Q 206 988 206 1678 
Q 206 2153 378 2554 
Q 550 2956 876 3175 
Q 1203 3394 1644 3394 
Q 2231 3394 2613 2919 
L 2613 3319 
L 3131 3319 
L 3131 450 
Q 3131 -325 2973 -648 
Q 2816 -972 2473 -1159 
Q 2131 -1347 1631 -1347 
Q 1038 -1347 672 -1080 
Q 306 -813 319 -275 
z
M 784 1719 
Q 784 1066 1043 766 
Q 1303 466 1694 466 
Q 2081 466 2343 764 
Q 2606 1063 2606 1700 
Q 2606 2309 2336 2618 
Q 2066 2928 1684 2928 
Q 1309 2928 1046 2623 
Q 784 2319 784 1719 
z
" transform="scale(0.015625)"/>
      </defs>
      <use xlink:href="#ArialMT-52"/>
      <use xlink:href="#ArialMT-65" x="72.216797"/>
      <use xlink:href="#ArialMT-64" x="127.832031"/>
      <use xlink:href="#ArialMT-20" x="183.447266"/>
      <use xlink:href="#ArialMT-42" x="211.230469"/>
      <use xlink:href="#ArialMT-75" x="277.929688"/>
      <use xlink:href="#ArialMT-6c" x="333.544922"/>
      <use xlink:href="#ArialMT-6c" x="355.761719"/>
      <use xlink:href="#ArialMT-20" x="377.978516"/>
      <use xlink:href="#ArialMT-52" x="405.761719"/>
      <use xlink:href="#ArialMT-61" x="477.978516"/>
      <use xlink:href="#ArialMT-63" x="533.59375"/>
      <use xlink:href="#ArialMT-69" x="583.59375"/>
      <use xlink:href="#ArialMT-6e" x="605.810547"/>
      <use xlink:href="#ArialMT-67" x="661.425781"/>
     </g>
    </g>
    <g id="patch_38">
     <path d="M 51.644063 53.927562 
L 71.644063 53.927562 
L 71.644063 46.927562 
L 51.644063 46.927562 
z
" style="fill: #1ab8a9; stroke: #212121; stroke-linejoin: miter"/>
    </g>
    <g id="text_34">
     <!-- Mercedes -->
     <g style="fill: #262626" transform="translate(79.644063 53.927562)scale(0.1 -0.1)">
      <use xlink:href="#ArialMT-4d"/>
      <use xlink:href="#ArialMT-65" x="83.300781"/>
      <use xlink:href="#ArialMT-72" x="138.916016"/>
      <use xlink:href="#ArialMT-63" x="172.216797"/>
      <use xlink:href="#ArialMT-65" x="222.216797"/>
      <use xlink:href="#ArialMT-64" x="277.832031"/>
      <use xlink:href="#ArialMT-65" x="333.447266"/>
      <use xlink:href="#ArialMT-73" x="389.0625"/>
     </g>
    </g>
    <g id="patch_39">
     <path d="M 51.644063 68.072875 
L 71.644063 68.072875 
L 71.644063 61.072875 
L 51.644063 61.072875 
z
" style="fill: #c01c1c; stroke: #212121; stroke-linejoin: miter"/>
    </g>
    <g id="text_35">
     <!-- Ferrari -->
     <g style="fill: #262626" transform="translate(79.644063 68.072875)scale(0.1 -0.1)">
      <use xlink:href="#ArialMT-46"/>
      <use xlink:href="#ArialMT-65" x="61.083984"/>
      <use xlink:href="#ArialMT-72" x="116.699219"/>
      <use xlink:href="#ArialMT-72" x="150"/>
      <use xlink:href="#ArialMT-61" x="183.300781"/>
      <use xlink:href="#ArialMT-72" x="238.916016"/>
      <use xlink:href="#ArialMT-69" x="272.216797"/>
     </g>
    </g>
    <g id="patch_40">
     <path d="M 51.644063 82.218187 
L 71.644063 82.218187 
L 71.644063 75.218187 
L 51.644063 75.218187 
z
" style="fill: #208cdf; stroke: #212121; stroke-linejoin: miter"/>
    </g>
    <g id="text_36">
     <!-- Alpine -->
     <g style="fill: #262626" transform="translate(79.644063 82.218187)scale(0.1 -0.1)">
      <use xlink:href="#ArialMT-41"/>
      <use xlink:href="#ArialMT-6c" x="66.699219"/>
      <use xlink:href="#ArialMT-70" x="88.916016"/>
      <use xlink:href="#ArialMT-69" x="144.53125"/>
      <use xlink:href="#ArialMT-6e" x="166.748047"/>
      <use xlink:href="#ArialMT-65" x="222.363281"/>
     </g>
    </g>
    <g id="patch_41">
     <path d="M 51.644063 96.3635 
L 71.644063 96.3635 
L 71.644063 89.3635 
L 51.644063 89.3635 
z
" style="fill: #df8520; stroke: #212121; stroke-linejoin: miter"/>
    </g>
    <g id="text_37">
     <!-- McLaren -->
     <g style="fill: #262626" transform="translate(79.644063 96.3635)scale(0.1 -0.1)">
      <use xlink:href="#ArialMT-4d"/>
      <use xlink:href="#ArialMT-63" x="83.300781"/>
      <use xlink:href="#ArialMT-4c" x="133.300781"/>
      <use xlink:href="#ArialMT-61" x="188.916016"/>
      <use xlink:href="#ArialMT-72" x="244.53125"/>
      <use xlink:href="#ArialMT-65" x="277.832031"/>
      <use xlink:href="#ArialMT-6e" x="333.447266"/>
     </g>
    </g>
    <g id="patch_42">
     <path d="M 51.644063 110.508812 
L 71.644063 110.508812 
L 71.644063 103.508812 
L 51.644063 103.508812 
z
" style="fill: #7e1212; stroke: #212121; stroke-linejoin: miter"/>
    </g>
    <g id="text_38">
     <!-- Alfa Romeo -->
     <g style="fill: #262626" transform="translate(79.644063 110.508812)scale(0.1 -0.1)">
      <use xlink:href="#ArialMT-41"/>
      <use xlink:href="#ArialMT-6c" x="66.699219"/>
      <use xlink:href="#ArialMT-66" x="88.916016"/>
      <use xlink:href="#ArialMT-61" x="116.699219"/>
      <use xlink:href="#ArialMT-20" x="172.314453"/>
      <use xlink:href="#ArialMT-52" x="200.097656"/>
      <use xlink:href="#ArialMT-6f" x="272.314453"/>
      <use xlink:href="#ArialMT-6d" x="327.929688"/>
      <use xlink:href="#ArialMT-65" x="411.230469"/>
      <use xlink:href="#ArialMT-6f" x="466.845703"/>
     </g>
    </g>
    <g id="patch_43">
     <path d="M 51.644063 124.654125 
L 71.644063 124.654125 
L 71.644063 117.654125 
L 51.644063 117.654125 
z
" style="fill: #0e6157; stroke: #212121; stroke-linejoin: miter"/>
    </g>
    <g id="text_39">
     <!-- Aston Martin -->
     <g style="fill: #262626" transform="translate(79.644063 124.654125)scale(0.1 -0.1)">
      <use xlink:href="#ArialMT-41"/>
      <use xlink:href="#ArialMT-73" x="66.699219"/>
      <use xlink:href="#ArialMT-74" x="116.699219"/>
      <use xlink:href="#ArialMT-6f" x="144.482422"/>
      <use xlink:href="#ArialMT-6e" x="200.097656"/>
      <use xlink:href="#ArialMT-20" x="255.712891"/>
      <use xlink:href="#ArialMT-4d" x="283.496094"/>
      <use xlink:href="#ArialMT-61" x="366.796875"/>
      <use xlink:href="#ArialMT-72" x="422.412109"/>
      <use xlink:href="#ArialMT-74" x="455.712891"/>
      <use xlink:href="#ArialMT-69" x="483.496094"/>
      <use xlink:href="#ArialMT-6e" x="505.712891"/>
     </g>
    </g>
    <g id="patch_44">
     <path d="M 51.644063 138.799437 
L 71.644063 138.799437 
L 71.644063 131.799437 
L 51.644063 131.799437 
z
" style="fill: #32455b; stroke: #212121; stroke-linejoin: miter"/>
    </g>
    <g id="text_40">
     <!-- AlphaTauri -->
     <g style="fill: #262626" transform="translate(79.644063 138.799437)scale(0.1 -0.1)">
      <use xlink:href="#ArialMT-41"/>
      <use xlink:href="#ArialMT-6c" x="66.699219"/>
      <use xlink:href="#ArialMT-70" x="88.916016"/>
      <use xlink:href="#ArialMT-68" x="144.53125"/>
      <use xlink:href="#ArialMT-61" x="200.146484"/>
      <use xlink:href="#ArialMT-54" x="255.761719"/>
      <use xlink:href="#ArialMT-61" x="305.720703"/>
      <use xlink:href="#ArialMT-75" x="361.335938"/>
      <use xlink:href="#ArialMT-72" x="416.951172"/>
      <use xlink:href="#ArialMT-69" x="450.251953"/>
     </g>
    </g>
    <g id="patch_45">
     <path d="M 51.644063 152.94475 
L 71.644063 152.94475 
L 71.644063 145.94475 
L 51.644063 145.94475 
z
" style="fill: #2063df; stroke: #212121; stroke-linejoin: miter"/>
    </g>
    <g id="text_41">
     <!-- Williams -->
     <g style="fill: #262626" transform="translate(79.644063 152.94475)scale(0.1 -0.1)">
      <defs>
       <path id="ArialMT-57" d="M 1294 0 
L 78 4581 
L 700 4581 
L 1397 1578 
Q 1509 1106 1591 641 
Q 1766 1375 1797 1488 
L 2669 4581 
L 3400 4581 
L 4056 2263 
Q 4303 1400 4413 641 
Q 4500 1075 4641 1638 
L 5359 4581 
L 5969 4581 
L 4713 0 
L 4128 0 
L 3163 3491 
Q 3041 3928 3019 4028 
Q 2947 3713 2884 3491 
L 1913 0 
L 1294 0 
z
" transform="scale(0.015625)"/>
      </defs>
      <use xlink:href="#ArialMT-57"/>
      <use xlink:href="#ArialMT-69" x="94.384766"/>
      <use xlink:href="#ArialMT-6c" x="116.601562"/>
      <use xlink:href="#ArialMT-6c" x="138.818359"/>
      <use xlink:href="#ArialMT-69" x="161.035156"/>
      <use xlink:href="#ArialMT-61" x="183.251953"/>
      <use xlink:href="#ArialMT-6d" x="238.867188"/>
      <use xlink:href="#ArialMT-73" x="322.167969"/>
     </g>
    </g>
    <g id="patch_46">
     <path d="M 51.644063 167.090062 
L 71.644063 167.090062 
L 71.644063 160.090062 
L 51.644063 160.090062 
z
" style="fill: #ffffff; stroke: #212121; stroke-linejoin: miter"/>
    </g>
    <g id="text_42">
     <!-- Haas F1 Team -->
     <g style="fill: #262626" transform="translate(79.644063 167.090062)scale(0.1 -0.1)">
      <use xlink:href="#ArialMT-48"/>
      <use xlink:href="#ArialMT-61" x="72.216797"/>
      <use xlink:href="#ArialMT-61" x="127.832031"/>
      <use xlink:href="#ArialMT-73" x="183.447266"/>
      <use xlink:href="#ArialMT-20" x="233.447266"/>
      <use xlink:href="#ArialMT-46" x="261.230469"/>
      <use xlink:href="#ArialMT-31" x="322.314453"/>
      <use xlink:href="#ArialMT-20" x="377.929688"/>
      <use xlink:href="#ArialMT-54" x="403.962891"/>
      <use xlink:href="#ArialMT-65" x="453.921875"/>
      <use xlink:href="#ArialMT-61" x="509.537109"/>
      <use xlink:href="#ArialMT-6d" x="565.152344"/>
     </g>
    </g>
   </g>
  </g>
  <g id="text_43">
   <!--  2022 Yoann Betton -->
   <g style="fill: #262626" transform="translate(319.302656 398.585062)scale(0.1 -0.1)">
    <defs>
     <path id="ArialMT-a9" d="M 2369 4659 
Q 2963 4659 3528 4354 
Q 4094 4050 4409 3483 
Q 4725 2916 4725 2300 
Q 4725 1691 4414 1128 
Q 4103 566 3542 255 
Q 2981 -56 2369 -56 
Q 1756 -56 1195 255 
Q 634 566 321 1128 
Q 9 1691 9 2300 
Q 9 2916 326 3483 
Q 644 4050 1209 4354 
Q 1775 4659 2369 4659 
z
M 2369 4269 
Q 1872 4269 1401 4014 
Q 931 3759 665 3286 
Q 400 2813 400 2300 
Q 400 1791 661 1323 
Q 922 856 1390 595 
Q 1859 334 2369 334 
Q 2878 334 3347 595 
Q 3816 856 4075 1323 
Q 4334 1791 4334 2300 
Q 4334 2813 4070 3286 
Q 3806 3759 3334 4014 
Q 2863 4269 2369 4269 
z
M 3125 1919 
L 3509 1806 
Q 3416 1416 3111 1183 
Q 2806 950 2372 950 
Q 1822 950 1478 1306 
Q 1134 1663 1134 2294 
Q 1134 2706 1290 3011 
Q 1447 3316 1736 3470 
Q 2025 3625 2397 3625 
Q 2813 3625 3088 3426 
Q 3363 3228 3463 2888 
L 3091 2797 
Q 2997 3028 2814 3151 
Q 2631 3275 2384 3275 
Q 2025 3275 1792 3019 
Q 1559 2763 1559 2284 
Q 1559 1806 1779 1561 
Q 2000 1316 2350 1316 
Q 2631 1316 2843 1478 
Q 3056 1641 3125 1919 
z
" transform="scale(0.015625)"/>
     <path id="ArialMT-59" d="M 1784 0 
L 1784 1941 
L 19 4581 
L 756 4581 
L 1659 3200 
Q 1909 2813 2125 2425 
Q 2331 2784 2625 3234 
L 3513 4581 
L 4219 4581 
L 2391 1941 
L 2391 0 
L 1784 0 
z
" transform="scale(0.015625)"/>
    </defs>
    <use xlink:href="#ArialMT-a9"/>
    <use xlink:href="#ArialMT-20" x="73.681641"/>
    <use xlink:href="#ArialMT-32" x="101.464844"/>
    <use xlink:href="#ArialMT-30" x="157.080078"/>
    <use xlink:href="#ArialMT-32" x="212.695312"/>
    <use xlink:href="#ArialMT-32" x="268.310547"/>
    <use xlink:href="#ArialMT-20" x="323.925781"/>
    <use xlink:href="#ArialMT-59" x="349.958984"/>
    <use xlink:href="#ArialMT-6f" x="407.533203"/>
    <use xlink:href="#ArialMT-61" x="463.148438"/>
    <use xlink:href="#ArialMT-6e" x="518.763672"/>
    <use xlink:href="#ArialMT-6e" x="574.378906"/>
    <use xlink:href="#ArialMT-20" x="629.994141"/>
    <use xlink:href="#ArialMT-42" x="657.777344"/>
    <use xlink:href="#ArialMT-65" x="724.476562"/>
    <use xlink:href="#ArialMT-74" x="780.091797"/>
    <use xlink:href="#ArialMT-74" x="807.875"/>
    <use xlink:href="#ArialMT-6f" x="835.658203"/>
    <use xlink:href="#ArialMT-6e" x="891.273438"/>
   </g>
  </g>
 </g>
 <defs>
  <clipPath id="p7a1898bd03">
   <rect x="42.644063" y="23.50725" width="669.6" height="388.08"/>
  </clipPath>
 </defs>
</svg>
