<?xml version="1.0" encoding="utf-8" standalone="no"?>
<!DOCTYPE svg PUBLIC "-//W3C//DTD SVG 1.1//EN"
  "http://www.w3.org/Graphics/SVG/1.1/DTD/svg11.dtd">
<svg xmlns:xlink="http://www.w3.org/1999/xlink" width="713.883125pt" height="446.582437pt" viewBox="0 0 713.883125 446.582437" xmlns="http://www.w3.org/2000/svg" version="1.1">
 <metadata>
  <rdf:RDF xmlns:dc="http://purl.org/dc/elements/1.1/" xmlns:cc="http://creativecommons.org/ns#" xmlns:rdf="http://www.w3.org/1999/02/22-rdf-syntax-ns#">
   <cc:Work>
    <dc:type rdf:resource="http://purl.org/dc/dcmitype/StillImage"/>
    <dc:date>2022-11-20T18:12:52.177009</dc:date>
    <dc:format>image/svg+xml</dc:format>
    <dc:creator>
     <cc:Agent>
      <dc:title>Matplotlib v3.5.2, https://matplotlib.org/</dc:title>
     </cc:Agent>
    </dc:creator>
   </cc:Work>
  </rdf:RDF>
 </metadata>
 <defs>
  <style type="text/css">*{stroke-linejoin: round; stroke-linecap: butt}</style>
 </defs>
 <g id="figure_1">
  <g id="patch_1">
   <path d="M 0 446.582437 
L 713.883125 446.582437 
L 713.883125 0 
L 0 0 
z
" style="fill: #ffffff"/>
  </g>
  <g id="axes_1">
   <g id="patch_2">
    <path d="M 37.083125 411.76275 
L 706.683125 411.76275 
L 706.683125 23.68275 
L 37.083125 23.68275 
z
" style="fill: #eeeeee"/>
   </g>
   <g id="matplotlib.axis_1">
    <g id="xtick_1">
     <g id="line2d_1">
      <path d="M 45.779229 411.76275 
L 45.779229 23.68275 
" clip-path="url(#pe3a42e5806)" style="fill: none; stroke-dasharray: 1.85,0.8; stroke-dashoffset: 0; stroke: #b2b2b2; stroke-width: 0.5"/>
     </g>
     <g id="line2d_2"/>
     <g id="text_1">
      <!-- 0 -->
      <g style="fill: #555555" transform="translate(42.99876 422.420562)scale(0.1 -0.1)">
       <defs>
        <path id="ArialMT-30" d="M 266 2259 
Q 266 3072 433 3567 
Q 600 4063 929 4331 
Q 1259 4600 1759 4600 
Q 2128 4600 2406 4451 
Q 2684 4303 2865 4023 
Q 3047 3744 3150 3342 
Q 3253 2941 3253 2259 
Q 3253 1453 3087 958 
Q 2922 463 2592 192 
Q 2263 -78 1759 -78 
Q 1097 -78 719 397 
Q 266 969 266 2259 
z
M 844 2259 
Q 844 1131 1108 757 
Q 1372 384 1759 384 
Q 2147 384 2411 759 
Q 2675 1134 2675 2259 
Q 2675 3391 2411 3762 
Q 2147 4134 1753 4134 
Q 1366 4134 1134 3806 
Q 844 3388 844 2259 
z
" transform="scale(0.015625)"/>
       </defs>
       <use xlink:href="#ArialMT-30"/>
      </g>
     </g>
    </g>
    <g id="xtick_2">
     <g id="line2d_3">
      <path d="M 154.480528 411.76275 
L 154.480528 23.68275 
" clip-path="url(#pe3a42e5806)" style="fill: none; stroke-dasharray: 1.85,0.8; stroke-dashoffset: 0; stroke: #b2b2b2; stroke-width: 0.5"/>
     </g>
     <g id="line2d_4"/>
     <g id="text_2">
      <!-- 10 -->
      <g style="fill: #555555" transform="translate(148.91959 422.420562)scale(0.1 -0.1)">
       <defs>
        <path id="ArialMT-31" d="M 2384 0 
L 1822 0 
L 1822 3584 
Q 1619 3391 1289 3197 
Q 959 3003 697 2906 
L 697 3450 
Q 1169 3672 1522 3987 
Q 1875 4303 2022 4600 
L 2384 4600 
L 2384 0 
z
" transform="scale(0.015625)"/>
       </defs>
       <use xlink:href="#ArialMT-31"/>
       <use xlink:href="#ArialMT-30" x="55.615234"/>
      </g>
     </g>
    </g>
    <g id="xtick_3">
     <g id="line2d_5">
      <path d="M 263.181826 411.76275 
L 263.181826 23.68275 
" clip-path="url(#pe3a42e5806)" style="fill: none; stroke-dasharray: 1.85,0.8; stroke-dashoffset: 0; stroke: #b2b2b2; stroke-width: 0.5"/>
     </g>
     <g id="line2d_6"/>
     <g id="text_3">
      <!-- 20 -->
      <g style="fill: #555555" transform="translate(257.620889 422.420562)scale(0.1 -0.1)">
       <defs>
        <path id="ArialMT-32" d="M 3222 541 
L 3222 0 
L 194 0 
Q 188 203 259 391 
Q 375 700 629 1000 
Q 884 1300 1366 1694 
Q 2113 2306 2375 2664 
Q 2638 3022 2638 3341 
Q 2638 3675 2398 3904 
Q 2159 4134 1775 4134 
Q 1369 4134 1125 3890 
Q 881 3647 878 3216 
L 300 3275 
Q 359 3922 746 4261 
Q 1134 4600 1788 4600 
Q 2447 4600 2831 4234 
Q 3216 3869 3216 3328 
Q 3216 3053 3103 2787 
Q 2991 2522 2730 2228 
Q 2469 1934 1863 1422 
Q 1356 997 1212 845 
Q 1069 694 975 541 
L 3222 541 
z
" transform="scale(0.015625)"/>
       </defs>
       <use xlink:href="#ArialMT-32"/>
       <use xlink:href="#ArialMT-30" x="55.615234"/>
      </g>
     </g>
    </g>
    <g id="xtick_4">
     <g id="line2d_7">
      <path d="M 371.883125 411.76275 
L 371.883125 23.68275 
" clip-path="url(#pe3a42e5806)" style="fill: none; stroke-dasharray: 1.85,0.8; stroke-dashoffset: 0; stroke: #b2b2b2; stroke-width: 0.5"/>
     </g>
     <g id="line2d_8"/>
     <g id="text_4">
      <!-- 30 -->
      <g style="fill: #555555" transform="translate(366.322188 422.420562)scale(0.1 -0.1)">
       <defs>
        <path id="ArialMT-33" d="M 269 1209 
L 831 1284 
Q 928 806 1161 595 
Q 1394 384 1728 384 
Q 2125 384 2398 659 
Q 2672 934 2672 1341 
Q 2672 1728 2419 1979 
Q 2166 2231 1775 2231 
Q 1616 2231 1378 2169 
L 1441 2663 
Q 1497 2656 1531 2656 
Q 1891 2656 2178 2843 
Q 2466 3031 2466 3422 
Q 2466 3731 2256 3934 
Q 2047 4138 1716 4138 
Q 1388 4138 1169 3931 
Q 950 3725 888 3313 
L 325 3413 
Q 428 3978 793 4289 
Q 1159 4600 1703 4600 
Q 2078 4600 2393 4439 
Q 2709 4278 2876 4000 
Q 3044 3722 3044 3409 
Q 3044 3113 2884 2869 
Q 2725 2625 2413 2481 
Q 2819 2388 3044 2092 
Q 3269 1797 3269 1353 
Q 3269 753 2831 336 
Q 2394 -81 1725 -81 
Q 1122 -81 723 278 
Q 325 638 269 1209 
z
" transform="scale(0.015625)"/>
       </defs>
       <use xlink:href="#ArialMT-33"/>
       <use xlink:href="#ArialMT-30" x="55.615234"/>
      </g>
     </g>
    </g>
    <g id="xtick_5">
     <g id="line2d_9">
      <path d="M 480.584424 411.76275 
L 480.584424 23.68275 
" clip-path="url(#pe3a42e5806)" style="fill: none; stroke-dasharray: 1.85,0.8; stroke-dashoffset: 0; stroke: #b2b2b2; stroke-width: 0.5"/>
     </g>
     <g id="line2d_10"/>
     <g id="text_5">
      <!-- 40 -->
      <g style="fill: #555555" transform="translate(475.023486 422.420562)scale(0.1 -0.1)">
       <defs>
        <path id="ArialMT-34" d="M 2069 0 
L 2069 1097 
L 81 1097 
L 81 1613 
L 2172 4581 
L 2631 4581 
L 2631 1613 
L 3250 1613 
L 3250 1097 
L 2631 1097 
L 2631 0 
L 2069 0 
z
M 2069 1613 
L 2069 3678 
L 634 1613 
L 2069 1613 
z
" transform="scale(0.015625)"/>
       </defs>
       <use xlink:href="#ArialMT-34"/>
       <use xlink:href="#ArialMT-30" x="55.615234"/>
      </g>
     </g>
    </g>
    <g id="xtick_6">
     <g id="line2d_11">
      <path d="M 589.285722 411.76275 
L 589.285722 23.68275 
" clip-path="url(#pe3a42e5806)" style="fill: none; stroke-dasharray: 1.85,0.8; stroke-dashoffset: 0; stroke: #b2b2b2; stroke-width: 0.5"/>
     </g>
     <g id="line2d_12"/>
     <g id="text_6">
      <!-- 50 -->
      <g style="fill: #555555" transform="translate(583.724785 422.420562)scale(0.1 -0.1)">
       <defs>
        <path id="ArialMT-35" d="M 266 1200 
L 856 1250 
Q 922 819 1161 601 
Q 1400 384 1738 384 
Q 2144 384 2425 690 
Q 2706 997 2706 1503 
Q 2706 1984 2436 2262 
Q 2166 2541 1728 2541 
Q 1456 2541 1237 2417 
Q 1019 2294 894 2097 
L 366 2166 
L 809 4519 
L 3088 4519 
L 3088 3981 
L 1259 3981 
L 1013 2750 
Q 1425 3038 1878 3038 
Q 2478 3038 2890 2622 
Q 3303 2206 3303 1553 
Q 3303 931 2941 478 
Q 2500 -78 1738 -78 
Q 1113 -78 717 272 
Q 322 622 266 1200 
z
" transform="scale(0.015625)"/>
       </defs>
       <use xlink:href="#ArialMT-35"/>
       <use xlink:href="#ArialMT-30" x="55.615234"/>
      </g>
     </g>
    </g>
    <g id="xtick_7">
     <g id="line2d_13">
      <path d="M 697.987021 411.76275 
L 697.987021 23.68275 
" clip-path="url(#pe3a42e5806)" style="fill: none; stroke-dasharray: 1.85,0.8; stroke-dashoffset: 0; stroke: #b2b2b2; stroke-width: 0.5"/>
     </g>
     <g id="line2d_14"/>
     <g id="text_7">
      <!-- 60 -->
      <g style="fill: #555555" transform="translate(692.426084 422.420562)scale(0.1 -0.1)">
       <defs>
        <path id="ArialMT-36" d="M 3184 3459 
L 2625 3416 
Q 2550 3747 2413 3897 
Q 2184 4138 1850 4138 
Q 1581 4138 1378 3988 
Q 1113 3794 959 3422 
Q 806 3050 800 2363 
Q 1003 2672 1297 2822 
Q 1591 2972 1913 2972 
Q 2475 2972 2870 2558 
Q 3266 2144 3266 1488 
Q 3266 1056 3080 686 
Q 2894 316 2569 119 
Q 2244 -78 1831 -78 
Q 1128 -78 684 439 
Q 241 956 241 2144 
Q 241 3472 731 4075 
Q 1159 4600 1884 4600 
Q 2425 4600 2770 4297 
Q 3116 3994 3184 3459 
z
M 888 1484 
Q 888 1194 1011 928 
Q 1134 663 1356 523 
Q 1578 384 1822 384 
Q 2178 384 2434 671 
Q 2691 959 2691 1453 
Q 2691 1928 2437 2201 
Q 2184 2475 1800 2475 
Q 1419 2475 1153 2201 
Q 888 1928 888 1484 
z
" transform="scale(0.015625)"/>
       </defs>
       <use xlink:href="#ArialMT-36"/>
       <use xlink:href="#ArialMT-30" x="55.615234"/>
      </g>
     </g>
    </g>
    <g id="text_8">
     <!-- LapNumber -->
     <g style="fill: #555555" transform="translate(340.535 436.997437)scale(0.12 -0.12)">
      <defs>
       <path id="ArialMT-4c" d="M 469 0 
L 469 4581 
L 1075 4581 
L 1075 541 
L 3331 541 
L 3331 0 
L 469 0 
z
" transform="scale(0.015625)"/>
       <path id="ArialMT-61" d="M 2588 409 
Q 2275 144 1986 34 
Q 1697 -75 1366 -75 
Q 819 -75 525 192 
Q 231 459 231 875 
Q 231 1119 342 1320 
Q 453 1522 633 1644 
Q 813 1766 1038 1828 
Q 1203 1872 1538 1913 
Q 2219 1994 2541 2106 
Q 2544 2222 2544 2253 
Q 2544 2597 2384 2738 
Q 2169 2928 1744 2928 
Q 1347 2928 1158 2789 
Q 969 2650 878 2297 
L 328 2372 
Q 403 2725 575 2942 
Q 747 3159 1072 3276 
Q 1397 3394 1825 3394 
Q 2250 3394 2515 3294 
Q 2781 3194 2906 3042 
Q 3031 2891 3081 2659 
Q 3109 2516 3109 2141 
L 3109 1391 
Q 3109 606 3145 398 
Q 3181 191 3288 0 
L 2700 0 
Q 2613 175 2588 409 
z
M 2541 1666 
Q 2234 1541 1622 1453 
Q 1275 1403 1131 1340 
Q 988 1278 909 1158 
Q 831 1038 831 891 
Q 831 666 1001 516 
Q 1172 366 1500 366 
Q 1825 366 2078 508 
Q 2331 650 2450 897 
Q 2541 1088 2541 1459 
L 2541 1666 
z
" transform="scale(0.015625)"/>
       <path id="ArialMT-70" d="M 422 -1272 
L 422 3319 
L 934 3319 
L 934 2888 
Q 1116 3141 1344 3267 
Q 1572 3394 1897 3394 
Q 2322 3394 2647 3175 
Q 2972 2956 3137 2557 
Q 3303 2159 3303 1684 
Q 3303 1175 3120 767 
Q 2938 359 2589 142 
Q 2241 -75 1856 -75 
Q 1575 -75 1351 44 
Q 1128 163 984 344 
L 984 -1272 
L 422 -1272 
z
M 931 1641 
Q 931 1000 1190 694 
Q 1450 388 1819 388 
Q 2194 388 2461 705 
Q 2728 1022 2728 1688 
Q 2728 2322 2467 2637 
Q 2206 2953 1844 2953 
Q 1484 2953 1207 2617 
Q 931 2281 931 1641 
z
" transform="scale(0.015625)"/>
       <path id="ArialMT-4e" d="M 488 0 
L 488 4581 
L 1109 4581 
L 3516 984 
L 3516 4581 
L 4097 4581 
L 4097 0 
L 3475 0 
L 1069 3600 
L 1069 0 
L 488 0 
z
" transform="scale(0.015625)"/>
       <path id="ArialMT-75" d="M 2597 0 
L 2597 488 
Q 2209 -75 1544 -75 
Q 1250 -75 995 37 
Q 741 150 617 320 
Q 494 491 444 738 
Q 409 903 409 1263 
L 409 3319 
L 972 3319 
L 972 1478 
Q 972 1038 1006 884 
Q 1059 663 1231 536 
Q 1403 409 1656 409 
Q 1909 409 2131 539 
Q 2353 669 2445 892 
Q 2538 1116 2538 1541 
L 2538 3319 
L 3100 3319 
L 3100 0 
L 2597 0 
z
" transform="scale(0.015625)"/>
       <path id="ArialMT-6d" d="M 422 0 
L 422 3319 
L 925 3319 
L 925 2853 
Q 1081 3097 1340 3245 
Q 1600 3394 1931 3394 
Q 2300 3394 2536 3241 
Q 2772 3088 2869 2813 
Q 3263 3394 3894 3394 
Q 4388 3394 4653 3120 
Q 4919 2847 4919 2278 
L 4919 0 
L 4359 0 
L 4359 2091 
Q 4359 2428 4304 2576 
Q 4250 2725 4106 2815 
Q 3963 2906 3769 2906 
Q 3419 2906 3187 2673 
Q 2956 2441 2956 1928 
L 2956 0 
L 2394 0 
L 2394 2156 
Q 2394 2531 2256 2718 
Q 2119 2906 1806 2906 
Q 1569 2906 1367 2781 
Q 1166 2656 1075 2415 
Q 984 2175 984 1722 
L 984 0 
L 422 0 
z
" transform="scale(0.015625)"/>
       <path id="ArialMT-62" d="M 941 0 
L 419 0 
L 419 4581 
L 981 4581 
L 981 2947 
Q 1338 3394 1891 3394 
Q 2197 3394 2470 3270 
Q 2744 3147 2920 2923 
Q 3097 2700 3197 2384 
Q 3297 2069 3297 1709 
Q 3297 856 2875 390 
Q 2453 -75 1863 -75 
Q 1275 -75 941 416 
L 941 0 
z
M 934 1684 
Q 934 1088 1097 822 
Q 1363 388 1816 388 
Q 2184 388 2453 708 
Q 2722 1028 2722 1663 
Q 2722 2313 2464 2622 
Q 2206 2931 1841 2931 
Q 1472 2931 1203 2611 
Q 934 2291 934 1684 
z
" transform="scale(0.015625)"/>
       <path id="ArialMT-65" d="M 2694 1069 
L 3275 997 
Q 3138 488 2766 206 
Q 2394 -75 1816 -75 
Q 1088 -75 661 373 
Q 234 822 234 1631 
Q 234 2469 665 2931 
Q 1097 3394 1784 3394 
Q 2450 3394 2872 2941 
Q 3294 2488 3294 1666 
Q 3294 1616 3291 1516 
L 816 1516 
Q 847 969 1125 678 
Q 1403 388 1819 388 
Q 2128 388 2347 550 
Q 2566 713 2694 1069 
z
M 847 1978 
L 2700 1978 
Q 2663 2397 2488 2606 
Q 2219 2931 1791 2931 
Q 1403 2931 1139 2672 
Q 875 2413 847 1978 
z
" transform="scale(0.015625)"/>
       <path id="ArialMT-72" d="M 416 0 
L 416 3319 
L 922 3319 
L 922 2816 
Q 1116 3169 1280 3281 
Q 1444 3394 1641 3394 
Q 1925 3394 2219 3213 
L 2025 2691 
Q 1819 2813 1613 2813 
Q 1428 2813 1281 2702 
Q 1134 2591 1072 2394 
Q 978 2094 978 1738 
L 978 0 
L 416 0 
z
" transform="scale(0.015625)"/>
      </defs>
      <use xlink:href="#ArialMT-4c"/>
      <use xlink:href="#ArialMT-61" x="55.615234"/>
      <use xlink:href="#ArialMT-70" x="111.230469"/>
      <use xlink:href="#ArialMT-4e" x="166.845703"/>
      <use xlink:href="#ArialMT-75" x="239.0625"/>
      <use xlink:href="#ArialMT-6d" x="294.677734"/>
      <use xlink:href="#ArialMT-62" x="377.978516"/>
      <use xlink:href="#ArialMT-65" x="433.59375"/>
      <use xlink:href="#ArialMT-72" x="489.208984"/>
     </g>
    </g>
   </g>
   <g id="matplotlib.axis_2">
    <g id="ytick_1">
     <g id="line2d_15">
      <path d="M 37.083125 389.152508 
L 706.683125 389.152508 
" clip-path="url(#pe3a42e5806)" style="fill: none; stroke-dasharray: 1.85,0.8; stroke-dashoffset: 0; stroke: #b2b2b2; stroke-width: 0.5"/>
     </g>
     <g id="line2d_16"/>
     <g id="text_9">
      <!-- 89 -->
      <g style="fill: #555555" transform="translate(22.46125 392.731415)scale(0.1 -0.1)">
       <defs>
        <path id="ArialMT-38" d="M 1131 2484 
Q 781 2613 612 2850 
Q 444 3088 444 3419 
Q 444 3919 803 4259 
Q 1163 4600 1759 4600 
Q 2359 4600 2725 4251 
Q 3091 3903 3091 3403 
Q 3091 3084 2923 2848 
Q 2756 2613 2416 2484 
Q 2838 2347 3058 2040 
Q 3278 1734 3278 1309 
Q 3278 722 2862 322 
Q 2447 -78 1769 -78 
Q 1091 -78 675 323 
Q 259 725 259 1325 
Q 259 1772 486 2073 
Q 713 2375 1131 2484 
z
M 1019 3438 
Q 1019 3113 1228 2906 
Q 1438 2700 1772 2700 
Q 2097 2700 2305 2904 
Q 2513 3109 2513 3406 
Q 2513 3716 2298 3927 
Q 2084 4138 1766 4138 
Q 1444 4138 1231 3931 
Q 1019 3725 1019 3438 
z
M 838 1322 
Q 838 1081 952 856 
Q 1066 631 1291 507 
Q 1516 384 1775 384 
Q 2178 384 2440 643 
Q 2703 903 2703 1303 
Q 2703 1709 2433 1975 
Q 2163 2241 1756 2241 
Q 1359 2241 1098 1978 
Q 838 1716 838 1322 
z
" transform="scale(0.015625)"/>
        <path id="ArialMT-39" d="M 350 1059 
L 891 1109 
Q 959 728 1153 556 
Q 1347 384 1650 384 
Q 1909 384 2104 503 
Q 2300 622 2425 820 
Q 2550 1019 2634 1356 
Q 2719 1694 2719 2044 
Q 2719 2081 2716 2156 
Q 2547 1888 2255 1720 
Q 1963 1553 1622 1553 
Q 1053 1553 659 1965 
Q 266 2378 266 3053 
Q 266 3750 677 4175 
Q 1088 4600 1706 4600 
Q 2153 4600 2523 4359 
Q 2894 4119 3086 3673 
Q 3278 3228 3278 2384 
Q 3278 1506 3087 986 
Q 2897 466 2520 194 
Q 2144 -78 1638 -78 
Q 1100 -78 759 220 
Q 419 519 350 1059 
z
M 2653 3081 
Q 2653 3566 2395 3850 
Q 2138 4134 1775 4134 
Q 1400 4134 1122 3828 
Q 844 3522 844 3034 
Q 844 2597 1108 2323 
Q 1372 2050 1759 2050 
Q 2150 2050 2401 2323 
Q 2653 2597 2653 3081 
z
" transform="scale(0.015625)"/>
       </defs>
       <use xlink:href="#ArialMT-38"/>
       <use xlink:href="#ArialMT-39" x="55.615234"/>
      </g>
     </g>
    </g>
    <g id="ytick_2">
     <g id="line2d_17">
      <path d="M 37.083125 317.843446 
L 706.683125 317.843446 
" clip-path="url(#pe3a42e5806)" style="fill: none; stroke-dasharray: 1.85,0.8; stroke-dashoffset: 0; stroke: #b2b2b2; stroke-width: 0.5"/>
     </g>
     <g id="line2d_18"/>
     <g id="text_10">
      <!-- 90 -->
      <g style="fill: #555555" transform="translate(22.46125 321.422353)scale(0.1 -0.1)">
       <use xlink:href="#ArialMT-39"/>
       <use xlink:href="#ArialMT-30" x="55.615234"/>
      </g>
     </g>
    </g>
    <g id="ytick_3">
     <g id="line2d_19">
      <path d="M 37.083125 246.534384 
L 706.683125 246.534384 
" clip-path="url(#pe3a42e5806)" style="fill: none; stroke-dasharray: 1.85,0.8; stroke-dashoffset: 0; stroke: #b2b2b2; stroke-width: 0.5"/>
     </g>
     <g id="line2d_20"/>
     <g id="text_11">
      <!-- 91 -->
      <g style="fill: #555555" transform="translate(22.46125 250.11329)scale(0.1 -0.1)">
       <use xlink:href="#ArialMT-39"/>
       <use xlink:href="#ArialMT-31" x="55.615234"/>
      </g>
     </g>
    </g>
    <g id="ytick_4">
     <g id="line2d_21">
      <path d="M 37.083125 175.225322 
L 706.683125 175.225322 
" clip-path="url(#pe3a42e5806)" style="fill: none; stroke-dasharray: 1.85,0.8; stroke-dashoffset: 0; stroke: #b2b2b2; stroke-width: 0.5"/>
     </g>
     <g id="line2d_22"/>
     <g id="text_12">
      <!-- 92 -->
      <g style="fill: #555555" transform="translate(22.46125 178.804228)scale(0.1 -0.1)">
       <use xlink:href="#ArialMT-39"/>
       <use xlink:href="#ArialMT-32" x="55.615234"/>
      </g>
     </g>
    </g>
    <g id="ytick_5">
     <g id="line2d_23">
      <path d="M 37.083125 103.91626 
L 706.683125 103.91626 
" clip-path="url(#pe3a42e5806)" style="fill: none; stroke-dasharray: 1.85,0.8; stroke-dashoffset: 0; stroke: #b2b2b2; stroke-width: 0.5"/>
     </g>
     <g id="line2d_24"/>
     <g id="text_13">
      <!-- 93 -->
      <g style="fill: #555555" transform="translate(22.46125 107.495166)scale(0.1 -0.1)">
       <use xlink:href="#ArialMT-39"/>
       <use xlink:href="#ArialMT-33" x="55.615234"/>
      </g>
     </g>
    </g>
    <g id="ytick_6">
     <g id="line2d_25">
      <path d="M 37.083125 32.607198 
L 706.683125 32.607198 
" clip-path="url(#pe3a42e5806)" style="fill: none; stroke-dasharray: 1.85,0.8; stroke-dashoffset: 0; stroke: #b2b2b2; stroke-width: 0.5"/>
     </g>
     <g id="line2d_26"/>
     <g id="text_14">
      <!-- 94 -->
      <g style="fill: #555555" transform="translate(22.46125 36.186104)scale(0.1 -0.1)">
       <use xlink:href="#ArialMT-39"/>
       <use xlink:href="#ArialMT-34" x="55.615234"/>
      </g>
     </g>
    </g>
    <g id="text_15">
     <!-- LapTime (s) -->
     <g style="fill: #555555" transform="translate(15.935625 249.502125)rotate(-90)scale(0.12 -0.12)">
      <defs>
       <path id="ArialMT-54" d="M 1659 0 
L 1659 4041 
L 150 4041 
L 150 4581 
L 3781 4581 
L 3781 4041 
L 2266 4041 
L 2266 0 
L 1659 0 
z
" transform="scale(0.015625)"/>
       <path id="ArialMT-69" d="M 425 3934 
L 425 4581 
L 988 4581 
L 988 3934 
L 425 3934 
z
M 425 0 
L 425 3319 
L 988 3319 
L 988 0 
L 425 0 
z
" transform="scale(0.015625)"/>
       <path id="ArialMT-20" transform="scale(0.015625)"/>
       <path id="ArialMT-28" d="M 1497 -1347 
Q 1031 -759 709 28 
Q 388 816 388 1659 
Q 388 2403 628 3084 
Q 909 3875 1497 4659 
L 1900 4659 
Q 1522 4009 1400 3731 
Q 1209 3300 1100 2831 
Q 966 2247 966 1656 
Q 966 153 1900 -1347 
L 1497 -1347 
z
" transform="scale(0.015625)"/>
       <path id="ArialMT-73" d="M 197 991 
L 753 1078 
Q 800 744 1014 566 
Q 1228 388 1613 388 
Q 2000 388 2187 545 
Q 2375 703 2375 916 
Q 2375 1106 2209 1216 
Q 2094 1291 1634 1406 
Q 1016 1563 777 1677 
Q 538 1791 414 1992 
Q 291 2194 291 2438 
Q 291 2659 392 2848 
Q 494 3038 669 3163 
Q 800 3259 1026 3326 
Q 1253 3394 1513 3394 
Q 1903 3394 2198 3281 
Q 2494 3169 2634 2976 
Q 2775 2784 2828 2463 
L 2278 2388 
Q 2241 2644 2061 2787 
Q 1881 2931 1553 2931 
Q 1166 2931 1000 2803 
Q 834 2675 834 2503 
Q 834 2394 903 2306 
Q 972 2216 1119 2156 
Q 1203 2125 1616 2013 
Q 2213 1853 2448 1751 
Q 2684 1650 2818 1456 
Q 2953 1263 2953 975 
Q 2953 694 2789 445 
Q 2625 197 2315 61 
Q 2006 -75 1616 -75 
Q 969 -75 630 194 
Q 291 463 197 991 
z
" transform="scale(0.015625)"/>
       <path id="ArialMT-29" d="M 791 -1347 
L 388 -1347 
Q 1322 153 1322 1656 
Q 1322 2244 1188 2822 
Q 1081 3291 891 3722 
Q 769 4003 388 4659 
L 791 4659 
Q 1378 3875 1659 3084 
Q 1900 2403 1900 1659 
Q 1900 816 1576 28 
Q 1253 -759 791 -1347 
z
" transform="scale(0.015625)"/>
      </defs>
      <use xlink:href="#ArialMT-4c"/>
      <use xlink:href="#ArialMT-61" x="55.615234"/>
      <use xlink:href="#ArialMT-70" x="111.230469"/>
      <use xlink:href="#ArialMT-54" x="166.845703"/>
      <use xlink:href="#ArialMT-69" x="224.179688"/>
      <use xlink:href="#ArialMT-6d" x="246.396484"/>
      <use xlink:href="#ArialMT-65" x="329.697266"/>
      <use xlink:href="#ArialMT-20" x="385.3125"/>
      <use xlink:href="#ArialMT-28" x="413.095703"/>
      <use xlink:href="#ArialMT-73" x="446.396484"/>
      <use xlink:href="#ArialMT-29" x="496.396484"/>
     </g>
    </g>
   </g>
   <g id="line2d_27">
    <path d="M 67.519489 279.265244 
L 78.389619 299.69529 
L 89.259748 296.99743 
L 100.129878 293.259647 
L 111.000008 290.089959 
L 121.870138 286.859659 
L 132.740268 284.246691 
L 143.610398 283.089192 
L 154.480528 282.030451 
L 165.350657 279.921287 
L 176.220787 277.211543 
L 187.090917 271.656567 
L 197.961047 267.392285 
L 208.831177 263.677083 
L 219.701307 258.842328 
L 230.571437 252.203455 
L 241.441567 245.735723 
L 252.311696 236.601032 
L 284.922086 236.322927 
L 295.792216 237.228552 
L 306.662346 236.986101 
L 317.532476 236.58677 
L 328.402606 237.114457 
L 339.272735 240.059521 
L 350.142865 245.778508 
L 361.012995 255.198435 
L 371.883125 267.050001 
L 382.753255 280.02112 
L 393.623385 285.269467 
L 404.493515 291.423439 
L 415.363644 299.010723 
L 426.233774 303.959572 
L 437.103904 311.133264 
L 447.974034 314.655931 
L 458.844164 316.673978 
L 469.714294 318.413919 
L 480.584424 317.822054 
L 491.454554 317.929017 
L 502.324683 318.207123 
L 513.194813 317.572472 
L 524.064943 317.629519 
L 534.935073 318.913082 
L 545.805203 320.061158 
L 556.675333 320.752856 
L 567.545463 322.100597 
L 578.415593 322.585499 
L 589.285722 324.125775 
L 600.155852 326.849781 
L 611.025982 322.742379 
L 621.896112 321.544387 
L 632.766242 325.045662 
L 643.636372 326.571675 
L 654.506502 325.723098 
L 676.246761 327.306159 
" clip-path="url(#pe3a42e5806)" style="fill: none; stroke: #0600ef; stroke-width: 2; stroke-linecap: round"/>
   </g>
   <g id="line2d_28">
    <path d="M 67.519489 319.99698 
L 78.389619 316.723894 
L 89.259748 306.997338 
L 100.129878 294.946106 
L 111.000008 290.482159 
L 121.870138 284.805958 
L 132.740268 274.152384 
L 143.610398 266.536576 
L 154.480528 257.245005 
L 165.350657 248.38842 
L 176.220787 246.562908 
L 187.090917 242.983193 
L 197.961047 243.239906 
L 208.831177 240.565816 
L 219.701307 239.49618 
L 230.571437 235.267552 
L 241.441567 231.295638 
L 252.311696 224.47136 
L 263.181826 219.165966 
L 295.792216 227.387901 
L 306.662346 232.999924 
L 317.532476 236.080476 
L 328.402606 241.143419 
L 339.272735 252.809582 
L 350.142865 263.456025 
L 361.012995 273.96698 
L 371.883125 283.522395 
L 382.753255 296.828666 
L 393.623385 311.775045 
L 404.493515 309.036777 
L 415.363644 311.140394 
L 426.233774 314.499051 
L 437.103904 316.481443 
L 447.974034 315.518771 
L 458.844164 310.755326 
L 469.714294 301.378184 
L 480.584424 299.887824 
L 491.454554 298.59 
L 502.324683 296.165491 
L 513.194813 299.424316 
L 524.064943 300.936068 
L 534.935073 302.105536 
L 545.805203 301.991442 
L 556.675333 302.098405 
L 567.545463 307.040123 
L 578.415593 317.16601 
L 589.285722 321.273412 
L 600.155852 323.22728 
L 611.025982 326.13669 
L 621.896112 325.66605 
L 632.766242 324.689116 
L 643.636372 322.564106 
L 654.506502 323.4626 
L 665.376631 326.21513 
L 676.246761 320.645892 
" clip-path="url(#pe3a42e5806)" style="fill: none; stroke: #dc0000; stroke-width: 2; stroke-linecap: round"/>
   </g>
   <g id="line2d_29">
    <path d="M 67.519489 315.625734 
L 78.389619 311.803569 
L 89.259748 303.980965 
L 100.129878 295.423877 
L 111.000008 290.032912 
L 121.870138 286.346234 
L 132.740268 282.673817 
L 143.610398 275.985027 
L 154.480528 267.128441 
L 165.350657 262.372127 
L 176.220787 256.467737 
L 187.090917 247.753769 
L 197.961047 239.831332 
L 230.571437 244.830098 
L 241.441567 248.039005 
L 252.311696 253.843563 
L 263.181826 254.435428 
L 274.051956 256.560438 
L 284.922086 254.813366 
L 295.792216 254.791974 
L 306.662346 258.214809 
L 317.532476 262.928338 
L 328.402606 274.537453 
L 339.272735 271.178796 
L 350.142865 268.661586 
L 361.012995 263.869617 
L 371.883125 267.784485 
L 382.753255 271.570996 
L 393.623385 278.545022 
L 426.233774 292.507337 
L 437.103904 304.829542 
L 447.974034 317.436985 
L 458.844164 326.05825 
L 469.714294 334.800741 
L 480.584424 343.236603 
L 491.454554 352.349901 
L 502.324683 358.653623 
L 513.194813 364.943082 
L 524.064943 370.761901 
L 534.935073 363.310104 
L 545.805203 362.069327 
L 556.675333 360.985429 
L 567.545463 360.407825 
L 578.415593 363.131832 
L 589.285722 363.859184 
L 600.155852 364.094504 
L 611.025982 365.363805 
L 621.896112 366.533274 
L 632.766242 369.171709 
L 643.636372 376.673423 
L 654.506502 376.152866 
L 665.376631 373.614264 
L 676.246761 369.17884 
" clip-path="url(#pe3a42e5806)" style="fill: none; stroke: #0600ef; stroke-width: 2; stroke-linecap: round"/>
   </g>
   <g id="line2d_30">
    <path d="M 67.519489 353.184217 
L 78.389619 341.111593 
L 89.259748 328.076297 
L 100.129878 306.626531 
L 111.000008 291.123941 
L 121.870138 275.036616 
L 132.740268 264.482875 
L 143.610398 254.299941 
L 154.480528 243.58932 
L 165.350657 234.433236 
L 176.220787 234.689949 
L 187.090917 232.386666 
L 197.961047 228.621548 
L 208.831177 231.801932 
L 219.701307 230.689511 
L 252.311696 230.939092 
L 263.181826 231.131627 
L 274.051956 233.463433 
L 284.922086 233.955466 
L 295.792216 238.212617 
L 306.662346 243.689153 
L 317.532476 249.386747 
L 328.402606 257.487456 
L 339.272735 263.562988 
L 350.142865 272.455228 
L 361.012995 280.149476 
L 371.883125 281.425908 
L 382.753255 279.322291 
L 393.623385 284.378103 
L 404.493515 284.748911 
L 415.363644 286.246401 
L 426.233774 288.392804 
L 437.103904 289.184334 
L 447.974034 290.703217 
L 458.844164 289.605058 
L 491.454554 295.003154 
L 502.324683 303.282136 
L 513.194813 314.655931 
L 524.064943 323.205888 
L 534.935073 333.994949 
L 545.805203 342.445073 
L 556.675333 348.984114 
L 567.545463 357.29875 
L 578.415593 364.080242 
L 589.285722 374.44858 
L 600.155852 376.324008 
L 611.025982 376.516543 
L 621.896112 375.653703 
L 632.766242 369.799229 
L 643.636372 362.169159 
L 654.506502 358.874681 
L 665.376631 353.683381 
L 676.246761 347.950132 
" clip-path="url(#pe3a42e5806)" style="fill: none; stroke: #dc0000; stroke-width: 2; stroke-linecap: round"/>
   </g>
   <g id="line2d_31">
    <path d="M 67.519489 331.777237 
L 78.389619 315.304844 
L 89.259748 301.264089 
L 100.129878 291.708675 
L 111.000008 278.438059 
L 121.870138 266.992954 
L 132.740268 256.760104 
L 143.610398 248.395551 
L 154.480528 238.119915 
L 165.350657 227.673137 
L 176.220787 228.150908 
L 187.090917 225.712138 
L 197.961047 219.493988 
L 230.571437 224.963393 
L 241.441567 229.627006 
L 252.311696 234.411844 
L 263.181826 235.053625 
L 274.051956 233.848502 
L 284.922086 240.038129 
L 295.792216 245.08681 
L 306.662346 251.889695 
L 317.532476 258.06506 
L 328.402606 270.294564 
L 339.272735 267.934234 
L 350.142865 268.45479 
L 361.012995 271.178796 
L 371.883125 278.359619 
L 382.753255 281.318945 
L 393.623385 282.666686 
L 404.493515 286.08239 
L 415.363644 288.770742 
L 426.233774 289.954472 
L 437.103904 290.182661 
L 447.974034 288.542553 
L 458.844164 289.30556 
L 491.454554 299.495625 
L 502.324683 308.887028 
L 513.194813 320.489012 
L 524.064943 331.342252 
L 534.935073 340.876273 
L 545.805203 351.351575 
L 556.675333 362.953559 
L 567.545463 373.878107 
L 589.285722 384.011125 
L 600.155852 393.687765 
L 611.025982 394.12275 
L 621.896112 391.755289 
L 632.766242 385.102154 
L 643.636372 368.594106 
L 654.506502 351.693858 
L 665.376631 335.677843 
L 676.246761 316.559883 
" clip-path="url(#pe3a42e5806)" style="fill: none; stroke: #00d2be; stroke-width: 2; stroke-linecap: round"/>
   </g>
   <g id="line2d_32">
    <path d="M 67.519489 296.186884 
L 78.389619 280.612985 
L 89.259748 264.725326 
L 100.129878 241.713892 
L 111.000008 223.665568 
L 121.870138 210.722973 
L 132.740268 205.339139 
L 143.610398 198.486338 
L 154.480528 192.239664 
L 165.350657 186.77739 
L 176.220787 181.750101 
L 187.090917 172.29452 
L 197.961047 162.496655 
L 230.571437 172.308781 
L 241.441567 182.29205 
L 252.311696 187.233768 
L 263.181826 194.528685 
L 274.051956 204.775797 
L 284.922086 213.561074 
L 295.792216 223.501557 
L 306.662346 235.374516 
L 317.532476 246.74118 
L 328.402606 257.615812 
L 339.272735 256.916984 
L 350.142865 253.116211 
L 361.012995 251.133819 
L 371.883125 249.565019 
L 382.753255 246.177839 
L 393.623385 243.788985 
L 404.493515 242.926146 
L 415.363644 240.394674 
L 426.233774 240.744088 
L 437.103904 239.360693 
L 447.974034 240.137961 
L 458.844164 239.560358 
L 469.714294 239.596012 
L 480.584424 236.793566 
L 491.454554 237.863202 
L 524.064943 257.494587 
L 534.935073 274.309264 
L 545.805203 290.688955 
L 556.675333 307.753214 
L 567.545463 322.642546 
L 578.415593 335.941686 
L 589.285722 347.714812 
L 600.155852 360.029887 
L 611.025982 372.273653 
L 621.896112 378.705731 
L 632.766242 362.732501 
L 643.636372 347.493754 
L 654.506502 332.233615 
L 665.376631 315.076655 
L 676.246761 301.420969 
" clip-path="url(#pe3a42e5806)" style="fill: none; stroke: #ff8700; stroke-width: 2; stroke-linecap: round"/>
   </g>
   <g id="line2d_33">
    <path d="M 67.519489 278.744688 
L 78.389619 265.267275 
L 89.259748 251.497495 
L 100.129878 237.68493 
L 111.000008 224.720942 
L 121.870138 216.655887 
L 132.740268 203.206998 
L 143.610398 191.362563 
L 154.480528 179.289939 
L 165.350657 170.32639 
L 176.220787 165.983668 
L 187.090917 156.24285 
L 219.701307 156.00753 
L 241.441567 157.476497 
L 252.311696 165.655646 
L 263.181826 168.557925 
L 274.051956 179.924589 
L 284.922086 191.284123 
L 295.792216 203.007333 
L 306.662346 211.585813 
L 317.532476 222.217994 
L 328.402606 234.033906 
L 339.272735 236.622425 
L 350.142865 239.65306 
L 361.012995 238.269664 
L 371.883125 240.152223 
L 382.753255 239.852725 
L 393.623385 239.282253 
L 404.493515 238.497853 
L 415.363644 239.089718 
L 426.233774 240.665648 
L 437.103904 240.494507 
L 447.974034 242.733611 
L 458.844164 244.894276 
L 469.714294 245.158119 
L 480.584424 245.799901 
L 513.194813 258.564223 
L 524.064943 270.686764 
L 534.935073 282.880613 
L 545.805203 294.903321 
L 556.675333 306.626531 
L 567.545463 316.688239 
L 578.415593 324.831734 
L 589.285722 331.534786 
L 611.025982 341.382568 
L 621.896112 352.043272 
L 632.766242 351.579764 
L 643.636372 350.781102 
L 654.506502 347.985787 
L 665.376631 346.894758 
L 676.246761 342.388025 
" clip-path="url(#pe3a42e5806)" style="fill: none; stroke: #0090ff; stroke-width: 2; stroke-linecap: round"/>
   </g>
   <g id="line2d_34">
    <path d="M 67.519489 321.408899 
L 78.389619 306.441127 
L 89.259748 292.329064 
L 100.129878 275.393162 
L 111.000008 258.07219 
L 121.870138 240.580078 
L 132.740268 220.449529 
L 143.610398 200.440206 
L 154.480528 178.947655 
L 165.350657 160.057885 
L 176.220787 158.653096 
L 208.831177 157.868696 
L 219.701307 163.152698 
L 230.571437 169.812964 
L 241.441567 173.813403 
L 252.311696 176.016853 
L 263.181826 177.065096 
L 274.051956 183.475781 
L 284.922086 191.975821 
L 295.792216 199.420487 
L 306.662346 214.209986 
L 317.532476 220.45666 
L 328.402606 222.638718 
L 339.272735 223.430248 
L 350.142865 224.991917 
L 361.012995 227.209628 
L 371.883125 234.254964 
L 382.753255 237.570835 
L 393.623385 240.551554 
L 404.493515 245.842686 
L 415.363644 245.029763 
L 426.233774 244.352327 
L 437.103904 242.548208 
L 447.974034 242.270102 
L 458.844164 241.164812 
L 469.714294 242.833444 
L 502.324683 253.950527 
L 513.194813 241.827986 
L 524.064943 242.526815 
L 534.935073 249.850256 
L 545.805203 257.04534 
L 556.675333 264.097806 
L 567.545463 273.660351 
L 578.415593 269.524426 
L 589.285722 278.573546 
L 600.155852 286.353364 
L 611.025982 280.5702 
L 621.896112 302.405034 
L 632.766242 307.4038 
L 643.636372 303.795561 
L 654.506502 299.295959 
L 665.376631 286.717041 
L 676.246761 275.036616 
" clip-path="url(#pe3a42e5806)" style="fill: none; stroke: #006f62; stroke-width: 2; stroke-linecap: round"/>
   </g>
   <g id="line2d_35">
    <path d="M 67.519489 268.240863 
L 78.389619 255.590635 
L 89.259748 237.970166 
L 100.129878 224.892084 
L 111.000008 210.22381 
L 121.870138 196.84623 
L 132.740268 182.99801 
L 143.610398 169.741655 
L 154.480528 165.520159 
L 165.350657 156.720621 
L 176.220787 154.902239 
L 187.090917 146.994064 
L 197.961047 144.576687 
L 208.831177 141.324994 
L 219.701307 133.324117 
L 230.571437 125.223408 
L 241.441567 116.416739 
L 274.051956 125.23767 
L 284.922086 134.728906 
L 295.792216 145.788941 
L 306.662346 147.935344 
L 317.532476 156.63505 
L 328.402606 166.304558 
L 339.272735 178.840692 
L 350.142865 190.699389 
L 361.012995 204.697357 
L 371.883125 223.865233 
L 382.753255 221.148358 
L 393.623385 220.798944 
L 404.493515 219.779224 
L 415.363644 229.156366 
L 426.233774 229.591351 
L 437.103904 227.986897 
L 447.974034 227.181105 
L 458.844164 227.166843 
L 469.714294 228.108123 
L 480.584424 225.769185 
L 491.454554 227.330854 
L 502.324683 228.47893 
L 513.194813 224.050637 
L 524.064943 225.455425 
L 534.935073 231.573743 
L 545.805203 236.408497 
L 556.675333 237.413955 
L 567.545463 239.082587 
L 578.415593 232.215525 
L 589.285722 224.343004 
L 600.155852 224.649633 
L 611.025982 223.893757 
L 621.896112 229.50578 
L 632.766242 228.564501 
L 643.636372 225.476818 
L 654.506502 223.087965 
L 665.376631 221.811532 
L 676.246761 223.473034 
" clip-path="url(#pe3a42e5806)" style="fill: none; stroke: #ff8700; stroke-width: 2; stroke-linecap: round"/>
   </g>
   <g id="line2d_36">
    <path d="M 67.519489 221.583343 
L 78.389619 227.259545 
L 89.259748 225.904673 
L 100.129878 221.00574 
L 111.000008 214.053106 
L 121.870138 209.767432 
L 132.740268 199.52745 
L 143.610398 189.522789 
L 154.480528 179.560913 
L 165.350657 167.944667 
L 176.220787 165.92662 
L 187.090917 156.970202 
L 197.961047 148.156402 
L 208.831177 144.640865 
L 219.701307 135.848458 
L 230.571437 126.613935 
L 241.441567 128.674766 
L 252.311696 128.617719 
L 263.181826 124.132379 
L 274.051956 116.595011 
L 284.922086 113.578638 
L 295.792216 109.749341 
L 306.662346 103.909129 
L 339.272735 113.856743 
L 350.142865 131.420165 
L 361.012995 138.287228 
L 371.883125 143.97056 
L 382.753255 155.77221 
L 393.623385 168.44383 
L 404.493515 183.518566 
L 415.363644 197.309739 
L 426.233774 218.481399 
L 437.103904 237.791893 
L 447.974034 239.660191 
L 458.844164 239.396347 
L 469.714294 245.072548 
L 480.584424 250.919892 
L 491.454554 249.636328 
L 502.324683 246.776835 
L 513.194813 252.039444 
L 524.064943 254.627963 
L 534.935073 252.474429 
L 545.805203 252.460167 
L 556.675333 252.374596 
L 567.545463 246.192101 
L 578.415593 245.122465 
L 589.285722 240.20927 
L 600.155852 239.004147 
L 611.025982 243.624974 
L 621.896112 241.015063 
L 632.766242 239.603143 
L 643.636372 234.682818 
L 654.506502 229.712576 
L 665.376631 225.483949 
L 676.246761 234.668556 
" clip-path="url(#pe3a42e5806)" style="fill: none; stroke: #006f62; stroke-width: 2; stroke-linecap: round"/>
   </g>
   <g id="line2d_37">
    <path d="M 67.519489 226.27548 
L 78.389619 225.084618 
L 89.259748 222.18947 
L 100.129878 217.083742 
L 111.000008 210.081192 
L 121.870138 202.479646 
L 132.740268 195.719547 
L 143.610398 187.625968 
L 154.480528 178.548324 
L 165.350657 162.175764 
L 176.220787 161.612422 
L 187.090917 151.942913 
L 219.701307 155.672377 
L 230.571437 159.023903 
L 241.441567 162.981556 
L 252.311696 165.384672 
L 263.181826 167.780656 
L 274.051956 169.877142 
L 284.922086 172.237472 
L 295.792216 179.197237 
L 306.662346 180.930047 
L 317.532476 189.394433 
L 328.402606 189.073542 
L 339.272735 189.558444 
L 350.142865 191.997214 
L 361.012995 195.263169 
L 371.883125 200.261934 
L 382.753255 208.291334 
L 393.623385 213.525419 
L 404.493515 216.121069 
L 415.363644 223.708353 
L 426.233774 227.280937 
L 437.103904 229.391686 
L 447.974034 228.892522 
L 480.584424 240.672779 
L 491.454554 250.941284 
L 502.324683 258.885114 
L 513.194813 269.445986 
L 524.064943 277.461124 
L 534.935073 283.230028 
L 545.805203 292.842489 
L 556.675333 301.97718 
L 567.545463 307.96001 
L 578.415593 316.082112 
L 589.285722 307.018731 
L 600.155852 297.720029 
L 611.025982 291.138203 
L 621.896112 279.735884 
L 632.766242 270.693894 
L 643.636372 258.999208 
L 654.506502 244.273887 
L 665.376631 232.522154 
L 676.246761 217.518727 
" clip-path="url(#pe3a42e5806)" style="fill: none; stroke: #2b4562; stroke-width: 2; stroke-linecap: round"/>
   </g>
   <g id="line2d_38">
    <path d="M 67.519489 194.835314 
L 78.389619 182.883915 
L 89.259748 170.390568 
L 100.129878 160.17911 
L 111.000008 153.504582 
L 121.870138 150.951717 
L 132.740268 151.336786 
L 143.610398 149.325871 
L 154.480528 144.512509 
L 165.350657 141.624492 
L 176.220787 147.749941 
L 187.090917 143.799418 
L 197.961047 141.260816 
L 230.571437 151.12999 
L 241.441567 159.145129 
L 252.311696 164.942555 
L 263.181826 168.807507 
L 274.051956 173.456857 
L 284.922086 178.612503 
L 295.792216 179.603699 
L 306.662346 184.901962 
L 317.532476 192.745959 
L 328.402606 205.624375 
L 339.272735 201.167559 
L 350.142865 197.980044 
L 361.012995 194.657042 
L 371.883125 189.045018 
L 382.753255 189.237553 
L 393.623385 191.911643 
L 404.493515 200.447337 
L 415.363644 201.281653 
L 426.233774 201.680984 
L 437.103904 199.577367 
L 447.974034 202.522431 
L 458.844164 204.690227 
L 469.714294 207.991836 
L 480.584424 216.777113 
L 491.454554 217.46168 
L 502.324683 212.990601 
L 513.194813 197.758986 
L 545.805203 203.192736 
L 556.675333 198.001437 
L 567.545463 206.779582 
L 578.415593 211.778347 
L 600.155852 220.078722 
L 611.025982 215.115611 
L 621.896112 225.790578 
L 632.766242 233.812848 
L 643.636372 244.052829 
L 654.506502 252.395989 
L 665.376631 240.801136 
" clip-path="url(#pe3a42e5806)" style="fill: none; stroke: #900000; stroke-width: 2; stroke-linecap: round"/>
   </g>
   <g id="line2d_39">
    <path d="M 67.519489 236.059083 
L 78.389619 222.339219 
L 89.259748 204.126885 
L 100.129878 185.992991 
L 111.000008 182.577286 
L 121.870138 165.555813 
L 132.740268 152.142579 
L 143.610398 137.887897 
L 154.480528 136.212134 
L 165.350657 130.250697 
L 197.961047 146.259581 
L 208.831177 152.8628 
L 219.701307 163.929967 
L 230.571437 172.173294 
L 241.441567 175.496297 
L 252.311696 177.607045 
L 263.181826 180.944309 
L 274.051956 184.345751 
L 284.922086 188.446022 
L 295.792216 200.354636 
L 306.662346 193.680107 
L 317.532476 192.396544 
L 328.402606 192.068523 
L 339.272735 191.155767 
L 350.142865 193.402002 
L 361.012995 194.856707 
L 371.883125 197.594975 
L 382.753255 200.033745 
L 393.623385 203.449449 
L 404.493515 204.64031 
L 415.363644 207.556851 
L 447.974034 218.395828 
L 458.844164 230.21174 
L 469.714294 241.628321 
L 480.584424 252.909414 
L 491.454554 262.521876 
L 502.324683 270.173338 
L 513.194813 279.771538 
L 524.064943 288.884836 
L 534.935073 294.518252 
L 545.805203 298.889498 
L 556.675333 292.571515 
L 567.545463 284.370973 
L 578.415593 271.735007 
L 589.285722 257.573027 
L 600.155852 240.280579 
L 611.025982 218.25321 
L 621.896112 201.980482 
L 632.766242 183.39021 
L 643.636372 174.472615 
L 654.506502 156.803814 
L 665.376631 133.778911 
" clip-path="url(#pe3a42e5806)" style="fill: none; stroke: #005aff; stroke-width: 2; stroke-linecap: round"/>
   </g>
   <g id="line2d_40">
    <path d="M 67.519489 105.95253 
L 78.389619 100.60435 
L 89.259748 96.262421 
L 100.129878 96.127726 
L 111.000008 97.403366 
L 121.870138 98.243228 
L 132.740268 100.525118 
L 143.610398 102.932195 
L 154.480528 105.670463 
L 165.350657 112.230897 
L 176.220787 123.048481 
L 187.090917 116.559357 
L 219.701307 126.485578 
L 230.571437 137.631185 
L 241.441567 152.456339 
L 252.311696 160.421561 
L 263.181826 162.953033 
L 274.051956 171.987891 
L 284.922086 182.784083 
L 295.792216 191.754763 
L 306.662346 200.768228 
L 317.532476 201.559759 
L 328.402606 191.141505 
L 339.272735 186.192656 
L 350.142865 177.778187 
L 361.012995 172.430007 
L 371.883125 171.609953 
L 382.753255 169.46355 
L 393.623385 166.268904 
L 404.493515 168.800376 
L 415.363644 171.759702 
L 426.233774 186.164132 
L 437.103904 194.371805 
L 447.974034 196.496815 
L 458.844164 204.747274 
L 469.714294 210.159632 
L 480.584424 216.663018 
L 491.454554 218.467137 
L 502.324683 219.401286 
L 513.194813 212.762412 
L 524.064943 212.862245 
L 534.935073 211.058126 
L 545.805203 202.258588 
L 556.675333 199.142382 
L 567.545463 196.418375 
L 578.415593 193.829856 
L 589.285722 192.310973 
L 600.155852 183.561351 
L 611.025982 174.982871 
L 621.896112 172.194687 
L 632.766242 159.993706 
L 643.636372 143.285993 
L 654.506502 132.104732 
L 665.376631 125.016612 
" clip-path="url(#pe3a42e5806)" style="fill: none; stroke: #2b4562; stroke-width: 2; stroke-linecap: round"/>
   </g>
   <g id="line2d_41">
    <path d="M 67.519489 103.595369 
L 78.389619 90.93088 
L 89.259748 83.343596 
L 100.129878 82.238305 
L 111.000008 79.83519 
L 121.870138 78.337699 
L 132.740268 78.508841 
L 143.610398 93.462352 
L 154.480528 105.107121 
L 165.350657 101.413312 
L 176.220787 111.62477 
L 187.090917 117.236793 
L 197.961047 113.628554 
L 208.831177 113.329056 
L 219.701307 117.678909 
L 230.571437 118.613058 
L 241.441567 122.95578 
L 252.311696 111.204046 
L 263.181826 111.196915 
L 274.051956 110.940203 
L 284.922086 115.397019 
L 295.792216 104.493863 
L 306.662346 107.645724 
L 317.532476 103.039159 
L 328.402606 95.993823 
L 339.272735 92.74213 
L 350.142865 85.076406 
L 361.012995 87.622139 
L 393.623385 95.601623 
L 404.493515 110.740537 
L 415.363644 118.527487 
L 426.233774 137.916421 
L 437.103904 147.864035 
L 447.974034 164.785675 
L 458.844164 171.524382 
L 469.714294 180.003029 
L 480.584424 194.742612 
L 491.454554 211.01534 
L 502.324683 199.242214 
L 513.194813 198.015698 
L 524.064943 199.734247 
L 534.935073 200.689788 
L 545.805203 201.923435 
L 556.675333 207.884873 
L 567.545463 209.303923 
L 578.415593 219.130312 
L 589.285722 226.653418 
L 600.155852 228.207955 
L 611.025982 241.000801 
L 621.896112 229.947896 
L 632.766242 217.475941 
L 643.636372 218.067807 
L 654.506502 222.289303 
L 665.376631 219.501119 
" clip-path="url(#pe3a42e5806)" style="fill: none; stroke: #900000; stroke-width: 2; stroke-linecap: round"/>
   </g>
   <g id="line2d_42">
    <path d="M 67.519489 209.475065 
L 78.389619 198.372244 
L 89.259748 171.652738 
L 100.129878 148.705482 
L 111.000008 137.745279 
L 121.870138 144.541033 
L 132.740268 148.862362 
L 143.610398 140.184049 
L 154.480528 124.738506 
L 165.350657 108.544218 
L 176.220787 115.233008 
L 187.090917 111.86009 
L 219.701307 132.111863 
L 230.571437 150.752052 
L 241.441567 160.050754 
L 252.311696 165.142221 
L 263.181826 172.323043 
L 274.051956 177.771056 
L 284.922086 184.26018 
L 295.792216 185.451042 
L 306.662346 189.879334 
L 317.532476 192.952755 
L 328.402606 189.964905 
L 339.272735 186.734605 
L 350.142865 187.32647 
L 361.012995 184.253049 
L 371.883125 183.611268 
L 382.753255 184.80926 
L 393.623385 183.040795 
L 404.493515 188.752651 
L 437.103904 196.439768 
L 447.974034 205.610113 
L 458.844164 207.266861 
L 469.714294 221.235514 
L 480.584424 227.85141 
L 491.454554 238.516076 
L 502.324683 248.90343 
L 513.194813 257.341669 
L 524.064943 268.125184 
L 534.935073 277.593442 
L 545.805203 280.635962 
L 556.675333 265.439209 
L 567.545463 256.788627 
L 578.415593 244.024305 
L 589.285722 227.666006 
L 600.155852 219.98602 
L 611.025982 204.447776 
L 621.896112 175.731616 
L 632.766242 152.926978 
L 643.636372 140.668951 
L 654.506502 126.560849 
L 665.376631 127.456174 
" clip-path="url(#pe3a42e5806)" style="fill: none; stroke: #ffffff; stroke-width: 2; stroke-linecap: round"/>
   </g>
   <g id="line2d_43">
    <path d="M 67.519489 121.021521 
L 78.389619 103.702333 
L 89.259748 107.232131 
L 100.129878 97.034936 
L 111.000008 87.987598 
L 121.870138 104.299546 
L 132.740268 116.217073 
L 143.610398 112.598138 
L 154.480528 111.704794 
L 165.350657 106.824085 
L 176.220787 106.611743 
L 187.090917 113.400365 
L 197.961047 113.336187 
L 208.831177 113.678471 
L 219.701307 119.611385 
L 230.571437 118.377738 
L 241.441567 115.817743 
L 252.311696 107.30344 
L 263.181826 96.949365 
L 274.051956 90.602858 
L 284.922086 88.827263 
L 295.792216 77.08266 
L 306.662346 65.245356 
L 317.532476 57.692141 
L 328.402606 47.201786 
L 339.272735 42.725162 
L 371.883125 41.32275 
L 382.753255 62.945242 
L 393.623385 86.366308 
L 404.493515 106.007993 
L 415.363644 116.046724 
L 426.233774 128.517886 
L 437.103904 148.516117 
L 447.974034 152.534779 
L 458.844164 150.18871 
L 469.714294 164.956817 
L 480.584424 178.847822 
L 491.454554 177.977852 
L 502.324683 179.903197 
L 513.194813 179.318462 
L 524.064943 169.720263 
L 534.935073 178.191779 
L 545.805203 179.717793 
L 556.675333 180.908654 
L 567.545463 199.983828 
L 578.415593 190.891923 
L 589.285722 188.217833 
L 600.155852 181.336509 
L 611.025982 173.250061 
L 621.896112 167.523943 
L 632.766242 169.377979 
L 643.636372 161.890528 
L 654.506502 152.342244 
L 665.376631 140.968449 
" clip-path="url(#pe3a42e5806)" style="fill: none; stroke: #ffffff; stroke-width: 2; stroke-linecap: round"/>
   </g>
   <g id="line2d_44">
    <path d="M 67.519489 143.870728 
L 78.389619 159.2307 
L 89.259748 149.896343 
L 100.129878 165.455981 
L 111.000008 172.708112 
L 121.870138 180.815953 
L 132.740268 183.07645 
L 143.610398 185.087365 
L 154.480528 189.84368 
L 165.350657 199.20656 
L 176.220787 192.581948 
L 187.090917 183.925028 
L 197.961047 190.742174 
L 208.831177 180.0886 
L 219.701307 174.847384 
L 230.571437 168.543663 
L 263.181826 184.352882 
L 274.051956 195.783725 
L 284.922086 205.203652 
L 295.792216 218.581232 
L 306.662346 228.450406 
L 317.532476 239.203813 
L 328.402606 250.014266 
L 339.272735 262.5504 
L 350.142865 276.106252 
L 361.012995 292.528729 
L 371.883125 294.596692 
L 382.753255 299.688159 
L 393.623385 304.344641 
L 404.493515 304.950768 
L 415.363644 308.373603 
L 426.233774 308.808588 
L 437.103904 309.792653 
L 447.974034 310.705409 
L 458.844164 309.92814 
L 469.714294 308.373603 
L 480.584424 307.995665 
L 491.454554 307.596334 
L 502.324683 310.113544 
L 513.194813 308.03845 
L 524.064943 306.783411 
L 534.935073 306.084582 
L 545.805203 299.338745 
L 556.675333 296.457859 
L 567.545463 297.406269 
L 578.415593 297.748553 
L 589.285722 298.525821 
L 600.155852 295.324044 
L 611.025982 291.138203 
L 621.896112 287.087848 
L 632.766242 282.623901 
" clip-path="url(#pe3a42e5806)" style="fill: none; stroke: #00d2be; stroke-width: 2; stroke-linecap: round"/>
   </g>
   <g id="line2d_45">
    <path d="M 67.519489 280.168492 
L 78.389619 264.005104 
L 89.259748 245.124049 
L 100.129878 223.327246 
L 111.000008 201.062972 
L 121.870138 179.725716 
L 132.740268 158.364691 
L 143.610398 129.864835 
L 154.480528 105.389981 
L 165.350657 84.036878 
L 176.220787 82.331007 
L 187.090917 81.689225 
L 197.961047 73.22484 
L 230.571437 81.938807 
L 241.441567 89.162415 
L 252.311696 95.815551 
L 263.181826 103.638155 
L 274.051956 117.286709 
L 284.922086 131.070751 
L 295.792216 143.050673 
L 306.662346 152.584695 
L 317.532476 162.061669 
L 328.402606 175.924151 
L 339.272735 171.210622 
L 350.142865 169.784441 
L 361.012995 168.023107 
L 371.883125 166.675366 
L 382.753255 166.903555 
L 393.623385 166.283166 
L 404.493515 165.427457 
L 415.363644 164.714366 
L 426.233774 163.937098 
L 437.103904 160.393037 
L 447.974034 160.606964 
L 480.584424 171.424549 
L 491.454554 183.989206 
L 502.324683 193.758547 
L 513.194813 204.362205 
L 524.064943 214.723412 
L 534.935073 227.466341 
L 545.805203 223.658437 
L 556.675333 234.433236 
L 567.545463 243.646367 
L 578.415593 233.327946 
L 589.285722 227.373639 
L 600.155852 214.338343 
L 611.025982 204.782928 
L 621.896112 188.852484 
L 632.766242 179.385017 
" clip-path="url(#pe3a42e5806)" style="fill: none; stroke: #005aff; stroke-width: 2; stroke-linecap: round"/>
   </g>
   <g id="line2d_46">
    <path d="M 67.519489 163.380095 
L 78.389619 173.490135 
L 89.259748 165.242053 
L 100.129878 161.684524 
L 111.000008 175.280785 
L 121.870138 173.395056 
L 132.740268 171.200322 
L 143.610398 169.30667 
L 154.480528 170.978471 
L 165.350657 166.760936 
L 176.220787 166.062108 
L 187.090917 158.738667 
L 197.961047 149.653892 
L 208.831177 145.453789 
L 219.701307 132.95331 
L 230.571437 128.653374 
L 241.441567 128.553541 
L 274.051956 136.960879 
L 284.922086 147.043981 
L 295.792216 152.976895 
L 306.662346 166.154809 
L 317.532476 176.8583 
L 328.402606 192.574817 
" clip-path="url(#pe3a42e5806)" style="fill: none; stroke: #0090ff; stroke-width: 2; stroke-linecap: round"/>
   </g>
   <g id="line2d_47"/>
   <g id="line2d_48"/>
   <g id="line2d_49"/>
   <g id="line2d_50"/>
   <g id="line2d_51"/>
   <g id="line2d_52"/>
   <g id="line2d_53"/>
   <g id="line2d_54"/>
   <g id="line2d_55"/>
   <g id="line2d_56"/>
   <g id="line2d_57"/>
   <g id="line2d_58"/>
   <g id="line2d_59"/>
   <g id="line2d_60"/>
   <g id="line2d_61"/>
   <g id="line2d_62"/>
   <g id="line2d_63"/>
   <g id="line2d_64"/>
   <g id="line2d_65"/>
   <g id="line2d_66"/>
   <g id="patch_3">
    <path d="M 37.083125 411.76275 
L 37.083125 23.68275 
" style="fill: none; stroke: #bcbcbc; stroke-linejoin: miter; stroke-linecap: square"/>
   </g>
   <g id="patch_4">
    <path d="M 706.683125 411.76275 
L 706.683125 23.68275 
" style="fill: none; stroke: #bcbcbc; stroke-linejoin: miter; stroke-linecap: square"/>
   </g>
   <g id="patch_5">
    <path d="M 37.083125 411.76275 
L 706.683125 411.76275 
" style="fill: none; stroke: #bcbcbc; stroke-linejoin: miter; stroke-linecap: square"/>
   </g>
   <g id="patch_6">
    <path d="M 37.083125 23.68275 
L 706.683125 23.68275 
" style="fill: none; stroke: #bcbcbc; stroke-linejoin: miter; stroke-linecap: square"/>
   </g>
   <g id="text_16">
    <!-- 2022 Abu Dhabi Grand Prix - Smoothed Racepace -->
    <g style="fill: #262626" transform="translate(210.59525 17.68275)scale(0.144 -0.144)">
     <defs>
      <path id="ArialMT-41" d="M -9 0 
L 1750 4581 
L 2403 4581 
L 4278 0 
L 3588 0 
L 3053 1388 
L 1138 1388 
L 634 0 
L -9 0 
z
M 1313 1881 
L 2866 1881 
L 2388 3150 
Q 2169 3728 2063 4100 
Q 1975 3659 1816 3225 
L 1313 1881 
z
" transform="scale(0.015625)"/>
      <path id="ArialMT-44" d="M 494 0 
L 494 4581 
L 2072 4581 
Q 2606 4581 2888 4516 
Q 3281 4425 3559 4188 
Q 3922 3881 4101 3404 
Q 4281 2928 4281 2316 
Q 4281 1794 4159 1391 
Q 4038 988 3847 723 
Q 3656 459 3429 307 
Q 3203 156 2883 78 
Q 2563 0 2147 0 
L 494 0 
z
M 1100 541 
L 2078 541 
Q 2531 541 2789 625 
Q 3047 709 3200 863 
Q 3416 1078 3536 1442 
Q 3656 1806 3656 2325 
Q 3656 3044 3420 3430 
Q 3184 3816 2847 3947 
Q 2603 4041 2063 4041 
L 1100 4041 
L 1100 541 
z
" transform="scale(0.015625)"/>
      <path id="ArialMT-68" d="M 422 0 
L 422 4581 
L 984 4581 
L 984 2938 
Q 1378 3394 1978 3394 
Q 2347 3394 2619 3248 
Q 2891 3103 3008 2847 
Q 3125 2591 3125 2103 
L 3125 0 
L 2563 0 
L 2563 2103 
Q 2563 2525 2380 2717 
Q 2197 2909 1863 2909 
Q 1613 2909 1392 2779 
Q 1172 2650 1078 2428 
Q 984 2206 984 1816 
L 984 0 
L 422 0 
z
" transform="scale(0.015625)"/>
      <path id="ArialMT-47" d="M 2638 1797 
L 2638 2334 
L 4578 2338 
L 4578 638 
Q 4131 281 3656 101 
Q 3181 -78 2681 -78 
Q 2006 -78 1454 211 
Q 903 500 622 1047 
Q 341 1594 341 2269 
Q 341 2938 620 3517 
Q 900 4097 1425 4378 
Q 1950 4659 2634 4659 
Q 3131 4659 3532 4498 
Q 3934 4338 4162 4050 
Q 4391 3763 4509 3300 
L 3963 3150 
Q 3859 3500 3706 3700 
Q 3553 3900 3268 4020 
Q 2984 4141 2638 4141 
Q 2222 4141 1919 4014 
Q 1616 3888 1430 3681 
Q 1244 3475 1141 3228 
Q 966 2803 966 2306 
Q 966 1694 1177 1281 
Q 1388 869 1791 669 
Q 2194 469 2647 469 
Q 3041 469 3416 620 
Q 3791 772 3984 944 
L 3984 1797 
L 2638 1797 
z
" transform="scale(0.015625)"/>
      <path id="ArialMT-6e" d="M 422 0 
L 422 3319 
L 928 3319 
L 928 2847 
Q 1294 3394 1984 3394 
Q 2284 3394 2536 3286 
Q 2788 3178 2913 3003 
Q 3038 2828 3088 2588 
Q 3119 2431 3119 2041 
L 3119 0 
L 2556 0 
L 2556 2019 
Q 2556 2363 2490 2533 
Q 2425 2703 2258 2804 
Q 2091 2906 1866 2906 
Q 1506 2906 1245 2678 
Q 984 2450 984 1813 
L 984 0 
L 422 0 
z
" transform="scale(0.015625)"/>
      <path id="ArialMT-64" d="M 2575 0 
L 2575 419 
Q 2259 -75 1647 -75 
Q 1250 -75 917 144 
Q 584 363 401 755 
Q 219 1147 219 1656 
Q 219 2153 384 2558 
Q 550 2963 881 3178 
Q 1213 3394 1622 3394 
Q 1922 3394 2156 3267 
Q 2391 3141 2538 2938 
L 2538 4581 
L 3097 4581 
L 3097 0 
L 2575 0 
z
M 797 1656 
Q 797 1019 1065 703 
Q 1334 388 1700 388 
Q 2069 388 2326 689 
Q 2584 991 2584 1609 
Q 2584 2291 2321 2609 
Q 2059 2928 1675 2928 
Q 1300 2928 1048 2622 
Q 797 2316 797 1656 
z
" transform="scale(0.015625)"/>
      <path id="ArialMT-50" d="M 494 0 
L 494 4581 
L 2222 4581 
Q 2678 4581 2919 4538 
Q 3256 4481 3484 4323 
Q 3713 4166 3852 3881 
Q 3991 3597 3991 3256 
Q 3991 2672 3619 2267 
Q 3247 1863 2275 1863 
L 1100 1863 
L 1100 0 
L 494 0 
z
M 1100 2403 
L 2284 2403 
Q 2872 2403 3119 2622 
Q 3366 2841 3366 3238 
Q 3366 3525 3220 3729 
Q 3075 3934 2838 4000 
Q 2684 4041 2272 4041 
L 1100 4041 
L 1100 2403 
z
" transform="scale(0.015625)"/>
      <path id="ArialMT-78" d="M 47 0 
L 1259 1725 
L 138 3319 
L 841 3319 
L 1350 2541 
Q 1494 2319 1581 2169 
Q 1719 2375 1834 2534 
L 2394 3319 
L 3066 3319 
L 1919 1756 
L 3153 0 
L 2463 0 
L 1781 1031 
L 1600 1309 
L 728 0 
L 47 0 
z
" transform="scale(0.015625)"/>
      <path id="ArialMT-2d" d="M 203 1375 
L 203 1941 
L 1931 1941 
L 1931 1375 
L 203 1375 
z
" transform="scale(0.015625)"/>
      <path id="ArialMT-53" d="M 288 1472 
L 859 1522 
Q 900 1178 1048 958 
Q 1197 738 1509 602 
Q 1822 466 2213 466 
Q 2559 466 2825 569 
Q 3091 672 3220 851 
Q 3350 1031 3350 1244 
Q 3350 1459 3225 1620 
Q 3100 1781 2813 1891 
Q 2628 1963 1997 2114 
Q 1366 2266 1113 2400 
Q 784 2572 623 2826 
Q 463 3081 463 3397 
Q 463 3744 659 4045 
Q 856 4347 1234 4503 
Q 1613 4659 2075 4659 
Q 2584 4659 2973 4495 
Q 3363 4331 3572 4012 
Q 3781 3694 3797 3291 
L 3216 3247 
Q 3169 3681 2898 3903 
Q 2628 4125 2100 4125 
Q 1550 4125 1298 3923 
Q 1047 3722 1047 3438 
Q 1047 3191 1225 3031 
Q 1400 2872 2139 2705 
Q 2878 2538 3153 2413 
Q 3553 2228 3743 1945 
Q 3934 1663 3934 1294 
Q 3934 928 3725 604 
Q 3516 281 3123 101 
Q 2731 -78 2241 -78 
Q 1619 -78 1198 103 
Q 778 284 539 648 
Q 300 1013 288 1472 
z
" transform="scale(0.015625)"/>
      <path id="ArialMT-6f" d="M 213 1659 
Q 213 2581 725 3025 
Q 1153 3394 1769 3394 
Q 2453 3394 2887 2945 
Q 3322 2497 3322 1706 
Q 3322 1066 3130 698 
Q 2938 331 2570 128 
Q 2203 -75 1769 -75 
Q 1072 -75 642 372 
Q 213 819 213 1659 
z
M 791 1659 
Q 791 1022 1069 705 
Q 1347 388 1769 388 
Q 2188 388 2466 706 
Q 2744 1025 2744 1678 
Q 2744 2294 2464 2611 
Q 2184 2928 1769 2928 
Q 1347 2928 1069 2612 
Q 791 2297 791 1659 
z
" transform="scale(0.015625)"/>
      <path id="ArialMT-74" d="M 1650 503 
L 1731 6 
Q 1494 -44 1306 -44 
Q 1000 -44 831 53 
Q 663 150 594 308 
Q 525 466 525 972 
L 525 2881 
L 113 2881 
L 113 3319 
L 525 3319 
L 525 4141 
L 1084 4478 
L 1084 3319 
L 1650 3319 
L 1650 2881 
L 1084 2881 
L 1084 941 
Q 1084 700 1114 631 
Q 1144 563 1211 522 
Q 1278 481 1403 481 
Q 1497 481 1650 503 
z
" transform="scale(0.015625)"/>
      <path id="ArialMT-52" d="M 503 0 
L 503 4581 
L 2534 4581 
Q 3147 4581 3465 4457 
Q 3784 4334 3975 4021 
Q 4166 3709 4166 3331 
Q 4166 2844 3850 2509 
Q 3534 2175 2875 2084 
Q 3116 1969 3241 1856 
Q 3506 1613 3744 1247 
L 4541 0 
L 3778 0 
L 3172 953 
Q 2906 1366 2734 1584 
Q 2563 1803 2427 1890 
Q 2291 1978 2150 2013 
Q 2047 2034 1813 2034 
L 1109 2034 
L 1109 0 
L 503 0 
z
M 1109 2559 
L 2413 2559 
Q 2828 2559 3062 2645 
Q 3297 2731 3419 2920 
Q 3541 3109 3541 3331 
Q 3541 3656 3305 3865 
Q 3069 4075 2559 4075 
L 1109 4075 
L 1109 2559 
z
" transform="scale(0.015625)"/>
      <path id="ArialMT-63" d="M 2588 1216 
L 3141 1144 
Q 3050 572 2676 248 
Q 2303 -75 1759 -75 
Q 1078 -75 664 370 
Q 250 816 250 1647 
Q 250 2184 428 2587 
Q 606 2991 970 3192 
Q 1334 3394 1763 3394 
Q 2303 3394 2647 3120 
Q 2991 2847 3088 2344 
L 2541 2259 
Q 2463 2594 2264 2762 
Q 2066 2931 1784 2931 
Q 1359 2931 1093 2626 
Q 828 2322 828 1663 
Q 828 994 1084 691 
Q 1341 388 1753 388 
Q 2084 388 2306 591 
Q 2528 794 2588 1216 
z
" transform="scale(0.015625)"/>
     </defs>
     <use xlink:href="#ArialMT-32"/>
     <use xlink:href="#ArialMT-30" x="55.615234"/>
     <use xlink:href="#ArialMT-32" x="111.230469"/>
     <use xlink:href="#ArialMT-32" x="166.845703"/>
     <use xlink:href="#ArialMT-20" x="222.460938"/>
     <use xlink:href="#ArialMT-41" x="244.744141"/>
     <use xlink:href="#ArialMT-62" x="311.443359"/>
     <use xlink:href="#ArialMT-75" x="367.058594"/>
     <use xlink:href="#ArialMT-20" x="422.673828"/>
     <use xlink:href="#ArialMT-44" x="450.457031"/>
     <use xlink:href="#ArialMT-68" x="522.673828"/>
     <use xlink:href="#ArialMT-61" x="578.289062"/>
     <use xlink:href="#ArialMT-62" x="633.904297"/>
     <use xlink:href="#ArialMT-69" x="689.519531"/>
     <use xlink:href="#ArialMT-20" x="711.736328"/>
     <use xlink:href="#ArialMT-47" x="739.519531"/>
     <use xlink:href="#ArialMT-72" x="817.302734"/>
     <use xlink:href="#ArialMT-61" x="850.603516"/>
     <use xlink:href="#ArialMT-6e" x="906.21875"/>
     <use xlink:href="#ArialMT-64" x="961.833984"/>
     <use xlink:href="#ArialMT-20" x="1017.449219"/>
     <use xlink:href="#ArialMT-50" x="1045.232422"/>
     <use xlink:href="#ArialMT-72" x="1111.931641"/>
     <use xlink:href="#ArialMT-69" x="1145.232422"/>
     <use xlink:href="#ArialMT-78" x="1167.449219"/>
     <use xlink:href="#ArialMT-20" x="1217.449219"/>
     <use xlink:href="#ArialMT-2d" x="1245.232422"/>
     <use xlink:href="#ArialMT-20" x="1278.533203"/>
     <use xlink:href="#ArialMT-53" x="1306.316406"/>
     <use xlink:href="#ArialMT-6d" x="1373.015625"/>
     <use xlink:href="#ArialMT-6f" x="1456.316406"/>
     <use xlink:href="#ArialMT-6f" x="1511.931641"/>
     <use xlink:href="#ArialMT-74" x="1567.546875"/>
     <use xlink:href="#ArialMT-68" x="1595.330078"/>
     <use xlink:href="#ArialMT-65" x="1650.945312"/>
     <use xlink:href="#ArialMT-64" x="1706.560547"/>
     <use xlink:href="#ArialMT-20" x="1762.175781"/>
     <use xlink:href="#ArialMT-52" x="1789.958984"/>
     <use xlink:href="#ArialMT-61" x="1862.175781"/>
     <use xlink:href="#ArialMT-63" x="1917.791016"/>
     <use xlink:href="#ArialMT-65" x="1967.791016"/>
     <use xlink:href="#ArialMT-70" x="2023.40625"/>
     <use xlink:href="#ArialMT-61" x="2079.021484"/>
     <use xlink:href="#ArialMT-63" x="2134.636719"/>
     <use xlink:href="#ArialMT-65" x="2184.636719"/>
    </g>
   </g>
   <g id="legend_1">
    <g id="text_17">
     <!-- Driver -->
     <g style="fill: #262626" transform="translate(658.962031 39.840562)scale(0.1 -0.1)">
      <defs>
       <path id="ArialMT-76" d="M 1344 0 
L 81 3319 
L 675 3319 
L 1388 1331 
Q 1503 1009 1600 663 
Q 1675 925 1809 1294 
L 2547 3319 
L 3125 3319 
L 1869 0 
L 1344 0 
z
" transform="scale(0.015625)"/>
      </defs>
      <use xlink:href="#ArialMT-44"/>
      <use xlink:href="#ArialMT-72" x="72.216797"/>
      <use xlink:href="#ArialMT-69" x="105.517578"/>
      <use xlink:href="#ArialMT-76" x="127.734375"/>
      <use xlink:href="#ArialMT-65" x="177.734375"/>
      <use xlink:href="#ArialMT-72" x="233.349609"/>
     </g>
    </g>
    <g id="line2d_67">
     <path d="M 646.905 50.485875 
L 656.905 50.485875 
L 666.905 50.485875 
" style="fill: none; stroke: #0600ef; stroke-width: 2; stroke-linecap: round"/>
    </g>
    <g id="text_18">
     <!-- VER -->
     <g style="fill: #262626" transform="translate(674.905 53.985875)scale(0.1 -0.1)">
      <defs>
       <path id="ArialMT-56" d="M 1803 0 
L 28 4581 
L 684 4581 
L 1875 1253 
Q 2019 853 2116 503 
Q 2222 878 2363 1253 
L 3600 4581 
L 4219 4581 
L 2425 0 
L 1803 0 
z
" transform="scale(0.015625)"/>
       <path id="ArialMT-45" d="M 506 0 
L 506 4581 
L 3819 4581 
L 3819 4041 
L 1113 4041 
L 1113 2638 
L 3647 2638 
L 3647 2100 
L 1113 2100 
L 1113 541 
L 3925 541 
L 3925 0 
L 506 0 
z
" transform="scale(0.015625)"/>
      </defs>
      <use xlink:href="#ArialMT-56"/>
      <use xlink:href="#ArialMT-45" x="66.699219"/>
      <use xlink:href="#ArialMT-52" x="133.398438"/>
     </g>
    </g>
    <g id="line2d_68">
     <path d="M 646.905 64.631187 
L 656.905 64.631187 
L 666.905 64.631187 
" style="fill: none; stroke: #dc0000; stroke-width: 2; stroke-linecap: round"/>
    </g>
    <g id="text_19">
     <!-- LEC -->
     <g style="fill: #262626" transform="translate(674.905 68.131187)scale(0.1 -0.1)">
      <defs>
       <path id="ArialMT-43" d="M 3763 1606 
L 4369 1453 
Q 4178 706 3683 314 
Q 3188 -78 2472 -78 
Q 1731 -78 1267 223 
Q 803 525 561 1097 
Q 319 1669 319 2325 
Q 319 3041 592 3573 
Q 866 4106 1370 4382 
Q 1875 4659 2481 4659 
Q 3169 4659 3637 4309 
Q 4106 3959 4291 3325 
L 3694 3184 
Q 3534 3684 3231 3912 
Q 2928 4141 2469 4141 
Q 1941 4141 1586 3887 
Q 1231 3634 1087 3207 
Q 944 2781 944 2328 
Q 944 1744 1114 1308 
Q 1284 872 1643 656 
Q 2003 441 2422 441 
Q 2931 441 3284 734 
Q 3638 1028 3763 1606 
z
" transform="scale(0.015625)"/>
      </defs>
      <use xlink:href="#ArialMT-4c"/>
      <use xlink:href="#ArialMT-45" x="55.615234"/>
      <use xlink:href="#ArialMT-43" x="122.314453"/>
     </g>
    </g>
    <g id="line2d_69">
     <path d="M 646.905 78.7765 
L 656.905 78.7765 
L 666.905 78.7765 
" style="fill: none; stroke: #0600ef; stroke-width: 2; stroke-linecap: round"/>
    </g>
    <g id="text_20">
     <!-- PER -->
     <g style="fill: #262626" transform="translate(674.905 82.2765)scale(0.1 -0.1)">
      <use xlink:href="#ArialMT-50"/>
      <use xlink:href="#ArialMT-45" x="66.699219"/>
      <use xlink:href="#ArialMT-52" x="133.398438"/>
     </g>
    </g>
    <g id="line2d_70">
     <path d="M 646.905 92.921812 
L 656.905 92.921812 
L 666.905 92.921812 
" style="fill: none; stroke: #dc0000; stroke-width: 2; stroke-linecap: round"/>
    </g>
    <g id="text_21">
     <!-- SAI -->
     <g style="fill: #262626" transform="translate(674.905 96.421812)scale(0.1 -0.1)">
      <defs>
       <path id="ArialMT-49" d="M 597 0 
L 597 4581 
L 1203 4581 
L 1203 0 
L 597 0 
z
" transform="scale(0.015625)"/>
      </defs>
      <use xlink:href="#ArialMT-53"/>
      <use xlink:href="#ArialMT-41" x="66.699219"/>
      <use xlink:href="#ArialMT-49" x="133.398438"/>
     </g>
    </g>
    <g id="line2d_71">
     <path d="M 646.905 107.067125 
L 656.905 107.067125 
L 666.905 107.067125 
" style="fill: none; stroke: #00d2be; stroke-width: 2; stroke-linecap: round"/>
    </g>
    <g id="text_22">
     <!-- RUS -->
     <g style="fill: #262626" transform="translate(674.905 110.567125)scale(0.1 -0.1)">
      <defs>
       <path id="ArialMT-55" d="M 3500 4581 
L 4106 4581 
L 4106 1934 
Q 4106 1244 3950 837 
Q 3794 431 3386 176 
Q 2978 -78 2316 -78 
Q 1672 -78 1262 144 
Q 853 366 678 786 
Q 503 1206 503 1934 
L 503 4581 
L 1109 4581 
L 1109 1938 
Q 1109 1341 1220 1058 
Q 1331 775 1601 622 
Q 1872 469 2263 469 
Q 2931 469 3215 772 
Q 3500 1075 3500 1938 
L 3500 4581 
z
" transform="scale(0.015625)"/>
      </defs>
      <use xlink:href="#ArialMT-52"/>
      <use xlink:href="#ArialMT-55" x="72.216797"/>
      <use xlink:href="#ArialMT-53" x="144.433594"/>
     </g>
    </g>
    <g id="line2d_72">
     <path d="M 646.905 121.212437 
L 656.905 121.212437 
L 666.905 121.212437 
" style="fill: none; stroke: #ff8700; stroke-width: 2; stroke-linecap: round"/>
    </g>
    <g id="text_23">
     <!-- NOR -->
     <g style="fill: #262626" transform="translate(674.905 124.712437)scale(0.1 -0.1)">
      <defs>
       <path id="ArialMT-4f" d="M 309 2231 
Q 309 3372 921 4017 
Q 1534 4663 2503 4663 
Q 3138 4663 3647 4359 
Q 4156 4056 4423 3514 
Q 4691 2972 4691 2284 
Q 4691 1588 4409 1038 
Q 4128 488 3612 205 
Q 3097 -78 2500 -78 
Q 1853 -78 1343 234 
Q 834 547 571 1087 
Q 309 1628 309 2231 
z
M 934 2222 
Q 934 1394 1379 917 
Q 1825 441 2497 441 
Q 3181 441 3623 922 
Q 4066 1403 4066 2288 
Q 4066 2847 3877 3264 
Q 3688 3681 3323 3911 
Q 2959 4141 2506 4141 
Q 1863 4141 1398 3698 
Q 934 3256 934 2222 
z
" transform="scale(0.015625)"/>
      </defs>
      <use xlink:href="#ArialMT-4e"/>
      <use xlink:href="#ArialMT-4f" x="72.216797"/>
      <use xlink:href="#ArialMT-52" x="150"/>
     </g>
    </g>
    <g id="line2d_73">
     <path d="M 646.905 135.35775 
L 656.905 135.35775 
L 666.905 135.35775 
" style="fill: none; stroke: #0090ff; stroke-width: 2; stroke-linecap: round"/>
    </g>
    <g id="text_24">
     <!-- OCO -->
     <g style="fill: #262626" transform="translate(674.905 138.85775)scale(0.1 -0.1)">
      <use xlink:href="#ArialMT-4f"/>
      <use xlink:href="#ArialMT-43" x="77.783203"/>
      <use xlink:href="#ArialMT-4f" x="150"/>
     </g>
    </g>
    <g id="line2d_74">
     <path d="M 646.905 149.503062 
L 656.905 149.503062 
L 666.905 149.503062 
" style="fill: none; stroke: #006f62; stroke-width: 2; stroke-linecap: round"/>
    </g>
    <g id="text_25">
     <!-- STR -->
     <g style="fill: #262626" transform="translate(674.905 153.003062)scale(0.1 -0.1)">
      <use xlink:href="#ArialMT-53"/>
      <use xlink:href="#ArialMT-54" x="66.699219"/>
      <use xlink:href="#ArialMT-52" x="127.783203"/>
     </g>
    </g>
    <g id="line2d_75">
     <path d="M 646.905 163.648375 
L 656.905 163.648375 
L 666.905 163.648375 
" style="fill: none; stroke: #ff8700; stroke-width: 2; stroke-linecap: round"/>
    </g>
    <g id="text_26">
     <!-- RIC -->
     <g style="fill: #262626" transform="translate(674.905 167.148375)scale(0.1 -0.1)">
      <use xlink:href="#ArialMT-52"/>
      <use xlink:href="#ArialMT-49" x="72.216797"/>
      <use xlink:href="#ArialMT-43" x="100"/>
     </g>
    </g>
    <g id="line2d_76">
     <path d="M 646.905 177.793687 
L 656.905 177.793687 
L 666.905 177.793687 
" style="fill: none; stroke: #006f62; stroke-width: 2; stroke-linecap: round"/>
    </g>
    <g id="text_27">
     <!-- VET -->
     <g style="fill: #262626" transform="translate(674.905 181.293687)scale(0.1 -0.1)">
      <use xlink:href="#ArialMT-56"/>
      <use xlink:href="#ArialMT-45" x="66.699219"/>
      <use xlink:href="#ArialMT-54" x="133.398438"/>
     </g>
    </g>
    <g id="line2d_77">
     <path d="M 646.905 191.939 
L 656.905 191.939 
L 666.905 191.939 
" style="fill: none; stroke: #2b4562; stroke-width: 2; stroke-linecap: round"/>
    </g>
    <g id="text_28">
     <!-- TSU -->
     <g style="fill: #262626" transform="translate(674.905 195.439)scale(0.1 -0.1)">
      <use xlink:href="#ArialMT-54"/>
      <use xlink:href="#ArialMT-53" x="61.083984"/>
      <use xlink:href="#ArialMT-55" x="127.783203"/>
     </g>
    </g>
    <g id="line2d_78">
     <path d="M 646.905 206.084312 
L 656.905 206.084312 
L 666.905 206.084312 
" style="fill: none; stroke: #900000; stroke-width: 2; stroke-linecap: round"/>
    </g>
    <g id="text_29">
     <!-- ZHO -->
     <g style="fill: #262626" transform="translate(674.905 209.584312)scale(0.1 -0.1)">
      <defs>
       <path id="ArialMT-5a" d="M 128 0 
L 128 563 
L 2475 3497 
Q 2725 3809 2950 4041 
L 394 4041 
L 394 4581 
L 3675 4581 
L 3675 4041 
L 1103 863 
L 825 541 
L 3750 541 
L 3750 0 
L 128 0 
z
" transform="scale(0.015625)"/>
       <path id="ArialMT-48" d="M 513 0 
L 513 4581 
L 1119 4581 
L 1119 2700 
L 3500 2700 
L 3500 4581 
L 4106 4581 
L 4106 0 
L 3500 0 
L 3500 2159 
L 1119 2159 
L 1119 0 
L 513 0 
z
" transform="scale(0.015625)"/>
      </defs>
      <use xlink:href="#ArialMT-5a"/>
      <use xlink:href="#ArialMT-48" x="61.083984"/>
      <use xlink:href="#ArialMT-4f" x="133.300781"/>
     </g>
    </g>
    <g id="line2d_79">
     <path d="M 646.905 220.229625 
L 656.905 220.229625 
L 666.905 220.229625 
" style="fill: none; stroke: #005aff; stroke-width: 2; stroke-linecap: round"/>
    </g>
    <g id="text_30">
     <!-- ALB -->
     <g style="fill: #262626" transform="translate(674.905 223.729625)scale(0.1 -0.1)">
      <defs>
       <path id="ArialMT-42" d="M 469 0 
L 469 4581 
L 2188 4581 
Q 2713 4581 3030 4442 
Q 3347 4303 3526 4014 
Q 3706 3725 3706 3409 
Q 3706 3116 3547 2856 
Q 3388 2597 3066 2438 
Q 3481 2316 3704 2022 
Q 3928 1728 3928 1328 
Q 3928 1006 3792 729 
Q 3656 453 3456 303 
Q 3256 153 2954 76 
Q 2653 0 2216 0 
L 469 0 
z
M 1075 2656 
L 2066 2656 
Q 2469 2656 2644 2709 
Q 2875 2778 2992 2937 
Q 3109 3097 3109 3338 
Q 3109 3566 3000 3739 
Q 2891 3913 2687 3977 
Q 2484 4041 1991 4041 
L 1075 4041 
L 1075 2656 
z
M 1075 541 
L 2216 541 
Q 2509 541 2628 563 
Q 2838 600 2978 687 
Q 3119 775 3209 942 
Q 3300 1109 3300 1328 
Q 3300 1584 3169 1773 
Q 3038 1963 2805 2039 
Q 2572 2116 2134 2116 
L 1075 2116 
L 1075 541 
z
" transform="scale(0.015625)"/>
      </defs>
      <use xlink:href="#ArialMT-41"/>
      <use xlink:href="#ArialMT-4c" x="66.699219"/>
      <use xlink:href="#ArialMT-42" x="122.314453"/>
     </g>
    </g>
    <g id="line2d_80">
     <path d="M 646.905 234.374937 
L 656.905 234.374937 
L 666.905 234.374937 
" style="fill: none; stroke: #2b4562; stroke-width: 2; stroke-linecap: round"/>
    </g>
    <g id="text_31">
     <!-- GAS -->
     <g style="fill: #262626" transform="translate(674.905 237.874937)scale(0.1 -0.1)">
      <use xlink:href="#ArialMT-47"/>
      <use xlink:href="#ArialMT-41" x="77.783203"/>
      <use xlink:href="#ArialMT-53" x="144.482422"/>
     </g>
    </g>
    <g id="line2d_81">
     <path d="M 646.905 248.52025 
L 656.905 248.52025 
L 666.905 248.52025 
" style="fill: none; stroke: #900000; stroke-width: 2; stroke-linecap: round"/>
    </g>
    <g id="text_32">
     <!-- BOT -->
     <g style="fill: #262626" transform="translate(674.905 252.02025)scale(0.1 -0.1)">
      <use xlink:href="#ArialMT-42"/>
      <use xlink:href="#ArialMT-4f" x="66.699219"/>
      <use xlink:href="#ArialMT-54" x="144.482422"/>
     </g>
    </g>
    <g id="line2d_82">
     <path d="M 646.905 262.665562 
L 656.905 262.665562 
L 666.905 262.665562 
" style="fill: none; stroke: #ffffff; stroke-width: 2; stroke-linecap: round"/>
    </g>
    <g id="text_33">
     <!-- MSC -->
     <g style="fill: #262626" transform="translate(674.905 266.165562)scale(0.1 -0.1)">
      <defs>
       <path id="ArialMT-4d" d="M 475 0 
L 475 4581 
L 1388 4581 
L 2472 1338 
Q 2622 884 2691 659 
Q 2769 909 2934 1394 
L 4031 4581 
L 4847 4581 
L 4847 0 
L 4263 0 
L 4263 3834 
L 2931 0 
L 2384 0 
L 1059 3900 
L 1059 0 
L 475 0 
z
" transform="scale(0.015625)"/>
      </defs>
      <use xlink:href="#ArialMT-4d"/>
      <use xlink:href="#ArialMT-53" x="83.300781"/>
      <use xlink:href="#ArialMT-43" x="150"/>
     </g>
    </g>
    <g id="line2d_83">
     <path d="M 646.905 276.810875 
L 656.905 276.810875 
L 666.905 276.810875 
" style="fill: none; stroke: #ffffff; stroke-width: 2; stroke-linecap: round"/>
    </g>
    <g id="text_34">
     <!-- MAG -->
     <g style="fill: #262626" transform="translate(674.905 280.310875)scale(0.1 -0.1)">
      <use xlink:href="#ArialMT-4d"/>
      <use xlink:href="#ArialMT-41" x="83.300781"/>
      <use xlink:href="#ArialMT-47" x="150"/>
     </g>
    </g>
    <g id="line2d_84">
     <path d="M 646.905 290.956187 
L 656.905 290.956187 
L 666.905 290.956187 
" style="fill: none; stroke: #00d2be; stroke-width: 2; stroke-linecap: round"/>
    </g>
    <g id="text_35">
     <!-- HAM -->
     <g style="fill: #262626" transform="translate(674.905 294.456187)scale(0.1 -0.1)">
      <use xlink:href="#ArialMT-48"/>
      <use xlink:href="#ArialMT-41" x="72.216797"/>
      <use xlink:href="#ArialMT-4d" x="138.916016"/>
     </g>
    </g>
    <g id="line2d_85">
     <path d="M 646.905 305.1015 
L 656.905 305.1015 
L 666.905 305.1015 
" style="fill: none; stroke: #005aff; stroke-width: 2; stroke-linecap: round"/>
    </g>
    <g id="text_36">
     <!-- LAT -->
     <g style="fill: #262626" transform="translate(674.905 308.6015)scale(0.1 -0.1)">
      <use xlink:href="#ArialMT-4c"/>
      <use xlink:href="#ArialMT-41" x="55.615234"/>
      <use xlink:href="#ArialMT-54" x="114.939453"/>
     </g>
    </g>
    <g id="line2d_86">
     <path d="M 646.905 319.246812 
L 656.905 319.246812 
L 666.905 319.246812 
" style="fill: none; stroke: #0090ff; stroke-width: 2; stroke-linecap: round"/>
    </g>
    <g id="text_37">
     <!-- ALO -->
     <g style="fill: #262626" transform="translate(674.905 322.746812)scale(0.1 -0.1)">
      <use xlink:href="#ArialMT-41"/>
      <use xlink:href="#ArialMT-4c" x="66.699219"/>
      <use xlink:href="#ArialMT-4f" x="122.314453"/>
     </g>
    </g>
   </g>
  </g>
  <g id="text_38">
   <!--  2022 Yoann Betton -->
   <g style="fill: #262626" transform="translate(313.741719 398.760562)scale(0.1 -0.1)">
    <defs>
     <path id="ArialMT-a9" d="M 2369 4659 
Q 2963 4659 3528 4354 
Q 4094 4050 4409 3483 
Q 4725 2916 4725 2300 
Q 4725 1691 4414 1128 
Q 4103 566 3542 255 
Q 2981 -56 2369 -56 
Q 1756 -56 1195 255 
Q 634 566 321 1128 
Q 9 1691 9 2300 
Q 9 2916 326 3483 
Q 644 4050 1209 4354 
Q 1775 4659 2369 4659 
z
M 2369 4269 
Q 1872 4269 1401 4014 
Q 931 3759 665 3286 
Q 400 2813 400 2300 
Q 400 1791 661 1323 
Q 922 856 1390 595 
Q 1859 334 2369 334 
Q 2878 334 3347 595 
Q 3816 856 4075 1323 
Q 4334 1791 4334 2300 
Q 4334 2813 4070 3286 
Q 3806 3759 3334 4014 
Q 2863 4269 2369 4269 
z
M 3125 1919 
L 3509 1806 
Q 3416 1416 3111 1183 
Q 2806 950 2372 950 
Q 1822 950 1478 1306 
Q 1134 1663 1134 2294 
Q 1134 2706 1290 3011 
Q 1447 3316 1736 3470 
Q 2025 3625 2397 3625 
Q 2813 3625 3088 3426 
Q 3363 3228 3463 2888 
L 3091 2797 
Q 2997 3028 2814 3151 
Q 2631 3275 2384 3275 
Q 2025 3275 1792 3019 
Q 1559 2763 1559 2284 
Q 1559 1806 1779 1561 
Q 2000 1316 2350 1316 
Q 2631 1316 2843 1478 
Q 3056 1641 3125 1919 
z
" transform="scale(0.015625)"/>
     <path id="ArialMT-59" d="M 1784 0 
L 1784 1941 
L 19 4581 
L 756 4581 
L 1659 3200 
Q 1909 2813 2125 2425 
Q 2331 2784 2625 3234 
L 3513 4581 
L 4219 4581 
L 2391 1941 
L 2391 0 
L 1784 0 
z
" transform="scale(0.015625)"/>
    </defs>
    <use xlink:href="#ArialMT-a9"/>
    <use xlink:href="#ArialMT-20" x="73.681641"/>
    <use xlink:href="#ArialMT-32" x="101.464844"/>
    <use xlink:href="#ArialMT-30" x="157.080078"/>
    <use xlink:href="#ArialMT-32" x="212.695312"/>
    <use xlink:href="#ArialMT-32" x="268.310547"/>
    <use xlink:href="#ArialMT-20" x="323.925781"/>
    <use xlink:href="#ArialMT-59" x="349.958984"/>
    <use xlink:href="#ArialMT-6f" x="407.533203"/>
    <use xlink:href="#ArialMT-61" x="463.148438"/>
    <use xlink:href="#ArialMT-6e" x="518.763672"/>
    <use xlink:href="#ArialMT-6e" x="574.378906"/>
    <use xlink:href="#ArialMT-20" x="629.994141"/>
    <use xlink:href="#ArialMT-42" x="657.777344"/>
    <use xlink:href="#ArialMT-65" x="724.476562"/>
    <use xlink:href="#ArialMT-74" x="780.091797"/>
    <use xlink:href="#ArialMT-74" x="807.875"/>
    <use xlink:href="#ArialMT-6f" x="835.658203"/>
    <use xlink:href="#ArialMT-6e" x="891.273438"/>
   </g>
  </g>
 </g>
 <defs>
  <clipPath id="pe3a42e5806">
   <rect x="37.083125" y="23.68275" width="669.6" height="388.08"/>
  </clipPath>
 </defs>
</svg>
